<svg xmlns="http://www.w3.org/2000/svg" xml:space="preserve"
  style="shape-rendering:geometricPrecision;text-rendering:geometricPrecision;image-rendering:optimizeQuality;fill-rule:evenodd;clip-rule:evenodd"
  viewBox="0 0 120.02 121.48">
  <path fill="#ffffff"
    d="M90.07 9.61a2.01 2.01 0 1 1 0 4.02 2.01 2.01 0 0 1 0-4.02M8.27 65.49c-2.23 0-4.25-1.79-4.25-4.25s1.79-4.25 4.25-4.25 4.25 1.79 4.25 4.25-2.01 4.25-4.25 4.25m6.93-4.25c0-3.8-3.13-6.93-6.93-6.93s-6.93 3.13-6.93 6.93 3.13 6.93 6.93 6.93 6.93-3.13 6.93-6.93m94.99-36.21c-3.8 0-6.93-3.13-6.93-6.93s3.13-6.93 6.93-6.93 6.93 3.13 6.93 6.93-3.13 6.93-6.93 6.93m9.84-6.93c0-5.36-4.47-9.83-9.84-9.83s-9.83 4.47-9.83 9.83 4.47 9.83 9.83 9.83 9.84-4.47 9.84-9.83M73.76 44.7c0 .67.67 1.34 1.34 1.34s1.34-.67 1.34-1.34c0-11.62-7.6-17.88-15.65-25.25q-1.005-.675-2.01 0-.675 1.005 0 2.01C66.6 28.61 73.76 34.2 73.76 44.7m19.89 61.24-26.6-40.23a29 29 0 0 0 8.04-4.69l25.48 38.67a99 99 0 0 1-6.93 6.26zm-12.07 7.38c-2.91 1.34-5.81 2.24-8.72 3.13l-8.27-24.59c-1.12-2.91-7.82-23.02-8.49-25.03 2.9.22 5.59 0 8.27-.45l2.68 4.02 14.53 42.91zm-19.89 5.14q-4.695.33-9.39 0V92.53c0-.22 4.02-12.29 4.69-13.63l4.69 13.63v25.93zm-20.34-2.01c-2.9-.9-5.81-1.79-8.72-3.13l14.53-42.91 3.13-4.69c.89.22 1.56.45 2.46.67l2.68 8.04c-1.79 6.26-12.07 35.99-14.08 42.02m-20.79-10.51c-2.46-2.01-4.69-4.02-6.93-6.48l26.6-40.23c2.23 2.23 4.69 4.02 7.6 5.36zm38-41.8c-4.02 0-7.38-3.35-7.38-7.38 0-4.47 3.8-6.26 7.38-10.06 3.35 4.02 7.38 5.81 7.38 10.06 0 4.02-3.35 7.38-7.38 7.38M40.68 28.6c2.9 6.26 7.6 10.28 14.53 9.39.9-.22 1.34-.89 1.12-1.79-.67-2.23-1.34-4.69-1.79-6.93-1.34-6.71.22-13.63 4.25-19.22 9.61 12.07 22.57 17.44 22.57 31.51 0 9.61-6.03 17.66-14.3 21.01 1.12-1.57 1.79-3.58 1.79-5.81 0-6.26-5.59-8.49-8.94-13.19-.67-.67-1.79-.67-2.24 0-3.35 4.7-8.94 6.71-8.94 13.19 0 2.23.67 4.25 1.79 5.81-8.27-3.35-14.3-11.4-14.3-21.01-.22-4.92 1.34-8.94 4.47-12.96zm62.81 71.97c.45-.45.45-1.12.22-1.79L77.34 59c4.25-4.47 6.7-10.51 6.7-17.21 0-16.32-14.75-21.68-24.36-34.64-.67-.67-1.79-.67-2.24 0-.22.22-.45.67-.67.89-4.92 6.26-6.71 14.3-5.14 21.9.45 1.79.89 3.58 1.34 5.59-4.7 0-8.27-3.35-10.73-9.83-.45-.89-1.57-1.34-2.46-.45-4.69 5.36-6.93 10.51-6.93 16.76 0 5.81 2.01 10.95 5.14 15.2L10.72 98.78c-.45.45-.23 1.12.22 1.79 2.68 3.13 5.81 6.03 9.16 8.49.67.45 1.57.22 2.01-.45l19.22-29.05-11.62 33.97c-.22.67 0 1.34.67 1.79 3.8 1.79 7.6 3.13 11.62 4.24h.45c.67 0 1.12-.45 1.34-.9l6.03-17.88v19c0 .67.45 1.34 1.34 1.34 4.02.45 8.05.45 12.29 0 .67 0 1.34-.67 1.34-1.34v-19l6.04 17.88c.22.67.89 1.12 1.56.9 4.03-1.12 7.82-2.46 11.62-4.24.67-.23.9-1.12.67-1.79L73.06 79.56l19.22 29.05c.45.67 1.34.9 2.01.45 3.35-2.68 6.26-5.36 9.16-8.49zM2.02 87.83a2.01 2.01 0 1 1 0 4.02 2.01 2.01 0 0 1 0-4.02m21.01-50.29a2.01 2.01 0 1 1 0 4.02 2.01 2.01 0 0 1 0-4.02M6.27 12.51a2.01 2.01 0 1 1 0 4.02 2.01 2.01 0 0 1 0-4.02M43.82-.01a2.01 2.01 0 1 1 0 4.02 2.01 2.01 0 0 1 0-4.02m58.11 112.2a2.01 2.01 0 1 1 0 4.02 2.01 2.01 0 0 1 0-4.02m-2.23-52.3a2.01 2.01 0 1 1 0 4.02 2.01 2.01 0 0 1 0-4.02m15.42-19.45a2.01 2.01 0 1 1 0 4.02 2.01 2.01 0 0 1 0-4.02" />
</svg>