<svg xmlns="http://www.w3.org/2000/svg" xml:space="preserve"
  style="shape-rendering:geometricPrecision;text-rendering:geometricPrecision;image-rendering:optimizeQuality;fill-rule:evenodd;clip-rule:evenodd"
  viewBox="0 0 134.68 129.84">
  <path
    d="M34.89 117.96c-.73 0-1.45-.73-1.45-1.45 0-.73.73-1.45 1.45-1.45.73 0 1.45.73 1.45 1.45 0 .73-.73 1.45-1.45 1.45m89.14-104.4c4.12 0 7.51 3.39 7.51 7.51s-3.39 7.51-7.51 7.51-7.51-3.39-7.51-7.51 3.39-7.51 7.51-7.51m0 18.17c5.81 0 10.66-4.85 10.66-10.66s-4.84-10.66-10.66-10.66c-5.81 0-10.66 4.85-10.66 10.66s4.85 10.66 10.66 10.66m-107.31 2.9c2.42 0 4.6 1.94 4.6 4.6 0 2.67-1.94 4.6-4.6 4.6-2.67 0-4.6-1.94-4.6-4.6s1.94-4.6 4.6-4.6m0 12.11c4.12 0 7.51-3.39 7.51-7.51s-3.39-7.51-7.51-7.51-7.51 3.39-7.51 7.51 3.15 7.51 7.51 7.51M8.24 66.6c1.2 0 2.18.98 2.18 2.18s-.98 2.18-2.18 2.18-2.18-.98-2.18-2.18.98-2.18 2.18-2.18m28.83-34.88c1.2 0 2.18.98 2.18 2.18s-.98 2.18-2.18 2.18-2.18-.98-2.18-2.18.98-2.18 2.18-2.18M11.39-.01c1.21 0 2.18.98 2.18 2.18s-.98 2.18-2.18 2.18-2.18-.98-2.18-2.18.98-2.18 2.18-2.18m45.3 0c1.2 0 2.18.98 2.18 2.18s-.98 2.18-2.18 2.18c-1.21 0-2.18-.98-2.18-2.18s.98-2.18 2.18-2.18m45.54 4.6c1.2 0 2.18.98 2.18 2.18s-.98 2.18-2.18 2.18-2.18-.98-2.18-2.18.98-2.18 2.18-2.18m27.13 45.29c1.2 0 2.18.98 2.18 2.18 0 1.21-.98 2.18-2.18 2.18s-2.18-.98-2.18-2.18.98-2.18 2.18-2.18m-3.39 37.79h-5.09c-.73 0-1.45.72-1.45 1.45v4.84c0 3.15 2.66 5.81 5.81 5.81h.73v3.15h-13.56c-.73 0-1.45.73-1.45 1.45 0 .73.73 1.45 1.45 1.45h13.56c-.49 5.09-4.84 9.2-10.17 9.2h-3.87c-.73-6.78-6.54-12.11-13.57-12.11s-12.84 5.33-13.56 12.11H71.48V93.71h40.94c.73 0 1.45-.73 1.45-1.45 0-.73-.72-1.45-1.45-1.45H71.48v-6.05h45.54c3.15 0 5.33-3.15 4.36-6.3l-1.21-3.15c-2.18-6.05-7.99-10.17-14.53-10.17H39.76c2.18-2.91 5.57-4.6 9.44-4.6h57.65c10.42 0 19.14 8.48 19.14 19.14v8zm0 8.96h-.73c-1.46 0-2.67-1.21-2.67-2.66v-3.39h3.63v6.06h-.24zm-27.61 30.28c-5.81 0-10.66-4.85-10.66-10.66s4.84-10.66 10.66-10.66c5.81 0 10.66 4.85 10.66 10.66s-4.85 10.66-10.66 10.66m-54.99 0c2.67-2.18 4.6-5.33 5.09-9.21h36.58c.48 3.63 2.18 6.78 5.09 9.21H43.38zm-19.13-10.42c0-5.81 4.84-10.66 10.66-10.66 5.81 0 10.66 4.84 10.66 10.66 0 5.81-4.84 10.66-10.66 10.66-5.81 0-10.66-4.84-10.66-10.66M3.16 101.47h4.36c.73 0 1.45-.73 1.45-1.45 0-.73-.73-1.45-1.45-1.45h-4.6c.72-7.75 7.26-14.05 15.02-14.05h50.38v6.05H23.03c-.73 0-1.46.73-1.46 1.45 0 .73.73 1.45 1.46 1.45h45.54v21.32h-20.1c-.72-6.79-6.54-12.11-13.56-12.11s-12.84 5.33-13.56 12.11H18.2c-7.75 0-14.05-5.81-15.02-13.33zm57.41-19.86H31.26l6.78-13.56h22.53zm45.05-13.56c5.33 0 9.93 3.39 11.63 8.24l1.21 3.15c.49.97-.48 2.18-1.45 2.18H92.3V68.06h13.32zm-16.23 0v13.56H63.47V68.05zM59.35 54.24h37.79v3.15H59.35zm-6.06-10.42h15.26v7.51H53.29zm15.02-12.11h22.77v9.2H80.42c-.73 0-1.45.73-1.45 1.45v9.2h-7.51v-9.2c0-.73-.72-1.45-1.45-1.45h-1.45v-9.2h-.24zm36.33 19.62H81.87v-7.51h22.77zm2.18 6.06h-6.78v-3.15h11.87c.72 0 1.45-.73 1.45-1.45v-6.05c0-.73-.73-1.45-1.45-1.45-.73 0-1.46.72-1.46 1.45v4.6h-2.66v-9.2c0-.73-.73-1.45-1.45-1.45H94.23V30.03c0-.73-.73-1.45-1.45-1.45H66.86c-.73 0-1.46.73-1.46 1.45v10.66H51.84c-.73 0-1.46.73-1.46 1.45v9.2h-3.39v-4.6c0-.73-.73-1.45-1.45-1.45-.73 0-1.45.72-1.45 1.45v6.05c0 .73.73 1.45 1.45 1.45h10.9v3.15h-7.27c-5.57 0-10.66 3.15-13.32 8.24l-7.99 15.99h-9.69C8 81.62-.24 89.86 0 100.03c.24 9.93 8.23 17.68 18.17 17.68h3.15c.49 3.63 2.18 6.78 5.09 9.21H12.6c-.73 0-1.46.73-1.46 1.45 0 .73.73 1.45 1.46 1.45H117c.73 0 1.45-.73 1.45-1.45 0-.73-.72-1.45-1.45-1.45h-9.93c2.66-2.18 4.6-5.33 5.09-9.21h3.63c7.27 0 13.32-5.81 13.32-13.32V79.44c-.24-12.11-10.17-22.04-22.29-22.04zM57.89 99.78h6.06c.73 0 1.45-.73 1.45-1.45 0-.73-.73-1.45-1.45-1.45h-6.06c-.73 0-1.45.73-1.45 1.45-.24.73.49 1.45 1.45 1.45m40.45 18.17c-.73 0-1.45-.73-1.45-1.45 0-.73.72-1.45 1.45-1.45s1.46.73 1.46 1.45c0 .73-.49 1.45-1.46 1.45m0-6.05c-2.42 0-4.6 1.94-4.6 4.6s1.94 4.6 4.6 4.6c2.67 0 4.6-1.94 4.6-4.6s-2.18-4.6-4.6-4.6m-63.46 0c-2.42 0-4.6 1.94-4.6 4.6s1.94 4.6 4.6 4.6c2.67 0 4.6-1.94 4.6-4.6s-2.18-4.6-4.6-4.6" />
</svg>