<svg xmlns="http://www.w3.org/2000/svg" xml:space="preserve"
  style="shape-rendering:geometricPrecision;text-rendering:geometricPrecision;image-rendering:optimizeQuality;fill-rule:evenodd;clip-rule:evenodd"
  viewBox="0 0 117.16 132.06">
  <path fill="#ffffff"
    d="M79.01 121.22c-.22-.23-5.64-5.64-5.87-5.87-3.84-7.22-1.35-16.25 5.42-20.54 4.51 2.94 7.22 7.9 7.22 13.32.23 5.19-2.48 10.16-6.77 13.09m-66.37 2.03c-4.74 0-8.58-3.84-8.58-8.58s3.84-8.58 8.58-8.58 8.58 3.84 8.58 8.58-3.84 8.58-8.58 8.58m0-19.86c-6.32 0-11.29 4.97-11.29 11.29s4.97 11.29 11.29 11.29 11.29-4.97 11.29-11.29c0-6.09-4.96-11.29-11.29-11.29m95.94-90.3c3.16 0 5.64 2.48 5.64 5.64s-2.48 5.64-5.64 5.64-5.64-2.48-5.64-5.64 2.49-5.64 5.64-5.64m0 14.22c4.74 0 8.58-3.84 8.58-8.35s-3.84-8.58-8.58-8.58-8.58 3.84-8.58 8.58 3.84 8.35 8.58 8.35m-4.06 46.05-5.87-5.87c-3.84-7.22-1.35-16.25 5.42-20.54 4.51 2.93 7.22 7.9 7.22 13.32.23 5.19-2.48 10.16-6.77 13.09m-15.12 8.8c-5.42 0-10.38-2.71-13.32-7.22 4.51-6.77 13.32-9.26 20.54-5.42l5.87 5.87c-2.94 4.29-7.9 6.77-13.09 6.77M71.34 64.33c-5.42 0-10.38-2.71-13.32-7.22 4.51-6.77 13.32-9.25 20.54-5.42l5.87 5.87c-2.94 4.06-7.68 6.77-13.09 6.77M53.51 46.27c-5.42 0-10.38-2.71-13.32-7.22 4.52-6.77 13.32-9.25 20.54-5.42 1.35 1.36 4.51 4.51 5.87 5.87-2.94 4.29-7.9 6.77-13.09 6.77M37.03 18.95c-4.06-4.06-5.87-9.93-4.52-15.58 1.13-.22 2.48-.45 3.61-.45 10.84 0 18.74 9.93 16.48 20.54-5.42 1.13-11.29-.22-15.58-4.51zm25.73 12.64c-3.84-7.22-1.35-16.25 5.42-20.54 4.51 2.93 7.22 7.9 7.22 13.32 0 5.19-2.71 10.16-7 13.09-1.13-1.35-4.29-4.51-5.64-5.87m23.48-2.71c4.52 2.94 7.22 7.9 7.22 13.32 0 5.19-2.71 10.16-7 13.09l-5.87-5.87c-3.61-7.22-1.13-16.03 5.64-20.54zm18.74 15.13q-.675-.33-1.35 0C97.08 47.85 93.25 55.3 94.6 63.2l-5.87-5.87c4.74-3.61 7.67-9.26 7.67-15.12 0-6.77-3.61-12.87-9.25-16.25q-.675-.345-1.35 0c-6.55 3.84-10.38 11.29-9.03 19.19l-6.09-5.64c4.74-3.61 7.68-9.26 7.68-15.12 0-6.77-3.61-12.87-9.26-16.25q-.675-.33-1.35 0c-6.55 3.84-10.39 11.29-9.03 19.19l-3.16-3.16C58.27 11.98 49.01.02 36.37.02c-1.8 0-3.39.23-5.19.68-.45.22-.9.45-.9.9-1.81 6.77.22 14.22 5.19 19.19s11.74 6.77 18.28 5.19l3.16 3.16c-7.9-1.36-15.35 2.48-19.19 9.03-.23.45-.23.9 0 1.36 3.39 5.87 9.48 9.26 16.25 9.26 6.09 0 11.74-2.93 15.12-7.67l5.87 5.87c-7.9-1.36-15.35 2.48-19.19 9.03q-.345.675 0 1.35c3.39 5.87 9.48 9.26 16.25 9.26 6.1 0 11.74-2.94 15.12-7.67l5.87 5.87c-7.9-1.35-15.35 2.48-19.19 9.03q-.345.675 0 1.35c3.39 5.87 9.48 9.26 16.25 9.26 6.09 0 11.74-2.94 15.12-7.68l4.06 4.06c.45.45 1.35.45 2.03 0 .45-.45.45-1.35 0-2.03l-4.06-4.06c4.74-3.61 7.67-9.26 7.67-15.13-.68-6.09-4.29-12.19-9.93-15.58zM3.4 82.39c1.12 0 2.03.91 2.03 2.03s-.91 2.03-2.03 2.03-2.03-.91-2.03-2.03.91-2.03 2.03-2.03m31.15 36.57c1.12 0 2.03.91 2.03 2.03s-.91 2.03-2.03 2.03-2.03-.91-2.03-2.03.91-2.03 2.03-2.03m63.43-2.71c1.12 0 2.03.91 2.03 2.03s-.91 2.03-2.03 2.03-2.03-.91-2.03-2.03.91-2.03 2.03-2.03m12.64-21.22c1.12 0 2.03.91 2.03 2.03s-.91 2.03-2.03 2.03-2.03-.91-2.03-2.03.91-2.03 2.03-2.03m2.94-60.72c1.12 0 2.03.91 2.03 2.03s-.91 2.03-2.03 2.03-2.03-.91-2.03-2.03.91-2.03 2.03-2.03M89.63 6.09c1.12 0 2.03.91 2.03 2.03s-.91 2.03-2.03 2.03-2.03-.91-2.03-2.03.91-2.03 2.03-2.03M2.04 31.6c1.12 0 2.03.91 2.03 2.03s-.91 2.03-2.03 2.03-2.03-.91-2.03-2.03.91-2.03 2.03-2.03m26.86-1.58c1.12 0 2.03.91 2.03 2.03s-.91 2.03-2.03 2.03-2.03-.91-2.03-2.03.91-2.03 2.03-2.03M13.32 6.09c1.12 0 2.03.91 2.03 2.03s-.91 2.03-2.03 2.03-2.03-.91-2.03-2.03.91-2.03 2.03-2.03m50.57 124.16c-5.42 0-10.39-2.71-13.32-7.22 4.51-6.77 13.32-9.25 20.54-5.42l5.87 5.87c-2.94 4.06-7.67 6.77-13.09 6.77m-17.83-18.06c-5.42 0-10.38-2.71-13.32-7.23 4.52-6.77 13.32-9.25 20.54-5.42l5.87 5.87c-2.94 4.29-7.9 6.77-13.09 6.77zM28 94.36c-5.42 0-10.38-2.71-13.32-7.22 4.51-6.77 13.32-9.26 20.54-5.42l5.87 5.87c-2.93 4.06-7.68 6.77-13.09 6.77m-4.29-22.57c-10.84 0-18.74-9.93-16.48-20.54 5.42-1.13 11.29.22 15.58 4.51 4.06 4.06 5.87 9.93 4.51 15.58-1.35.45-2.48.45-3.61.45M42.9 58.92c4.52 2.93 7.22 7.9 7.22 13.32 0 5.19-2.71 10.16-7 13.09l-5.64-5.64c-3.84-7.45-1.35-16.25 5.42-20.77m17.84 18.06c4.51 2.93 7.22 7.9 7.22 13.32 0 5.19-2.71 10.16-7 13.09l-5.87-5.87c-3.61-7.22-1.13-16.25 5.64-20.54zm28.22 31.15c0-6.77-3.61-12.87-9.25-16.25q-.675-.345-1.35 0c-6.55 3.84-10.39 11.29-9.03 19.19l-5.87-5.87c4.74-3.61 7.67-9.26 7.67-15.12 0-6.77-3.61-12.87-9.25-16.25-.45-.23-.9-.23-1.36 0-6.55 3.84-10.38 11.29-9.03 19.19l-5.87-5.87c4.74-3.61 7.67-9.26 7.67-15.13 0-6.77-3.61-12.87-9.26-16.25q-.675-.345-1.35 0c-6.55 3.84-10.38 11.29-9.03 19.19l-3.16-3.16c1.36-6.55-.45-13.55-5.19-18.29-5.19-5.19-12.42-6.77-19.19-5.19-.45.23-.9.45-.9.9-1.81 6.77.23 14.22 5.19 19.19 4.97 4.97 11.74 6.77 18.28 5.19l3.16 3.16c-7.9-1.35-15.35 2.49-19.19 9.03-.22.45-.22.9 0 1.36 3.39 5.87 9.48 9.25 16.25 9.25 6.1 0 11.74-2.94 15.12-7.67l5.87 5.87c-7.9-1.35-15.35 2.48-19.19 9.03-.23.45-.23.91 0 1.36 3.39 5.87 9.48 9.26 16.25 9.26 6.09 0 11.74-2.93 15.13-7.68l5.87 5.87c-7.9-1.35-15.35 2.48-19.19 9.03-.22.45-.22.9 0 1.36 3.39 5.87 9.48 9.26 16.25 9.26 6.09 0 11.74-2.93 15.12-7.67l4.06 4.06c.45.45 1.36.45 2.03 0 .45-.45.45-1.35 0-2.03l-4.06-4.06c3.84-2.48 6.77-8.13 6.77-14.22z" />
</svg>