<svg xmlns="http://www.w3.org/2000/svg" xml:space="preserve"
  style="shape-rendering:geometricPrecision;text-rendering:geometricPrecision;image-rendering:optimizeQuality;fill-rule:evenodd;clip-rule:evenodd"
  viewBox="0 0 107.26 116">
  <path fill="#ffffff"
    d="M54.12 105.14c0 1.38-1.18 2.57-2.37 2.57 0 0-.99 0-1.78-.79-.4-.39-.79-1.18-.79-1.78v-7.51c0-1.38 1.19-2.57 2.57-2.57s2.57 1.19 2.57 2.57zm24.1-13.63c.98 0 1.78.8 1.78 1.78s-.8 1.78-1.78 1.78-1.78-.8-1.78-1.78.8-1.78 1.78-1.78m24.69-16c.98 0 1.78.8 1.78 1.78s-.8 1.78-1.78 1.78-1.78-.8-1.78-1.78.8-1.78 1.78-1.78m-80.2 27.06c.98 0 1.78.8 1.78 1.78s-.8 1.78-1.78 1.78-1.78-.8-1.78-1.78.8-1.78 1.78-1.78m-8.69-40.69c.98 0 1.78.8 1.78 1.78s-.8 1.78-1.78 1.78-1.78-.8-1.78-1.78.8-1.78 1.78-1.78M1.77 33.44c.98 0 1.78.8 1.78 1.78S2.75 37 1.77 37s-1.78-.8-1.78-1.78.8-1.78 1.78-1.78m8.5-25.88c.98 0 1.78.8 1.78 1.78s-.8 1.78-1.78 1.78-1.78-.8-1.78-1.78.8-1.78 1.78-1.78m81.58-2.37c.98 0 1.78.8 1.78 1.78s-.8 1.78-1.78 1.78-1.78-.8-1.78-1.78.8-1.78 1.78-1.78m1.19 39.5c.98 0 1.78.8 1.78 1.78s-.8 1.78-1.78 1.78-1.78-.8-1.78-1.78.8-1.78 1.78-1.78M12.25 96.44c-2.76 0-4.94-2.17-4.94-4.94s2.17-4.94 4.94-4.94 4.94 2.17 4.94 4.94c0 2.76-2.17 4.94-4.94 4.94m0-12.44c-4.15 0-7.51 3.36-7.51 7.51s3.36 7.51 7.51 7.51 7.5-3.36 7.5-7.51S16.2 84 12.25 84m85.13-49.38c-4.15 0-7.51-3.36-7.51-7.51s3.36-7.51 7.51-7.51 7.51 3.36 7.51 7.51-3.36 7.51-7.51 7.51m9.88-7.31c0-5.53-4.34-9.88-9.88-9.88-5.53 0-9.88 4.35-9.88 9.88s4.35 9.88 9.88 9.88 9.88-4.54 9.88-9.88m-39.11 48c-2.17-8.69 3.95-17.18 12.44-18.37a28.82 28.82 0 0 1-12.44 18.37m-5.33 12.44H40.7v-6.91c7.11 2.57 15.01 2.57 22.32 0v6.91zM40.5 113.63V90.32h22.32v23.51H40.5zM22.72 56.94c8.49 1.19 14.62 9.48 12.44 18.37-6.12-4.15-10.67-10.67-12.44-18.37m-.59-12.44h3.75v4.94h-3.75zm11.06-7.31h36.94c2.76 0 4.94 2.17 4.94 4.94H28.26c0-2.76 2.17-4.94 4.94-4.94zm48.2 12.25h-3.75V44.5h3.75zM28.26 44.5h3.75v4.94h-3.75zm43.26 4.94V44.5h3.75v4.94zM38.14 44.5v4.94h-3.75V44.5zm27.26 4.94V44.5h3.75v4.94zm-21.13 0h-3.75V44.5h3.75zm6.12 0h-3.75V44.5h3.75zm8.69-4.94h3.75v4.94h-3.75zm-2.37 4.94h-3.75V44.5h3.75zm-3.75 30.82V63.07c0-.59-.59-1.18-1.18-1.18s-1.19.59-1.19 1.18v17.19c-4.74-.2-9.09-1.58-13.04-3.75.39-1.58.79-3.36.79-4.94 0-9.09-6.91-16.39-15.8-17.18-.2-.79-.2-1.78-.2-2.57h59.07c0 .79-.2 1.78-.2 2.57-10.86.99-18.17 11.46-15.01 22.12-4.15 2.37-8.5 3.56-13.23 3.75zm30.81-29.63v-7.31c0-.59-.59-1.18-1.19-1.18h-4.94c0-3.56-2.37-6.32-5.73-7.11L83.76 1.85c.2-.59-.2-1.38-.79-1.58s-1.38.2-1.58.79L69.34 34.84h-5.33l3.75-33.18c0-.59-.39-1.38-1.18-1.38-.59 0-1.38.39-1.38 1.18l-3.75 33.38H41.89L38.14 1.46c0-.59-.59-1.18-1.38-1.18-.59 0-1.19.59-1.19 1.38l3.75 33.18h-5.33L21.94.87c-.2-.59-.99-.99-1.58-.79s-.99.99-.79 1.58l11.85 33.18c-3.36.79-5.73 3.75-5.73 7.11h-4.94c-.59 0-1.18.59-1.18 1.19v7.51c0 12.84 7.51 23.9 18.57 29.03v35.16c0 .59.59 1.19 1.19 1.19h24.69c.59 0 1.18-.59 1.18-1.19V79.88c11.06-5.14 18.57-16.4 18.57-29.23zm-32 42.07c-2.77 0-4.94 2.17-4.94 4.94v7.51c0 2.77 2.17 4.94 4.94 4.94v-1.18 1.18c2.76 0 4.94-2.17 4.94-4.94v-7.51c0-2.76-2.17-4.94-4.94-4.94" />
</svg>