<svg xmlns="http://www.w3.org/2000/svg" height="110" viewBox="0 0 112 110" fill="none">
  <path
    d="M39.2085 69.3048L47.9408 78.037L44.643 81.1384C44.0598 81.5254 44.0598 82.2994 44.643 82.8826C45.03 83.4659 45.8096 83.4659 46.3872 82.8826L49.685 79.7756L54.3399 84.4305C54.7269 84.8175 55.5064 84.8175 56.0841 84.4305C56.4711 84.0436 56.4711 83.264 56.0841 82.6807L51.6198 78.2165L80.7216 51.8292L104.389 74.5262V97.0325H11.8454L39.2029 69.288L39.2085 69.3048ZM110.412 97.0493H106.728V73.9597C106.728 73.5728 106.531 73.3765 106.341 72.9895L81.3161 49.3222C80.9291 48.9352 80.1496 48.9352 79.5719 49.3222L49.6962 76.4835L39.9937 66.781C39.6067 66.3941 38.8272 66.3941 38.2495 66.781L8.37379 97.0437H1.38577C0.802504 97.0437 0.219238 97.627 0.219238 98.2103C0.219238 98.7935 0.802504 99.3768 1.38577 99.3768C5.26676 99.3768 103.435 99.3768 110.614 99.3768C111.197 99.3768 111.781 98.7935 111.781 98.2103C111.781 97.627 111.197 97.0437 110.423 97.0437L110.412 97.0493Z"
    fill="#FEFEFE" />
  <path
    d="M56.0897 23.9051C55.899 24.679 56.4766 25.2623 57.2562 25.2623H57.4525C62.3037 25.2623 66.1847 29.1433 66.1847 33.7982C66.1847 38.4531 62.6907 42.3341 58.0358 42.3341H25.8326C21.1776 42.3341 17.1004 38.4531 17.1004 33.7982C17.1004 29.7265 20.0111 26.2325 24.0828 25.453C24.0828 25.453 24.0828 25.453 24.2735 25.453C25.0474 25.453 27.3805 25.453 29.321 27.3935C29.708 27.9767 30.4875 27.9767 31.0652 27.5897C31.6484 27.2028 31.6484 26.4232 31.2615 25.8455C29.321 23.7088 26.9935 23.1255 25.44 22.9348C26.0177 19.8334 28.7377 17.5003 32.0354 17.5003C33.0057 17.5003 33.9759 17.6966 34.7499 18.0836C35.3331 18.2799 36.1127 18.0836 36.3034 17.5003C36.8867 16.3338 37.4699 15.5598 38.4402 14.5896C38.4402 14.5896 38.4402 14.5896 38.6365 14.3933C40.577 12.6491 43.1007 11.4881 46.0058 11.4881C52.0236 11.6788 57.0655 17.5003 56.0953 23.9051H56.0897ZM26.6009 11.4881C29.7023 9.16068 34.1666 10.1309 35.9164 13.6193C35.3331 14.2026 34.9462 14.9765 34.3629 15.5598C30.8689 14.5896 26.9935 15.5598 24.4697 18.6612C23.4995 16.1431 24.2735 13.2267 26.6009 11.4825V11.4881ZM25.0474 9.54766C21.3627 12.2621 20.5888 17.3096 23.1069 21.1906C22.9106 21.9646 22.7199 22.5478 22.5236 23.3274C17.8687 24.6846 14.3747 29.1489 14.571 34.1908C14.7673 40.2085 19.8092 44.8579 25.8214 44.8579C28.7321 44.8579 57.8339 44.8579 58.0246 44.8579C63.846 44.6672 68.501 39.816 68.501 33.8038C68.501 28.1786 64.233 23.5237 58.6078 22.9404C58.9948 15.571 53.1733 9.35697 45.6076 9.35697C42.6969 9.35697 39.9825 10.3272 37.8457 11.8807C34.9349 7.61277 29.1135 6.45184 25.0418 9.55327L25.0474 9.54766Z"
    fill="#FEFEFE" />
  <path
    d="M30.869 6.44623C31.4522 6.44623 32.0355 6.05365 32.0355 5.47599L32.4225 1.98198C32.4225 1.39871 32.0355 0.624756 31.4522 0.624756C30.869 0.624756 30.095 1.01173 30.095 1.595L29.7024 5.08901C29.5117 5.86857 30.095 6.45184 30.869 6.45184V6.44623Z"
    fill="#FEFEFE" />
  <path
    d="M34.9406 8.19599C35.5239 8.58297 36.2978 8.58297 36.6848 7.9997L38.816 5.08896C39.203 4.50569 39.203 3.73174 38.6197 3.34476C38.0364 2.95779 37.2625 2.95778 36.8755 3.54105L34.7387 6.45179C34.3517 7.02945 34.548 7.80902 34.935 8.19599H34.9406Z"
    fill="#FEFEFE" />
  <path
    d="M17.0948 21.97L20.3926 20.6128C20.9758 20.4165 21.3628 19.6426 20.9758 19.0593C20.7851 18.476 20.0056 18.089 19.4223 18.476L16.1246 19.8332C15.5413 20.0239 15.1544 20.8035 15.5413 21.3868C15.7376 21.97 16.5116 22.1663 17.0948 21.97Z"
    fill="#FEFEFE" />
  <path
    d="M15.5413 14.9821L19.0353 15.3691C19.6186 15.3691 20.3925 14.9821 20.3925 14.3989C20.3925 13.8212 20.0055 13.0416 19.4223 13.0416L15.9283 12.6547C15.345 12.6547 14.571 13.0416 14.571 13.6249C14.571 14.2082 14.958 14.7914 15.5413 14.9821Z"
    fill="#FEFEFE" />
  <path
    d="M17.6724 7.99973L20.5832 10.1309C21.1664 10.5179 21.9404 10.5179 22.3274 9.93461C22.7143 9.35134 22.7143 8.57738 22.1367 8.19041L19.226 6.05362C18.6427 5.66665 17.8687 5.66665 17.4818 6.24992C17.0948 6.83319 17.2855 7.60714 17.6724 7.99973Z"
    fill="#FEFEFE" />
  <path
    d="M24.4642 6.44614C24.6549 7.0238 25.4345 7.41638 26.0121 7.0238C26.5954 6.83312 26.9824 6.05356 26.5954 5.47029L25.2382 2.17257C25.0419 1.5893 24.2679 1.20233 23.6847 1.5893C23.1014 1.7856 22.7144 2.55955 23.1014 3.14282L24.4586 6.44053L24.4642 6.44614Z"
    fill="#FEFEFE" />
  <path
    d="M36.881 78.0369L26.0176 90.2576C25.6307 90.8408 25.6307 91.6148 26.0176 92.0017C26.6009 92.3943 27.3749 92.3943 27.7675 92.0017L38.6308 79.7811C39.0178 79.1979 39.0178 78.4239 38.6308 78.0369C38.0476 77.4537 37.2736 77.4537 36.8867 78.0369H36.881Z"
    fill="#FEFEFE" />
  <path
    d="M92.3702 13.4286C95.6679 13.4286 98.3879 16.1486 98.3879 19.4463C98.3879 22.744 95.6679 25.4585 92.3702 25.4585C89.0724 25.4585 86.358 22.744 86.358 19.4463C86.358 16.1486 88.8818 13.4286 92.3702 13.4286ZM92.3702 27.9822C97.0251 27.9822 100.906 24.1013 100.906 19.4463C100.906 14.7914 97.0251 10.9104 92.3702 10.9104C87.7152 10.9104 83.8342 14.7914 83.8342 19.4463C83.8342 24.1013 87.5189 27.9822 92.3702 27.9822Z"
    fill="#FEFEFE" />
  <path
    d="M17.0948 61.9353C19.0353 61.9353 20.7795 63.4888 20.7795 65.62C20.7795 67.7511 19.0297 69.114 17.0948 69.114C15.1543 69.114 13.4101 67.5605 13.4101 65.4293C13.4101 63.2981 15.1543 61.9409 17.0948 61.9409V61.9353ZM17.0948 71.6377C20.3925 71.6377 23.107 68.9177 23.107 65.6256C23.107 62.3278 20.3925 59.6134 17.0948 59.6134C13.7971 59.6134 11.0826 62.3278 11.0826 65.6256C11.0826 68.9233 13.7971 71.6377 17.0948 71.6377Z"
    fill="#FEFEFE" />
  <path
    d="M96.4418 54.7566C97.4065 54.7566 98.186 55.5362 98.186 56.5008C98.186 57.4654 97.4065 58.245 96.4418 58.245C95.4772 58.245 94.6976 57.4654 94.6976 56.5008C94.6976 55.5362 95.4772 54.7566 96.4418 54.7566Z"
    fill="#FEFEFE" />
  <path
    d="M88.1022 36.5182C89.0669 36.5182 89.8464 37.3034 89.8464 38.268C89.8464 39.2326 89.0669 40.0122 88.1022 40.0122C87.1376 40.0122 86.358 39.2326 86.358 38.268C86.358 37.3034 87.1376 36.5182 88.1022 36.5182Z"
    fill="#FEFEFE" />
  <path
    d="M78.3997 0.0415039C79.3644 0.0415039 80.1439 0.826676 80.1439 1.79131C80.1439 2.75595 79.3644 3.53551 78.3997 3.53551C77.4351 3.53551 76.6555 2.75595 76.6555 1.79131C76.6555 0.826676 77.4351 0.0415039 78.3997 0.0415039Z"
    fill="#FEFEFE" />
  <path
    d="M55.3101 1.39868C56.2748 1.39868 57.0543 2.18385 57.0543 3.14849C57.0543 4.11313 56.2748 4.8983 55.3101 4.8983C54.3455 4.8983 53.5659 4.11874 53.5659 3.14849C53.5659 2.18385 54.3455 1.39868 55.3101 1.39868Z"
    fill="#FEFEFE" />
  <path
    d="M7.97564 9.7439C8.94028 9.7439 9.72545 10.5291 9.72545 11.4937C9.72545 12.4583 8.94028 13.2379 7.97564 13.2379C7.011 13.2379 6.23145 12.4583 6.23145 11.4937C6.23145 10.5291 7.011 9.7439 7.97564 9.7439Z"
    fill="#FEFEFE" />
  <path
    d="M9.13653 43.697C10.1012 43.697 10.8863 44.4766 10.8863 45.4412C10.8863 46.4059 10.1068 47.1854 9.13653 47.1854C8.17189 47.1854 7.39233 46.4059 7.39233 45.4412C7.39233 44.4766 8.17189 43.697 9.13653 43.697Z"
    fill="#FEFEFE" />
  <path
    d="M56.4767 59.6078C57.4414 59.6078 58.2265 60.3874 58.2265 61.352C58.2265 62.3166 57.4414 63.0962 56.4767 63.0962C55.5121 63.0962 54.7325 62.3166 54.7325 61.352C54.7325 60.3874 55.5121 59.6078 56.4767 59.6078Z"
    fill="#FEFEFE" />
  <path
    d="M35.9108 49.9054C36.8755 49.9054 37.655 50.685 37.655 51.6496C37.655 52.6142 36.8755 53.3938 35.9108 53.3938C34.9462 53.3938 34.1666 52.6142 34.1666 51.6496C34.1666 50.685 34.9462 49.9054 35.9108 49.9054Z"
    fill="#FEFEFE" />
  <path
    d="M7.97564 77.6499C8.94028 77.6499 9.72545 78.4295 9.72545 79.3941C9.72545 80.3587 8.94028 81.1439 7.97564 81.1439C7.011 81.1439 6.23145 80.3643 6.23145 79.3941C6.23145 78.4295 7.011 77.6499 7.97564 77.6499Z"
    fill="#FEFEFE" />
  <path
    d="M52.2087 103.067H2.54106C1.95779 103.067 1.38013 103.65 1.38013 104.228C1.38013 104.811 1.95779 105.394 2.54106 105.394H52.2087C52.7919 105.394 53.3696 104.811 53.3696 104.228C53.5659 103.645 52.9826 103.067 52.2087 103.067Z"
    fill="#FEFEFE" />
  <path
    d="M78.983 106.752H58.4172C57.8339 106.752 57.2506 107.335 57.2506 107.918C57.2506 108.502 57.8339 109.085 58.4172 109.085H78.983C79.5663 109.085 80.1495 108.502 80.1495 107.918C80.1495 107.335 79.5663 106.752 78.983 106.752Z"
    fill="#FEFEFE" />
</svg>