<svg xmlns="http://www.w3.org/2000/svg" xml:space="preserve"
  style="shape-rendering:geometricPrecision;text-rendering:geometricPrecision;image-rendering:optimizeQuality;fill-rule:evenodd;clip-rule:evenodd"
  viewBox="0 0 132.58 129.58">
  <path fill="#ffffff"
    d="M46.35 82.32 56.73 92.7l-3.92 3.69c-.69.46-.69 1.38 0 2.07.46.69 1.38.69 2.07 0l3.92-3.69 5.53 5.54c.46.46 1.38.46 2.07 0 .46-.46.46-1.39 0-2.08l-5.3-5.3 34.59-31.36 28.13 26.98v26.75H13.84l32.51-32.97zm47.27 44.5H69.18c-.69 0-1.38.69-1.38 1.38s.69 1.38 1.38 1.38h24.44c.69 0 1.38-.69 1.38-1.38s-.69-1.38-1.38-1.38m-31.82-4.38H2.77c-.69 0-1.38.69-1.38 1.38s.69 1.38 1.38 1.38H61.8c.69 0 1.38-.69 1.38-1.38.23-.69-.46-1.38-1.38-1.38M9.23 92.23c1.15 0 2.08.93 2.08 2.07 0 1.15-.93 2.08-2.08 2.08a2.07 2.07 0 0 1-2.07-2.08c0-1.15.93-2.07 2.07-2.07m33.2-32.97c1.15 0 2.07.93 2.07 2.07 0 1.15-.93 2.07-2.07 2.07-1.15 0-2.07-.93-2.07-2.07 0-1.15.93-2.07 2.07-2.07m24.44 11.53a2.07 2.07 0 1 1 0 4.14c-1.15 0-2.07-.93-2.07-2.07 0-1.15.93-2.07 2.07-2.07M10.61 51.88a2.07 2.07 0 1 1 0 4.14c-1.15 0-2.07-.93-2.07-2.07 0-1.15.93-2.07 2.07-2.07M9.23 11.53c1.15 0 2.08.93 2.08 2.08s-.93 2.07-2.08 2.07-2.07-.93-2.07-2.07c0-1.15.93-2.08 2.07-2.08m56.26-9.92c1.15 0 2.07.93 2.07 2.08s-.93 2.08-2.07 2.08a2.07 2.07 0 0 1-2.07-2.08c0-1.15.93-2.08 2.07-2.08M92.93 0C94.08 0 95 .93 95 2.08s-.93 2.07-2.07 2.07c-1.15 0-2.07-.93-2.07-2.07 0-1.15.93-2.08 2.07-2.08m11.53 43.35c1.15 0 2.07.93 2.07 2.08s-.93 2.07-2.07 2.07c-1.15 0-2.07-.93-2.07-2.07 0-1.15.93-2.08 2.07-2.08m9.91 21.68c1.15 0 2.07.93 2.07 2.07 0 1.15-.93 2.07-2.07 2.07-1.15 0-2.07-.93-2.07-2.07 0-1.15.93-2.07 2.07-2.07m-94.3 8.53c2.3 0 4.38 1.84 4.38 4.38s-2.08 4.15-4.38 4.15c-2.31 0-4.38-1.84-4.38-4.38s2.07-4.15 4.38-4.15m0 11.53c3.92 0 7.15-3.23 7.15-7.15s-3.23-7.15-7.15-7.15-7.15 3.23-7.15 7.15 3.23 7.15 7.15 7.15m89.46-69.18c3.92 0 7.15 3.23 7.15 7.15s-3.23 7.15-7.15 7.15-7.15-3.23-7.15-7.15 3-7.15 7.15-7.15m0 17.29c5.53 0 10.14-4.61 10.14-10.14s-4.61-10.14-10.14-10.14-10.14 4.61-10.14 10.14 4.38 10.14 10.14 10.14M43.59 92.69l-12.91 14.52c-.46.69-.46 1.61 0 2.07.69.46 1.61.46 2.08 0l12.91-14.52c.46-.69.46-1.61 0-2.07-.69-.69-1.61-.69-2.07 0zM28.83 7.61c.23.69 1.15 1.15 1.84.69.69-.23 1.15-1.15.69-1.84l-1.61-3.92c-.23-.69-1.16-1.15-1.85-.69-.69.23-1.15 1.16-.69 1.85l1.61 3.92zm-8.07 1.84 3.46 2.54c.69.46 1.61.46 2.07-.23s.46-1.61-.23-2.07L22.6 7.15c-.69-.46-1.61-.46-2.07.23s-.23 1.61.23 2.08zm-2.54 8.3 4.15.46c.69 0 1.61-.46 1.61-1.16 0-.69-.46-1.61-1.15-1.61l-4.15-.46c-.69 0-1.61.46-1.61 1.15s.46 1.39 1.15 1.61zm1.85 8.3 3.92-1.61c.69-.23 1.15-1.15.69-1.85-.23-.69-1.15-1.15-1.84-.69l-3.92 1.61c-.69.23-1.15 1.15-.69 1.84.23.69 1.16.92 1.85.69zM41.28 9.68c.69.46 1.61.46 2.07-.23l2.54-3.46c.46-.69.46-1.61-.23-2.07s-1.61-.46-2.07.23l-2.54 3.46c-.46.69-.23 1.61.23 2.07m-4.84-2.07c.69 0 1.38-.46 1.38-1.15l.46-4.15c0-.69-.46-1.61-1.15-1.61s-1.61.46-1.61 1.15L35.06 6c-.23.92.46 1.62 1.38 1.62zm29.98 20.75c-.23.92.46 1.61 1.38 1.61h.23c5.77 0 10.38 4.61 10.38 10.14s-4.15 10.14-9.69 10.14H30.45c-5.53 0-10.38-4.61-10.38-10.14 0-4.84 3.46-8.99 8.3-9.92h.23c.92 0 3.69 0 6 2.31.46.69 1.38.69 2.07.23s.69-1.39.23-2.07c-2.31-2.54-5.07-3.23-6.92-3.46.69-3.69 3.92-6.46 7.84-6.46 1.15 0 2.31.23 3.23.69.69.23 1.62 0 1.85-.69.69-1.38 1.39-2.31 2.54-3.46l.23-.23c2.31-2.07 5.3-3.46 8.76-3.46 7.15.23 13.14 7.15 11.99 14.76zM31.37 13.6c3.69-2.77 8.99-1.61 11.07 2.53-.69.69-1.15 1.61-1.85 2.31-4.15-1.15-8.76 0-11.76 3.69-1.15-3-.23-6.46 2.53-8.53zm-1.85-2.31c-4.38 3.23-5.3 9.22-2.3 13.84-.23.92-.46 1.61-.69 2.54-5.53 1.61-9.68 6.92-9.45 12.91.23 7.15 6.23 12.68 13.37 12.68h38.27c6.92-.23 12.45-5.99 12.45-13.14 0-6.69-5.07-12.22-11.76-12.91.46-8.76-6.46-16.14-15.45-16.14-3.46 0-6.69 1.15-9.22 3C41.28 9 34.36 7.62 29.52 11.3zm101.46 103.99h-4.38V87.84c0-.46-.23-.69-.46-1.15L96.4 58.56c-.46-.46-1.38-.46-2.07 0L58.82 90.84 47.29 79.31c-.46-.46-1.38-.46-2.07 0L9.71 115.28h-8.3c-.69 0-1.39.69-1.39 1.38s.69 1.38 1.39 1.38h129.81c.69 0 1.38-.69 1.38-1.38s-.69-1.38-1.61-1.38z" />
</svg>