<svg xmlns="http://www.w3.org/2000/svg" height="110" viewBox="0 0 112 117" fill="none">
  <path
    d="M97.3488 66.5849H62.621V56.558H86.873C87.4541 56.558 88.038 55.9554 88.038 55.3537C88.038 54.7511 87.455 54.1504 86.873 54.1504H62.621V49.1355H97.3488L108.019 57.9609L97.3488 66.5839V66.5849ZM51.7562 99.0751V93.66L60.2919 90.6527V98.8765H51.7562V99.0751ZM73.6799 104.09C73.6799 105.495 72.5158 106.695 71.1568 106.695H40.8913C39.5351 106.695 38.3682 105.494 38.3682 104.09C38.3682 102.685 39.5342 101.482 40.8913 101.482C44.5786 101.482 67.8585 101.482 71.1568 101.482C72.5158 101.682 73.6799 102.685 73.6799 104.09ZM84.5448 111.71C84.5448 113.115 83.3797 114.315 82.0235 114.315H30.0274C28.6693 114.315 27.5071 113.114 27.5071 111.71C27.5071 110.305 28.6693 109.102 30.0274 109.102C35.6539 109.102 76.5901 109.102 82.2166 109.102C83.3807 109.102 84.5448 110.305 84.5448 111.71ZM14.7002 53.9508L4.02751 45.1272L14.7002 36.3027H49.428V53.9508H14.7002ZM51.7562 7.02242C51.7562 4.61574 53.6963 2.61017 56.0245 2.61017C58.3527 2.61017 60.2919 4.61574 60.2919 7.02242C60.2919 15.6454 60.2919 63.5785 60.2919 73.2042L51.7562 76.2116C51.7562 71.8003 51.7562 11.0326 51.7562 7.02242ZM97.3488 20.0576L108.019 28.8841L97.3488 37.7076H62.621V20.0576H97.3488ZM51.7562 88.6461L60.2919 85.6387V88.0454L51.7562 91.0528V88.6461ZM60.2919 78.2191L51.7562 81.2265V78.8198L60.2919 75.8124V78.2191ZM51.7562 83.6332L60.2919 80.6258V83.0305L51.7562 86.0408V83.6341V83.6332ZM110.736 56.7595L98.5129 46.7298C98.3189 46.5311 98.1258 46.5311 97.7369 46.5311H62.6201V40.3129H97.7369C97.929 40.3129 98.318 40.3129 98.5129 40.1143L110.736 30.0845C111.317 29.6844 111.317 28.6816 110.736 28.0789L98.5129 18.0511C98.3189 17.8505 98.1258 17.8505 97.7369 17.8505H62.6201V7.22007C62.6201 3.41143 59.7108 0.403076 56.0236 0.403076C52.3382 0.403076 49.4271 3.41046 49.4271 7.22007V34.0956H14.1182C13.9242 34.0956 13.5352 34.0956 13.3412 34.2962L1.1201 44.324C0.537116 44.9247 0.537116 45.726 1.1201 46.3296L13.3412 56.3565C13.5352 56.558 13.7283 56.558 14.1182 56.558H49.2349V99.0751H40.6964C37.9811 99.0751 35.847 101.282 35.847 104.09C35.847 105.093 36.0391 105.894 36.4281 106.695H29.6375C26.9223 106.695 24.7862 108.903 24.7862 111.71C24.7862 114.519 26.9223 116.723 29.6375 116.723H81.8267C84.5438 116.723 86.678 114.519 86.678 111.71C86.678 108.903 84.5438 106.695 81.8267 106.695H75.4242C75.8122 105.894 76.0072 105.092 76.0072 104.09C76.0072 101.283 73.8711 99.0751 71.1558 99.0751H62.6201V68.9925H97.7369C97.929 68.9925 98.318 68.9925 98.5129 68.792L110.736 58.7641C110.928 58.5636 111.125 58.1615 111.125 57.7613C111.125 57.3593 111.125 56.9582 110.736 56.7586V56.7595Z"
    fill="#FEFEFE" />
  <path
    d="M38.3691 47.7334H26.148C25.565 47.7334 24.9821 48.3341 24.9821 48.9367C24.9821 49.5374 25.565 50.1401 26.148 50.1401H38.3691C38.9521 50.1401 39.5351 49.5374 39.5351 48.9367C39.7272 48.3341 39.1442 47.7334 38.3691 47.7334Z"
    fill="#FEFEFE" />
  <path
    d="M18.9686 90.2506C14.8952 90.2506 11.597 86.8411 11.597 82.6304C11.597 78.4177 14.8952 75.0102 18.9686 75.0102C23.042 75.0102 26.3403 78.4177 26.3403 82.6304C26.3403 86.8421 23.042 90.2506 18.9686 90.2506ZM28.6694 82.829C28.6694 77.2153 24.401 72.8021 18.9686 72.8021C13.5362 72.8021 9.2688 77.2163 9.2688 82.829C9.2688 88.4446 13.5362 92.8568 18.9686 92.8568C24.401 92.8568 28.6694 88.246 28.6694 82.829Z"
    fill="#FEFEFE" />
  <path
    d="M103.945 89.0472C101.228 89.0472 99.0959 86.8411 99.0959 84.0342C99.0959 81.2255 101.228 79.0193 103.945 79.0193C106.66 79.0193 108.797 81.2255 108.797 84.0342C108.797 86.8411 106.661 89.0472 103.945 89.0472ZM103.945 76.6127C99.8711 76.6127 96.5737 80.0221 96.5737 84.2329C96.5737 88.4436 99.872 91.8531 103.945 91.8531C108.019 91.8531 111.317 88.4436 111.317 84.2329C111.317 80.0212 108.019 76.6127 103.945 76.6127Z"
    fill="#FEFEFE" />
  <path
    d="M85.1259 2.60913C86.0923 2.60913 86.873 3.4162 86.873 4.41317C86.873 5.40917 86.0923 6.21915 85.1259 6.21915C84.1624 6.21915 83.3807 5.40917 83.3807 4.41317C83.3807 3.4162 84.1624 2.60913 85.1259 2.60913Z"
    fill="#FEFEFE" />
  <path
    d="M34.2957 1.40588C35.2593 1.40588 36.0409 2.21295 36.0409 3.20993C36.0409 4.2069 35.2593 5.01688 34.2957 5.01688C33.3313 5.01688 32.5505 4.2069 32.5505 3.20993C32.5505 2.21392 33.3313 1.40588 34.2957 1.40588Z"
    fill="#FEFEFE" />
  <path
    d="M11.208 19.0538C12.1743 19.0538 12.955 19.8609 12.955 20.8579C12.955 21.8568 12.1743 22.6639 11.208 22.6639C10.2435 22.6639 9.46277 21.8568 9.46277 20.8579C9.46277 19.8609 10.2435 19.0538 11.208 19.0538Z"
    fill="#FEFEFE" />
  <path
    d="M99.677 99.2756C100.641 99.2756 101.424 100.083 101.424 101.08C101.424 102.077 100.641 102.887 99.677 102.887C98.7107 102.887 97.9299 102.077 97.9299 101.08C97.9299 100.084 98.7107 99.2756 99.677 99.2756Z"
    fill="#FEFEFE" />
  <path
    d="M77.9464 77.816C78.9127 77.816 79.6953 78.6231 79.6953 79.6201C79.6953 80.619 78.9118 81.4261 77.9464 81.4261C76.9829 81.4261 76.2012 80.619 76.2012 79.6201C76.2012 78.6231 76.9829 77.816 77.9464 77.816Z"
    fill="#FEFEFE" />
  <path
    d="M37.7862 65.3816C38.7525 65.3816 39.5352 66.1887 39.5352 67.1856C39.5352 68.1816 38.7516 68.9916 37.7862 68.9916C36.8227 68.9916 36.041 68.1816 36.041 67.1856C36.041 66.1887 36.8218 65.3816 37.7862 65.3816Z"
    fill="#FEFEFE" />
  <path
    d="M12.372 99.2756C13.3355 99.2756 14.1191 100.083 14.1191 101.08C14.1191 102.077 13.3355 102.887 12.372 102.887C11.4076 102.887 10.6268 102.077 10.6268 101.08C10.6268 100.084 11.4076 99.2756 12.372 99.2756Z"
    fill="#FEFEFE" />
</svg>