<svg xmlns="http://www.w3.org/2000/svg" xml:space="preserve"
  style="shape-rendering:geometricPrecision;text-rendering:geometricPrecision;image-rendering:optimizeQuality;fill-rule:evenodd;clip-rule:evenodd"
  viewBox="0 0 120.04 122.1">
  <path fill="#ffffff"
    d="M104.89 69.47H67.21V58.95h26.31c.63 0 1.26-.63 1.26-1.26s-.63-1.26-1.26-1.26H67.21v-5.26h37.68l11.58 9.26-11.58 9.05zm-92.2 34.31c1.05 0 1.9.85 1.9 1.89a1.9 1.9 0 0 1-1.9 1.9 1.89 1.89 0 0 1-1.89-1.9c0-1.05.85-1.89 1.89-1.89M40.27 68.2c1.05 0 1.9.85 1.9 1.89a1.9 1.9 0 0 1-1.9 1.9 1.89 1.89 0 0 1-1.89-1.9c0-1.05.85-1.89 1.89-1.89m43.58 13.05c1.05 0 1.9.85 1.9 1.89a1.9 1.9 0 0 1-1.9 1.9 1.89 1.89 0 0 1-1.89-1.9c0-1.05.85-1.89 1.89-1.89m23.58 22.53c1.05 0 1.9.85 1.9 1.89a1.9 1.9 0 1 1-3.8 0c0-1.05.85-1.89 1.9-1.89M11.44 19.57c1.05 0 1.9.85 1.9 1.89a1.9 1.9 0 0 1-1.9 1.9 1.89 1.89 0 0 1-1.89-1.9c0-1.05.85-1.89 1.89-1.89M36.49 1.05c1.05 0 1.89.85 1.89 1.89 0 1.05-.85 1.9-1.89 1.9a1.89 1.89 0 0 1-1.89-1.9c0-1.05.85-1.89 1.89-1.89m55.15 1.26c1.05 0 1.9.85 1.9 1.89a1.9 1.9 0 0 1-1.9 1.9 1.89 1.89 0 0 1-1.89-1.9c0-1.05.85-1.89 1.89-1.89m20.42 90.73c-2.95 0-5.26-2.32-5.26-5.26 0-2.95 2.31-5.26 5.26-5.26s5.26 2.32 5.26 5.26c0 2.95-2.32 5.26-5.26 5.26m0-13.05c-4.42 0-8 3.58-8 8s3.58 8 8 8 8-3.58 8-8-3.58-8-8-8M19.86 94.3c-4.42 0-8-3.58-8-8s3.58-8 8-8 8 3.58 8 8-3.58 8-8 8m10.53-7.79c0-5.89-4.63-10.52-10.53-10.52-5.89 0-10.53 4.63-10.53 10.52s4.63 10.53 10.53 10.53c5.89 0 10.53-4.84 10.53-10.53m10.53-36.84H27.66c-.63 0-1.27.63-1.27 1.26s.63 1.26 1.27 1.26h13.26c.63 0 1.27-.63 1.27-1.26.21-.63-.42-1.26-1.27-1.26m14.53 53.89v-5.68l9.26-3.16v8.63h-9.26zm23.79 5.26c0 1.47-1.26 2.73-2.74 2.73H43.66c-1.47 0-2.74-1.26-2.74-2.73s1.27-2.74 2.74-2.74H76.5c1.47.21 2.74 1.26 2.74 2.74m11.79 8c0 1.47-1.26 2.73-2.74 2.73H31.87c-1.47 0-2.73-1.26-2.73-2.73s1.26-2.74 2.73-2.74H88.5c1.26 0 2.53 1.26 2.53 2.74M15.24 56.19 3.66 46.93l11.58-9.26h37.68v18.52zM55.45 6.93c0-2.53 2.1-4.63 4.63-4.63s4.63 2.1 4.63 4.63V76.4l-9.26 3.16zm49.47 13.68 11.58 9.26-11.58 9.26H67.24V20.6h37.68zm-49.47 72 9.26-3.16v2.53l-9.26 3.16zm9.26-10.94-9.26 3.16V82.3l9.26-3.16zm-9.26 5.68 9.26-3.16v2.52l-9.26 3.16v-2.53zm64-28.21-13.26-10.53c-.21-.21-.42-.21-.84-.21h-38.1v-6.53h38.1c.21 0 .63 0 .84-.21l13.26-10.53c.63-.42.63-1.47 0-2.1L106.19 18.5c-.21-.21-.42-.21-.84-.21h-38.1V7.13c0-4-3.16-7.15-7.16-7.15s-7.16 3.16-7.16 7.15v28.21H14.62c-.21 0-.63 0-.84.21L.52 46.08c-.63.63-.63 1.47 0 2.1l13.26 10.53c.21.21.42.21.84.21h38.1v44.63h-9.26c-2.95 0-5.26 2.32-5.26 5.26 0 1.05.21 1.89.63 2.73h-7.37c-2.95 0-5.26 2.32-5.26 5.26 0 2.95 2.32 5.26 5.26 5.26h56.63c2.95 0 5.26-2.31 5.26-5.26s-2.32-5.26-5.26-5.26h-6.95c.42-.84.63-1.68.63-2.73 0-2.95-2.32-5.26-5.26-5.26h-9.26V71.97h38.1c.21 0 .63 0 .84-.21l13.26-10.53c.21-.21.42-.63.42-1.05s0-.84-.42-1.05z" />
</svg>