<svg xmlns="http://www.w3.org/2000/svg" xml:space="preserve"
  style="shape-rendering:geometricPrecision;text-rendering:geometricPrecision;image-rendering:optimizeQuality;fill-rule:evenodd;clip-rule:evenodd"
  viewBox="0 0 143.03 133.61">
  <path
    d="M140.74 30.28c1.26 0 2.29 1.03 2.29 2.29s-1.03 2.29-2.29 2.29-2.29-1.03-2.29-2.29a2.29 2.29 0 0 1 2.29-2.29M23.93 17.3c2.55 0 4.84 2.03 4.84 4.84 0 2.8-2.03 4.83-4.84 4.83-2.8 0-4.83-2.04-4.83-4.83 0-2.8 2.03-4.84 4.83-4.84m0 12.72c4.33 0 7.89-3.56 7.89-7.89s-3.56-7.89-7.89-7.89c-4.32 0-7.89 3.56-7.89 7.89s3.31 7.89 7.89 7.89m100.02-9.42c-3.56 0-6.36-2.8-6.36-6.36s2.8-6.36 6.36-6.36 6.36 2.8 6.36 6.36-2.8 6.36-6.36 6.36m0-16.03c-5.34 0-9.67 4.33-9.67 9.67s4.33 9.67 9.67 9.67 9.67-4.33 9.67-9.67-4.33-9.67-9.67-9.67M82.72 111.2h-6.36c-.76 0-1.53.77-1.53 1.53v6.36c0 1.78-1.53 3.31-3.31 3.31s-3.31-1.53-3.31-3.31v-6.36c0-.76-.76-1.53-1.53-1.53h-6.36c-1.78 0-3.31-1.53-3.31-3.31s1.53-3.31 3.31-3.31h6.36c.77 0 1.53-.76 1.53-1.53v-6.36c0-1.78 1.53-3.31 3.31-3.31s3.31 1.53 3.31 3.31v6.36c0 .76.76 1.53 1.53 1.53h6.36c1.78 0 3.31 1.53 3.31 3.31-.26 2.04-1.53 3.31-3.31 3.31m0-9.42h-4.83v-4.83c0-3.56-2.8-6.36-6.36-6.36s-6.36 2.8-6.36 6.36v4.83h-4.84c-3.56 0-6.36 2.8-6.36 6.36s2.8 6.36 6.36 6.36h4.84v4.84c0 3.56 2.8 6.36 6.36 6.36s6.36-2.8 6.36-6.36v-4.84h4.83c3.56 0 6.36-2.8 6.36-6.36s-2.8-6.36-6.36-6.36m27.23-47.84H96.97c-.76 0-1.53.77-1.53 1.53 0 .77.76 1.53 1.53 1.53h12.98c.76 0 1.53-.76 1.53-1.53.25-.76-.51-1.53-1.53-1.53m-76.61 3.31h12.98c.76 0 1.53-.77 1.53-1.53s-.76-1.53-1.53-1.53H33.34c-.76 0-1.53.77-1.53 1.53s.77 1.53 1.53 1.53m76.61 3.05H96.97c-.76 0-1.53.77-1.53 1.52 0 .76.76 1.53 1.53 1.53h12.98c.76 0 1.53-.77 1.53-1.53.25-.76-.51-1.52-1.53-1.52m-76.61 3.31h12.98c.76 0 1.53-.76 1.53-1.53 0-.76-.76-1.53-1.53-1.53H33.34c-.76 0-1.53.77-1.53 1.53s.77 1.53 1.53 1.53m76.61 3.05H96.97c-.76 0-1.53.77-1.53 1.53 0 .77.76 1.53 1.53 1.53h12.98c.76 0 1.53-.76 1.53-1.53 0-.76-.51-1.53-1.53-1.53m-76.61 3.31h12.98c.76 0 1.53-.77 1.53-1.53s-.76-1.53-1.53-1.53H33.34c-.76 0-1.53.77-1.53 1.53s.77 1.53 1.53 1.53m96.97-3.82c0 9.42-7.13 16.79-16.54 16.79h-2.54v-8.4c0-.76-.76-1.52-1.53-1.52H96.98c-.76 0-1.53.76-1.53 1.52v8.4H79.42V41.2h40.72c5.6 0 10.18 4.58 10.18 10.18v14.76zm-22.14 21.63c0 2.54-2.03 4.84-4.83 4.84s-4.84-2.03-4.84-4.84V76.33h9.67zm22.14 26.72H95.44c-.76 0-1.53.76-1.53 1.53s.76 1.53 1.53 1.53h35.12v2.55c0 5.6-4.58 10.18-10.18 10.18H22.65c-5.6 0-10.18-4.58-10.18-10.18v-2.55h35.12c.76 0 1.53-.76 1.53-1.53s-.76-1.53-1.53-1.53H12.72V76.84c3.56 5.6 9.67 9.16 16.8 9.16h2.29v1.53c0 4.33 3.56 7.89 7.89 7.89 4.32 0 7.89-3.56 7.89-7.89V86h47.84v1.53c0 4.33 3.56 7.89 7.89 7.89s7.89-3.56 7.89-7.89V86h2.54c6.87 0 12.72-3.31 16.54-8.91v37.41zM34.87 76.33h9.67v11.45c0 2.54-2.03 4.84-4.83 4.84s-4.84-2.03-4.84-4.84zM12.73 51.39c0-5.6 4.58-10.18 10.18-10.18h40.72v41.74H47.6v-8.4c0-.76-.76-1.52-1.53-1.52H33.34c-.76 0-1.53.76-1.53 1.52v8.4h-2.29c-9.16 0-16.8-7.63-16.8-16.79V51.4zm63.63 31.56h-9.67V41.21h9.67zm-25.2-49.63c0-2.8 2.29-4.83 4.83-4.83h31.56c2.8 0 4.83 2.29 4.83 4.83v4.58H50.9v-4.58zm69.22 4.84H95.69v-4.58c0-4.33-3.56-8.15-8.14-8.15H55.99c-4.32 0-8.14 3.56-8.14 8.15v4.58h-25.2c-7.38 0-13.23 5.85-13.23 13.23v68.97c0 7.38 5.85 13.23 13.23 13.23h97.47c7.38 0 13.23-5.85 13.23-13.23V51.39c.26-7.38-5.85-13.23-12.98-13.23zM2.29 81.17c1.26 0 2.29 1.03 2.29 2.29s-1.03 2.29-2.29 2.29S0 84.72 0 83.46s1.03-2.29 2.29-2.29m135.14 25.45a2.29 2.29 0 1 1 0 4.58 2.29 2.29 0 0 1 0-4.58M5.6 30.27c1.26 0 2.29 1.03 2.29 2.29s-1.03 2.29-2.29 2.29-2.29-1.03-2.29-2.29a2.29 2.29 0 0 1 2.29-2.29M37.41-.01c1.26 0 2.29 1.03 2.29 2.29s-1.03 2.29-2.29 2.29-2.29-1.03-2.29-2.29 1.03-2.29 2.29-2.29m31.81 9.67a2.29 2.29 0 1 1 0 4.58 2.29 2.29 0 0 1 0-4.58m34.87-6.36c1.26 0 2.29 1.03 2.29 2.29s-1.03 2.29-2.29 2.29a2.29 2.29 0 1 1 0-4.58" />
</svg>