<svg xmlns="http://www.w3.org/2000/svg" height="110" viewBox="0 0 110 105" fill="none">
  <path
    d="M108.118 24.2584C109.087 24.2584 109.879 25.0544 109.879 26.0361C109.879 27.0141 109.091 27.8101 108.118 27.8101C107.15 27.8101 106.362 27.0141 106.362 26.0361C106.362 25.0544 107.15 24.2584 108.118 24.2584Z"
    fill="#FEFEFE" />
  <path
    d="M79.9978 3.35791C80.9662 3.35791 81.7582 4.1539 81.7582 5.13183C81.7582 6.10976 80.97 6.90575 79.9978 6.90575C79.0257 6.90575 78.2412 6.10976 78.2412 5.13183C78.2412 4.1539 79.0257 3.35791 79.9978 3.35791Z"
    fill="#FEFEFE" />
  <path
    d="M53.2398 8.28552C54.2119 8.28552 54.9964 9.08151 54.9964 10.0632C54.9964 11.0412 54.2081 11.8372 53.2398 11.8372C52.2676 11.8372 51.4832 11.045 51.4832 10.0632C51.4832 9.08151 52.2714 8.28552 53.2398 8.28552Z"
    fill="#FEFEFE" />
  <path
    d="M28.8313 0.791504C29.8034 0.791504 30.5879 1.58749 30.5879 2.56921C30.5879 3.54714 29.7997 4.34314 28.8313 4.34314C27.8629 4.34314 27.0747 3.54714 27.0747 2.56921C27.0747 1.58749 27.8629 0.791504 28.8313 0.791504Z"
    fill="#FEFEFE" />
  <path
    d="M4.41907 24.2584C5.39121 24.2584 6.17567 25.0544 6.17567 26.0361C6.17567 27.0141 5.38745 27.8101 4.41907 27.8101C3.44694 27.8101 2.66248 27.0141 2.66248 26.0361C2.66248 25.0544 3.45069 24.2584 4.41907 24.2584Z"
    fill="#FEFEFE" />
  <path
    d="M105.581 83.4269C106.55 83.4269 107.338 84.2229 107.338 85.2046C107.338 86.1825 106.553 86.9785 105.581 86.9785C104.609 86.9785 103.821 86.1825 103.821 85.2046C103.821 84.2267 104.609 83.4269 105.581 83.4269Z"
    fill="#FEFEFE" />
  <path
    d="M1.87794 63.7053C2.85007 63.7053 3.63829 64.5013 3.63829 65.483C3.63829 66.461 2.85007 67.257 1.87794 67.257C0.909555 67.257 0.121338 66.461 0.121338 65.483C0.121338 64.5051 0.909555 63.7053 1.87794 63.7053Z"
    fill="#FEFEFE" />
  <path
    d="M100.112 52.0724C100.112 59.369 94.6435 65.085 87.4182 65.085H85.4664V58.5768C85.4664 57.9893 84.8809 57.3942 84.2953 57.3942H74.5327C73.9472 57.3942 73.3616 57.9855 73.3616 58.5768V65.085H61.0617V32.7412C64.5749 32.7412 91.1378 32.7412 92.3089 32.7412C96.6065 32.7412 100.12 36.2929 100.12 40.6291V52.0686L100.112 52.0724ZM83.1205 68.8337C83.1205 70.8047 81.5591 72.5824 79.4122 72.5824C77.2652 72.5824 75.7 71.0056 75.7 68.8337V59.9603H83.1205V68.8337ZM100.112 89.5408H73.3541C72.7686 89.5408 72.1831 90.1321 72.1831 90.7272C72.1831 91.3185 72.7686 91.9098 73.3541 91.9098H100.307V93.8846C100.307 98.2247 96.7905 101.773 92.4966 101.773H17.5033C13.2057 101.773 9.69247 98.2247 9.69247 93.8846V91.9098H36.642C37.2275 91.9098 37.8131 91.3223 37.8131 90.7272C37.8131 90.1359 37.2275 89.5408 36.642 89.5408H9.88765V60.3545C12.6239 64.6908 17.3081 67.4502 22.7769 67.4502H24.5335V68.6366C24.5335 71.9911 27.2697 74.7506 30.5877 74.7506C33.9057 74.7506 36.642 71.9911 36.642 68.6366V67.4502C40.7445 67.4502 69.0602 67.4502 73.3579 67.4502V68.6366C73.3579 71.9911 76.0941 74.7506 79.4122 74.7506C82.7339 74.7506 85.4664 71.9911 85.4664 68.6366V67.4502H87.4182C92.6917 67.4502 97.1808 64.8879 100.112 60.5478V89.537V89.5408ZM26.8756 59.9565H34.2961V68.8299C34.2961 70.8009 32.7347 72.5786 30.5877 72.5786C28.4408 72.5786 26.8756 71.0018 26.8756 68.8299V59.9565ZM9.8839 40.6291C9.8839 36.2891 13.4008 32.7412 17.6948 32.7412C23.749 32.7412 43.0828 32.7412 48.9419 32.7412V65.085H36.6382V58.5768C36.6382 57.9893 36.0527 57.3942 35.4672 57.3942H25.7008C25.1153 57.3942 24.5297 57.9855 24.5297 58.5768V65.085H22.7731C15.743 65.085 9.8839 59.1681 9.8839 52.0724V40.6329V40.6291ZM58.7083 65.0812H51.2841V32.7374H58.7083V65.0812ZM39.3745 26.6235C39.3745 24.4554 41.1311 22.8785 43.0828 22.8785H67.2999C69.4468 22.8785 71.0083 24.6525 71.0083 26.6235V30.1751C63.1974 30.1751 45.425 30.1751 39.1755 30.1751V26.6235H39.3707H39.3745ZM92.4966 30.3722H73.5531V26.8244C73.5531 23.4698 70.8206 20.5133 67.3036 20.5133H43.0866C39.7686 20.5133 36.8372 23.2727 36.8372 26.8244V30.3722H17.5033C11.8394 30.3722 7.35034 34.9094 7.35034 40.6291C7.35034 40.6291 7.35034 88.5553 7.35034 94.078C7.35034 99.7977 11.8432 104.335 17.5033 104.335H92.3014C97.9653 104.335 102.458 99.7977 102.458 94.078C102.458 92.1069 102.458 42.4068 102.458 40.6291C102.653 34.9094 97.9653 30.3722 92.4966 30.3722Z"
    fill="#FEFEFE" />
  <path
    d="M25.7048 55.0289H35.6663C36.2518 55.0289 36.8374 54.4376 36.8374 53.8463C36.8374 53.255 36.2518 52.6637 35.6663 52.6637H25.7048C25.1192 52.6637 24.5337 53.255 24.5337 53.8463C24.5337 54.4376 25.1192 55.0289 25.7048 55.0289Z"
    fill="#FEFEFE" />
  <path
    d="M84.4905 52.4629H74.529C73.9434 52.4629 73.3579 53.0542 73.3579 53.6455C73.3579 54.2368 73.9434 54.8281 74.529 54.8281H84.4905C85.0761 54.8281 85.6616 54.2368 85.6616 53.6455C85.6616 53.0542 85.2712 52.4629 84.4905 52.4629Z"
    fill="#FEFEFE" />
  <path
    d="M25.7048 50.0975H35.6663C36.2518 50.0975 36.8374 49.5062 36.8374 48.9149C36.8374 48.3236 36.2518 47.7285 35.6663 47.7285H25.7048C25.1192 47.7285 24.5337 48.3198 24.5337 48.9149C24.5337 49.5062 25.1192 50.0975 25.7048 50.0975Z"
    fill="#FEFEFE" />
  <path
    d="M84.4905 47.5353H74.529C73.9434 47.5353 73.3579 48.1266 73.3579 48.7179C73.3579 49.3092 73.9434 49.9043 74.529 49.9043H84.4905C85.0761 49.9043 85.6616 49.313 85.6616 48.7179C85.8568 48.1304 85.2712 47.5353 84.4905 47.5353Z"
    fill="#FEFEFE" />
  <path
    d="M25.7048 45.1663H35.6663C36.2518 45.1663 36.8374 44.575 36.8374 43.9836C36.8374 43.3923 36.2518 42.801 35.6663 42.801H25.7048C25.1192 42.801 24.5337 43.3923 24.5337 43.9836C24.5337 44.575 25.1192 45.1663 25.7048 45.1663Z"
    fill="#FEFEFE" />
  <path
    d="M84.4905 42.6039H74.529C73.9434 42.6039 73.3579 43.1952 73.3579 43.7865C73.3579 44.3778 73.9434 44.9691 74.529 44.9691H84.4905C85.0761 44.9691 85.6616 44.3778 85.6616 43.7865C85.8568 43.1952 85.2712 42.6039 84.4905 42.6039Z"
    fill="#FEFEFE" />
  <path
    d="M63.5916 86.9784H58.7084C58.1228 86.9784 57.5373 87.5697 57.5373 88.161V93.0923C57.5373 94.472 56.3662 95.6547 54.9962 95.6547C53.63 95.6547 52.4552 94.472 52.4552 93.0923V88.161C52.4552 87.5697 51.8696 86.9784 51.2841 86.9784H46.4009C45.0347 86.9784 43.8636 85.7957 43.8636 84.4122C43.8636 83.0325 45.0347 81.8499 46.4009 81.8499H51.2841C51.8696 81.8499 52.4552 81.2586 52.4552 80.6673V75.7359C52.4552 74.3562 53.6262 73.1698 54.9962 73.1698C56.3625 73.1698 57.5373 74.3562 57.5373 75.7359V80.6673C57.5373 81.2586 58.1228 81.8499 58.7084 81.8499H63.5916C64.9578 81.8499 66.1326 83.0325 66.1326 84.4122C65.9375 85.9891 64.9616 86.9784 63.5916 86.9784ZM63.5916 79.6818H59.8832V75.9368C59.8832 73.1736 57.7325 71.0055 55 71.0055C52.2675 71.0055 50.1168 73.1736 50.1168 75.9368V79.6818H46.4047C43.6722 79.6818 41.5215 81.8537 41.5215 84.6131C41.5215 87.3764 43.6722 89.5445 46.4047 89.5445H50.1168V93.2932C50.1168 96.0564 52.2638 98.2246 55 98.2246C57.7325 98.2246 59.8832 96.0564 59.8832 93.2932V89.5445H63.5916C66.3278 89.5445 68.4748 87.3764 68.4748 84.6131C68.4748 81.8537 66.3278 79.6818 63.5916 79.6818Z"
    fill="#FEFEFE" />
  <path
    d="M95.2291 16.7647C92.4966 16.7647 90.3459 14.5966 90.3459 11.8334C90.3459 9.07397 92.4929 6.90206 95.2291 6.90206C97.9653 6.90206 100.112 9.07397 100.112 11.8334C100.112 14.5966 97.9653 16.7647 95.2291 16.7647ZM95.2291 4.33972C91.1304 4.33972 87.8086 7.69425 87.8086 11.8334C87.8086 15.9763 91.1304 19.3271 95.2291 19.3271C99.3278 19.3271 102.653 15.9763 102.653 11.8334C102.653 7.69425 99.3316 4.33972 95.2291 4.33972Z"
    fill="#FEFEFE" />
  <path
    d="M18.4793 14.2023C20.4311 14.2023 22.1914 15.7791 22.1914 17.951C22.1914 20.1191 20.63 21.6959 18.4793 21.6959C16.3324 21.6959 14.7709 20.1191 14.7709 17.951C14.7709 15.7791 16.3324 14.2023 18.4793 14.2023ZM18.4793 24.0612C21.8011 24.0612 24.5336 21.3017 24.5336 17.9472C24.5336 14.5927 21.8011 11.8333 18.4793 11.8333C15.1613 11.8333 12.425 14.5965 12.425 17.9472C12.425 21.3017 14.9661 24.0612 18.4793 24.0612Z"
    fill="#FEFEFE" />
</svg>