<svg xmlns="http://www.w3.org/2000/svg" height="110" viewBox="0 0 112 109" fill="none">
  <path
    d="M85.4433 77.1567C76.3268 62.2204 76.9071 63.1876 76.7136 62.9941C76.5202 62.8007 76.5202 62.8007 76.3268 62.8007H76.1333C75.9399 62.8007 76.3268 62.8007 70.8938 62.8007C71.6676 61.8335 72.2479 60.858 73.03 59.6974C73.6103 58.9236 73.03 57.7546 72.0628 57.7546H58.674C64.8806 54.2645 69.3464 47.2757 73.4169 41.2624C73.9972 40.4887 73.4169 39.3197 72.4497 39.3197H61.3904C65.8562 36.7967 70.1201 32.1375 74.1906 25.544C76.9071 21.0782 78.8498 16.6209 80.0104 13.9044C80.9775 16.0406 82.34 19.1439 84.4761 22.6341C87.5795 27.6801 92.6255 34.4671 100.195 39.3197H89.1353C88.7485 39.3197 88.1682 39.5131 87.9747 40.0934C87.7813 40.4803 87.7813 41.0606 88.1682 41.4475C92.8274 46.8804 96.1241 52.8936 103.298 57.7462H89.7156C89.3288 57.7462 88.7485 57.9397 88.555 58.52C88.3616 58.9068 88.3616 59.4871 88.7485 59.874C93.6011 65.6938 97.4782 72.2957 105.047 77.3333L85.4517 77.1399L85.4433 77.1567ZM95.5354 106.256C93.9796 105.675 81.3728 100.242 77.1005 80.6469V68.0402L100.38 106.264H95.527L95.5354 106.256ZM61.5839 106.256C67.7905 102.185 72.0628 95.9701 74.7793 89.1832V106.256H61.5839ZM74.7793 67.8384V80.6385C72.4497 91.5044 67.5971 97.9044 63.9135 101.21C60.4233 104.506 57.1265 105.86 56.5378 106.062H49.549L74.7709 67.8384H74.7793ZM9.59264 98.88H51.3067L46.4541 106.256H4.35315L9.59264 98.88ZM90.4978 106.256H77.3023V89.1832C79.8254 95.9701 84.2827 102.185 90.4978 106.256ZM34.2342 64.9285H73.8121L52.8626 96.5504H11.3419L13.0912 94.0274H41.9967C42.577 94.0274 43.1573 93.4471 43.1573 92.8584C43.1573 92.2781 42.577 91.6978 41.9967 91.6978H14.8321L34.2342 64.92V64.9285ZM110.48 77.1483C101.557 72.6826 97.2847 65.8956 92.6339 59.8824H108.159C108.739 59.8824 109.126 59.4955 109.32 58.9152C109.513 58.3349 109.126 57.7546 108.739 57.5612C101.75 54.071 97.8734 49.025 94.1898 44.1723C93.4161 43.1968 92.8358 42.4314 92.0536 41.4559H105.056C105.636 41.4559 106.023 41.069 106.216 40.4887C106.41 39.9084 106.023 39.3281 105.636 39.1263C87.9832 30.2032 81.5831 10.0273 81.5831 9.83391C81.3896 9.25361 81.0028 9.06018 80.4225 9.06018C79.8422 9.06018 79.4553 9.44704 79.2619 9.83391C79.2619 10.0273 69.565 37.5788 54.4269 39.1263C53.8466 39.1263 53.2663 39.7066 53.2663 40.4887C53.2663 41.069 53.8466 41.6577 54.4269 41.6577H70.3388C65.0993 49.0334 59.6664 56.7875 51.1301 57.5612C50.5498 57.5612 49.9695 58.1415 49.9695 58.9152C49.9695 59.4955 50.5498 60.0842 51.1301 60.0842H69.7585C69.1782 60.858 68.5979 61.8335 68.0092 62.6073H33.4773C33.0905 62.6073 32.7036 62.8007 32.5102 63.1876L1.08162 106.651C0.501327 107.425 1.08163 108.594 2.04879 108.594C12.5278 108.594 92.2639 108.594 102.743 108.594C103.71 108.594 104.299 107.433 103.71 106.651L87.0244 79.4863H109.917C110.497 79.4863 110.884 79.0995 111.077 78.5108C111.271 78.1239 111.077 77.5436 110.497 77.1567L110.48 77.1483Z"
    fill="white" />
  <path
    d="M22.9731 5.95691C22.006 8.09307 21.4257 10.4227 21.4257 12.9457C21.4257 21.6754 28.4145 28.6558 37.1441 28.6558C39.4737 28.6558 41.9968 28.0755 44.1245 27.0999C41.6015 32.5328 36.1686 36.023 29.9619 36.023C21.2322 36.023 14.2519 29.0342 14.2519 20.3045C14.0584 13.9045 17.7421 8.47153 22.9815 5.9485L22.9731 5.95691ZM29.9619 38.3526C38.4982 38.3526 45.6804 32.5328 47.6147 24.3834C47.8082 23.8031 47.6147 23.4163 47.0344 23.021C46.6476 22.8276 46.0673 22.8276 45.6804 23.021C43.3508 24.9637 40.2475 26.1243 37.1441 26.1243C29.7685 26.1243 23.7553 20.1111 23.7553 12.7354C23.7553 9.63212 24.9159 6.72223 26.8586 4.1992C27.2455 3.81234 27.2455 3.23204 26.8586 2.83677C26.6652 2.4499 26.0849 2.25647 25.5046 2.25647C17.3552 4.1992 11.5354 11.5664 11.5354 19.9093C11.7288 30.1948 19.8782 38.3442 29.9703 38.3442L29.9619 38.3526Z"
    fill="white" />
  <path
    d="M10.5514 56.4008C13.2679 56.4008 15.4041 58.537 15.4041 61.2534C15.4041 63.9699 13.2679 66.1061 10.5514 66.1061C7.83498 66.1061 5.69881 63.9699 5.69881 61.2534C5.69881 58.537 7.83498 56.4008 10.5514 56.4008ZM10.5514 68.6207C14.6219 68.6207 17.9271 65.3239 17.9271 61.245C17.9271 57.1746 14.6303 53.8694 10.5514 53.8694C6.47254 53.8694 3.17578 57.1661 3.17578 61.245C3.17578 65.3239 6.47254 68.6207 10.5514 68.6207Z"
    fill="white" />
  <path
    d="M65.0741 3.04709C68.3708 3.04709 71.0873 5.76355 71.0873 9.06031C71.0873 12.3571 68.3708 15.0735 65.0741 15.0735C61.7773 15.0735 59.0609 12.3571 59.0609 9.06031C59.0609 5.76355 61.7773 3.04709 65.0741 3.04709ZM65.0741 17.605C69.7333 17.605 73.6103 13.7195 73.6103 9.06872C73.6103 4.40952 69.7333 0.532471 65.0741 0.532471C60.4149 0.532471 56.5378 4.40952 56.5378 9.06872C56.5378 13.7279 60.4149 17.605 65.0741 17.605Z"
    fill="white" />
  <path
    d="M89.9091 2.07996C90.8763 2.07996 91.6584 2.86209 91.6584 3.82925C91.6584 4.79642 90.8763 5.57856 89.9091 5.57856C88.9419 5.57856 88.1598 4.79642 88.1598 3.82925C88.1598 2.86209 88.9419 2.07996 89.9091 2.07996Z"
    fill="white" />
  <path
    d="M103.29 21.4819C104.257 21.4819 105.03 22.2641 105.03 23.2312C105.03 24.1984 104.248 24.9805 103.29 24.9805C102.322 24.9805 101.54 24.1984 101.54 23.2312C101.54 22.2641 102.322 21.4819 103.29 21.4819Z"
    fill="white" />
  <path
    d="M108.142 86.8621C109.101 86.8621 109.891 87.6442 109.891 88.6114C109.891 89.5785 109.109 90.3607 108.142 90.3607C107.175 90.3607 106.393 89.5785 106.393 88.6114C106.393 87.6442 107.175 86.8621 108.142 86.8621Z"
    fill="white" />
  <path
    d="M42.5686 5.57019C43.5358 5.57019 44.3179 6.35233 44.3179 7.31949C44.3179 8.28665 43.5358 9.06879 42.5686 9.06879C41.6015 9.06879 40.8193 8.28665 40.8193 7.31949C40.8193 6.35233 41.6015 5.57019 42.5686 5.57019Z"
    fill="white" />
  <path
    d="M46.2522 44.3741C47.2194 44.3741 48.0015 45.1563 48.0015 46.115C48.0015 47.0822 47.2194 47.8643 46.2522 47.8643C45.2851 47.8643 44.5114 47.0822 44.5114 46.115C44.5114 45.1479 45.2935 44.3741 46.2522 44.3741Z"
    fill="white" />
  <path
    d="M5.11845 32.3395C6.08561 32.3395 6.86775 33.1216 6.86775 34.0888C6.86775 35.0559 6.08561 35.8381 5.11845 35.8381C4.15129 35.8381 3.37756 35.0559 3.37756 34.0888C3.37756 33.1216 4.1597 32.3395 5.11845 32.3395Z"
    fill="white" />
  <path
    d="M12.3007 78.3258C13.2679 78.3258 14.05 79.1079 14.05 80.0751C14.05 81.0423 13.2679 81.8244 12.3007 81.8244C11.3335 81.8244 10.5514 81.0423 10.5514 80.0751C10.5514 79.1079 11.3335 78.3258 12.3007 78.3258Z"
    fill="white" />
</svg>