<svg xmlns="http://www.w3.org/2000/svg" xml:space="preserve"
  style="shape-rendering:geometricPrecision;text-rendering:geometricPrecision;image-rendering:optimizeQuality;fill-rule:evenodd;clip-rule:evenodd"
  viewBox="0 0 131.11 128.45">
  <path
    d="M100.59 91.09C89.75 73.33 90.44 74.48 90.21 74.26c-.23-.23-.23-.23-.46-.23h-6.46c.92-1.15 1.61-2.31 2.53-3.69.69-.92 0-2.31-1.15-2.31H68.76c7.38-4.15 12.68-12.45 17.53-19.6.69-.92 0-2.31-1.15-2.31H72c5.3-3 10.38-8.53 15.22-16.37 3.23-5.31 5.54-10.61 6.92-13.84 1.15 2.54 2.77 6.23 5.3 10.38 3.69 5.99 9.69 14.07 18.68 19.83h-13.14c-.46 0-1.15.23-1.38.92-.23.46-.23 1.15.23 1.61 5.53 6.46 9.45 13.61 17.99 19.37h-16.14c-.46 0-1.15.23-1.38.92-.23.46-.23 1.15.23 1.61 5.77 6.92 10.38 14.76 19.37 20.76l-23.29-.23zm-86.94 1.38c1.15 0 2.08.93 2.08 2.07 0 1.15-.93 2.08-2.08 2.08a2.07 2.07 0 0 1-2.07-2.08c0-1.15.93-2.07 2.07-2.07M5.12 37.82c1.15 0 2.07.93 2.07 2.07 0 1.15-.93 2.07-2.07 2.07-1.15 0-2.07-.93-2.07-2.07 0-1.15.93-2.07 2.07-2.07m48.89 14.3a2.07 2.07 0 1 1 0 4.14c-1.15 0-2.07-.93-2.07-2.07 0-1.15.93-2.07 2.07-2.07M49.63 6a2.07 2.07 0 1 1 0 4.14c-1.15 0-2.07-.93-2.07-2.07 0-1.15.93-2.07 2.07-2.07m77.95 96.62c1.14 0 2.07.93 2.07 2.07 0 1.15-.93 2.07-2.07 2.07a2.07 2.07 0 1 1 0-4.14m-5.77-77.71c1.15 0 2.07.93 2.07 2.08s-.93 2.07-2.07 2.07c-1.15 0-2.08-.93-2.08-2.07 0-1.15.93-2.08 2.08-2.08M105.9 1.85c1.15 0 2.07.93 2.07 2.08s-.93 2.08-2.07 2.08a2.07 2.07 0 0 1-2.07-2.08c0-1.15.93-2.08 2.07-2.08M76.38 3c3.92 0 7.15 3.23 7.15 7.15s-3.23 7.15-7.15 7.15-7.15-3.23-7.15-7.15S72.46 3 76.38 3m0 17.3c5.53 0 10.15-4.61 10.15-10.15C86.53 4.62 81.92 0 76.38 0c-5.53 0-10.15 4.61-10.15 10.15 0 5.53 4.61 10.15 10.15 10.15m-64.8 46.12c3.23 0 5.76 2.54 5.76 5.76 0 3.23-2.54 5.77-5.76 5.77-3.23 0-5.77-2.54-5.77-5.77s2.54-5.76 5.77-5.76m0 14.53c4.84 0 8.76-3.92 8.76-8.76s-3.92-8.76-8.76-8.76-8.76 3.92-8.76 8.76 3.92 8.76 8.76 8.76M26.34 6.46c-1.15 2.54-1.84 5.3-1.84 8.3a18.6 18.6 0 0 0 18.68 18.68c2.77 0 5.76-.69 8.3-1.85-3 6.46-9.46 10.61-16.83 10.61a18.6 18.6 0 0 1-18.68-18.68c-.23-7.61 4.15-14.07 10.37-17.06m8.3 38.51c10.15 0 18.68-6.92 20.99-16.6.23-.69 0-1.15-.69-1.62-.46-.23-1.15-.23-1.61 0-2.77 2.31-6.46 3.69-10.15 3.69-8.76 0-15.91-7.15-15.91-15.91 0-3.69 1.38-7.15 3.69-10.15.46-.46.46-1.15 0-1.62-.23-.46-.92-.69-1.61-.69-9.69 2.31-16.6 11.07-16.6 20.99.23 12.22 9.91 21.91 21.91 21.91zm77.95 80.71c-1.85-.69-16.83-7.15-21.91-30.44V80.25l27.67 45.43zm-40.36 0c7.38-4.84 12.45-12.22 15.68-20.29v20.29zm15.68-45.66v15.22c-2.77 12.92-8.53 20.53-12.91 24.45-4.15 3.92-8.07 5.53-8.76 5.76h-8.3l29.98-45.43zm-77.48 36.9h49.58l-5.77 8.76H4.2zm96.16 8.76H90.91v-20.29c3 8.07 8.3 15.45 15.68 20.29M39.71 76.56h47.04l-24.91 37.59H12.49l2.08-3h34.36c.69 0 1.38-.69 1.38-1.39 0-.69-.69-1.38-1.38-1.38H16.65zm90.63 14.53c-10.61-5.3-15.68-13.38-21.21-20.53h18.45c.69 0 1.15-.46 1.38-1.15s-.23-1.38-.69-1.61c-8.3-4.15-12.91-10.14-17.3-15.91-.92-1.15-1.61-2.07-2.54-3.23h15.45c.69 0 1.15-.46 1.38-1.15s-.23-1.38-.69-1.61c-20.98-10.61-28.59-34.59-28.59-34.82-.23-.69-.69-.92-1.38-.92s-1.15.46-1.38.92c0 .23-11.53 32.98-29.52 34.82-.69 0-1.38.69-1.38 1.61 0 .69.69 1.39 1.38 1.39h18.91c-6.23 8.76-12.68 17.99-22.83 18.91-.69 0-1.38.69-1.38 1.61 0 .69.69 1.39 1.38 1.39h22.14c-.69.92-1.38 2.07-2.08 3H38.79c-.46 0-.92.23-1.15.69L.28 126.16c-.69.92 0 2.31 1.15 2.31h119.68c1.15 0 1.85-1.38 1.15-2.31l-19.83-32.28h27.21c.69 0 1.15-.46 1.38-1.16.23-.46 0-1.15-.69-1.61z" />
</svg>