<svg xmlns="http://www.w3.org/2000/svg" xml:space="preserve" class="w-full -z-10" xml:space="preserve"
  style="shape-rendering:geometricPrecision;text-rendering:geometricPrecision;image-rendering:optimizeQuality;fill-rule:evenodd;clip-rule:evenodd"
  viewBox="0 0 16163.47 1235.18">
  <path
    d="M16163.47 167.29C15898.65 127.9 15055.77-2.7 14876.16.05c-272.83 4.17-1443.76 288.43-1888.53 344.46l-224.16 20.09c-28.16-1.63-743.84-198.1-793.05-198.36-111.66-.61-740.42 121.36-841.7 142.08-180.48 39.61-256 65.21-444.72 21.73-681.56-157.01-1450.99-173.79-2146.52-139.58-442.22 21.75-842.34 70.39-1277.35 103.63-691.2 48.71-1452.11 114.43-2135.95 23.26-165.48-22.06-572.76-168.37-710.58-183.99-139.76-15.83-733.26 138.54-886.1 152.27l-680.97 57.1c-486.36 35-1223.13-97.24-1704.53-137.97C709.77 168.21 485.78-20.41 0 3.86v1231.33h12557.72l-3.73-4.23h3609.48V167.3z" />
</svg>