<svg xmlns="http://www.w3.org/2000/svg" viewBox="0 0 4160.03 413.56">
  <path
    d="M-0 413.56l0 -249.49 0 -95.43c18.8,-0.73 36.99,-0.29 54.7,1.04l0.68 -1.16 1.51 -5.15 -3.72 -5.5 1.74 0.12 3.41 1.4 3.26 3.72 0.77 5.89 -0.67 1.27c8.01,0.71 15.93,1.58 23.76,2.61l0.66 -1.13 -0.34 1.17c23.65,3.13 46.58,7.63 69.16,12.79l-0.2 -1.22 -1.43 -4.77 1.16 0.08 2.72 3.1 2.55 3.92c8.84,2.06 17.63,4.21 26.39,6.41l2.17 -4.18 0.35 3.52 -0.18 1.24 11.61 2.96 1.28 -2.18 1.71 -8.06 -0.28 -4.69 2.21 1.9 1.59 2.44 -0.46 6.97 -1.09 4.89 8.94 2.31 -0.1 -0.85 1.08 -7.52 5.23 -8.41 1.55 -5.73 -0.93 -3.56 -1.59 -2.44 0.04 -0.58 4.45 3.21 2.37 8.33 -1.47 4.58 -3.52 9.1 -0.37 5.62 7.85 2.03 -1.66 -7.26 -0.31 -4.1 1.94 5.96 2.89 6.14 6.6 1.7 1.19 -10.63 3.91 -6.16 -1.63 6.89 0.63 10.94c9.82,2.5 19.67,4.94 29.57,7.27l-0.37 -1.63 -2.52 -6.01 -1.05 -1.82 -1.01 -2.4 2.25 1.32 4.46 3.21 3.87 8.64c6.52,1.5 13.07,2.95 19.65,4.33l0.93 -3.17 -0.58 -8.8 -0.28 -4.68 1.2 -0.51 2.09 3.64 2.01 4.81 1.13 9.41 -0.06 0.62c6.76,1.36 13.55,2.64 20.4,3.83l2.44 -4.69 5.23 -8.41 0.31 4.11 -2.29 8.02 -0.78 1.8c3.26,0.54 6.55,1.06 9.83,1.55l0.09 -0.4 7.09 -10.03 3.49 -8.53 0.38 -5.81 2.21 1.9 1.59 2.44 -1.05 6.93 -2.79 6.82 -1.08 7.52 0.13 0.58c4.09,0.54 8.2,1.04 12.33,1.49l-0.81 -10.64 5.39 -10.73 6.43 -8.91 -0.08 -7.59 -1.59 -2.44 1.12 0.66 3.34 2.56 2.13 3.06 -1.05 6.94 -1.4 3.41 -3.99 7.33 -2.71 14.41 0.2 2.69c3.7,0.36 7.43,0.68 11.17,0.96l-1.38 -4.74 -1.4 -14.1 2.87 9.53 5.89 7.98 1.05 1.82 3.59 0.21 -0.57 -1.75 -0.23 -5.27 1.74 -8.64 4.65 -8.45 1.24 -1.09 -2.13 5.7 -0.74 11.04 1.36 5.93 1.02 2.84c5.19,0.22 10.42,0.34 15.7,0.4l0.02 -0.37 -1.4 -5.35 2.05 4.22 0.15 1.5c6.28,0.04 12.62,-0.02 19.03,-0.24l-1.28 -7.08 -3.14 -5.46 -1.59 -2.44 -1.08 -1.24 1.74 0.11 5.69 2.13 5.82 9.14 0.43 4.57 0.27 -0.01c6.72,-0.32 13.48,-0.5 20.28,-0.57l2.19 -10.03 -0.51 -9.96 0.04 -0.58 0.08 -1.16 2.71 3.1 2.67 3.68 1.74 8.87 -0.65 6.06c6.81,0.03 13.65,0.18 20.52,0.43l9.3 -15.06 1.36 -2.83 0.47 1.78 -2.48 10.92 -1.6 5.47c3.58,0.16 7.16,0.36 10.76,0.57l1.23 -4.19 7.13 -10.62 3.41 -7.36 0.38 -5.81 2.79 1.94 1.63 1.86 -1.08 7.52 -2.83 7.4 -0.97 5.77 1.03 4.37c4.58,0.35 9.16,0.74 13.76,1.16l-0.69 -6.93 -0.62 -8.21 5.27 -8.99 5.08 -6.08 1.94 -2.79 -0.24 -5.27 -2.13 -3.06 0.04 -0.58 1.71 0.69 3.95 2.01 2.56 5.43 -2.86 7.98 -3.29 5.62 -1.47 4.58 -1.35 11.58 0.59 4.85c4.7,0.47 9.41,0.98 14.13,1.52l-3.33 -10.87 -2.09 -12.4 3.52 8.41 9.73 11.74 1.79 4.27 3.22 0.4 -0.05 -0.25 -1.4 -5.34 -1.36 -5.93 3.17 -12.63 4.99 -4.92 -2.13 5.7 -0.66 9.88 4.89 14.33 0.07 0.13c5.35,0.7 10.7,1.44 16.06,2.2l0.95 -4.7 -1.36 -5.93 2.56 5.43 0.28 5.55c7.4,1.07 14.81,2.18 22.24,3.34l0.96 -2.07 -4.46 -11.98 -5.31 -7.94 4.58 1.47 3.87 3.17 4.38 4.38 3.53 8.4 0.1 5.76c7.09,1.13 14.18,2.28 21.28,3.46l0.21 -0.19 3.56 -9.69 -0.62 -8.22 -0.35 -3.53 0.16 -2.32 2.71 3.1 4.23 6.7 0.93 12.32 -0.61 3.53 21.69 3.7 6.5 -9.48 2.67 -5.08 1.09 1.24 -1.86 10.38 -1.67 4.09 10.04 1.72 5.27 -8.99 3.33 -6.2 0.54 -8.14 0.15 -2.32 3.3 3.14 0.78 5.89 -0.86 4.03 -2.28 8.02 0.1 6.34 9.88 1.69 0.01 -0.37 -0.12 -7.01 -0.04 -8.17 4.61 -7.87 2.13 -5.7 0.5 -7.55 -2.56 -5.43 5.54 4.46 1.13 9.41 -1.51 5.15 -3.06 10.89 -0.51 13.22 9.94 1.66 -1.68 -8.53 -2.32 -8.91 0.73 -2.29 3.49 8.99 4.15 7.86 0.98 3.76 2.99 0.5 -0.53 -3.44 -0.7 -15.8 4.18 -10.23 -1.04 6.93 -0.5 7.56 2.05 12.98 0.84 2.71 7.08 1.14 0.12 -1.83 -3.99 -10.19 -1.05 -1.82 -0.47 -1.78 1.71 0.7 3.37 1.98 4.69 8.49 0.62 5.26 13.83 2.14 0.28 -0.59 1.9 -10.96 -0.08 -7.59 -1.4 -5.35 1.24 -1.09 3.14 5.46 2.29 9.49 -0.29 11.68c4.67,0.69 9.33,1.36 13.99,2.01l6.95 -16.99 0.77 -2.86 2.09 -5.12 0.54 0.62 0.43 2.36 -1.86 10.38 -2.14 12.53 9.28 1.21 0.27 -2.16 1.2 -9.26 6.7 -12.98 1.67 -7.47 0.23 -3.49 0.73 -2.29 2.71 3.1 0.66 7.63 -2.91 8.57 -0.42 6.39 3.75 13.74c3.48,0.4 6.95,0.79 10.42,1.16l-0.96 -11.69 -1.28 -7.09 -0.08 -7.59 5.89 -9.53 3.87 -5.58 1.51 -5.15 -2.01 -4.81 0.08 -1.16 1.67 1.28 3.37 1.98 1.98 5.39 -2.29 8.02 -2.67 5.08 -2.09 5.12 -0.85 12.78 2.01 13.56 0.1 0.25c4.47,0.44 8.94,0.85 13.39,1.22l0.06 -3.48 -2.4 -7.74 -3.76 -13.68 -1.36 -5.92 5.23 9.1 5.89 7.98 3.64 6.66 1.85 7.8 3.31 0.24 -1.24 -5.44 -1.4 -5.35 -1.9 -6.55 1.28 -10.42 3.33 -6.2 3.1 -2.71 -2.13 5.7 -0.61 9.3 3.83 12.51 4.59 9.73c8.43,0.49 16.81,0.84 25.15,1.03l6.81 -8.62 3.15 -7.72 -2.15 -8.65 -0.72 -2.88 3.15 5.11 2.14 8.65 0.03 13.41 0.25 0.87c3.29,0.01 6.58,-0.01 9.85,-0.06l4.81 -6.16 5.47 -7.83 -2.3 -12.14 -7.44 -9.57 -1.24 -1.69 -0.63 -1.14 1.77 0.5 6.53 2.61 7.38 8.41 4.27 16.71 0.44 9.7 3.14 -0.17 5.57 -0.61 1 -3.54 8.2 -12.04 1.85 -10.58 -1.54 -8.09 -1.35 -4.02 0.5 -1.77 4.89 5.02 3.95 9.73 0.14 15.74 2.41 7.35 14.2 -1.57 1.48 -5.44 7.96 -17.27 1.56 -4.16 1.12 -1.21 -0.08 11.08 -3.35 15.9 0.04 0.14 10.72 -1.18 0.15 -2.37 1.38 -8.23 5.84 -12.51 1.43 -7.07 -0.16 -3.48 0.48 -2.36 3.07 3.36 0.37 8.15 -1.93 8.83 2.39 13.89 0.13 0.35 10.46 -1.15 -1.13 -8.95 -1.51 -7.51 1.37 -8.22 5.34 -10.74 0.24 -7.59 -2.52 -3.97 4.16 1.56 3.15 5.11 -0.74 9.36 -2.06 5.93 -1.27 10.55 1.85 13.73 10.09 -1.11 -1.75 -6.66 -3.39 -10.34 -0.77 -4.05 3.23 6.85 4.7 6.24 2.58 -4.65 2.9 -1.24 -0 -7.21 3.17 -7.15 0.53 -1.19 -0.47 2.35 -1.29 9.98 5.42 15.45 111.79 -12.34c10.69,-0.74 27.89,-2.13 48.8,-3.82l-0.76 -3.56 2.32 -5.24 3.49 -1.74 1.75 -1.16 0 1.16 -2.33 4.66 1.16 5.24 0.11 0.19c78.63,-6.33 203.36,-16.23 238.99,-13.1 15.78,1.39 35.52,4.19 56.86,7.49l0 -4.95 -1.75 -5.83 4.66 5.24 1.12 6.16 13.65 2.16 3.87 -7.73 -1.92 8.04 9.68 1.55 -0.19 -3.77 -1.16 -4.66 -2.91 -5.82 -2.33 -8.16 2.91 -5.24 4.07 -1.74 1.75 -0.58 0 0.58 -2.33 2.91 -0.58 5.24 1.75 2.91 4.66 6.41 4.66 9.32 -0.59 4.16 12.98 2.06 -0.16 -1.56 -2.33 -7.57 -0.58 -7.57 1.74 -1.75 2.91 -1.74 0 5.82 2.91 7.57 4.78 8.26 12.16 1.86 -0.05 -0.22 -1.75 -11.07 0.58 -1.75 1.17 2.91 5.81 10.98c7.81,1.15 15.47,2.23 22.87,3.19l-0.15 -3.69 2.33 -8.74 2.91 -3.49 2.91 -2.91 0 1.16 0 0.58 -1.17 9.9 1.23 8.2c4.23,0.51 8.35,0.98 12.34,1.39l8.67 0.9 0.47 -2.92 6.41 -8.74 5.82 -1.75 1.74 0 -1.16 1.16 -1.75 2.33 -3.49 5.24 -1.35 5.38 18.76 2 0.06 -0.39 2.33 -4.07 -1.52 4.55 1.27 0.14 5.04 -9.06 2.31 -5.62 1.08 -11.02 -1.17 -5.97 1.05 1.28 3.21 9.1 0.31 8.8 -1.09 5.16 -2.88 5.57 -0.98 2.49 2.94 0.31 1 -3.1 3.99 -4.88 7.12 -6.91 4.38 -8.93 -3.68 13.68 -5.24 10.95 12.46 1.32 0.51 -1.56 1.96 -8 -0.32 -14.66 -2.74 -7.88 -0.82 -3.59 0.1 -7.01 2.6 -2.67 3.71 -1.98 1.21 -0.47 -1.97 2.15 -1.32 7.48 4.89 9.84 3.56 11.47 -2.93 12.01 -1.1 5.64 10.69 1.11 3.44 -8.41 0.16 -7.59 -1.64 -7.18 0.1 -7.01 1.97 -2.15 2.49 -1.51 -0.57 5.79 2.04 8.98 5.36 11.06 0.64 9.45 10.45 1.05 0.52 -3.51 -2.11 -8.4 -0.95 -8.29 0.98 -4 3.79 9.15 5.16 15.78 16.48 1.59 0.79 -13.42 2.65 -9.11 2.77 -4.41 2.66 -3.25 1.11 0.7 -1.04 4.58 -2 8.58 1.3 10.66 3.4 6.75 11.38 1.03 3.46 -14.77 6.18 -9.35 4.92 -2.44 2.44 -0.93 -1.39 2.21 -1.33 1.63 -3.46 5.51 -4.61 11.25 1.75 6.02 0.81 1.64 12.71 1.05 0.55 -8.92 4.38 -8.93 -0.11 1.16 -1.55 3.95 -1.32 7.48 2.57 5.63 11.23 0.86 1.31 -10.47 -1.16 -6.99 3.49 6.41 0.52 11.36 5.39 0.38 4.58 -8.24 2.33 -5.82 -0.58 4.07 -3.06 10.21 8.73 0.57 0.16 -0.87 0 -9.91 -2.91 -9.32 -1.16 -4.66 2.91 -8.16 4.66 -2.91 0 0.58 -1.75 2.33 -1.16 3.5 1.16 5.82 4.66 8.74 0.58 7.57 -1.16 6.41 -0.17 1.22 9.67 0.53 0.99 -6.41 -1.16 -7.57 0 -6.99 1.74 -2.33 2.33 -1.75 -0.58 4.66 1.16 8.16 4.66 9.32 0.42 3.36c3.32,0.14 6.57,0.26 9.73,0.35l-1.42 -6.62 -0.58 -7.57 0.58 -3.49 7.81 17.85c3.93,0.09 7.72,0.15 11.35,0.16l6.11 -0.11 0.36 -6.84 2.33 -10.49 3.49 -4.66 2.91 -2.91 1.16 0 -1.75 4.66 -1.74 7.57 1.74 9.91 1.68 2.58 16.62 -0.29 2.09 -8.69 6.41 -7.57 5.24 -2.91 2.33 -0.58 2.33 -0.58 -4.66 4.66 -6.99 11.65 0 3.91 21.03 -0.37 1.11 -4.7 2.91 -4.08 -2.91 5.82 0.34 2.93 17.09 -0.3 0.62 -0.87 4.66 -10.49 0.58 -5.82 0 -4.66 -1.16 -5.24 2.33 4.66 2.91 7.57 -1.16 12.23 -1.24 2.49 3.23 -0.06 0.34 -0.68 11.06 -9.9 4.66 -7.57 -4.08 11.65 -2.86 6.34 13.46 -0.24 0.46 -14.26 -2.91 -8.15 -2.32 -5.24 1.16 -5.82 3.5 -3.49 3.49 -1.16 1.74 0 -4.08 5.24 1.17 5.24 2.91 5.83 5.83 9.9 -1.17 7.57 -1.05 4.21 13.86 -0.25 0 -6.29 -0.58 -3.49 -1.74 -8.15 1.74 -2.91 2.33 -1.75 1.74 0.58 -0.58 4.66 1.74 7.57 5.06 9.61 11.26 -0.2 -0.6 -3 0.58 -8.74 2.91 5.82 1.87 5.83 11.67 -0.21 3.02 -11.32 2.62 -5.96 1.02 8.7 -1.27 8.49 11.11 -0.2 0.28 -4.12 5.27 -11.35 1.37 -7.65 -0.81 -4.62 1.72 -0.67 2.41 1.63 1.89 2.83 -1.34 8.23 -0.41 3.52 0.32 6.4 2.25 5.58 11.63 -0.21 1.46 -0.07 -0.65 -3.11 -2.09 -6.89 -1.54 -7.5 5.33 -10.18 2.62 -5.96 0.91 -5.29 -4.33 -5.04 1.74 -0.08 3.55 0.99 3.67 3.32 1.45 5.76 -2.07 5.35 -2.51 8.29 1.48 18.01 0.75 1.94 15.13 -0.76 -0.08 -0.21 -5.81 -11.38 -4.65 -11.44 5.03 7.33 11.54 9.34 3.32 5.88 3.19 -0.16 -4.27 -7.58 -1.77 -12.16 2.54 -7.71 2.09 -4.77 -0.9 5.3 0.23 4.65 0.87 5.79 5.17 10.24 4.6 5.81 12.81 -0.64 0.53 -7.81 -3.19 -5.67 3.11 3.93 2.71 9.4 18.35 -0.91 1.39 -2.59 -0.29 -5.82 -7.56 -11.29 -4.88 -4.42 2.35 0.47 2.35 0.47 5.38 2.65 6.78 7.24 3.76 12.83 12.97 -0.65 3.95 -6.79 1.25 -9.98 -2.12 -7.47 -1.98 -4.57 1.16 -0.06 3.06 2.77 3.72 4.48 2.85 10.35 1.09 10.62 15.93 -0.8 0.81 -3.13 7.22 -19.02 0.76 3.46 -0.21 7.59 -1.34 8.23 0.31 2.48 9.32 -0.47 0.58 -7.77 4.19 -9.54 0.76 -8.2 -0.81 -4.62 2.41 1.63 1.86 2.25 0.34 6.98 -0.79 7.62 2.28 11.13 9.68 -0.49 -1.26 -6.5 -1.48 -6.34 0.21 -7.59 4.23 -8.96 0.87 -5.87 -1.33 -3.43 -1.86 -2.24 -0.03 -0.58 4.8 2.68 3.31 8 -0.93 4.72 -2.45 9.45 0.49 9.89 1.48 6.34 0.04 0.14 9.3 -0.47 -1.43 -4.73 -4.07 -11.46 -0.78 -4.04 2.61 5.7 6.34 10.18 2.31 4.11 3.5 -0.18 -1.8 -5.3 -0.05 -12.83 3.17 -6.58 -0.82 7.04 2.44 13.87 1.5 3.56 30.16 -1.51 4.96 -9.64 -0.96 -7.53 -1.37 -4.01 -0.06 -1.16 3.96 9.14 0.17 12.28 12.04 -2.62 1.54 -2.76 2.03 -5.93 -4.06 -11.46 -3.2 -5.67 -1.25 -1.69 -1.28 -2.27 2.38 1.05 4.8 2.68 5.72 9.63 2.65 14.41 13.13 -2.82 2.11 -3.73 1.81 -10.59 -1.6 -8.67 -0.81 -4.62 1.13 -0.64 2.5 3.38 2.56 4.54 2.21 9.22 0.1 8.99 19.56 -4.13 2.94 -7.73 4.22 -8.95 0.79 4.04 -1.34 8.23 -0.98 3.23 10.89 -2.27 5.39 -9.89 2.48 -8.87 -0.29 -5.82 2.41 1.63 1.86 2.25 -0.24 7.01 -1.99 7.1 -0.12 4.63 11.4 -2.33 -0.88 -4.57 4.11 -11.28 5.35 -9.59 -0.95 -7.54 -1.86 -2.24 1.19 0.53 3.6 2.16 2.47 2.79 -0.24 7.01 -0.99 3.55 -3.12 7.74 -0.69 9.82 8.53 -1.72 -2.08 -9.55 3.95 9.14 0.03 0.04 10.29 -2.06 0.41 -4.93 3.64 -8.92 1.11 -1.22 -1.45 5.9 0.41 8.36c14.41,-2.85 28.57,-5.58 41.96,-8.07l4.69 -5.42 1.64 -8.58 -0.73 -5.47 1.52 4.45 -0.26 10.62 -0.62 3.26c6.44,-1.18 12.67,-2.29 18.65,-3.34l1.37 -2.14 -0.67 -12 -2.45 -5.8 -1.27 -2.62 -0.93 -1.36 1.71 0.33 5.4 2.81 4.65 9.78 -0.29 9.7c7.4,-1.25 14.33,-2.36 20.66,-3.31l3.36 -9.55 0.71 -9.94 0.11 -0.57 0.22 -1.14 2.31 3.41 2.2 3.98 0.64 9.02 -0.83 3.55c10.72,-1.46 19.11,-2.27 24.34,-2.24 0.37,0 0.85,0.02 1.42,0.07l5.07 -6.32 1.7 -2.64 0.24 1.83 -2.75 7.64c3.17,0.43 7.4,1.11 12.53,1.98l4.88 -5.63 4.28 -6.88 1.1 -5.72 2.53 2.27 1.39 2.04 -2 7.33 -3.71 6.99 -0.3 1.03c3.97,0.7 8.3,1.49 12.92,2.34l0.27 -5.64 6.33 -8.28 5.78 -5.42 2.27 -2.53 0.41 -5.26 -1.74 -3.31 0.11 -0.57 1.61 0.9 3.68 2.48 1.88 5.7 -3.82 7.57 -3.96 5.17 -2.02 4.36 -1.59 6.53 10.73 2.02 -0.05 -0.29 -0.56 -12.56 2.47 8.77 3.22 5.04 8.05 1.55 -0.03 -0.29 4.7 -12.15 5.56 -4.27 -2.82 5.4 -1.86 9.72 0.58 2.77 4.41 0.85 -0.03 -0.04 4.71 0.93 0.03 0.02c12.09,2.35 24.81,4.85 37.73,7.39l-0.88 -4.58 -0.76 -3.46 -0.11 -2.32 3.05 2.77 4.97 6.17 0.47 2.4c15.66,-0.85 31.43,-1.64 47.35,-2.35l-0.32 -6.49 -0.11 -2.32 3.64 2.73 1.45 5.76 -0.01 0.12 8.95 -0.38 1.91 -4.35 1.46 -5.9 -0.38 -7.56 -3.16 -5.09 6.02 3.78 2.21 9.22 -0.9 5.29 -0.69 4.35 9.52 -0.37 6.19 -0.23 2.26 -8.1 -0.24 7.01 0.05 1.01c9.33,-0.34 18.7,-0.66 28.1,-0.96l-0.03 -0.24 -2 -5.15 1.11 -1.22 3.75 5.07 0.53 1.44c7.77,-0.24 15.56,-0.47 23.38,-0.67l0.03 -0.21 1.48 -5.32 0.61 0.55 0.7 2.3 -0.16 2.6 11.92 -0.29 1.56 -4.13 0.79 -7.62 -0.18 -3.49 0.47 -2.35 3.05 2.77 1.54 7.5 -1.54 7.2 10.98 -0.24 -0.57 -4.48 4.75 -10.15 3.2 -5.99 0.9 -5.29 -2.56 -4.54 -0.05 -1.16 1.8 1.08 3.58 1.57 2.58 5.12 -1.34 8.23 -2.06 5.35 -1.48 5.32 0.24 4.77 9.7 -0.17 -1.1 -2.71 -2.03 -5.73 6.21 8.39 10.77 -0.17 0.04 -6.15 2.59 -6.54 2.77 -3.06 -1.45 5.91 0.46 9.31 0.21 0.47c12.76,-0.17 25.56,-0.28 38.39,-0.34l-1.98 -2.53 -1.25 -1.69 -0.64 -1.13 1.77 0.49 6.55 2.59 1.98 2.23c9.59,-0.03 19.2,-0.03 28.83,-0l-0.5 -2.57 -1.37 -4.01 0.5 -1.77 4.91 5 1.38 3.37c10.3,0.04 20.6,0.12 30.91,0.24l0.51 -0.57 0 0.57 15.11 0.2 1 -5.07 -0.17 -3.49 0.47 -2.35 3.08 3.35 0.38 7.64 9.4 0.17 0.4 -2.48 5.29 -10.76 0.21 -7.59 -2.53 -3.96 4.16 1.54 3.17 5.09 -0.7 9.37 -2.04 5.94 -0.35 3 5.32 0.12 -0.2 -1.03 0.49 1.03 12.92 0.3 -0 -1.42 3.15 -7.15 0.53 -1.19 -0.47 2.35 -0.94 7.47 12.73 0.35c13.2,-2.93 27.94,-6.29 43.87,-9.96l-1.93 -3.48 -1.31 -2 0.93 0.91 4.22 4.14 13.81 -3.2 0.02 -0.37 0.07 0.35 5.15 -1.19 -1.56 -2.88 -4.1 -4.75 -4.13 -8.44 1.05 -5.9 3.29 -2.98 -0.88 4.61 3.01 6.97 8.91 8.02 2.13 3.54 9.55 -2.23 -1.56 -2.32 -2.65 -7.71 1.62 -4.26 1.31 2.01 1.14 3.3 3.92 6.05 1.73 1.64 13.53 -3.15 -2.63 -6.52 1.48 0.72 2.98 3.29 1.75 1.67 24.73 -5.78 -1.7 -4.4 0.09 -10.5 2.7 -6.47 1.12 1.46 0.23 4.24 1.55 8.09 3.56 5.82 20.6 -4.82 -1.21 -9.5 3.78 -10.54 5.11 -4.84 1.47 -1.12 -0.17 1.28 -0.54 2.03 -3.39 11.64 1.8 9.44 19.6 -4.57 -0.18 -0.45 -1.18 -8.84 1.05 -5.9 0.39 2.94 1.19 8.83 2.44 2.55c12.96,-3.02 26.04,-6.04 39.15,-9.07l-0.46 -0.39 -4.72 -3.25 -5.75 -6.05 -0.75 -5.68 2.07 -3.32 0.88 -1.91 0.6 1 0.45 5.18 3.73 3.87 6.02 3.15 8.41 4.98 11.11 -2.55 -3.96 -3.76 -2.95 -7.07 0.97 -4.01 1.71 1.69 1.82 2.98 4.95 5.85 4.02 2.82 12.62 -2.87 -4.6 -5.94 -0.72 -2.29 0.19 -0.81 4.23 3.56 2.02 2.19 2.84 2.39 19.56 -4.42 -2.58 -4.64 -2.38 -9.46 0.25 -6.29 1.61 0.38 1.24 5.39 3.45 6.76 4.92 6.41 14.5 -3.23 -2.77 -7.21 0.22 -9.7 2.07 -3.31 1.19 -1.41 0.41 1.8 -0.08 2.09 1.19 10.88 3.42 5.6 12.65 -2.79 -0.17 -0.26 -2.8 -11.27 1.85 6.38 2.91 4.75 15.39 -3.35 -0.49 -7.85 -2.84 -5.38 3.87 4.58 2.56 7.97c7.23,-1.56 14.36,-3.09 21.38,-4.57l0.5 -2.86 -7.39 -10.42 -7.18 -6.3 4.8 0.25 4.56 2.07 5.36 3.1 5.57 7.22 1.52 5.33c7.44,-1.56 14.75,-3.07 21.88,-4.52l0.73 -7.93 -2.71 -7.78 -1.25 -3.31 -0.45 -2.29 3.43 2.29 5.8 5.39 4.08 11.66 0 0.02c8.43,-1.69 16.6,-3.28 24.47,-4.78l1.61 -4.53 1.27 -5.59 1.37 0.92 0.69 8.27c4.08,-0.77 8.05,-1.49 11.95,-2.19l0.59 -2.15 1.62 -6.85 -1.57 -8 -0.45 -2.29 3.99 2.18 2.27 5.49 0.22 4.11 -0.11 6.32 9.22 -1.59 -1.68 -6.2 2.42 -8.78 0.59 -6.05 -1.46 -7.43 -3.87 -4.58 6.51 2.87 3.51 8.81 -0.13 5.37 -0.15 11.31 0.81 3.6 7.34 -1.17 -3.57 -6.3 0.12 -2.4 5.69 7.79 0.46 0.5 6.92 -1.02 -2.56 -8.15 1.41 -10.96 0.78 6.97 1.46 7.43 1.9 4.29c11.01,-1.51 20.45,-2.52 28,-2.9l0.9 -2.15 0 -9.9 -1.75 -5.83 4.66 5.24 2.26 12.44c2.86,-0.04 5.8,-0.04 8.8,-0.01l3.5 -3.7 4.08 -8.15 -2.84 11.92c3.49,0.07 7.08,0.18 10.73,0.33l-0.32 -6.43 -1.16 -4.66 -2.91 -5.82 -2.33 -8.16 2.91 -5.24 4.07 -1.74 1.75 -0.58 0 0.58 -2.33 2.91 -0.58 5.24 1.75 2.91 4.66 6.41 4.66 9.32 -0.82 5.72c4.31,0.24 8.72,0.53 13.24,0.86l-0.19 -1.92 -2.33 -7.57 -0.58 -7.57 1.74 -1.75 2.91 -1.74 0 5.82 2.91 7.57 4.55 7.85c4,0.33 8.06,0.69 12.19,1.07l-1.59 -10.08 0.58 -1.75 1.17 2.91 4.97 9.4c7.65,0.73 15.53,1.54 23.62,2.41l-0.05 -1.33 2.33 -8.74 2.91 -3.49 2.91 -2.91 0 1.16 0 0.58 -1.17 9.9 0.85 5.68c7.11,0.79 14.37,1.62 21.77,2.49l0.09 -0.59 6.41 -8.74 5.82 -1.75 1.74 0 -1.16 1.16 -1.75 2.33 -3.49 5.24 -0.79 3.15 13.73 1.62 0 -9.12 -1.75 -5.83 1.16 1.17 4.08 8.74 0.74 5.54 1.2 0.14 1.43 -2.5 -0.86 2.57 8.28 0.99 0.29 -0.34 3.49 -9.32 -1.65 9.91 8.65 1.03 -1.17 -9.77 -3.49 -7.57 -1.16 -3.49 -0.58 -6.99 2.33 -2.91 3.49 -2.33 1.16 -0.58 -1.75 2.33 -0.58 7.57 5.82 9.32 4.66 11.07 -0.62 4.32 11.4 1.34 -0.3 -3.92 -2.33 -6.99 -0.58 -6.99 1.75 -2.33 2.33 -1.74 0 5.82 2.91 8.74 5.17 8.45 11.12 1.28 -0.56 -1.57 -1.75 -8.15 0.58 -4.08 4.66 8.74 2.49 5.67c6.75,0.76 13.57,1.51 20.46,2.24l-0.24 -6.16 1.75 -9.32 2.33 -4.66 2.33 -3.49 1.16 0.58 -0.58 4.66 -1.16 8.73 2.33 10.49 0 0.01c5.32,0.56 10.69,1.1 16.08,1.63l1.39 -10.38 5.24 -9.9 4.66 -2.91 2.33 -1.17 -1.17 2.33 -1.16 1.74 -2.91 5.83 -3.49 11.65 1.37 3.42c4.83,0.47 9.7,0.92 14.59,1.37l-0.23 -6.53 3.49 -9.32 0 1.16 -1.16 4.08 -0.58 7.57 1.94 3.35c8.37,0.75 16.82,1.46 25.35,2.13l1.03 -8.26 -1.16 -6.99 3.49 6.41 0.41 9.13 6.66 0.5 3.41 -6.13 2.33 -5.82 -0.58 4.07 -2.42 8.08 8.25 0.57 0 -8.66 -2.91 -9.32 -1.16 -4.66 2.91 -8.16 4.66 -2.91 0 0.58 -1.75 2.33 -1.16 3.5 1.16 5.82 4.66 8.74 0.58 7.57 -1.01 5.56 9.65 0.6 0.68 -4.41 -1.16 -7.57 0 -6.99 1.74 -2.33 2.33 -1.75 -0.58 4.66 1.16 8.16 4.66 9.32 0.18 1.43 9.59 0.5 -1.03 -4.83 -0.58 -7.57 0.58 -3.49 7.08 16.18c6.05,0.28 12.14,0.52 18.25,0.72l0.3 -5.84 2.33 -10.49 3.49 -4.66 2.91 -2.91 1.16 0 -1.75 4.66 -1.74 7.57 1.74 9.91 1.34 2.05c5.63,0.16 11.27,0.28 16.93,0.37l2.12 -8.84 6.41 -7.57 5.24 -2.91 2.33 -0.58 2.33 -0.58 -4.66 4.66 -6.99 11.65 0 4.27c6.92,0.08 13.87,0.1 20.84,0.07l1.3 -5.51 2.91 -4.08 -2.91 5.82 0.44 3.75c14.46,-0.07 29.01,-0.38 43.62,-0.97l0 346.35 -1.24 0 1.24 1.09 -4160.03 0zm1050.75 -241.11l1.71 -0.19 -2.15 -7.19 -0 -4.05 -1.15 2.01 0.58 7.57 1.02 1.84z" />
</svg>