<svg xmlns="http://www.w3.org/2000/svg" class="w-full fill-current" viewBox="0 0 4159.72 1290.53">
  <path
    d="M 2894.8 885.1 c 3.2 9.6 5 10.7 3.2 13.4 c -1.8 2.6 -4.9 3 -3.5 7.4 c 1.4 4.5 4.6 3.4 4.6 6.3 c 0 3 -0.7 2.1 -1.4 4.2 c -0.7 2 -4.9 5.6 -4.9 5.6 c -14.7 -1.1 -14.4 -4.8 -34.5 -7.8 c 0 0 11.9 -4.5 22.2 -9.8 c 10.2 -5.3 14.4 -19.3 14.4 -19.3 z m -1533.6 160.8 c -2.9 -4.3 -5.1 -9 -5.4 -13.5 c -0.9 3.2 -0.7 6.3 0.2 9.2 c -1.1 -0.6 -2.6 -0.3 -5.5 -3.3 c -4.9 -5.2 -0.5 -2.8 -3 -6.3 c 1.9 0 3.8 -0.4 5.9 -1.6 c 0.5 -0.3 1.8 -0.8 1.5 -1.4 c -1.3 -2.2 -3 -3 -5.4 -3.5 c -1.1 -2 -1.4 -2.9 -3.3 -3.7 c 0.5 -0.1 1.2 -0.3 2.3 -0.6 c -2.3 -1.7 -5.7 -2.2 -9.4 -2.2 c -0.1 -0.3 -0.1 -0.5 -0.3 -0.8 c -2.4 -6 -0.5 -0.1 -9.3 -4.1 c 1.9 -0.5 3.8 -1.2 5.7 -2 c 5.4 2.5 12.5 13.2 18.7 0.1 l -9.4 -14.8 c -1.4 -1.7 -2.5 -3.1 -3.4 -4.3 c 1.7 -0.3 3.3 -1 5 -2.3 c 1.5 0.8 3.4 1.3 8 1.7 c -1 -4.7 -1.6 -2.7 -3 -6.3 c 0.1 -0.1 0.3 -0.2 0.4 -0.3 c 0.1 -0.1 0.4 -0.3 0.7 -0.5 l 6.7 0.6 c -2.4 -1.5 -4.4 -2.9 -6.2 -4.2 c -0.5 -1.3 -1.3 -2.1 -1.8 -4 c 5.8 -0.4 10.5 -0.2 13.5 -6.4 c -1.4 -0.6 -2.9 -1.1 -4.5 -1 c -2 0.1 -5 1.3 -6.8 1.4 c 1 -1.6 2 -2.3 1.1 -5.2 l 5.5 2.6 c -1.1 -2.9 -2 -2 -0.3 -5.8 c 0.1 -0.2 0.5 -0.7 0.7 -0.9 l 1.7 -1.7 c -4.4 -0.2 -5.6 -0.9 -7.5 -2.1 c 0.4 -0.6 0.7 -1.2 1.1 -1.9 l -0.5 -0.2 c 3.5 -0.9 3.1 -1.2 5 -3.1 c -3.4 -4 -3.5 -5.8 -7.7 -9.4 c -3.3 -2.8 -5.4 -4.9 -6.7 -6.6 c 1 -1 1.8 -2.3 2.8 -4.2 c -1.6 0.3 -3.2 0.6 -4.7 1 c -1.2 -3.4 2.5 -2.9 -6.4 -5.9 c -0.1 -0.3 -0.3 -0.8 -0.4 -1.3 c 5 0.4 9.1 1.1 11.9 -3.9 c -1.2 -0.7 -2.4 -1.3 -3.8 -1.4 c -1.8 -0.2 -4.7 0.5 -6.2 0.4 c 0.1 -1.1 0 -2.6 0 -3.8 c -0.4 0 -0.8 0 -1.3 0 c 0 -0.1 0.1 -0.3 0.2 -0.4 c -0.7 0.1 -1.5 0.2 -2.3 0.4 l -0.2 0 c -4.7 0.1 -3.4 0.5 -3.8 -1.2 c 4 -1.5 7.2 -2.5 11.2 -3.7 c 0.8 0.1 1.6 0.2 2.5 0.2 c -0.6 -0.3 -1.1 -0.5 -1.6 -0.7 c -0.8 -2.1 -1.3 -2.7 -2 -3.3 c 0.1 -0.1 0.1 -0.2 0.2 -0.3 c -0.4 -0.2 -0.8 -0.5 -1.2 -0.6 l 10.2 -0.9 c -2.7 -1.7 -6.3 -1.8 -10 -2.1 c 2.3 -0.7 3.5 0.5 5.5 -3.5 c 0.5 -0.9 0.6 -0.7 0.2 -1.1 c -0.3 -0.3 -6.3 -1.5 -7.2 -1.6 c -0.2 0 -2.3 0 -1.6 -0.2 c 4.5 -0.8 6.4 -1.6 7.9 -6.2 c -1.6 -0.6 -3.1 -1.2 -4.9 -1.2 c -2.1 0 -5.7 1.4 -7.3 1.4 c 0 -0.4 -0.1 -0.9 -0.3 -1.4 c 1.4 -0.7 2.4 -1.8 3.6 -3.9 c -1.1 0 -2.3 0.1 -3.4 0.3 c 0.1 -0.1 0.1 -0.2 0.3 -0.3 c 1.4 -1.2 2.6 -2.4 3.2 -3.9 c -6.1 -2 -10.2 -3.2 -13.4 -5 c 0.1 -0.4 -0.3 -0.5 -1.3 -0.9 c 3.5 -0.7 4.6 -1.7 6.2 -4.8 c -2.1 0 -4.2 0.3 -6.3 0.5 c -0.3 -0.8 -0.3 -1.3 0.1 -1.8 c 0.2 0 0.4 -0.1 0.6 -0.1 c 4 -0.9 7 -1.4 11 -2.1 c -0.6 -2 -1 -2.6 -1.6 -3.3 c 0.3 -0.6 0.5 -1.3 0.6 -2.2 c -0.9 0 -1.9 -0.1 -2.9 -0.2 c -0.3 -0.3 -0.4 -0.3 -0.1 -0.6 c 3.4 -1.9 4.3 1 6.8 -3.1 c 0.4 -0.7 0.6 -0.5 0.2 -0.9 c -0.3 -0.3 -5.4 -2.1 -6.1 -2.3 c -0.1 0 -2 -0.3 -1.3 -0.3 c 3.9 -0.2 5.5 -0.6 7.1 -4.4 c -1.3 -0.7 -2.6 -1.5 -4.2 -1.7 c -1.8 -0.2 -4.9 0.5 -6.3 0.3 c 0 -0.9 -0.3 -1.9 -0.4 -2.8 c -0.2 -1 -0.3 -0.9 0.3 -1.3 c 0.4 -0.2 2.1 -2.2 1.8 -2.6 c -0.4 -0.5 -4.9 -2.1 -5.7 -2.4 l -0.6 -0.2 c 2.4 0.3 5 0.8 7.5 1.6 l -0.6 4.8 c 6.9 -0.5 3.6 -0.5 9 1.6 l 2.6 -6.8 l 7.9 -0.9 c -9.6 -6 -1.2 -3.2 -0.7 -4.8 c -9.5 -0.3 -9.9 -0.6 -17.4 -3 c -6.3 -2.1 -8.3 -2.8 -8.1 -4.2 c 2.8 -0.3 4.4 -0.3 5.4 -4.2 c -0.8 -0.2 -1.6 -0.3 -2.4 -0.5 c 0 0 0.1 -0.1 0.1 -0.2 c -0.2 0 -0.5 0 -0.7 0.1 c -1.1 -0.3 -2.3 -0.6 -3.4 -0.9 c -4 -1.3 -5.2 -2.4 -5.5 -3.4 c 0.6 -0.3 1.3 -0.8 1.9 -1.5 c 0.7 -0.3 1.4 -0.8 2.3 -2 c 0.8 -1.3 1.4 -1.6 0.1 -2.2 c -0.4 -0.2 -0.8 -0.3 -1.2 -0.5 c 0.3 -0.5 0.6 -1 0.8 -1.6 c -1.6 0 -3 0 -4.5 0 c 1.9 -0.7 2 -1.6 2.5 -3.6 c -1.9 -0.5 -3.8 -1 -5.7 -1.6 c -0.3 -0.1 -0.6 -0.2 -0.8 -0.3 c 2.1 -1.9 4.1 -3.8 6.3 -5.7 c -1.7 -1.2 -3.5 -2.1 -5.6 -2.5 c -0.4 0 -0.8 -0.1 -1.4 -0.1 c 0 -0.2 0 -0.5 0 -0.7 c 0.6 -0.7 1.3 -1.5 1.9 -2.2 c 1.3 -0.2 1.2 -0.4 2.5 -0.9 l 1.3 -0.7 c 0.1 -0.1 1.3 -0.7 1.6 -0.8 c 5.1 -1.8 3.7 -1.1 8.6 -0.1 c 1.6 -3.5 0.7 -2.9 0.1 -6.3 c 2.8 0 2.8 0.3 5.5 -0.4 c 3.7 -1 1 0.2 3.3 -1.9 c -5.6 -2.3 -0.7 -2.5 -9.7 -2.2 c -4.7 0.2 -3 1 -6.9 -0.6 c 0.3 -0.4 0.2 -0.6 -0.5 -1.1 c -3 -1.8 -5.8 -3.2 -9.1 -4.5 c -0.3 -0.1 -0.6 -0.2 -0.8 -0.3 c 0.3 -0.5 0.5 -1 0.8 -1.7 c 2.5 -1.8 5 -3.7 7.4 -5.5 c -0.6 -0.5 -1.1 -0.9 -1.7 -1.3 l 0.3 0.1 l 0.3 -1.8 c 0.3 0 0.7 0 1.1 0.1 c 3.1 0.4 4.1 -1.5 5.3 -4.2 c -1.1 -0.1 -2.3 -0.3 -3.4 -0.3 c -6.6 -5.7 2.6 0.4 -0.5 -6.3 c -4.1 -1 -8.7 -1.3 -12.8 -2.5 c 0.9 -0.7 1.7 -1.3 2.6 -1.9 c -1.9 -1.6 -3.1 -2.4 -5 -3 c 0.7 -0.2 1.4 -0.2 2.4 -0.1 c 1.8 0.2 2.9 -0.1 3.8 -0.9 c 0.8 -0.4 1.4 -1.2 2 -2.9 l -0.2 -0.1 l 0 0 l -0.2 0 c -0.8 -0.3 -1.7 -0.7 -2.4 -1 c 0.1 -0.1 0.3 -0.1 0.4 -0.2 c -0.4 -0.1 -0.9 -0.1 -1.3 -0.1 c -1 -0.5 -2.1 -0.9 -3.1 -1.4 c 1.6 0.1 2.9 0.3 4.4 0.6 c 3.4 0.8 1.9 1.2 3.5 -1.3 c 1.7 -2.4 2.7 -2.9 5.4 -2.1 c 2.7 0.7 3.6 -0.8 4.7 -3 c -3.6 -0.9 -7.2 -1.9 -10.8 -2.8 c -0.4 -1.5 -0.8 -3 -1.2 -4.5 c -2 -0.6 -3.6 -1.1 -5.7 -0.6 c -1.7 0.4 -2.7 0.5 -3.8 0.5 c -0.5 -0.1 -0.9 -0.1 -1.4 -0.1 c -0.4 -0.1 -0.8 -0.1 -1.3 -0.2 c 0.3 -1.4 0.1 -2.5 1.1 -3.7 c 0.6 0.1 1.2 0.3 1.8 0.4 c 1.6 0.4 1.1 0.6 1.8 -0.5 c 1.5 -2.4 2.8 -3.9 5.8 -3.1 c 2.9 0.8 3.7 -0.3 5 -2.7 c -3.6 -0.9 -7.2 -1.8 -10.8 -2.8 c -0.3 -1 -0.6 -2 -0.9 -3.1 c 2.6 -0.6 6.4 -0.9 7.3 -3.4 c 0.7 -0.1 1.3 -0.3 1.9 -0.6 c 0.3 -0.2 0.7 -0.5 1.1 -0.9 c 2.2 0.3 4.2 -0.5 6.8 -4.3 c -3.5 -3.1 -6.5 -3.4 -12.8 -3.2 c -2 0.1 -3.2 0.4 -4 0.7 c -1.2 -0.5 -2.1 -0.8 -2.2 -1 c -0.1 -0.1 -0.4 -1.5 -0.7 -2.9 l 5.7 -1.9 c 1.2 -0.6 5.7 -4.3 10.8 -5.4 c 3.1 -0.7 3.1 -0.1 6.2 -1.3 c -2.4 -0.6 -4.4 -1 -6.2 -1.2 c 0.9 -0.5 2.4 -2.1 1.9 -2.9 c -0.2 -0.3 -10.8 -5.5 -11.3 -6 c -0.2 -0.2 -0.7 -4.5 -0.8 -5.1 c -2.2 -0.7 -4 -1.1 -6.3 -0.9 c -3.1 0.3 -5.3 1 -8.7 1 c -0.9 -0.7 -1.8 -1.5 -2.3 -2.4 c 6.7 1.4 6.9 1.7 14.8 0.7 c -2.4 -3.2 -1.8 -2.4 -4.1 -3 c 1.4 -2 2.7 -3.3 5.5 -2.8 c 3.1 0.6 3.6 0.5 5.4 -2.3 c -3.6 -0.8 -7.2 -1.7 -10.7 -2.5 c -0.4 -1.3 -0.8 -2.5 -1.2 -3.9 c -0.1 0 -0.2 0 -0.3 -0.1 c 3 -0.1 5.7 -0.1 8.1 -1.9 c -4.1 -3 -7.8 -4.1 -11 -4.8 c -0.2 -0.4 -0.5 -0.8 -0.9 -1.2 c -0.7 -0.8 -2.2 -1.8 -0.6 -2.3 c 2 -0.6 2.8 -1 3.3 -2 l 4.4 -0.1 l -5.1 -4.9 c 0 -1.2 -0.9 -1.8 -2.6 -2.6 c -0.1 0 -0.2 -0.1 -0.3 -0.1 l -1.8 -1.7 c 2.2 -1.3 2.2 -0.8 4.8 -2 l 2.9 -1.6 c 0.2 -0.5 0.7 -0.4 1 -0.6 l -4.2 -0.9 c -0.6 -0.1 -2.7 0.1 -4 -0.3 l 4 -3.1 l -4.9 -3.1 c -1.2 -1.8 0.8 -0.7 0.2 -2.8 c -1 -0.4 -4.1 -1.3 -4.3 -1.4 c -3 -1.4 -1.2 0.1 -2 -0.6 c 0.3 -0.3 0.4 -0.7 0.6 -1.1 l 10 -0.1 c -3.9 -2.8 -2.1 -2 -7.8 -2.2 l 5.8 -3.3 c -5.3 0 -2.9 1 -6.3 -1.2 c 2.6 -2.3 5.5 -2.1 3.3 -6 c -2 -3.5 -4.3 -1.9 -10 -2.2 c 2.1 -3.9 1.9 -1.4 6.4 -4.2 c -4.6 -1.1 -5.6 -0.5 -4.5 -3.3 c 1.7 -4 2.1 -2.6 8 -2.7 l -5.9 -2.8 c 5 -2.6 2.2 0.3 3.8 -4.2 c -3.8 -0.2 -4.6 0.7 -6.4 -0.6 l 8.1 -1.1 l -7.6 -10.1 c 0.2 -1.4 0.3 -0.8 0.4 -2 l -0.5 -4 c -0.1 -0.2 -0.2 -0.6 -0.3 -0.8 l -0.4 -12.1 c 0.2 -3.9 0.1 -0.9 -0.1 -3 l -0.7 -11.2 c -0.1 -0.3 -1.7 -3.3 -1.4 -7.1 c -0.8 5.1 -2 5.1 -1.9 10.4 c 0.1 5 1.5 3.7 0.4 9.4 c -0.4 1.9 -1.7 4.7 -1.9 5 c -0.8 2.8 1.5 7.4 2.8 11.8 l -7.9 0.6 l 6.5 6.8 c 0.1 -0.3 0.5 0.3 0.8 0.5 l -4.3 3 l 3.6 7.5 c -5.7 0.3 -4.7 -1.2 -7.5 -0.5 c 4 7 0.1 0.8 4.8 4.9 c 3.7 3.2 2.6 -2.6 3.4 5 c -4.8 -1.4 -9.9 -3.7 -13.1 -3.2 c 3.4 5 7.1 6.2 13 5.9 c -1.3 5.4 -1.7 1.8 -0.1 6.9 c -1.4 -0.6 -2.7 -0.9 -4.6 -1.7 c -4.9 -2 -4.3 -2 -9.4 0.6 c 4 5.5 2.3 -0.2 5.2 3 c 4.3 4.7 1.4 -3.5 0.1 1.6 l -0.2 0.7 c -0.4 -0.5 -0.9 -0.9 -1.3 -1.4 c -0.3 1.1 0.2 1.9 1.1 2.6 l -0.3 1.2 c -0.4 0.2 -0.7 0.6 -0.9 1.3 c 0 0.1 0 0.2 -0.1 0.3 c -0.4 -0.3 -0.5 0.7 0 0.4 c 0 1.3 0.8 2.5 1.6 3.5 l -5.8 1.6 c 3.4 1.7 1.6 0.4 3.1 3.7 l -6.1 2.8 c 5 3.8 2.3 -1 5.2 4.6 c -3.8 1 -8.4 2 -11.6 3.7 c 1 0.1 3.4 0.4 6 0.7 l 0 0 c -2.3 1.1 -3.2 1.8 -2.3 4.4 c -0.7 0.2 -1.3 0.5 -1.9 0.7 c 0.6 2.1 0.9 3 1.9 3.6 c -2.9 -0.3 -6 -0.8 -10.6 2.1 c 2.8 2 6.7 1.9 11.1 2.8 c -0.2 0.6 -0.3 1.2 -0.4 2.1 c 1.4 0.1 3.7 0 5.4 0.1 c 0 0.4 0 0.8 0 1.2 c -4.9 1.8 -12.4 2.3 -16 5.1 c 2 0.5 4.5 0.6 7.2 0.5 l -0.3 1.1 c -3.6 0.8 -7.1 1.7 -10.7 2.5 c 1.8 2.8 2.3 2.9 5.4 2.3 c 3.1 -0.6 4.3 1.1 5.9 3.4 c 2.4 -0.6 4.6 -1.1 6.9 -1.2 c 0.1 0.4 0.3 0.7 0.4 0.9 c -1 1.1 -1.1 1.9 -1.3 3.7 c 1 0.2 2.3 0.3 3.6 0.6 l 0 0 c -0.6 0.1 -1.3 0.1 -1.7 0.1 c -3.3 0 -5.6 -0.7 -8.7 -1 c -2.3 -0.2 -4.1 0.2 -6.3 0.9 c -0.1 0.6 -0.6 4.9 -0.8 5.1 c -0.5 0.6 -11.1 5.8 -11.3 6 c -0.6 0.8 1.1 2.6 2.1 2.9 c 2.3 0.8 6.2 -0.3 9.4 -1.6 c 0.8 0.3 1.8 0.3 3.3 0.2 c -0.2 0.6 -0.3 1.1 -0.3 1.6 l -6.8 2.7 c 1.9 0.2 4.5 0.5 6.8 1.2 c -0.2 0.1 -0.4 0.3 -0.6 0.5 c 1.2 0.6 2.5 1.3 3.7 2 c -1.1 0 -2.3 0.1 -3.5 0.3 c 0 0.3 -0.1 1.5 -0.3 2.7 c -0.8 0 -1.6 0 -2.3 0.1 l -5.1 1.5 c -0.3 -0.3 -0.8 0.4 -1.2 0.7 c 0.6 1.3 1.5 2.3 2.6 3 c -3.4 1.3 -7.2 2.6 -7.3 2.8 c -0.7 0.8 1.4 3.1 2.5 3.7 c 1.5 0.7 3.4 0.8 5.4 0.7 c 1 2.4 4.7 2.8 7.3 3.3 c -0.3 1 -0.6 2 -0.9 3.1 c -3.6 0.9 -7.2 1.8 -10.8 2.8 c 1.4 2.5 2.2 3.5 5 2.7 c 3 -0.8 4.3 0.6 5.8 3.1 c 0.7 1.1 0.1 0.9 1.8 0.5 c 0.6 -0.1 1.2 -0.3 1.9 -0.4 c 0.3 0.4 0.5 0.8 0.7 1.2 l -1.9 0.8 c -2.1 0.7 -4.5 1 -6.7 1.4 c -1.1 0.1 -2.1 0.4 -3.3 0.8 l 0 0 c -1.8 0.6 -3.5 1.7 -4.6 3.4 c 1.2 1.1 0.3 1.2 1.1 1.7 c -2.8 0.7 -5.7 1.5 -8.5 2.2 c 1.2 2.2 2.1 3.7 4.7 3 c 2.4 -0.7 3.5 -0.3 4.9 1.4 c -4.3 0.5 -6 1.4 -8.5 5.3 l 11 0.8 c 0.3 0.5 0.6 0.8 1 1 c 0.8 0.8 1.7 1.1 3.2 1.1 c -0.9 2.5 0.2 1.6 -4.6 2.9 c -14.1 3.9 -23.9 2.1 -24.9 9.1 c 6.9 4 16.4 1.2 24.7 0.2 c 0.1 0.3 0.2 0.6 0.3 0.9 c -3.4 0.4 -6.8 0.8 -10.3 1.2 c 1.1 2 2 3.6 3.8 4.1 c -1 0.3 -1.7 1 -3.3 2.1 c 3.5 3 7.1 2.4 9.4 6 c -6 3.8 -7.1 0.4 -14.2 -0.1 c -5.2 -0.3 -10.1 2.1 -12.6 6.5 c -5.1 -1.9 -14.2 -2.1 -20.4 -3.1 c -2.7 -5.2 5.7 -1.3 -6.1 -5.5 c -3.8 -1.3 -7.7 -3.3 -10.9 -3.1 c 1.6 -7.6 4 -5.1 19 -3.2 l 19.4 -0.1 c 3.1 -0.6 2 -0.5 3.4 -1.3 c -8.6 -8.2 -7.3 1.5 -17.2 -4.5 l -12.7 -5.7 c -4.8 -1.8 2.4 -1.3 -5.7 -2 c -0.7 -6.4 3.4 3.9 0.6 -5.3 c -5.2 -2 -5.2 -2 -9.6 -6.1 c -2.1 -2 -3.4 -2.8 -4.3 -3.2 c 0.1 -0.2 0.2 -0.3 0.3 -0.6 c -1.7 -0.1 -3.3 -0.1 -4.9 0 c 2.1 -0.8 2.3 -1.8 2.7 -3.9 c -2.1 -0.6 -4.2 -1.1 -6.2 -1.8 c -1.2 -0.4 -2.6 -0.8 -4 -1.5 c 3.9 0.7 7.8 -0.6 12 -6.4 c 1.4 -2 1.9 -0.3 3.8 -0.1 l 10.3 1.6 c 8.8 1.3 1.5 0.3 4.7 -0.2 c 7.3 -1.1 3.5 -1.4 12 -0.3 c -8.1 -11.9 -18.7 -7.5 -29 -5.4 c 1.4 -6.8 1.9 -2.4 -2.8 -5.4 c 0.2 -0.3 0.4 -0.7 0.6 -1.1 c -0.3 0 -1.4 -0.2 -2.5 -0.3 c -2.8 -2.4 -3.6 -3.5 -4.5 -6.2 c 1.8 -0.1 3 0.8 4.5 0 l 2.4 0.6 c 0.1 -0.4 0.2 -1.2 0.3 -1.4 c 1.4 -2.6 -0.6 0.2 1.6 -2.4 c 6.1 7.2 13.5 2.3 18.8 0.2 c -2.6 -5.3 -8.3 -8.2 -14.2 -7.8 c -7.6 0.5 -8.8 4.1 -15.4 0.1 c 2.5 -4 6.4 -3.3 10.3 -6.6 c -1.8 -1.2 -2.5 -2 -3.5 -2.4 c 1.9 -0.5 2.9 -2.2 4.1 -4.5 c -3.8 -0.4 -7.5 -0.8 -11.2 -1.3 c 0.1 -0.3 0.3 -0.7 0.4 -1 c 9.1 1.1 19.4 4.1 27 -0.3 c -1.1 -7.6 -11.7 -5.6 -27.1 -9.9 c -5.3 -1.4 -4.1 -0.5 -5.1 -3.2 c 1.6 0.1 2.6 -0.3 3.5 -1.1 c 0.4 -0.2 0.7 -0.6 1.1 -1.1 l 12 -0.8 c -2.7 -4.2 -4.6 -5.2 -9.3 -5.8 c 1.5 -2 2.8 -2.3 5.4 -1.6 c 2.9 0.8 3.9 -0.9 5.2 -3.3 c -3.1 -0.8 -6.2 -1.6 -9.3 -2.4 c 0.8 -0.5 -0.1 -0.6 1.2 -1.8 c -1.3 -1.9 -3 -3 -5.1 -3.7 l 0 0 c -1.3 -0.4 -2.4 -0.7 -3.5 -0.8 c -2.4 -0.5 -5 -0.7 -7.3 -1.5 l -2.1 -0.8 c 0.2 -0.4 0.4 -0.8 0.7 -1.2 c 0.7 0.1 1.4 0.3 2 0.4 c 1.8 0.4 1.2 0.7 1.9 -0.5 c 1.6 -2.6 3.1 -4.2 6.3 -3.4 c 3.1 0.8 4 -0.3 5.5 -3 c -3.9 -1 -7.9 -1.9 -11.7 -3 c -0.3 -1.1 -0.6 -2.3 -1 -3.4 c 2.8 -0.6 6.8 -0.9 7.9 -3.6 c 2.3 0.2 4.3 0 6 -0.8 c 1.2 -0.6 3.5 -3.1 2.7 -4 c -0.1 -0.1 -4.2 -1.6 -8 -3 c 1.2 -0.8 2.3 -1.9 2.9 -3.3 c -0.4 -0.3 -1 -1.1 -1.3 -0.7 l -5.6 -1.6 c -0.8 -0.1 -1.7 -0.1 -2.5 -0.1 c -0.1 -1.3 -0.3 -2.5 -0.3 -2.9 c -1.3 -0.3 -2.5 -0.4 -3.8 -0.4 c 1.4 -0.7 2.7 -1.4 4.1 -2.1 c -0.2 -0.2 -0.5 -0.4 -0.7 -0.5 c 2.5 -0.7 5.3 -1.1 7.4 -1.3 l -7.4 -2.9 c -0.1 -0.6 -0.2 -1 -0.4 -1.7 c 1.7 0.1 2.7 0.1 3.6 -0.3 c 3.5 1.4 7.7 2.6 10.3 1.7 c 1 -0.4 2.9 -2.3 2.2 -3.2 c -0.2 -0.3 -11.7 -5.9 -12.2 -6.6 c -0.2 -0.3 -0.8 -4.9 -0.9 -5.6 c -2.4 -0.7 -4.3 -1.2 -6.8 -0.9 c -3.4 0.3 -5.8 1.1 -9.5 1.1 c -0.4 0 -1.2 0 -1.8 -0.1 l 0 0 c 1.5 -0.2 2.9 -0.4 4 -0.6 c -0.3 -1.8 -0.3 -2.8 -1.4 -4 c 0.1 -0.3 0.3 -0.6 0.5 -1 c 2.5 0 4.8 0.6 7.5 1.3 c 1.7 -2.5 3.1 -4.4 6.4 -3.7 c 3.4 0.7 4 0.5 5.9 -2.5 c -3.9 -0.9 -7.8 -1.9 -11.7 -2.8 l -0.4 -1.2 c 3 0 5.7 -0.1 7.9 -0.6 c -4 -3.1 -12.1 -3.6 -17.5 -5.6 c 0 -0.4 0 -0.9 0 -1.3 c 1.9 -0.2 4.4 0 5.9 -0.2 c -0.2 -0.9 -0.3 -1.6 -0.5 -2.3 c 4.8 -0.9 9 -0.8 12.1 -3 c -5 -3.2 -8.3 -2.8 -11.5 -2.4 c 1.1 -0.7 1.4 -1.6 2.1 -3.9 c -0.7 -0.3 -1.4 -0.6 -2.1 -0.8 c 1 -2.8 0 -3.6 -2.5 -4.8 c 2.8 -0.3 5.4 -0.6 6.5 -0.7 c -3.4 -1.9 -8.5 -2.9 -12.6 -4.1 c 3.1 -6 0.1 -0.8 5.6 -5 l -6.7 -3.1 c 1.6 -3.6 -0.4 -2.3 3.4 -4.1 l -6.4 -1.7 c 0.9 -1.1 1.9 -2.4 1.8 -3.8 c 0.5 0.3 0.4 -0.8 0 -0.4 c 0 -0.1 0 -0.2 -0.1 -0.3 c -0.2 -0.8 -0.5 -1.2 -1 -1.5 l -0.3 -1.2 c 0.9 -0.8 1.5 -1.6 1.2 -2.9 c -0.5 0.5 -1 1.1 -1.5 1.6 l -0.2 -0.7 c -1.5 -5.6 -4.6 3.4 0.1 -1.8 c 3.2 -3.6 1.4 2.7 5.7 -3.3 c -5.5 -2.9 -5 -2.9 -10.3 -0.7 c -2 0.8 -3.5 1.2 -5 1.8 c 1.7 -5.5 1.3 -1.6 -0.1 -7.5 c 6.4 0.4 10.5 -1 14.1 -6.4 c -3.4 -0.6 -9 1.9 -14.3 3.5 c 0.9 -8.3 -0.3 -1.9 3.7 -5.4 c 5.2 -4.5 0.9 2.2 5.3 -5.4 c -3 -0.7 -2 1 -8.1 0.6 l 3.9 -8.2 l -4.7 -3.3 c 0.3 -0.2 0.8 -0.8 0.9 -0.6 l 7.1 -7.4 l -8.6 -0.7 c 1.4 -4.9 3.9 -9.9 3 -12.9 c -0.1 -0.3 -1.6 -3.4 -2 -5.5 c -1.2 -6.1 0.3 -4.7 0.4 -10.2 c 0.1 -5.8 -1.2 -5.8 -2 -11.3 c 0.3 4.1 -1.4 7.4 -1.6 7.7 l -0.8 12.2 c -0.2 2.3 -0.3 -1 -0.1 3.3 l -0.4 13.2 c -0.1 0.2 -0.3 0.6 -0.3 0.8 l -0.6 4.4 c 0.1 1.2 0.2 0.6 0.5 2.1 l -8.3 11.1 l 8.8 1.2 c -1.9 1.4 -2.8 0.4 -7 0.6 c 1.7 5 -1.4 1.8 4.1 4.6 l -6.5 3 c 6.5 0.1 7 -1.4 8.8 2.9 c 1.2 3 0.1 2.4 -4.9 3.6 c 4.8 3.1 4.6 0.3 6.9 4.6 c -6.1 0.3 -8.7 -1.4 -10.8 2.4 c -2.5 4.2 0.7 4 3.6 6.5 c -3.6 2.4 -1 1.3 -6.8 1.3 l 6.3 3.6 c -6.2 0.2 -4.3 -0.6 -8.5 2.4 l 10.9 0.1 c 0.1 0.4 0.4 0.8 0.6 1.2 c -0.9 0.7 1.1 -0.9 -2.2 0.6 c -0.2 0.1 -3.6 1.1 -4.7 1.5 c -0.7 2.2 1.4 1 0.2 3 l -5.3 3.4 l 4.4 3.4 c -1.4 0.4 -3.6 0.2 -4.3 0.3 l -4.6 1 c 0.3 0.3 0.8 0.2 1 0.7 l 3.2 1.7 c 2.9 1.4 2.9 0.8 5.2 2.3 l -1.9 1.9 c -0.1 0.1 -0.2 0.1 -0.3 0.1 c -1.8 0.9 -2.8 1.6 -2.9 2.9 l -5.5 5.3 l 4.8 0.1 c 0.6 1.1 1.4 1.5 3.7 2.2 c 1.7 0.5 0 1.6 -0.7 2.5 c -0.5 0.5 -0.7 1 -1 1.4 c -3.5 0.8 -7.5 1.9 -12 5.2 c 2.7 2 5.5 2 8.8 2.1 c -0.1 0 -0.3 0.1 -0.3 0.1 c -0.4 1.4 -0.8 2.8 -1.3 4.2 c -3.9 0.9 -7.8 1.8 -11.7 2.8 c 1.9 3 2.5 3.2 5.9 2.5 c 3 -0.6 4.5 0.8 6 3 c -2.5 0.6 -1.9 -0.3 -4.5 3.3 c 8.7 1.2 8.9 0.8 16.2 -0.8 c -0.6 1.1 -1.5 2 -2.6 2.7 c -3.6 0 -6.1 -0.8 -9.4 -1.1 c -2.5 -0.2 -4.4 0.2 -6.8 0.9 c -0.1 0.7 -0.7 5.3 -0.8 5.6 c -0.5 0.6 -12.1 6.3 -12.3 6.6 c -0.6 0.8 1 2.6 2 3.1 c -1.9 0.2 -4.1 0.7 -6.8 1.3 c 3.3 1.3 3.4 0.7 6.8 1.4 c 5.5 1.2 10.4 5.2 11.7 5.9 l 6.2 2 c -0.3 1.5 -0.6 3 -0.7 3.1 c -0.2 0.2 -1.1 0.6 -2.4 1.1 c -0.9 -0.3 -2.2 -0.7 -4.3 -0.7 c -6.9 -0.2 -10.1 0.1 -14 3.5 c 2.8 4 5 5 7.3 4.6 c 0.4 0.4 0.9 0.8 1.2 1 c 0.6 0.3 1.3 0.5 2 0.6 c 1 2.8 5.1 3.1 8 3.7 c -0.3 1.1 -0.6 2.3 -1 3.4 c -3.9 1 -7.8 2 -11.7 3 c 1.5 2.7 2.4 3.8 5.5 3 c 3.3 -0.9 4.7 0.7 6.3 3.4 c 0.7 1.2 0.2 0.9 1.9 0.5 c 0.7 -0.1 1.3 -0.3 2 -0.4 c 1.1 1.2 1 2.4 1.2 4 c -0.5 0.1 -1 0.1 -1.4 0.2 c -0.6 0 -1.1 0.1 -1.6 0.1 c -1.2 0 -2.3 -0.1 -4.1 -0.6 c -2.3 -0.5 -4 0 -6.2 0.7 c -0.5 1.6 -0.9 3.3 -1.4 4.9 c -3.9 1 -7.8 2 -11.8 3 c 1.3 2.4 2.3 4.1 5.2 3.3 c 2.9 -0.8 4.1 -0.3 5.9 2.3 c 1.8 2.7 0.2 2.2 3.9 1.4 c 1.7 -0.4 3.1 -0.6 4.8 -0.7 c -1.1 0.6 -2.3 1.1 -3.4 1.6 c -0.5 0.1 -1 0.1 -1.4 0.1 c 0.2 0.1 0.3 0.2 0.5 0.2 c -0.9 0.4 -1.8 0.7 -2.6 1.1 l -0.3 0 l 0 0 l -0.2 0.1 c 0.7 1.9 1.4 2.9 2.3 3.3 c 0.9 0.8 2.1 1.2 4.1 0.9 c 1 -0.1 1.9 0 2.6 0.2 c -2.1 0.6 -3.5 1.6 -5.5 3.3 c 1 0.7 1.9 1.4 2.9 2.1 c -4.5 1.3 -9.5 1.7 -14 2.8 c -3.4 7.3 6.7 0.7 -0.5 6.9 c -1.2 0.1 -2.4 0.3 -3.7 0.4 c 1.3 2.9 2.3 5 5.8 4.6 c 0.4 -0.1 0.8 -0.1 1.2 -0.1 l 0.3 1.9 l 0.3 -0.1 c -0.6 0.5 -1.2 1 -1.8 1.5 c 2.7 1.9 5.4 4 8.1 6 c 0.3 0.7 0.5 1.3 0.8 1.8 c -0.3 0.1 -0.5 0.2 -0.8 0.3 c -3.5 1.4 -6.6 2.9 -9.9 4.9 c -0.8 0.5 -0.8 0.7 -0.6 1.1 c -4.2 1.8 -2.5 0.9 -7.6 0.7 c -9.7 -0.3 -4.5 -0.1 -10.5 2.4 c 2.5 2.3 -0.5 1 3.6 2 c 2.9 0.8 3 0.5 6 0.4 c -0.7 3.7 -1.6 3.1 0.1 6.9 c 5.3 -1.1 3.8 -1.9 9.3 0.1 c 0.3 0.1 1.6 0.8 1.7 0.8 l 1.4 0.8 c 1.4 0.6 1.4 0.8 2.8 1 c 0.7 0.8 1.4 1.7 2.1 2.5 c 0 0.3 0 0.6 0 0.8 c -0.6 0 -1.1 0.1 -1.5 0.2 c -2.3 0.3 -4.2 1.4 -6.1 2.7 c 2.3 2 4.6 4.1 6.9 6.2 c -0.3 0.1 -0.7 0.2 -0.9 0.3 c -2 0.7 -4.1 1.2 -6.2 1.8 c 0.5 2.1 0.6 3.1 2.8 3.9 c -1.7 -0.1 -3.3 -0.1 -4.9 0 c 0.3 0.6 0.6 1.2 0.9 1.7 c -0.5 0.2 -0.9 0.4 -1.3 0.6 c -1.4 0.6 -0.8 1 0.1 2.4 c 0.9 1.4 1.7 2 2.5 2.2 c 0.5 0.8 1.4 1.3 2 1.7 c -0.4 1.1 -1.7 2.3 -6 3.6 c -1.2 0.4 -2.5 0.7 -3.7 1 c -0.3 0 -0.5 0 -0.8 0 c 0.1 0 0.1 0.1 0.1 0.2 c -0.8 0.2 -1.7 0.4 -2.6 0.6 c 1.1 4.2 2.8 4.2 5.9 4.6 c 0.2 1.5 -1.9 2.3 -8.9 4.5 c -8.2 2.7 -8.6 3 -19 3.3 c 0.4 1.7 9.6 -1.4 -0.8 5.2 l 8.6 1 l 2.8 7.4 c 5.9 -2.3 2.3 -2.3 9.8 -1.8 l -0.7 -5.3 c 2.8 -0.7 5.5 -1.3 8.2 -1.7 c -0.2 0.1 -0.4 0.1 -0.6 0.2 c -0.9 0.3 -5.8 2 -6.3 2.6 c -0.3 0.5 1.5 2.6 1.9 2.9 c 0.7 0.5 0.5 0.3 0.3 1.4 c -0.2 0.9 -0.5 2.1 -0.5 3 c -1.5 0.2 -4.9 -0.6 -6.9 -0.3 c -1.6 0.2 -3.1 0.9 -4.5 1.8 c 1.7 4.2 3.5 4.6 7.7 4.8 c 0.7 0 -1.3 0.3 -1.5 0.4 c -0.8 0.2 -6.4 2.2 -6.7 2.5 c -0.4 0.5 -0.3 0.3 0.3 1.1 c 2.6 4.5 3.7 1.3 7.3 3.3 c 0.4 0.2 0.3 0.3 -0.1 0.6 c -1.1 0.1 -2.1 0.2 -3.2 0.3 c 0.2 0.9 0.4 1.7 0.7 2.3 c -0.6 0.6 -1 1.3 -1.7 3.5 c 4.3 0.7 7.6 1.2 11.9 2.2 c 0.2 0.1 0.4 0.1 0.6 0.1 c 0.5 0.6 0.4 1.2 0.1 2 c -2.3 -0.3 -4.6 -0.6 -6.9 -0.6 c 1.8 3.4 2.9 4.5 6.8 5.2 c -1.1 0.5 -1.6 0.6 -1.4 1 c -3.5 1.9 -7.9 3.1 -14.5 5.4 c 0.5 1.6 1.9 3 3.5 4.2 c 0.1 0.1 0.2 0.3 0.3 0.3 c -1.2 -0.1 -2.4 -0.2 -3.7 -0.3 c 1.3 2.3 2.4 3.6 3.9 4.3 c -0.1 0.5 -0.2 1.1 -0.3 1.5 c -1.7 0 -5.6 -1.5 -7.9 -1.6 c -1.9 0 -3.6 0.6 -5.3 1.3 c 1.7 5.1 3.8 5.8 8.6 6.8 c 0.8 0.2 -1.5 0.2 -1.7 0.2 c -1 0.1 -7.5 1.4 -7.9 1.7 c -0.5 0.4 -0.3 0.2 0.2 1.2 c 2.1 4.4 3.5 3.1 6 3.9 c -4 0.3 -8 0.4 -10.9 2.3 l 11.1 0.9 c -0.5 0.2 -0.9 0.5 -1.4 0.7 c 0 0.1 0.1 0.3 0.2 0.4 c -0.7 0.6 -1.2 1.3 -2.2 3.6 c -0.5 0.2 -1 0.5 -1.7 0.8 c 1 -0.1 1.9 -0.2 2.8 -0.3 c 4.3 1.2 7.8 2.4 12.2 4 c -0.5 1.8 1 1.5 -4.2 1.3 l -0.2 0 c -0.8 -0.1 -1.6 -0.3 -2.4 -0.4 c 0.1 0.1 0.1 0.3 0.2 0.4 c -0.5 0 -1 0 -1.4 0 c 0 1.2 -0.2 2.9 0 4.1 c -1.6 0.1 -4.7 -0.6 -6.7 -0.4 c -1.5 0.1 -2.8 0.8 -4.1 1.6 c 3.2 5.4 7.5 4.6 13.1 4.2 c -0.1 0.6 -0.3 1 -0.5 1.4 c -2.5 0.8 -4.1 1.4 -5.1 1.9 c 0.1 -0.4 0.2 -0.8 0.3 -1.3 c -3.3 -2.3 -12.2 -2.4 -17.8 -3.3 c -2.1 -4.1 4.5 -1.1 -4.8 -4.3 c -3 -1.1 -6.1 -2.6 -8.6 -2.4 c 1.3 -6 3.1 -4.1 15 -2.6 l 15.2 0 c 2.4 -0.5 1.6 -0.4 2.7 -1.1 c -6.8 -6.4 -5.8 1.2 -13.5 -3.5 l -10 -4.5 c -3.8 -1.5 1.9 -1.1 -4.5 -1.6 c -0.6 -5 2.6 3.1 0.5 -4.2 c -4.1 -1.6 -4.1 -1.6 -7.5 -4.8 c -1.7 -1.6 -2.6 -2.3 -3.4 -2.5 c 0.1 -0.1 0.1 -0.3 0.2 -0.4 c -1.3 -0.1 -2.5 0 -3.9 0 c 1.7 -0.7 1.8 -1.4 2.2 -3.1 c -1.6 -0.4 -3.3 -0.8 -4.9 -1.4 c -0.9 -0.3 -2 -0.7 -3.1 -1.2 c 3 0.6 6.2 -0.4 9.4 -5 c 1.2 -1.6 1.6 -0.3 3 -0.1 l 8.1 1.2 c 7 1.1 1.2 0.2 3.7 -0.2 c 5.7 -0.8 2.8 -1.1 9.4 -0.3 c -6.3 -9.4 -14.7 -5.9 -22.8 -4.2 c 1.1 -5.4 1.4 -1.9 -2.2 -4.2 c 0.1 -0.3 0.3 -0.5 0.4 -0.8 c -0.3 -0.1 -1.1 -0.2 -1.9 -0.3 c -2.2 -1.8 -2.9 -2.8 -3.6 -4.8 c 1.4 -0.1 2.4 0.6 3.5 0 l 1.8 0.5 c 0.1 -0.3 0.2 -0.9 0.3 -1.1 c 1.1 -2.1 -0.5 0.1 1.2 -1.9 c 4.8 5.7 10.7 1.8 14.8 0.1 c -2 -4.1 -6.5 -6.4 -11.2 -6.2 c -6 0.3 -7 3.3 -12.2 0.1 c 2 -3.1 5.1 -2.5 8.1 -5.2 c -1.4 -1 -1.9 -1.6 -2.8 -1.8 c 1.5 -0.4 2.3 -1.8 3.3 -3.6 c -2.9 -0.3 -5.9 -0.6 -8.8 -1 c 0.1 -0.3 0.3 -0.5 0.3 -0.8 c 7.2 0.9 15.3 3.3 21.3 -0.2 c -0.8 -6 -9.2 -4.4 -21.3 -7.8 c -4.2 -1.1 -3.3 -0.4 -4 -2.5 c 1.2 0 2 -0.3 2.7 -0.9 c 0.3 -0.2 0.6 -0.5 0.9 -0.8 l 9.4 -0.7 c -2.1 -3.3 -3.6 -4.1 -7.3 -4.5 c 1.2 -1.6 2.1 -1.8 4.2 -1.3 c 2.3 0.6 3.1 -0.7 4.1 -2.6 c -2.5 -0.6 -4.9 -1.2 -7.3 -1.9 c 0.7 -0.4 -0.1 -0.5 1 -1.4 c -1 -1.5 -2.4 -2.4 -4 -2.9 c -1 -0.3 -1.9 -0.6 -2.8 -0.7 c -1.9 -0.3 -3.9 -0.6 -5.7 -1.2 l -1.6 -0.6 c 0.1 -0.3 0.3 -0.7 0.6 -1 c 0.5 0.1 1.1 0.2 1.6 0.3 c 1.4 0.3 1 0.6 1.5 -0.4 c 1.3 -2.1 2.4 -3.3 5 -2.6 c 2.4 0.7 3.1 -0.2 4.3 -2.4 c -3.1 -0.7 -6.2 -1.5 -9.3 -2.3 c -0.2 -0.9 -0.5 -1.8 -0.7 -2.7 c 2.2 -0.5 5.4 -0.7 6.2 -2.8 c 1.8 0.1 3.4 0 4.7 -0.6 c 0.9 -0.5 2.7 -2.4 2.1 -3.1 c -0.1 -0.1 -3.3 -1.3 -6.3 -2.4 c 1 -0.6 1.8 -1.4 2.3 -2.6 c -0.3 -0.2 -0.8 -0.9 -1 -0.6 l -4.4 -1.3 c -0.6 -0.1 -1.3 -0.1 -2 -0.1 c -0.1 -1 -0.2 -2 -0.3 -2.3 c -1 -0.2 -2 -0.3 -3 -0.3 c 1.1 -0.6 2.1 -1.1 3.2 -1.7 c -0.2 -0.1 -0.3 -0.3 -0.5 -0.4 c 2 -0.6 4.2 -0.8 5.8 -1 l -5.8 -2.3 c -0.1 -0.4 -0.2 -0.8 -0.3 -1.3 c 1.3 0.1 2.1 0.1 2.8 -0.2 c 2.7 1.1 6 2.1 8.1 1.4 c 0.8 -0.3 2.3 -1.8 1.8 -2.5 c -0.2 -0.2 -9.2 -4.7 -9.7 -5.2 c -0.1 -0.2 -0.6 -3.9 -0.7 -4.4 c -1.9 -0.6 -3.4 -0.9 -5.4 -0.8 c -2.6 0.2 -4.6 0.8 -7.5 0.8 c -0.3 0 -0.9 0 -1.4 0 l 0 0 c 1.1 -0.2 2.3 -0.3 3.1 -0.5 c -0.2 -1.5 -0.3 -2.2 -1.1 -3.1 c 0.1 -0.2 0.2 -0.5 0.3 -0.8 c 1.9 0 3.8 0.5 5.9 1 c 1.3 -1.9 2.5 -3.4 5.1 -2.9 c 2.7 0.6 3.1 0.4 4.6 -2 c -3.1 -0.7 -6.1 -1.5 -9.2 -2.2 l -0.3 -1 c 2.3 0 4.5 -0.1 6.2 -0.5 c -3.1 -2.5 -9.6 -2.9 -13.8 -4.4 l 0 -1 c 1.5 -0.1 3.5 0 4.7 -0.1 c -0.1 -0.7 -0.2 -1.3 -0.4 -1.8 c 3.7 -0.8 7.1 -0.6 9.5 -2.4 c -4 -2.5 -6.6 -2.2 -9.1 -1.9 c 0.9 -0.6 1.1 -1.3 1.6 -3.1 c -0.5 -0.2 -1.1 -0.4 -1.7 -0.6 c 0.8 -2.2 0 -2.9 -1.9 -3.8 l 0 0 c 2.2 -0.2 4.3 -0.5 5.1 -0.6 c -2.7 -1.5 -6.7 -2.3 -9.9 -3.2 c 2.4 -4.8 0.1 -0.7 4.4 -3.9 l -5.2 -2.4 c 1.3 -2.9 -0.3 -1.8 2.6 -3.2 l -5 -1.4 c 0.7 -0.9 1.4 -1.9 1.4 -3 c 0.3 0.3 0.3 -0.6 0 -0.3 c 0 -0.1 0 -0.1 0 -0.2 c -0.2 -0.6 -0.4 -1 -0.8 -1.2 l -0.3 -1 c 0.7 -0.6 1.2 -1.3 0.9 -2.3 c -0.4 0.4 -0.8 0.8 -1.2 1.2 l -0.1 -0.5 c -1.1 -4.4 -3.6 2.6 0.1 -1.4 c 2.5 -2.8 1.1 2.2 4.5 -2.6 c -4.3 -2.3 -3.9 -2.2 -8.1 -0.5 c -1.6 0.6 -2.7 0.9 -3.9 1.4 c 1.4 -4.3 1 -1.3 -0.1 -5.9 c 5 0.3 8.3 -0.8 11.2 -5 c -2.7 -0.4 -7.1 1.5 -11.2 2.8 c 0.7 -6.5 -0.3 -1.5 2.9 -4.3 c 4.1 -3.5 0.7 1.8 4.1 -4.2 c -2.4 -0.6 -1.6 0.8 -6.4 0.5 l 3.1 -6.5 l -3.7 -2.5 c 0.2 -0.2 0.6 -0.7 0.7 -0.5 l 5.6 -5.8 l -6.8 -0.6 c 1.1 -3.9 3.1 -7.8 2.4 -10.2 c -0.1 -0.3 -1.3 -2.7 -1.6 -4.3 c -1 -4.8 0.3 -3.7 0.3 -8.1 c 0.1 -4.6 -0.9 -4.6 -1.6 -8.9 c 0.3 3.3 -1.1 5.8 -1.2 6.1 l -0.6 9.6 c -0.2 1.8 -0.3 -0.7 -0.1 2.6 l -0.3 10.4 c 0 0.2 -0.2 0.5 -0.2 0.7 l -0.5 3.5 c 0.1 1 0.2 0.5 0.3 1.7 l -6.5 8.7 l 7 0.9 c -1.6 1.1 -2.3 0.3 -5.5 0.5 c 1.3 3.9 -1.1 1.4 3.2 3.6 l -5.1 2.4 c 5.1 0.1 5.5 -1.1 6.9 2.3 c 1 2.4 0 1.9 -3.9 2.8 c 3.8 2.4 3.6 0.3 5.5 3.6 c -4.8 0.3 -6.8 -1 -8.6 1.9 c -2 3.4 0.5 3.2 2.8 5.2 c -2.9 1.9 -0.8 1 -5.4 1 l 5 2.8 c -4.9 0.1 -3.4 -0.5 -6.7 1.9 l 8.6 0.1 c 0.1 0.3 0.3 0.6 0.5 1 c -0.7 0.6 0.9 -0.7 -1.7 0.5 c -0.1 0.1 -2.8 0.8 -3.7 1.2 c -0.6 1.8 1.1 0.8 0.1 2.4 l -4.2 2.6 l 3.4 2.6 c -1.1 0.3 -2.9 0.2 -3.4 0.3 l -3.6 0.8 c 0.3 0.2 0.7 0.1 0.8 0.5 l 2.5 1.4 c 2.3 1.1 2.3 0.7 4.1 1.8 l -1.6 1.5 c -0.1 0 -0.1 0.1 -0.2 0.1 c -1.4 0.7 -2.2 1.2 -2.2 2.3 l -4.3 4.2 l 3.7 0.1 c 0.5 0.9 1.1 1.2 2.9 1.7 c 1.4 0.4 0.1 1.2 -0.6 1.9 c -0.3 0.4 -0.6 0.8 -0.7 1.1 c -2.8 0.6 -6 1.6 -9.5 4.1 c 2.1 1.6 4.4 1.6 7 1.7 c -0.1 0 -0.2 0 -0.3 0.1 c -0.3 1.1 -0.7 2.2 -1 3.3 c -3 0.7 -6.1 1.4 -9.2 2.2 c 1.5 2.4 1.9 2.5 4.6 2 c 2.4 -0.5 3.5 0.6 4.7 2.3 c -2 0.5 -1.5 -0.2 -3.6 2.5 c 6.9 0.9 7 0.6 12.8 -0.6 c -0.5 0.8 -1.2 1.5 -2 2.1 c -2.9 0 -4.8 -0.6 -7.4 -0.8 c -2 -0.1 -3.5 0.2 -5.4 0.8 c -0.1 0.5 -0.5 4.2 -0.7 4.4 c -0.4 0.5 -9.5 4.9 -9.6 5.2 c -0.5 0.6 0.8 2 1.6 2.4 c -1.5 0.2 -3.2 0.6 -5.3 1.1 c 2.6 1 2.7 0.5 5.3 1.1 c 4.3 0.9 8.2 4.1 9.3 4.6 l 4.8 1.6 c -0.2 1.2 -0.5 2.4 -0.6 2.5 c -0.1 0.1 -0.8 0.4 -1.9 0.8 c -0.7 -0.3 -1.7 -0.5 -3.4 -0.6 c -5.4 -0.2 -8 0.1 -11 2.8 c 2.2 3.2 3.9 3.9 5.8 3.7 c 0.3 0.3 0.7 0.6 0.9 0.8 c 0.5 0.3 1 0.4 1.6 0.5 c 0.8 2.2 4 2.5 6.3 2.9 c -0.2 0.9 -0.5 1.8 -0.7 2.7 c -3.1 0.8 -6.2 1.6 -9.3 2.3 c 1.2 2.2 1.9 3 4.3 2.4 c 2.5 -0.7 3.7 0.6 5 2.6 c 0.6 0.9 0.1 0.7 1.5 0.4 c 0.5 -0.1 1.1 -0.2 1.6 -0.3 c 0.8 1 0.8 1.9 0.9 3.2 c -0.4 0.1 -0.7 0.1 -1.1 0.1 c -0.4 0 -0.8 0.1 -1.3 0.1 c -0.9 0 -1.8 -0.1 -3.3 -0.5 c -1.8 -0.4 -3.2 0 -4.9 0.6 c -0.4 1.3 -0.8 2.6 -1.1 3.9 c -3.1 0.8 -6.2 1.6 -9.3 2.4 c 1 1.9 1.8 3.2 4.1 2.6 c 2.3 -0.6 3.2 -0.2 4.6 1.8 c 1.4 2.1 0.1 1.8 3 1.1 c 1.3 -0.3 2.4 -0.5 3.8 -0.5 c -0.9 0.4 -1.8 0.8 -2.7 1.2 c -0.4 0 -0.7 0.1 -1.1 0.1 c 0.1 0.1 0.3 0.1 0.4 0.2 c -0.7 0.3 -1.4 0.6 -2.1 0.8 l -0.2 0 l 0 0 l -0.2 0.1 c 0.6 1.5 1.1 2.2 1.8 2.5 c 0.7 0.7 1.7 0.9 3.3 0.7 c 0.8 -0.1 1.5 0 2 0.1 c -1.7 0.5 -2.8 1.2 -4.3 2.6 c 0.8 0.5 1.5 1.1 2.3 1.6 c -3.5 1 -7.5 1.3 -11 2.2 c -2.6 5.8 5.3 0.5 -0.4 5.4 c -1 0.1 -1.9 0.2 -2.9 0.3 c 1 2.3 1.8 4 4.5 3.6 c 0.3 0 0.6 0 0.9 -0.1 l 0.2 1.5 l 0.3 -0.1 c -0.5 0.3 -1 0.7 -1.4 1.1 c 2.1 1.5 4.2 3.1 6.4 4.7 c 0.2 0.6 0.4 1.1 0.7 1.4 c -0.2 0.1 -0.4 0.1 -0.7 0.3 c -2.8 1.1 -5.2 2.3 -7.8 3.8 c -0.6 0.4 -0.7 0.6 -0.5 0.9 c -3.3 1.4 -1.9 0.7 -6 0.6 c -7.6 -0.3 -3.5 -0.1 -8.3 1.8 c 2 1.8 -0.4 0.8 2.8 1.6 c 2.3 0.6 2.4 0.3 4.8 0.3 c -0.6 2.9 -1.3 2.4 0.1 5.4 c 4.1 -0.9 2.9 -1.5 7.3 0.1 c 0.3 0.1 1.2 0.6 1.4 0.7 l 1.2 0.6 c 1.1 0.5 1.1 0.6 2.1 0.8 c 0.6 0.6 1.1 1.3 1.7 1.9 c 0 0.2 0 0.4 0 0.6 c -0.4 0.1 -0.8 0.1 -1.2 0.1 c -1.9 0.3 -3.3 1.1 -4.8 2.1 c 1.8 1.6 3.6 3.3 5.4 4.9 c -0.2 0.1 -0.5 0.2 -0.7 0.3 c -1.6 0.5 -3.3 1 -4.9 1.4 c 0.4 1.7 0.5 2.4 2.2 3.1 c -1.3 0 -2.6 -0.1 -3.9 0 c 0.3 0.5 0.5 0.9 0.7 1.3 c -0.3 0.1 -0.7 0.3 -1.1 0.5 c -1.1 0.5 -0.6 0.8 0.1 1.9 c 0.7 1.1 1.3 1.6 1.9 1.8 c 0.4 0.7 1.1 1 1.6 1.3 c -0.3 0.8 -1.3 1.8 -4.8 2.9 c -1 0.3 -1.9 0.6 -2.9 0.8 c -0.2 0 -0.4 0 -0.6 -0.1 l 0.1 0.2 c -0.7 0.1 -1.4 0.3 -2 0.4 c 0.9 3.3 2.3 3.3 4.7 3.6 c 0.2 1.2 -1.5 1.8 -6.9 3.6 c -6.5 2.1 -6.8 2.4 -15 2.6 c 0.3 1.4 7.6 -1.1 -0.6 4.1 l 6.8 0.8 l 2.2 5.9 c 4.6 -1.8 1.8 -1.8 7.7 -1.4 l -0.5 -4.2 c 2.2 -0.6 4.3 -1.1 6.4 -1.3 c -0.2 0 -0.3 0.1 -0.5 0.1 c -0.7 0.2 -4.6 1.6 -4.9 2 c -0.3 0.3 1.2 2 1.5 2.3 c 0.5 0.4 0.4 0.3 0.2 1.1 c -0.1 0.7 -0.3 1.6 -0.3 2.4 c -1.2 0.2 -3.9 -0.5 -5.4 -0.3 c -1.3 0.2 -2.5 0.8 -3.6 1.4 c 1.4 3.3 2.8 3.6 6.1 3.8 c 0.6 0 -1 0.3 -1.1 0.3 c -0.7 0.2 -5.1 1.7 -5.3 1.9 c -0.3 0.3 -0.2 0.2 0.2 0.8 c 2 3.5 2.9 1.1 5.8 2.6 c 0.3 0.2 0.3 0.2 -0.1 0.5 c -0.8 0.1 -1.7 0.1 -2.5 0.2 c 0.1 0.7 0.3 1.3 0.5 1.8 c -0.5 0.5 -0.8 1 -1.4 2.8 c 3.4 0.5 6 1 9.4 1.8 c 0.2 0 0.3 0 0.5 0.1 c 0.4 0.5 0.3 0.9 0.1 1.6 c -1.8 -0.3 -3.6 -0.4 -5.4 -0.5 c 1.4 2.7 2.3 3.5 5.3 4.1 c -0.8 0.4 -1.2 0.4 -1.1 0.8 c -2.8 1.5 -6.2 2.5 -11.4 4.3 c 0.4 1.3 1.5 2.3 2.7 3.3 c 0.1 0.1 0.1 0.2 0.2 0.3 c -0.9 -0.1 -1.9 -0.2 -2.9 -0.3 c 1 1.8 1.9 2.8 3.1 3.4 c -0.1 0.4 -0.2 0.8 -0.2 1.2 c -1.4 0 -4.4 -1.2 -6.2 -1.2 c -1.5 0 -2.9 0.5 -4.2 1 c 1.4 4 3 4.6 6.8 5.3 c 0.7 0.1 -1.2 0.1 -1.3 0.2 c -0.7 0.1 -5.9 1.1 -6.2 1.3 c -0.4 0.3 -0.2 0.2 0.2 0.9 c 1.7 3.4 2.8 2.5 4.7 3 c -3.2 0.3 -6.3 0.3 -8.6 1.8 l 8.8 0.7 c -0.4 0.2 -0.7 0.3 -1.1 0.6 c 0 0.1 0.1 0.2 0.1 0.3 c -0.6 0.5 -1 1 -1.7 2.8 c -0.3 0.2 -0.8 0.3 -1.4 0.6 c 0.8 -0.1 1.5 -0.2 2.2 -0.2 c 3.4 1 6.2 1.9 9.6 3.2 c -0.4 1.5 0.8 1.2 -3.3 1 l -0.2 0 c -0.6 -0.1 -1.2 -0.3 -1.9 -0.3 c 0 0.1 0.1 0.3 0.1 0.3 c -0.4 0 -0.7 0 -1.1 0 c 0 1 -0.1 2.3 0 3.3 c -1.3 0.1 -3.7 -0.5 -5.3 -0.3 c -1.2 0.1 -2.2 0.7 -3.3 1.2 c 2.5 4.3 6 3.6 10.3 3.3 c -0.1 0.4 -0.2 0.8 -0.3 1.1 c -7.6 2.6 -4.4 2.1 -5.4 5.1 c -1.3 -0.4 -2.6 -0.7 -4 -0.9 c 0.8 1.6 1.5 2.8 2.4 3.6 c -1.1 1.4 -2.9 3.2 -5.8 5.6 c -3.6 3.1 -3.7 4.6 -6.6 8.1 c 1.7 1.6 1.3 1.9 4.3 2.6 c -0.1 0.1 -0.3 0.1 -0.5 0.2 c 0.3 0.6 0.6 1.1 0.9 1.7 c -1.6 1 -2.6 1.6 -6.4 1.8 l 1.4 1.5 c 0.1 0.1 0.5 0.5 0.6 0.7 c 1.5 3.2 0.7 2.4 -0.3 5 l 4.7 -2.2 c -0.8 2.5 0.1 3 0.9 4.5 c -1.5 -0.2 -4.1 -1.1 -5.8 -1.3 c -1.4 0 -2.6 0.4 -3.9 0.9 c 2.6 5.2 6.6 5.1 11.6 5.4 c -0.5 1.6 -1.2 2.3 -1.6 3.4 c -1.6 1.1 -3.3 2.4 -5.3 3.6 l 5.8 -0.6 c 0.3 0.2 0.5 0.4 0.6 0.5 c 0.1 0.1 0.3 0.2 0.3 0.3 c -1.2 3 -1.7 1.3 -2.6 5.4 c 3.9 -0.4 5.5 -0.8 6.8 -1.5 c 1.4 1.1 2.8 1.7 4.2 1.9 c -0.7 1.1 -1.7 2.3 -2.9 3.7 l -8.1 12.7 c 5.3 11.2 11.4 2.1 16.1 -0.1 c 1.6 0.7 3.2 1.3 4.9 1.8 c -7.5 3.5 -5.9 -1.6 -8 3.5 c -0.1 0.2 -0.1 0.5 -0.2 0.7 c -3.3 0 -6.1 0.4 -8.1 1.9 c 0.9 0.3 1.5 0.4 2 0.5 c -1.7 0.7 -1.9 1.5 -2.8 3.2 c -2 0.3 -3.5 1.1 -4.6 3 c -0.3 0.5 0.8 0.9 1.3 1.2 c 1.8 1 3.5 1.4 5.1 1.4 c -2.1 3 1.7 1 -2.5 5.4 c -0.3 0.3 -0.6 0.6 -0.8 0.8 c -38.6 -79.2 -104.5 -204.8 -143.5 -225.8 c -35.5 -19 -70.5 -14 -92.2 -7.3 c -17.4 -13.3 -39.3 -26.8 -64.9 -38.1 c -38 -16.8 -80.3 -26.8 -122.6 -27.9 l 0 -0.1 l -4.4 -0.5 l -0.1 0.6 c -34.6 -0.4 -69 5.3 -100.9 18.4 c -9.7 4 -19.3 8.6 -28.8 13.7 c -0.1 -0.6 1.9 -0.5 -4.1 -1 c -0.8 -6.7 3.5 4 0.6 -5.5 c -5.3 -2.1 -5.4 -2.1 -9.9 -6.4 c -2.3 -2.1 -3.5 -3 -4.5 -3.3 c 0.1 -0.2 0.2 -0.4 0.3 -0.6 c -1.8 -0.1 -3.4 -0.1 -5.2 0 c 2.2 -0.9 2.4 -1.9 2.9 -4.1 c -2.2 -0.6 -4.3 -1.1 -6.4 -1.8 c -1.2 -0.4 -2.7 -0.9 -4.1 -1.6 c 4 0.7 8.1 -0.6 12.5 -6.7 c 1.5 -2.1 2 -0.3 3.9 -0.1 l 10.7 1.6 c 9.2 1.4 1.6 0.3 4.9 -0.2 c 7.6 -1.2 3.7 -1.4 12.5 -0.3 c -8.4 -12.4 -19.5 -7.8 -30.3 -5.6 c 1.5 -7.1 1.9 -2.5 -2.8 -5.7 c 0.2 -0.3 0.3 -0.7 0.6 -1.1 c -0.3 -0.1 -1.4 -0.2 -2.5 -0.3 c -2.9 -2.5 -3.8 -3.7 -4.7 -6.4 c 1.8 -0.1 3.1 0.8 4.7 0 l 2.4 0.6 c 0.2 -0.4 0.3 -1.2 0.3 -1.5 c 1.4 -2.8 -0.7 0.2 1.6 -2.5 c 6.4 7.5 14.1 2.4 19.6 0.2 c -2.8 -5.5 -8.6 -8.5 -14.8 -8.1 c -8 0.5 -9.2 4.3 -16.1 0.1 c 2.6 -4.1 6.7 -3.4 10.7 -6.8 c -1.8 -1.3 -2.6 -2.1 -3.7 -2.5 c 2 -0.5 3 -2.3 4.3 -4.7 c -3.9 -0.4 -7.8 -0.8 -11.7 -1.3 c 0.1 -0.3 0.3 -0.7 0.4 -1 c 9.5 1.1 20.3 4.3 28.1 -0.3 c -1.1 -7.9 -12.2 -5.9 -28.2 -10.3 c -5.5 -1.5 -4.3 -0.5 -5.3 -3.3 c 1.6 0.1 2.7 -0.3 3.6 -1.2 c 0.4 -0.3 0.8 -0.6 1.1 -1.1 l 12.4 -0.9 c -2.8 -4.4 -4.8 -5.5 -9.7 -6 c 1.6 -2 2.9 -2.4 5.6 -1.7 c 3 0.8 4.1 -0.9 5.4 -3.4 c -3.2 -0.8 -6.5 -1.7 -9.7 -2.5 c 0.9 -0.5 -0.1 -0.6 1.3 -1.9 c -1.3 -2 -3.2 -3.1 -5.3 -3.9 l 0 0 c -1.3 -0.4 -2.5 -0.7 -3.7 -0.9 c -2.5 -0.5 -5.2 -0.7 -7.6 -1.6 l -2.1 -0.9 c 0.1 -0.4 0.4 -0.8 0.8 -1.3 c 0.7 0.1 1.4 0.3 2.1 0.5 c 1.9 0.4 1.3 0.7 2 -0.5 c 1.7 -2.8 3.2 -4.4 6.6 -3.5 c 3.2 0.9 4.2 -0.3 5.7 -3.1 c -4.1 -1 -8.2 -2 -12.2 -3.1 l -1 -3.5 c 2.9 -0.6 7.1 -1 8.3 -3.8 c 2.3 0.2 4.5 0 6.2 -0.8 c 1.2 -0.6 3.6 -3.2 2.8 -4.1 c -0.1 -0.1 -4.4 -1.7 -8.3 -3.1 c 1.3 -0.8 2.3 -1.9 3 -3.5 c -0.4 -0.3 -1.1 -1.1 -1.4 -0.8 l -5.8 -1.7 c -0.9 -0.1 -1.8 -0.1 -2.6 -0.1 c -0.1 -1.3 -0.3 -2.7 -0.3 -3 c -1.4 -0.3 -2.6 -0.4 -3.9 -0.4 c 1.4 -0.8 2.8 -1.5 4.2 -2.3 c -0.2 -0.2 -0.5 -0.3 -0.7 -0.5 c 2.6 -0.7 5.5 -1.1 7.7 -1.4 l -7.7 -3 c -0.1 -0.6 -0.2 -1.1 -0.4 -1.8 c 1.7 0.1 2.8 0.1 3.8 -0.3 c 3.6 1.4 8 2.8 10.7 1.8 c 1.1 -0.4 3 -2.4 2.3 -3.3 c -0.2 -0.3 -12.2 -6.2 -12.8 -6.9 c -0.2 -0.3 -0.8 -5.1 -0.9 -5.8 c -2.5 -0.8 -4.5 -1.2 -7.1 -1 c -3.5 0.3 -6.1 1.1 -9.9 1.1 c -0.4 0 -1.2 0.1 -1.9 -0.1 l 0 0 c 1.5 -0.2 3 -0.4 4.2 -0.6 c -0.3 -1.9 -0.4 -2.9 -1.5 -4.2 c 0.2 -0.3 0.3 -0.6 0.5 -1 c 2.5 0 5 0.6 7.8 1.3 c 1.8 -2.6 3.3 -4.5 6.7 -3.8 c 3.6 0.8 4.1 0.5 6.2 -2.6 c -4.1 -1 -8.1 -2 -12.2 -2.9 l -0.4 -1.3 c 3.1 0.1 5.9 -0.1 8.2 -0.6 c -4.2 -3.3 -12.6 -3.8 -18.2 -5.8 c 0 -0.5 0 -0.9 0 -1.4 c 2 -0.2 4.6 0 6.2 -0.1 c -0.1 -1 -0.3 -1.7 -0.5 -2.4 c 5 -1 9.4 -0.8 12.6 -3.1 c -5.2 -3.4 -8.7 -2.9 -11.9 -2.5 c 1.2 -0.7 1.4 -1.7 2.1 -4.1 c -0.7 -0.3 -1.4 -0.6 -2.2 -0.8 c 1.1 -2.9 0 -3.8 -2.6 -5 c 2.9 -0.3 5.7 -0.7 6.8 -0.8 c -3.6 -2 -8.8 -3 -13.1 -4.2 c 3.2 -6.3 0.2 -0.9 5.9 -5.2 l -7 -3.2 c 1.7 -3.8 -0.4 -2.4 3.5 -4.3 l -6.6 -1.8 c 0.9 -1.2 1.9 -2.5 1.9 -4 c 0.5 0.3 0.4 -0.8 0 -0.5 c 0 -0.1 0 -0.2 -0.1 -0.3 c -0.3 -0.8 -0.6 -1.3 -1 -1.5 l -0.3 -1.3 c 0.9 -0.8 1.6 -1.7 1.2 -2.9 c -0.6 0.5 -1.1 1.1 -1.6 1.6 l -0.2 -0.7 c -1.5 -5.9 -4.8 3.5 0.1 -1.9 c 3.4 -3.7 1.5 2.9 6 -3.4 c -5.8 -3 -5.2 -3 -10.8 -0.7 c -2.1 0.8 -3.6 1.3 -5.2 1.9 c 1.8 -5.8 1.4 -1.7 -0.1 -7.8 c 6.7 0.3 11 -1.1 14.7 -6.7 c -3.6 -0.6 -9.3 2 -14.8 3.6 c 0.9 -8.6 -0.4 -2 3.8 -5.7 c 5.4 -4.7 1 2.3 5.5 -5.6 c -3.1 -0.8 -2 1.1 -8.5 0.6 l 4.1 -8.5 l -4.9 -3.4 c 0.3 -0.2 0.8 -0.9 0.9 -0.6 l 7.4 -7.7 l -8.9 -0.7 c 1.5 -5.1 4.1 -10.3 3.1 -13.5 c -0.1 -0.4 -1.7 -3.5 -2.1 -5.7 c -1.2 -6.4 0.3 -4.9 0.4 -10.6 c 0.1 -6 -1.3 -6 -2.1 -11.8 c 0.3 4.3 -1.4 7.8 -1.6 8.1 l -0.8 12.7 c -0.3 2.4 -0.3 -1 -0.1 3.4 l -0.4 13.7 c -0.1 0.3 -0.3 0.7 -0.3 0.9 l -0.6 4.6 c 0.1 1.3 0.2 0.6 0.5 2.2 l -8.7 11.5 l 9.2 1.2 c -2 1.4 -3 0.4 -7.3 0.6 c 1.7 5.2 -1.4 1.9 4.2 4.8 l -6.7 3.1 c 6.8 0.1 7.3 -1.4 9.1 3.1 c 1.3 3.1 0.1 2.5 -5.1 3.7 c 5 3.2 4.8 0.3 7.3 4.8 c -6.4 0.3 -9.1 -1.4 -11.3 2.5 c -2.6 4.4 0.7 4.2 3.7 6.8 c -3.8 2.5 -1.1 1.4 -7.1 1.3 l 6.6 3.7 c -6.5 0.2 -4.5 -0.6 -8.9 2.5 l 11.3 0.1 c 0.2 0.4 0.4 0.8 0.6 1.2 c -1 0.8 1.2 -0.9 -2.3 0.6 c -0.2 0.1 -3.8 1.1 -4.9 1.6 c -0.7 2.3 1.5 1.1 0.2 3.1 l -5.5 3.5 l 4.6 3.5 c -1.4 0.4 -3.8 0.3 -4.5 0.3 l -4.7 1.1 c 0.3 0.3 0.9 0.1 1.1 0.7 l 3.3 1.8 c 3 1.4 3 0.9 5.5 2.3 l -2 2 c -0.1 0.1 -0.2 0.1 -0.3 0.1 c -1.9 0.9 -2.9 1.6 -3 3 l -3.9 3.8 c -6.5 -1.3 -15.1 -2.1 -25.2 -4.9 c -7.3 -2 -5.7 -0.6 -7 -4.4 c 2.1 0.1 3.6 -0.4 4.8 -1.6 c 0.5 -0.3 1 -0.8 1.5 -1.5 l 16.6 -1.2 c -3.8 -5.9 -6.4 -7.3 -12.9 -8.1 c 2.1 -2.7 3.8 -3.1 7.5 -2.2 c 4 1.1 5.4 -1.2 7.2 -4.6 c -4.3 -1.1 -8.6 -2.2 -12.9 -3.3 c 1.2 -0.7 -0.1 -0.8 1.8 -2.5 c -1.8 -2.7 -4.3 -4.2 -7.1 -5.2 l 0 0 c -1.7 -0.6 -3.3 -1 -4.9 -1.2 c -3.4 -0.6 -6.9 -1 -10.2 -2.1 l -2.9 -1.2 c 0.2 -0.6 0.5 -1.1 1 -1.8 c 1 0.2 1.9 0.4 2.9 0.6 c 2.5 0.6 1.7 0.9 2.6 -0.7 c 2.3 -3.7 4.3 -5.9 8.8 -4.7 c 4.3 1.2 5.5 -0.4 7.7 -4.2 c -5.4 -1.4 -10.9 -2.8 -16.4 -4.1 c -0.4 -1.6 -0.9 -3.1 -1.4 -4.7 c 3.9 -0.8 9.5 -1.3 11 -5 c 3.1 0.2 6 0 8.3 -1.1 c 1.7 -0.8 4.8 -4.3 3.8 -5.5 c -0.2 -0.2 -5.9 -2.3 -11.1 -4.2 c 1.7 -1.1 3.1 -2.6 4 -4.6 c -0.6 -0.4 -1.4 -1.6 -1.8 -1 l -7.8 -2.3 c -1.2 -0.1 -2.4 -0.2 -3.5 -0.2 c -0.2 -1.8 -0.4 -3.6 -0.4 -4.1 c -1.9 -0.3 -3.5 -0.5 -5.3 -0.6 c 1.9 -1 3.8 -2 5.7 -3 c -0.3 -0.3 -0.6 -0.5 -1 -0.7 c 3.5 -1 7.3 -1.5 10.3 -1.8 l -10.3 -4 c -0.1 -0.8 -0.3 -1.4 -0.6 -2.4 c 2.3 0.1 3.8 0.1 5 -0.4 c 4.9 1.9 10.7 3.7 14.3 2.4 c 1.4 -0.5 4.1 -3.2 3.1 -4.4 c -0.3 -0.4 -16.4 -8.3 -17 -9.1 c -0.3 -0.3 -1.1 -6.8 -1.2 -7.8 c -3.3 -1.1 -6 -1.6 -9.5 -1.3 c -4.7 0.3 -8.1 1.5 -13.2 1.5 c -0.6 0 -1.6 0.1 -2.5 -0.1 l 0 0 c 2 -0.3 4.1 -0.6 5.5 -0.9 c -0.3 -2.6 -0.5 -3.9 -1.9 -5.6 c 0.2 -0.4 0.4 -0.8 0.6 -1.4 c 3.4 0 6.7 0.8 10.4 1.7 c 2.4 -3.5 4.3 -6 9 -5.1 c 4.7 1 5.5 0.7 8.2 -3.5 c -5.4 -1.3 -10.8 -2.6 -16.2 -3.9 l -0.5 -1.7 c 4.1 0.1 7.9 -0.1 10.9 -0.8 c -5.5 -4.3 -16.8 -5 -24.3 -7.8 c 0 -0.6 0 -1.2 0 -1.8 c 2.6 -0.3 6.1 0 8.2 -0.2 c -0.2 -1.3 -0.4 -2.3 -0.7 -3.1 c 6.7 -1.4 12.5 -1.1 16.8 -4.2 c -6.9 -4.5 -11.6 -3.8 -15.9 -3.3 c 1.6 -1 1.9 -2.3 2.9 -5.5 c -1 -0.4 -1.9 -0.7 -2.9 -1.1 c 1.4 -3.9 0 -5 -3.5 -6.7 l 0 0 c 3.9 -0.5 7.6 -0.9 9.1 -1 c -4.8 -2.6 -11.8 -4.1 -17.5 -5.6 c 4.3 -8.4 0.3 -1.2 7.8 -6.9 l -9.3 -4.3 c 2.3 -5.1 -0.5 -3.1 4.7 -5.7 l -8.9 -2.4 c 1.3 -1.6 2.5 -3.4 2.5 -5.3 c 0.6 0.5 0.5 -1.1 -0.1 -0.6 c 0 -0.1 0 -0.2 -0.1 -0.4 c -0.3 -1.1 -0.7 -1.7 -1.4 -2 l -0.5 -1.7 c 1.2 -1.1 2.1 -2.3 1.6 -4 c -0.7 0.7 -1.4 1.4 -2 2.2 l -0.3 -1 c -2 -7.8 -6.3 4.7 0.1 -2.5 c 4.5 -5 2 3.8 8 -4.6 c -7.7 -4 -6.9 -4 -14.3 -1 c -2.8 1.1 -4.8 1.7 -6.9 2.6 c 2.4 -7.7 1.8 -2.3 -0.1 -10.5 c 8.9 0.5 14.7 -1.4 19.7 -8.9 c -4.8 -0.7 -12.5 2.7 -19.8 4.9 c 1.2 -11.5 -0.5 -2.7 5.1 -7.6 c 7.2 -6.2 1.3 3.1 7.3 -7.5 c -4.2 -1.1 -2.8 1.4 -11.3 0.8 l 5.4 -11.4 l -6.6 -4.5 c 0.4 -0.3 1.1 -1.2 1.2 -0.8 l 9.9 -10.3 l -12 -0.9 c 2 -6.8 5.5 -13.8 4.2 -18 c -0.1 -0.5 -2.2 -4.7 -2.8 -7.6 c -1.7 -8.6 0.4 -6.6 0.6 -14.2 c 0.2 -8.1 -1.7 -8.1 -2.8 -15.8 c 0.4 5.8 -1.9 10.3 -2.2 10.7 l -1 16.9 c -0.3 3.2 -0.5 -1.3 -0.2 4.6 l -0.6 18.3 c -0.1 0.3 -0.3 0.9 -0.4 1.2 l -0.8 6.2 c 0.2 1.7 0.3 0.8 0.6 3 l -11.6 15.3 l 12.3 1.6 c -2.7 1.9 -4 0.5 -9.7 0.8 c 2.3 6.9 -1.9 2.5 5.7 6.4 l -9 4.2 c 9.1 0.1 9.6 -2 12.2 4.1 c 1.7 4.2 0.1 3.4 -6.8 5 c 6.8 4.3 6.4 0.4 9.7 6.3 c -8.6 0.5 -12.1 -1.8 -15.1 3.4 c -3.5 5.9 1 5.6 5 9.1 c -5.1 3.3 -1.4 1.8 -9.5 1.8 l 8.8 5 c -8.6 0.3 -6 -0.8 -11.8 3.3 l 15.2 0.1 c 0.2 0.6 0.5 1.1 0.9 1.6 c -1.3 1.1 1.5 -1.2 -3 0.8 c -0.3 0.1 -5.1 1.5 -6.5 2.1 c -1 3.1 2 1.4 0.3 4.2 l -7.4 4.7 l 6.1 4.7 c -1.9 0.6 -5.1 0.3 -6 0.4 l -6.4 1.4 c 0.4 0.3 1.2 0.2 1.4 0.9 l 4.4 2.4 c 4 1.9 4 1.2 7.3 3.1 l -2.7 2.6 c -0.1 0.1 -0.3 0.1 -0.4 0.2 c -2.5 1.2 -3.9 2.1 -4 4 l -7.7 7.5 l 6.6 0.1 c 0.8 1.5 2 2.1 5.1 3.1 c 2.3 0.7 0.1 2.2 -1 3.5 c -0.6 0.7 -1 1.3 -1.3 1.9 c -4.9 1.1 -10.5 2.7 -16.7 7.3 c 3.8 2.9 7.7 2.8 12.3 3 c -0.2 0 -0.3 0.1 -0.5 0.1 c -0.6 1.9 -1.2 3.9 -1.8 5.8 c -5.5 1.3 -10.8 2.6 -16.3 3.9 c 2.7 4.1 3.5 4.5 8.2 3.5 c 4.2 -0.9 6.2 1.2 8.3 4.1 c -3.5 0.9 -2.6 -0.3 -6.3 4.5 c 12.1 1.6 12.4 1.1 22.6 -1 c -0.9 1.5 -2.1 2.7 -3.6 3.7 c -5 0 -8.4 -1.1 -13.1 -1.5 c -3.5 -0.3 -6.2 0.3 -9.5 1.3 c -0.1 1 -0.9 7.4 -1.2 7.8 c -0.7 0.8 -16.7 8.7 -17 9.1 c -0.4 0.5 -0.2 1.2 0.2 1.9 c -4.9 -0.9 -10.2 -1.9 -15.8 -3.4 c -10.2 -2.6 -7.9 -0.8 -9.8 -5.8 c 3 0.1 5 -0.6 6.7 -2.1 c 0.8 -0.4 1.4 -1.1 2.1 -2 l 22.9 -1.6 c -5.1 -7.8 -8.8 -9.7 -17.8 -10.6 c 2.9 -3.6 5.3 -4.2 10.3 -2.9 c 5.6 1.4 7.5 -1.7 9.9 -6 c -6 -1.4 -11.9 -2.9 -17.8 -4.5 c 1.6 -0.9 -0.2 -1 2.4 -3.4 c -2.5 -3.6 -5.9 -5.6 -9.7 -6.9 l 0 -0.1 c -2.4 -0.7 -4.5 -1.4 -6.8 -1.6 c -4.6 -0.8 -9.5 -1.4 -14 -2.8 l -4 -1.5 c 0.3 -0.8 0.7 -1.6 1.4 -2.3 c 1.3 0.3 2.6 0.5 3.9 0.8 c 3.4 0.8 2.3 1.2 3.7 -1 c 3.1 -4.9 5.9 -7.8 12.1 -6.2 c 5.9 1.6 7.7 -0.5 10.6 -5.5 c -7.5 -1.9 -15.1 -3.6 -22.6 -5.5 c -0.6 -2.1 -1.3 -4.2 -1.9 -6.3 c 5.4 -1.1 13.1 -1.8 15.2 -6.7 c 4.3 0.3 8.3 0 11.4 -1.4 c 2.3 -1.1 6.7 -5.7 5.2 -7.3 c -0.3 -0.3 -8.1 -3 -15.3 -5.6 c 2.4 -1.4 4.3 -3.5 5.5 -6.1 c -0.8 -0.5 -1.9 -2.1 -2.5 -1.3 l -10.8 -3 c -1.6 -0.1 -3.3 -0.2 -4.9 -0.2 c -0.3 -2.4 -0.5 -4.8 -0.6 -5.4 c -2.5 -0.5 -4.9 -0.7 -7.3 -0.8 c 2.6 -1.4 5.2 -2.6 7.8 -4 c -0.5 -0.3 -0.9 -0.7 -1.3 -0.9 c 4.8 -1.3 10.2 -2 14.2 -2.4 l -14.2 -5.3 c -0.1 -1.1 -0.4 -1.9 -0.8 -3.1 c 3.1 0.2 5.2 0.1 6.8 -0.5 c 6.8 2.5 14.8 4.9 19.8 3.2 c 1.9 -0.7 5.6 -4.2 4.3 -5.9 c -0.5 -0.5 -22.6 -11 -23.5 -12.2 c -0.4 -0.4 -1.5 -9.1 -1.7 -10.3 c -4.6 -1.4 -8.3 -2.2 -13.1 -1.8 c -6.5 0.5 -11.2 1.9 -18.2 2 c -0.8 0 -2.2 0.1 -3.4 -0.1 l 0 -0.1 c 2.8 -0.4 5.6 -0.7 7.6 -1.2 c -0.5 -3.5 -0.7 -5.1 -2.7 -7.4 c 0.3 -0.5 0.6 -1.1 0.9 -1.9 c 4.7 0 9.2 1.2 14.4 2.3 c 3.3 -4.6 6 -8 12.4 -6.8 c 6.5 1.3 7.6 0.9 11.3 -4.6 c -7.5 -1.7 -14.9 -3.5 -22.4 -5.2 l -0.7 -2.3 c 5.7 0.1 10.9 -0.1 15.1 -1.1 c -7.7 -5.8 -23.2 -6.7 -33.6 -10.3 c 0 -0.8 0 -1.7 0 -2.5 c 3.7 -0.3 8.5 0 11.3 -0.3 c -0.3 -1.8 -0.5 -3 -0.9 -4.1 c 9.2 -1.8 17.3 -1.6 23.1 -5.6 c -9.6 -5.9 -16 -5 -22.1 -4.3 c 2.2 -1.3 2.7 -3.1 4 -7.3 c -1.3 -0.5 -2.7 -1 -4.1 -1.4 c 1.9 -5.2 0 -6.6 -4.8 -8.9 l 0 0 c 5.4 -0.6 10.5 -1.2 12.5 -1.4 c -6.6 -3.5 -16.2 -5.4 -24.2 -7.5 c 5.9 -11.2 0.3 -1.6 10.8 -9.2 l -12.9 -5.7 c 3.2 -6.8 -0.6 -4.2 6.5 -7.5 l -12.3 -3.2 c 1.8 -2 3.5 -4.5 3.5 -7.1 c 0.9 0.6 0.7 -1.5 -0.1 -0.8 c 0 -0.2 -0.1 -0.3 -0.1 -0.5 c -0.4 -1.5 -1 -2.3 -1.9 -2.7 l -0.6 -2.3 c 1.7 -1.4 2.9 -3 2.2 -5.3 c -1 0.9 -1.9 1.9 -2.9 2.9 l -0.3 -1.3 c -0.3 -1.1 -0.6 -1.7 -1 -2.3 c 0.4 -0.3 0.7 -0.5 1.2 -1 c 6.2 -6.6 2.7 5.1 11 -6.1 c -10.6 -5.3 -9.5 -5.3 -19.8 -1.3 c -3.9 1.5 -6.7 2.3 -9.6 3.4 c 3.3 -10.2 2.5 -3 -0.1 -13.8 c 12.3 0.6 20.2 -1.9 27.2 -11.9 c -6.6 -1 -17.2 3.6 -27.4 6.5 c 1.7 -15.3 -0.7 -3.6 7 -10.1 c 9.9 -8.3 1.8 4.2 10.1 -9.9 c -5.8 -1.4 -3.8 1.8 -15.6 1.1 l 7.6 -15.1 l -9.1 -6 c 0.5 -0.4 1.5 -1.6 1.6 -1.1 l 13.7 -13.7 l -16.6 -1.3 c 2.8 -9 7.5 -18.3 5.8 -23.9 c -0.2 -0.6 -3.1 -6.3 -3.9 -10.1 c -2.3 -11.3 0.6 -8.7 0.8 -18.8 c 0.2 -10.7 -2.4 -10.7 -4 -21 c 0.6 7.6 -2.7 13.7 -3 14.3 l -1.4 22.5 c -0.5 4.2 -0.6 -1.7 -0.2 6.1 l -0.8 24.4 c -0.1 0.4 -0.5 1.2 -0.6 1.6 l -1.2 8.1 c 0.3 2.2 0.3 1.1 0.9 3.9 l -16 20.4 l 17 2.1 c -3.7 2.6 -5.5 0.7 -13.4 1.1 c 3.2 9.2 -2.6 3.3 7.8 8.5 l -12.4 5.6 c 12.5 0.1 13.3 -2.6 16.8 5.4 c 2.4 5.6 0.2 4.4 -9.3 6.6 c 9.3 5.7 8.9 0.6 13.3 8.4 c -11.8 0.6 -16.6 -2.4 -20.9 4.5 c -4.8 7.8 1.3 7.4 6.9 12.1 c -6.8 4.3 -2.6 2.5 -12.7 2.4 l 0 0.2 l 11.8 6.4 c -8.6 0.3 -9.1 -0.3 -11.8 1.3 l 0 3.1 l 16.4 0.1 c 0.3 0.7 0.7 1.4 1.2 2.1 c -1.8 1.4 2.1 -1.6 -4.2 1.1 c -0.3 0.1 -7 1.9 -9 2.8 c -1.3 4.1 2.8 1.9 0.4 5.6 l -4.7 2.9 l 0 7.4 l 3 2.2 c -0.8 0.2 -1.9 0.2 -3 0.3 l 0 8.8 c 1.1 0.4 2 0.7 4 1.8 l -3.8 3.5 c -0.1 0 -0.2 0.1 -0.3 0.1 l 0 19.8 c 1.7 0.6 1.1 1.6 0 2.7 l 0 47.6 c 2.7 -0.5 5.7 -1 10.1 -1.9 c -1.2 2 -2.9 3.6 -5 5 c -1.9 0 -3.5 -0.3 -5.2 -0.5 l 0 725.9 l 0 0 l 0 71.2 l -0.6 0 l 0 0.1 l 0.6 0 l 0 152.1 l 0 58.1 l 0 0.9 l 75 0 l 4.9 0 l 143.1 0 l 3.7 0 l 142.4 0 l 4.1 0 l 155 0 l 4.8 0 l 155.7 0 l 3.3 0 l 137.2 0 l 4.3 0 l 91.2 0 l 0.2 1.7 c 6 -0.5 11.9 -1 17.8 -1.7 l 43.6 0 l 3173 0 l 0 -230.4 l 0 0 l 0 -18.8 l 0 -4.3 l 0 -14.2 l 0 -20.9 l 0 -686.5 c -1.7 0.2 -3.2 0.5 -5.2 0.5 c -2 -1.4 -3.7 -2.9 -5 -4.9 c 4.5 0.9 7.4 1.5 10.1 1.9 l 0 -47.6 c -1.1 -1.1 -1.6 -2 0 -2.7 l 0 -19.8 c -0.1 0 -0.2 -0.1 -0.3 -0.1 l -3.8 -3.5 c 2 -1.1 2.9 -1.4 4 -1.8 l 0 -8.8 c -1 -0.1 -2.1 -0.1 -3 -0.3 l 3 -2.1 l 0 -7.4 l -4.7 -2.9 c -2.4 -3.6 1.7 -1.4 0.4 -5.5 c -2 -0.9 -8.7 -2.6 -9 -2.8 c -6.3 -2.7 -2.4 0.3 -4.2 -1.1 c 0.5 -0.7 0.9 -1.4 1.2 -2.2 l 16.4 -0.1 l 0 -3.1 c -2.6 -1.7 -3.2 -1.1 -11.8 -1.3 l 11.8 -6.4 l 0 -0.2 c -10.1 0.1 -5.9 1.9 -12.7 -2.4 c 5.5 -4.7 11.6 -4.2 6.9 -12.1 c -4.2 -6.9 -9.1 -3.9 -20.9 -4.5 c 4.5 -7.8 4 -2.8 13.3 -8.5 c -9.5 -2.1 -11.7 -1 -9.3 -6.6 c 3.4 -8 4.2 -5.2 16.8 -5.4 l -12.4 -5.6 c 10.5 -5.2 4.7 0.7 7.8 -8.5 c -7.9 -0.4 -9.7 1.5 -13.4 -1.1 l 17 -2.2 l -16 -20.4 c 0.5 -2.8 0.6 -1.7 0.9 -3.9 l -1.2 -8.1 c -0.1 -0.4 -0.4 -1.1 -0.6 -1.6 l -0.8 -24.4 c 0.4 -7.8 0.3 -1.8 -0.2 -6 l -1.4 -22.5 c -0.3 -0.6 -3.6 -6.7 -3 -14.3 c -1.6 10.2 -4.2 10.3 -4 21 c 0.3 10.1 3.1 7.5 0.8 18.9 c -0.8 3.8 -3.6 9.4 -3.9 10.1 c -1.7 5.6 3.1 14.8 5.8 23.9 l -16.5 1.3 l 13.7 13.7 c 0.1 -0.5 1.1 0.8 1.6 1.1 l -9.1 6 l 7.6 15.1 c -11.8 0.7 -9.8 -2.5 -15.6 -1.1 c 8.2 14.1 0.1 1.7 10.1 9.9 c 7.7 6.4 5.4 -5.3 7 10 c -10.2 -2.8 -20.8 -7.5 -27.4 -6.5 c 7 9.9 14.9 12.5 27.2 11.9 c -2.6 10.8 -3.4 3.6 -0.1 13.8 c -2.9 -1.2 -5.7 -1.9 -9.6 -3.4 c -10.2 -4 -9.1 -4.1 -19.8 1.2 c 8.3 11.1 4.7 -0.5 11 6.1 c 0.5 0.5 0.7 0.7 1.2 1.1 c -0.3 0.5 -0.7 1.2 -1 2.2 l -0.3 1.4 c -0.9 -0.9 -1.9 -1.9 -2.9 -2.9 c -0.6 2.3 0.5 3.9 2.2 5.3 l -0.6 2.3 c -0.8 0.4 -1.4 1.2 -1.9 2.7 c 0 0.2 -0.1 0.4 -0.1 0.6 c -0.8 -0.7 -1 1.4 -0.1 0.8 c 0 2.6 1.7 5 3.5 7.1 l -12.3 3.2 c 7.1 3.3 3.4 0.8 6.5 7.5 l -12.9 5.7 c 10.5 7.7 4.9 -1.9 10.8 9.2 c -7.9 2.1 -17.6 4 -24.2 7.5 c 2.1 0.2 7.1 0.8 12.5 1.4 l 0 0 c -4.8 2.2 -6.7 3.7 -4.8 8.9 c -1.4 0.5 -2.7 0.9 -4.1 1.4 c 1.3 4.2 1.8 6 4 7.3 c -6.1 -0.7 -12.5 -1.6 -22.1 4.3 c 5.9 4.1 14 3.8 23.2 5.6 c -0.5 1.2 -0.7 2.4 -0.9 4.2 c 2.9 0.2 7.7 -0.1 11.3 0.3 c 0 0.8 0 1.6 0 2.5 c -10.3 3.6 -25.9 4.5 -33.6 10.3 c 4.2 0.9 9.4 1.2 15.1 1.1 l -0.7 2.3 c -7.5 1.7 -14.9 3.4 -22.4 5.2 c 3.7 5.5 4.8 5.9 11.3 4.6 c 6.4 -1.3 9.1 2.2 12.4 6.8 c 5.1 -1.2 9.7 -2.3 14.4 -2.3 c 0.3 0.8 0.6 1.3 0.9 1.8 c -2 2.3 -2.3 4 -2.7 7.4 c 2 0.4 4.8 0.8 7.6 1.2 l 0 0.1 c -1.2 0.2 -2.6 0.1 -3.4 0.1 c -7 0 -11.7 -1.5 -18.2 -2 c -4.8 -0.3 -8.6 0.4 -13.1 1.8 c -0.2 1.3 -1.3 9.9 -1.7 10.3 c -0.9 1.1 -23.1 11.6 -23.5 12.1 c -1.3 1.7 2.4 5.2 4.3 5.9 c 5 1.7 13 -0.6 19.8 -3.2 c 1.7 0.7 3.7 0.7 6.8 0.5 c -0.3 1.2 -0.6 2.1 -0.7 3.1 l -14.2 5.3 c 4 0.4 9.3 1.1 14.2 2.4 c -0.4 0.3 -0.8 0.6 -1.3 1 c 2.6 1.3 5.2 2.6 7.8 4 c -2.4 0.1 -4.7 0.4 -7.3 0.8 c -0.1 0.6 -0.3 3 -0.6 5.4 c -1.6 0 -3.3 0.1 -4.9 0.2 l -10.8 3 c -0.5 -0.7 -1.7 0.8 -2.5 1.3 c 1.2 2.6 3.1 4.6 5.5 6.1 c -7.2 2.5 -15 5.2 -15.3 5.5 c -1.5 1.7 2.9 6.3 5.2 7.3 c 3.1 1.4 7.1 1.7 11.4 1.4 c 2.1 4.9 9.8 5.5 15.2 6.7 c -0.6 2.1 -1.2 4.2 -1.9 6.3 c -7.5 1.8 -15 3.7 -22.6 5.5 c 2.9 5 4.6 7.1 10.6 5.5 c 6.3 -1.6 9 1.3 12.1 6.2 c 1.4 2.1 0.3 1.7 3.7 1 c 1.3 -0.3 2.6 -0.6 3.9 -0.8 c 0.7 0.8 1.1 1.5 1.4 2.3 l -4 1.5 c -4.5 1.4 -9.3 1.9 -14 2.8 c -2.2 0.2 -4.3 0.8 -6.8 1.6 l 0 0.1 c -3.8 1.3 -7.3 3.3 -9.7 6.9 c 2.6 2.3 0.8 2.5 2.4 3.4 c -5.9 1.6 -11.9 3 -17.8 4.5 c 2.4 4.4 4.3 7.5 9.9 6.1 c 5 -1.3 7.4 -0.8 10.3 2.9 c -8.9 1 -12.7 2.9 -17.8 10.7 l 22.9 1.6 c 0.6 0.9 1.3 1.6 2.1 2 c 1.7 1.6 3.6 2.3 6.7 2.2 c -1.8 5 0.4 3.1 -9.8 5.8 c -29.6 7.8 -49.9 4.3 -52 18.2 c 14.5 8.1 34.4 2.5 51.8 0.5 c 0.3 0.6 0.5 1.2 0.8 1.8 c -7.2 0.8 -14.3 1.6 -21.6 2.4 c 2.3 4.2 4.3 7.4 8 8.3 c -2 0.6 -3.4 2 -6.8 4.3 c 7.4 6.2 14.9 4.8 19.7 12.1 c -12.7 7.5 -15 0.7 -29.7 -0.1 c -11.4 -0.7 -22.2 4.7 -27.3 14.4 c 10.1 3.9 24.3 12.9 36 -0.3 c 4.2 4.8 0.4 -0.5 3 4.4 c 0.2 0.4 0.3 1.9 0.6 2.6 l 4.5 -1.1 c 2.8 1.5 5.2 -0.1 8.6 0 c -1.6 4.8 -3.4 7 -8.7 11.4 c -2 0.3 -4 0.5 -4.7 0.6 c 0.4 0.8 0.7 1.4 1.1 2 c -8.8 5.6 -8 -2.6 -5.2 10 c -17.6 -3.5 -35.7 -10.3 -50.4 3.7 c -4 -1 -8.7 -1.1 -15.5 -0.9 c -3.6 0.1 -5.9 0.6 -7.4 1.1 c -2.3 -0.7 -3.9 -1.3 -4.1 -1.6 c -0.2 -0.2 -0.8 -2.4 -1.3 -4.5 l 10.6 -3 c 2.2 -1 10.6 -6.8 20 -8.6 c 5.7 -1.1 5.9 -0.2 11.5 -2 c -4.5 -1 -8.2 -1.6 -11.5 -2 c 1.8 -0.7 4.6 -3.3 3.5 -4.5 c -0.4 -0.4 -20.1 -8.7 -21 -9.6 c -0.3 -0.3 -1.3 -7.1 -1.4 -8.1 c -4.1 -1.1 -7.4 -1.7 -11.7 -1.4 c -5.8 0.4 -9.9 1.6 -16.1 1.6 c -1.8 -1 -3.3 -2.3 -4.4 -3.9 c 12.4 2.2 12.8 2.8 27.7 1.1 c -4.5 -5.1 -3.4 -3.8 -7.7 -4.7 c 2.6 -3.1 5.1 -5.2 10.3 -4.3 c 5.8 1.1 6.8 0.7 10 -3.6 c -6.6 -1.3 -13.3 -2.7 -19.9 -4.1 c -0.8 -2 -1.5 -4.1 -2.2 -6.1 c -0.2 -0.1 -0.4 -0.1 -0.6 -0.1 c 5.7 -0.2 10.5 -0.1 15.1 -3.1 c -7.6 -4.8 -14.5 -6.4 -20.5 -7.6 c -0.3 -0.6 -0.9 -1.3 -1.7 -2 c -1.3 -1.3 -4.1 -2.9 -1.2 -3.6 c 3.8 -1 5.2 -1.6 6.2 -3.2 l 8.1 -0.1 l -9.4 -7.8 c -0.1 -2 -1.8 -3 -4.9 -4.2 c -0.2 -0.1 -0.3 -0.1 -0.5 -0.2 l -3.3 -2.8 c 4.1 -2 4.1 -1.3 9 -3.3 l 5.4 -2.5 c 0.3 -0.7 1.2 -0.6 1.8 -0.9 l -7.8 -1.4 c -1.1 -0.1 -5 0.1 -7.4 -0.5 l 7.5 -4.9 l -9.1 -4.9 c -2.1 -2.9 1.5 -1.2 0.3 -4.4 c -1.8 -0.7 -7.7 -2.1 -8 -2.2 c -5.7 -2.1 -2.2 0.2 -3.8 -0.9 c 0.4 -0.6 0.8 -1.1 1.1 -1.7 l 18.6 -0.1 c -7.2 -4.4 -4 -3.2 -14.5 -3.5 l 10.8 -5.2 c -10 0.1 -5.5 1.6 -11.7 -1.8 c 4.9 -3.7 10.4 -3.4 6.1 -9.5 c -3.8 -5.5 -8.1 -3 -18.6 -3.6 c 4 -6.2 3.6 -2.1 11.9 -6.6 c -8.5 -1.7 -10.5 -0.8 -8.3 -5.2 c 3.1 -6.3 3.8 -4.1 14.9 -4.3 l -11.1 -4.4 c 9.4 -4.1 4.1 0.6 7 -6.7 c -7.1 -0.3 -8.6 1.2 -11.9 -0.8 l 15.1 -1.7 l -14.2 -16.1 c 0.4 -2.2 0.5 -1.3 0.8 -3.1 l -1 -6.4 c -0.1 -0.3 -0.4 -0.9 -0.5 -1.2 l -0.7 -19.2 c 0.3 -6.2 0.2 -1.5 -0.2 -4.8 l -1.3 -17.7 c -0.3 -0.5 -3.2 -5.3 -2.7 -11.3 c -1.4 8.1 -3.7 8.1 -3.5 16.5 c 0.2 8 2.8 5.9 0.7 14.9 c -0.7 3 -3.3 7.4 -3.4 7.9 c -1.5 4.4 2.7 11.7 5.2 18.8 l -14.7 1 l 12.2 10.8 c 0.1 -0.4 1 0.6 1.5 0.9 l -8.1 4.7 l 6.7 11.9 c -10.5 0.6 -8.7 -2 -13.9 -0.9 c 7.3 11.1 0.1 1.3 9 7.8 c 6.9 5.1 4.8 -4.2 6.3 7.9 c -9.1 -2.3 -18.5 -5.9 -24.4 -5.1 c 6.2 7.8 13.3 9.9 24.2 9.4 c -2.3 8.5 -3 2.9 -0.1 10.9 c -2.6 -0.9 -5.1 -1.5 -8.5 -2.7 c -9.2 -3.1 -8.2 -3.2 -17.6 1 c 7.3 8.8 4.2 -0.4 9.8 4.8 c 8 7.5 2.6 -5.6 0.2 2.6 l -0.3 1.1 c -0.8 -0.7 -1.6 -1.5 -2.5 -2.3 c -0.6 1.8 0.5 3 2 4.2 l -0.6 1.8 c -0.7 0.3 -1.3 1 -1.6 2.2 c -0.1 0.1 -0.1 0.3 -0.1 0.4 c -0.7 -0.5 -0.9 1.1 -0.1 0.6 c -0.1 2 1.5 3.9 3 5.6 l -10.9 2.5 c 6.4 2.6 3 0.6 5.8 5.9 l -11.4 4.5 c 9.3 6 4.3 -1.6 9.6 7.2 c -7 1.6 -15.7 3.1 -21.5 5.9 c 1.8 0.1 6.4 0.6 11.1 1.1 l 0 0 c -4.2 1.7 -5.9 2.9 -4.2 7 c -1.2 0.3 -2.4 0.7 -3.6 1.1 c 1.2 3.3 1.7 4.7 3.6 5.7 c -5.4 -0.5 -11.1 -1.2 -19.6 3.5 c 5.2 3.2 12.4 3 20.6 4.4 c -0.4 0.9 -0.6 1.9 -0.8 3.3 c 2.6 0.2 6.8 0 10.1 0.2 c 0 0.6 0 1.3 0 1.9 c -9.2 2.9 -23.1 3.6 -29.9 8.1 c 3.8 0.7 8.4 0.9 13.5 0.8 l -0.7 1.8 c -6.6 1.4 -13.3 2.7 -19.9 4.1 c 3.3 4.3 4.2 4.7 10 3.6 c 5.7 -1 8.1 1.7 11 5.3 c 4.6 -0.9 8.6 -1.8 12.8 -1.8 c 0.3 0.6 0.6 1.1 0.8 1.5 c -1.8 1.8 -2 3.1 -2.4 5.9 c 1.8 0.3 4.3 0.6 6.8 0.9 l 0 0.1 c -1.1 0.1 -2.4 0.1 -3.1 0.1 c -6.3 0 -10.5 -1.2 -16.2 -1.6 c -4.3 -0.3 -7.6 0.3 -11.7 1.4 c -0.1 1 -1.1 7.8 -1.4 8.1 c -0.9 0.9 -20.6 9.2 -21 9.6 c -1.2 1.3 2.1 4.1 3.8 4.6 c 4.4 1.4 11.6 -0.5 17.6 -2.5 c 1.5 0.5 3.3 0.5 6.1 0.4 c -0.3 1 -0.6 1.7 -0.7 2.5 l -12.7 4.2 c 3.6 0.3 8.3 0.8 12.6 1.9 c -0.4 0.3 -0.8 0.5 -1.2 0.7 c 2.3 1 4.6 2.1 6.9 3.1 c -2.1 0 -4.2 0.3 -6.5 0.6 c 0 0.5 -0.3 2.4 -0.5 4.2 c -1.5 0 -2.9 0.1 -4.3 0.2 l -9.6 2.4 c -0.5 -0.6 -1.5 0.6 -2.2 1 c 1.1 2.1 2.8 3.7 4.9 4.8 c -6.4 2 -13.4 4.1 -13.6 4.4 c -1.3 1.3 2.6 5 4.7 5.8 c 2.8 1.1 6.4 1.3 10.2 1.1 c 1.9 3.9 8.7 4.4 13.5 5.3 c -0.6 1.6 -1.1 3.3 -1.7 4.9 c -6.7 1.4 -13.4 2.9 -20.1 4.3 c 2.6 3.9 4.1 5.6 9.4 4.4 c 5.6 -1.3 8 1 10.8 4.9 c 1.2 1.7 0.2 1.4 3.3 0.7 c 1.2 -0.2 2.3 -0.5 3.5 -0.7 c 0.6 0.6 1 1.2 1.3 1.9 l -3.5 1.2 c -4 1.1 -8.3 1.5 -12.4 2.2 c -2 0.1 -3.9 0.6 -6 1.2 l 0 0 c -3.4 1 -6.4 2.6 -8.7 5.4 c 2.3 1.8 0.7 2 2.2 2.6 c -5.3 1.2 -10.6 2.4 -15.9 3.5 c 2.1 3.5 3.8 5.9 8.8 4.8 c 4.5 -1 6.5 -0.6 9.2 2.3 c -8 0.8 -11.3 2.3 -15.9 8.4 l 20.4 1.2 c 0.6 0.7 1.2 1.2 1.8 1.6 c 1.5 1.2 3.3 1.8 6 1.7 c -1.7 3.9 0.3 2.5 -8.7 4.6 c -26.3 6.2 -44.4 3.4 -46.3 14.3 c 12.8 6.4 30.5 1.9 46.1 0.4 c 0.2 0.4 0.4 0.9 0.7 1.4 c -6.4 0.6 -12.8 1.3 -19.2 1.8 c 2.1 3.3 3.8 5.8 7.1 6.5 c -1.9 0.5 -3.1 1.6 -6.1 3.4 c 6.6 4.8 13.3 3.8 17.5 9.6 c -11.2 5.9 -13.3 0.6 -26.4 -0.1 c -5.8 -0.3 -11.3 0.9 -15.9 3.5 c -2.8 -0.7 -5.2 -1.1 -8.2 -0.9 c -4.3 0.3 -7.4 1.2 -12.1 1.2 c -1.4 -0.8 -2.5 -1.7 -3.3 -2.9 c 9.3 1.7 9.6 2.1 20.7 0.8 c -3.4 -3.8 -2.5 -2.8 -5.7 -3.5 c 1.9 -2.3 3.8 -4 7.6 -3.3 c 4.4 0.8 5 0.5 7.5 -2.7 c -5 -1 -10 -2 -15 -3.1 c -0.5 -1.5 -1.1 -3 -1.6 -4.5 c -0.2 0 -0.3 -0.1 -0.5 -0.1 c 4.2 -0.1 7.9 -0.1 11.3 -2.4 c -5.7 -3.6 -10.8 -4.8 -15.4 -5.7 c -0.3 -0.5 -0.7 -0.9 -1.2 -1.5 c -1 -1 -3.1 -2.1 -0.9 -2.7 c 2.8 -0.8 3.9 -1.2 4.7 -2.4 l 6 0 l -7 -5.8 c -0.1 -1.5 -1.3 -2.2 -3.7 -3.2 c -0.1 -0.1 -0.3 -0.1 -0.3 -0.1 l -2.5 -2.1 c 3.1 -1.5 3.1 -1 6.8 -2.5 l 4 -1.9 c 0.2 -0.5 0.9 -0.4 1.3 -0.7 l -5.8 -1.1 c -0.8 -0.1 -3.7 0.1 -5.5 -0.3 l 5.6 -3.7 l -6.8 -3.7 c -1.6 -2.2 1.2 -0.8 0.3 -3.3 c -1.3 -0.5 -5.8 -1.6 -6 -1.7 c -4.2 -1.6 -1.6 0.2 -2.8 -0.7 c 0.3 -0.4 0.6 -0.8 0.8 -1.3 l 14 -0.1 c -5.4 -3.3 -3 -2.4 -10.9 -2.6 l 8.2 -3.9 c -7.5 0 -4.1 1.2 -8.8 -1.4 c 3.7 -2.8 7.8 -2.5 4.6 -7.1 c -2.8 -4.1 -6.1 -2.3 -13.9 -2.6 c 3 -4.6 2.7 -1.7 8.9 -5 c -6.4 -1.3 -7.9 -0.6 -6.3 -3.9 c 2.3 -4.7 2.8 -3.1 11.2 -3.2 l -8.3 -3.3 c 7 -3 3.1 0.4 5.2 -5 c -5.3 -0.2 -6.4 0.8 -8.9 -0.7 l 11.3 -1.3 l -10.6 -12.1 c 0.3 -1.7 0.4 -1 0.6 -2.3 l -0.7 -4.8 c -0.1 -0.2 -0.3 -0.7 -0.4 -0.9 l -0.5 -14.4 c 0.3 -4.6 0.1 -1.1 -0.1 -3.6 l -0.9 -13.3 c -0.2 -0.3 -2.4 -3.9 -2 -8.4 c -1.1 6 -2.8 6 -2.6 12.4 c 0.1 6 2 4.5 0.5 11.1 c -0.5 2.2 -2.4 5.6 -2.6 5.9 c -1.1 3.3 2.1 8.8 3.9 14.1 l -11 0.7 l 9.1 8.1 c 0.1 -0.3 0.7 0.4 1.1 0.6 l -6 3.6 l 5 8.9 c -7.9 0.5 -6.5 -1.5 -10.4 -0.6 c 5.5 8.3 0.1 0.9 6.7 5.8 c 5.2 3.8 3.6 -3.1 4.7 5.9 c -6.8 -1.7 -13.8 -4.4 -18.3 -3.8 c 4.7 5.9 10 7.4 18.1 7 c -1.7 6.4 -2.3 2.2 -0.1 8.2 c -1.9 -0.7 -3.8 -1.1 -6.4 -2 c -6.9 -2.4 -6.1 -2.4 -13.2 0.8 c 5.5 6.6 3.1 -0.3 7.3 3.6 c 6 5.6 2 -4.2 0.1 1.9 l -0.2 0.8 c -0.6 -0.6 -1.2 -1.1 -1.9 -1.7 c -0.4 1.4 0.3 2.3 1.5 3.1 l -0.4 1.3 c -0.6 0.3 -1 0.7 -1.2 1.6 c 0 0.1 -0.1 0.2 -0.1 0.3 c -0.5 -0.4 -0.6 0.8 0 0.5 c 0 1.5 1.1 2.9 2.3 4.2 l -8.2 1.9 c 4.8 2 2.2 0.5 4.3 4.5 l -8.6 3.4 c 7 4.5 3.3 -1.2 7.2 5.5 c -5.3 1.2 -11.7 2.3 -16.1 4.4 c 1.4 0.1 4.8 0.5 8.3 0.8 l 0 0 c -3.2 1.3 -4.5 2.2 -3.2 5.2 c -0.9 0.3 -1.8 0.6 -2.7 0.8 c 0.8 2.5 1.2 3.5 2.6 4.3 c -4 -0.4 -8.3 -0.9 -14.7 2.6 c 3.9 2.4 9.3 2.2 15.4 3.3 c -0.3 0.7 -0.4 1.4 -0.6 2.5 c 1.9 0.1 5.2 0 7.6 0.1 c 0 0.5 0 1 0 1.4 c -6.9 2.1 -17.3 2.7 -22.4 6.1 c 2.8 0.5 6.3 0.7 10.1 0.6 l -0.5 1.3 c -5 1 -9.9 2 -14.9 3.1 c 2.4 3.3 3.2 3.5 7.5 2.7 c 4.2 -0.8 6 1.3 8.3 4 c 3.4 -0.7 6.4 -1.4 9.6 -1.4 c 0.2 0.5 0.4 0.8 0.6 1.1 c -1.4 1.4 -1.5 2.3 -1.8 4.4 c 1.4 0.3 3.2 0.4 5.1 0.7 l 0 0 c -0.8 0.1 -1.8 0.1 -2.3 0.1 c -4.7 0 -7.8 -0.9 -12.1 -1.2 c -3.2 -0.2 -5.7 0.3 -8.7 1.1 c -0.1 0.7 -0.9 5.8 -1.1 6.1 c -0.6 0.7 -15.4 6.9 -15.7 7.2 c -0.9 1 1.6 3.1 2.8 3.5 c 3.3 1 8.7 -0.4 13.2 -1.9 c 1.1 0.4 2.4 0.4 4.5 0.3 c -0.2 0.7 -0.4 1.3 -0.5 1.8 l -9.5 3.2 c 2.7 0.3 6.2 0.7 9.4 1.4 c -0.3 0.2 -0.6 0.4 -0.8 0.6 c 1.7 0.8 3.5 1.6 5.2 2.3 c -1.6 0 -3.1 0.2 -4.8 0.5 c -0.1 0.4 -0.2 1.8 -0.4 3.2 c -1.1 0 -2.2 0.1 -3.3 0.1 l -7.2 1.8 c -0.4 -0.4 -1.2 0.5 -1.7 0.8 c 0.8 1.6 2.1 2.8 3.7 3.6 c -4.8 1.5 -10 3.1 -10.2 3.3 c -1 1 1.9 3.7 3.5 4.3 c 2 0.9 4.7 1 7.6 0.8 c 1.4 2.9 6.5 3.3 10.2 3.9 l -1.3 3.7 c -5 1.1 -10 2.2 -15 3.2 c 1.9 2.9 3.1 4.2 7 3.3 c 4.2 -0.9 6 0.8 8.1 3.7 c 0.9 1.3 0.2 1 2.4 0.6 c 0.9 -0.2 1.7 -0.3 2.6 -0.5 c 0.5 0.5 0.7 0.9 0.9 1.4 l -2.6 0.9 c -3 0.8 -6.2 1.1 -9.3 1.6 c -1.3 0.1 -2.5 0.4 -3.8 0.7 c -48.5 -1.6 -100.7 -4.8 -154.8 -10.8 c 0 0 -6.9 9.9 -18.7 26.8 l -261.3 279.4 l -2.8 -0.3 c -1.4 -5.3 -2.8 -9.8 1.4 -19.9 c 1.3 -3.3 3.6 -6.6 -0.7 -2.6 c -7.7 7.1 -7.2 14.7 -9.4 21.8 l -11.2 -1 c -1.1 -5.3 -5 -21.6 -5.8 -21.9 c -1.4 2.9 -0.5 10.2 -0.2 13.4 c 0.2 2.4 0.1 5.2 -0.4 8 l -8.1 -0.8 c 0.1 -1.1 0.1 -2.1 0.3 -3.3 c 1.1 -11.3 -7.6 -16.4 -4.4 -26.3 c 0.5 -1.6 -2.6 0.5 -3.2 0.8 c -3 2 -0.7 7.8 -0.5 11 c 0.4 5 -2.5 11.2 -5.6 16.5 l -8.5 -0.8 c -0.1 -4.8 2.5 -10.1 4 -14.6 c 2.9 -8.7 -1.9 -11.1 -4.5 -18.2 c -2.3 -6.5 5.5 -8.8 1.9 -8.1 c -8.2 1.6 -7.7 6.3 -5.9 11.5 c 3 8.7 1.8 18.7 -2.5 27 c -0.1 0.2 -0.5 0.8 -1 1.6 l -10.3 -1 c 0 -2.1 0.6 -4.3 1.9 -6.7 c 3.4 -6.2 6.3 -11 8.7 -17.5 c -5.3 8.5 -12.7 9.9 -16.4 17.5 c -0.6 1.1 -1.3 3.5 -1.9 6 l -2.6 -0.3 c 0.3 -7.7 11.6 -13.3 6.1 -27.8 c -3 -7.2 -0.7 -0.6 -1.4 4 c -1.6 10.6 -9.5 16.9 -13.4 22.9 l -2 -0.2 l -0.7 -0.9 c -3.9 -5.5 -4.3 -10.5 -0.3 -16.3 c -3.6 3.2 -5.3 9.6 -5.2 13.8 c 0 0.9 0 1.9 0 2.8 l -9.2 -0.9 c -2.1 -2.7 -4.5 -5.1 -5.3 -8.8 c -1.3 -5.8 5.6 -12.2 10.2 -16.1 c -0.8 -0.2 -3.1 0.3 -3.9 0.6 c -11.2 3.4 -12.5 14.7 -13.5 23.1 l -6.5 -0.6 c -3.4 -8.4 -9.5 -11.8 -4.3 -25.1 c 2.2 -5.7 2.2 -5.2 -2 -1.5 c -7.5 6.6 -4.7 16.8 -8.3 25.2 l -9 -0.8 c -1.9 -7.7 -4.9 -16.3 -7 -23.3 c -0.6 -2.1 -1 7.2 -0.8 8.6 c 0.8 4.7 1.2 9.5 0.1 14 l -6.7 -0.6 c 0 -2 0 -3.8 0.1 -4.8 c 0.9 -10.8 -6.4 -13.4 -2.9 -24.6 c -0.8 0.2 -3.1 2.2 -3.5 2.9 c -1.2 1.7 0 9.1 0 11.5 c 0 2.3 -2.1 8.6 -4.2 14.1 l -6.7 -0.6 c 0.6 -5.4 2.9 -11.9 3.8 -15.6 c 1.8 -8 -6.6 -13.2 -2.2 -20 c 0.4 -0.6 2.1 -2.3 1.5 -2.1 c -6.2 2.3 -7.2 6.5 -6 11.5 c 1.4 5.8 1.5 9.1 0.6 15.1 c -0.3 2.4 -1.3 6.5 -2.6 10.7 c -2.7 -0.2 -5.3 -0.5 -7.9 -0.7 c 0.1 -0.2 0.1 -0.4 0.2 -0.6 c 2.3 -6 4.4 -11.2 6.5 -17.3 c 1.7 -5.3 0.3 -1.2 -1.2 1.4 c -3 5.2 -7.7 9.3 -9.7 14.4 c -0.1 0.3 -0.3 0.9 -0.6 1.7 l -1.6 -0.1 c 2.7 -7.2 6.8 -15.9 1.7 -24.6 c 1.4 6.7 -1 14.6 -4 21 c -0.5 1 -1.1 2.2 -1.7 3.4 c -13.1 -1 -23.4 -1.5 -30.4 -1.5 c -10 0 -19.3 0.8 -28.8 2.2 l 0 -13.3 c 0 0 9.5 3.5 21.8 -7 c 12.3 -10.5 11.3 -16.9 11.3 -21.8 c 0 -4.9 -0.3 -6.3 2.5 -11.6 c 2.8 -5.3 -1.8 -6.8 -1.8 -6.8 c 0 0 9.6 -5.5 10.6 -9.7 c 1 -4.2 0 -4.6 -1.1 -7 c -1.1 -2.5 0.3 -8.4 1.1 -12.7 c 0.7 -4.2 0 -8.1 0 -8.1 c 0 0 -2.5 -1 -1.8 -5.6 c 0.7 -4.6 2.8 -5.9 2.5 -10.8 c -0.3 -5 -4.6 -10.5 -4.6 -10.5 c 0 0 -3.9 -18.3 -4.2 -45.5 c -0.3 -27.2 -9 -47.1 -15 -62.2 c -6 -15.1 -18.6 -27 -21.1 -29.2 c -2.5 -2.1 -21.5 -13.3 -21.5 -13.3 c 0 0 -0.3 0 -0.7 0 c -0.6 -0.5 -8.4 -8.2 -8.8 -10.8 c -0.3 -2.8 14.8 -30.6 15.8 -36.9 c 1.1 -6.3 2.5 -12.3 0.3 -25.6 c -2.1 -13.4 -34.1 -31.9 -50.7 -31.6 c -16.5 0.4 -27.8 17.9 -27.8 17.9 c 0 0 -11.2 -1.8 -15.1 -2.8 c -3.9 -1.1 -19.7 8.4 -14.4 16.5 c 4.9 8.1 22.3 16.5 22.3 16.5 c -0.2 0.9 -0.4 2.3 -0.6 4 c -1.2 3.6 -2.6 6.5 -3.3 8.4 c -0.7 2.1 0.9 4.3 2.7 5.6 c -0.1 10.5 0.6 21.9 2.4 24.5 c 1.4 2.1 9.5 2.6 10.9 6.5 c 0.5 1.3 1.2 3.5 1.9 6 c -9.4 2.4 -12.5 6.9 -12.5 6.9 l 4.5 8.1 c -0.9 2.7 -1.8 6.3 -2.9 11.3 c -7 1.4 -14.1 0 -20.4 4.6 c -6.3 4.6 -11.3 14.1 -15.5 19 c -4.2 4.9 -6.7 9.1 -12.3 15.1 c -5.7 6 -7.7 8.8 -7.7 8.8 c 0 0 -13.8 18.3 -19.4 23.2 c -5.6 4.9 -9.9 9.5 -8.8 12.3 c 1.1 2.8 -4.6 4.5 -7.8 6.3 c -3.2 1.8 -2.1 -2.5 -5.3 3.2 c -3.2 5.6 2.8 1 -6.4 7 c -9.1 6 -10.9 17.9 -10.9 17.9 c 0 0 -3.9 1.1 -7.8 3.9 c -3.9 2.8 -3.9 6.7 -3.9 6.7 c 0 0 -20.1 -2.5 -27.5 13 c -7.4 15.4 -9.8 65.7 -9.8 74.8 c 0 2.2 0.5 6.3 1.3 11.4 l -101.8 -215.3 l -1.5 0.7 l -1.5 -0.7 l -128.3 271.3 l -1.5 -0.1 c -0.5 -4.7 -1.1 -9.3 -1.5 -12.9 c -0.3 -2.2 0 -6.3 -1.5 -1.8 c -1.8 5.5 -1.9 10.1 -2.8 14.5 l -8.2 -0.4 c 2.1 -8.3 -2 -12.5 0.4 -20 c 1.1 -3.5 4 -6.4 -1.6 -2.3 c -3.1 2.3 -3 7.6 -3.4 10.8 c -0.5 3 -2.6 7 -5.1 11 l -8.8 -0.4 c 1.6 -3.2 3.5 -6.1 4.6 -8.1 c 5.2 -9.3 1.6 -9.2 1.1 -17.5 c -0.4 -6.8 7.5 -10.3 2.8 -8.4 c -8.9 3.5 -6.8 10.1 -7.2 16.2 c -0.3 4.3 -2.7 11.1 -6 17.6 l -8.2 -0.4 c 3.3 -4.8 6.2 -9.5 9.1 -14.5 c 3.1 -5.4 0.5 -1.1 -1.6 1.4 c -4.2 4.9 -9.2 8.2 -12.7 12.9 l -1.7 -0.1 c 4.2 -6.5 8.7 -14.3 5.7 -22.5 c 0 7.1 -4.3 15 -8.7 21.1 c -0.3 0.4 -0.5 0.7 -0.8 1.1 l -9.2 -0.5 c 0.6 -2 1.7 -4.2 3.3 -6.6 c -1.9 2.2 -3.2 4.4 -4.2 6.6 c -3.9 -0.2 -7.8 -0.4 -11.7 -0.7 c 0.9 -2.9 3.1 -6.5 7.4 -11.4 c 1.3 -1.5 4.8 -4.2 0.5 -2.4 c -6.2 2.6 -9.6 7.9 -11.8 13.6 c -3.9 -0.2 -7.7 -0.5 -11.7 -0.7 c -0.5 -3.5 -0.1 -7.6 2.2 -13.9 c 1.2 -3.3 3.3 -6.7 -0.8 -2.6 c -5.4 5.4 -6.5 10.9 -7.3 16.2 c -4.6 -0.3 -9.3 -0.6 -14 -0.9 c -1.8 -6.7 -4.4 -15.4 -5 -15.6 c -1.3 2.9 -0.1 10.2 0.3 13.4 c 0.1 0.6 0.1 1.2 0.2 1.9 l -8.3 -0.5 c -0.8 -9.3 -8 -14.1 -5.3 -23.2 c 0.5 -1.6 -2.6 0.5 -3.1 0.9 c -3 2.2 -0.4 7.8 0 11.1 c 0.4 3.1 -0.6 6.9 -2.1 10.6 l -10.6 -0.7 c 0.8 -2.9 1.9 -5.8 2.6 -8.4 c 2.5 -8.7 -2.3 -11 -5.2 -18 c -2.6 -6.4 5.2 -9 1.6 -8.2 c -8.2 1.9 -7.4 6.6 -5.5 11.7 c 2.8 7 2.7 15.1 0.3 22.4 l -11.6 -0.8 l 0.1 -0.3 c 3.2 -6.3 5.8 -11.2 8 -17.9 c -4.8 8.5 -12 10.3 -15.5 17.6 l -2.4 -0.2 c 2.9 -5.3 7.1 -11.3 2.9 -21.3 c -3.2 -7.1 -0.7 -0.5 -1.2 4 c -0.8 7 -4.4 12.3 -7.8 16.9 l -10.7 -0.8 c -0.7 -3.2 0 -6.4 2.3 -9.9 c -2.5 2.3 -3.9 6.2 -4.5 9.8 l -0.4 0 c -3.3 -4.3 -6.8 -8.7 -10.3 -13.1 c 1.7 -2.1 3.7 -4 5.4 -5.5 c -0.8 -0.1 -3.1 0.5 -3.9 0.7 c -1.4 0.5 -2.7 1.1 -3.8 1.9 c -49.4 -61.6 -118.9 -137.9 -189.7 -193.7 c -60.1 -47.4 -121.3 -80.1 -172.3 -76.8 c -30.9 1.9 -65.6 14 -101.6 33.1 l -0.5 -0.8 l -4.2 3 l 0.2 0.3 c -28.1 15.3 -57 34.8 -85.7 57.1 c -59.1 46 -117.1 103.7 -164.6 160.8 c -1 -3.5 -1.4 -7.2 -0.8 -10.5 c -2.5 4.5 -2.4 9 -1.4 13.2 l -2.3 2.7 c -2 -2.4 -4.2 -4.7 -5.9 -7.4 c -1.5 -2.3 -3 -6.2 -1.2 -1.2 c 1.5 4.1 3.1 7.7 4.7 11.5 l -2.5 3.1 l -3.7 0.4 c -1 -3 -1.7 -5.7 -2 -7.4 c -1 -5.6 -1.1 -8.7 0.1 -14.2 c 1 -4.7 -0.1 -8.7 -6.1 -10.7 c -0.6 -0.2 1.1 1.4 1.5 2 c 4.5 6.3 -3.4 11.4 -1.4 18.9 c 0.8 2.9 2.6 7.6 3.6 12 c -2.4 0.3 -4.7 0.5 -7 0.8 c -1.8 -4.4 -3.3 -8.7 -3.4 -10.5 c -0.1 -2.3 0.8 -9.3 -0.5 -10.8 c -0.5 -0.6 -2.7 -2.4 -3.5 -2.6 c 3.7 10.5 -3.2 13.2 -2 23.3 c 0.1 0.4 0.1 1 0.1 1.7 c -2.3 0.3 -4.6 0.6 -6.9 0.8 c -0.5 -3.4 -0.3 -6.9 0.2 -10.4 c 0.2 -1.3 -0.5 -10.1 -1 -8.1 c -1.6 5.8 -3.7 12.8 -5.3 19.3 c -3.5 0.5 -6.9 0.9 -10.3 1.4 c -2.3 -7.3 -1.1 -15.5 -7.7 -20.8 c -4.2 -3.3 -4.2 -3.8 -1.9 1.4 c 4.8 10.8 1 14.8 -2 21 c -2.6 0.4 -5.2 0.8 -7.8 1.1 c -1.3 -7.5 -3.5 -16.3 -13.3 -18.8 c -0.8 -0.2 -2.9 -0.6 -3.8 -0.4 c 4.6 3.5 11.4 9.4 10.4 14.9 c -0.4 2.3 -1.5 4.1 -2.7 5.8 c -3.7 0.6 -7.3 1.2 -10.9 1.8 l 0 -0.6 c -0.1 -4 -1.9 -10 -5.4 -12.9 c 3.8 4.9 3.9 9.3 1 14.2 l -4.6 0.8 c -4.2 -5.1 -10.7 -10.6 -12.4 -19.6 c -0.8 -4.3 1.2 -10.6 -1.4 -3.7 c -4.5 12.9 4.9 18.1 6.5 24.6 l -2.6 0.5 c -0.6 -1.8 -1.2 -3.5 -1.6 -4.3 c -3.8 -7.1 -11 -8.2 -16.4 -16 c 2.5 6.2 5.4 10.6 8.9 16.3 c 1.1 1.9 1.8 3.6 2 5.3 c -3.4 0.6 -6.7 1.2 -10 1.9 c -0.4 -0.6 -0.7 -1 -0.8 -1.2 c -4.5 -7.8 -5.9 -17.1 -3.4 -25.4 c 1.6 -5 1.9 -9.4 -6 -10.7 c -3.4 -0.5 4.2 1.4 2.1 7.6 c -2.2 6.8 -6.7 9.3 -3.6 17.4 c 1.6 4.2 4.3 9.2 4.3 13.7 c -2.6 0.5 -5.1 1 -7.7 1.6 c -3.3 -5.1 -6.5 -11.1 -6.3 -16 c 0.1 -3.1 2.2 -8.6 -0.8 -10.4 c -0.5 -0.3 -3.6 -2.1 -3.1 -0.6 c 3.4 9.2 -4.8 14.3 -3.3 25 c 0.2 1.7 0.4 3.3 0.5 4.8 c -2.4 0.5 -4.8 1 -7.2 1.6 c -1.2 -3.3 -1.6 -6.8 -1.4 -9.8 c 0.2 -3.1 0.8 -10 -0.6 -12.7 c -1 0.3 -4.8 20.4 -5.1 22.4 c -0.1 0.6 -0.2 1.1 -0.2 1.7 c -2.8 0.6 -5.6 1.3 -8.4 2 c -4.5 -7.6 -2.4 -16.3 -11.5 -24.1 c -4.2 -3.6 -1.9 -0.5 -0.5 2.5 c 4.8 10.6 2.9 14.6 1.6 20.6 l -7.9 -2 c -2.5 -6.7 -6.3 -13.6 -14.1 -16.1 c -4.2 -1.4 -0.7 0.9 0.7 2.2 c 6 5.8 8.2 9.6 8.6 12.7 l -13.2 -3.3 c -0.8 -1.2 -1.9 -2.5 -3.1 -3.7 c 1 1.2 1.8 2.4 2.4 3.5 l -12.8 -3.2 z m 237 -20.4 c -0.6 -1.1 -1.2 -2.3 -1.7 -3.5 c 21.9 -26.4 46 -53 71.5 -78.5 l 16.3 6 c -29.3 26.6 -56.1 53.2 -73.7 75.6 c -4 0.4 -8 0.7 -11.9 1.1 l -0.4 -0.8 z m -4 -0.8 c 0.3 0.6 0.5 1.3 0.8 1.9 l -1.5 0.1 c -0.1 -0.2 -0.3 -0.5 -0.4 -0.7 l 1.1 -1.3 z m 940.1 37 c 2.3 -6.2 3.5 -12.5 11.9 -19 c 5.2 -4 2.7 -1.1 0.6 2.5 c -5.2 9.3 -4.9 13 -3.4 16.9 c 4.5 0.2 9 0.3 13.4 0.5 c 2 -4.6 4.6 -8.8 9.7 -12.7 c 2.3 -1.8 6.4 -4 9.7 -4 c 0.8 0 -3.4 3.1 -3.6 3.3 c -4.7 4.2 -9.4 8.6 -9.4 13.7 c 5.3 0.2 10.6 0.3 15.8 0.5 c 1.1 -2.9 2.8 -5.8 6 -8.9 c -2.6 3.5 -3.9 6.4 -4.1 8.9 c 4.4 0.1 8.7 0.2 13 0.3 c 17.1 -11.8 32.8 -22.9 32.8 -22.9 l 6.3 7.3 l -6 5.3 c 2.3 2 4.4 4.7 6 4.2 c 2.8 -1.1 6 -3.2 6 -3.2 c 0 0 2.1 -1.4 3.2 1.1 c 1.1 2.4 1.8 3.1 1.8 3.1 l 11.3 -3.5 l 15.9 3.5 l -19.9 -10.9 l -1.8 0 l 0 -1 l -14.9 -8.1 c 0 0 3.1 -3.9 5.3 -3.9 c 2.1 0 3.5 0.4 5.7 -1.4 c 1 -0.9 2.6 -1.8 4 -2.4 l 0 -15.9 c -22 -1 -39.5 -15.2 -39.5 -37.5 c 0 -4.4 0.7 -7.6 1.9 -10.1 c -3.5 -1.8 -5.4 -3.8 -5.4 -5.9 c 0 -5.9 15.2 -10.9 35.5 -12.2 c 0 -0.3 0 -0.6 0 -0.9 c 0 -4.6 3.2 -7.8 7.6 -8.7 l 0 -141.8 l -124.5 263.4 c 3.2 0.1 6.4 0.3 9.6 0.4 z m -244.7 -32.4 c 0.3 -0.3 0.5 -0.6 0.8 -0.8 c 4.1 -3.8 4 -4.3 2 1.4 c -0.2 0.6 -0.4 1.3 -0.6 1.9 c 4.5 5 9 9.8 13.4 14.5 c 0.7 -3.3 1.8 -6.6 3.9 -9.3 c -13.1 -16.3 -27.5 -33.6 -43.1 -51.3 c -2.5 1.6 -6.5 3.9 -10.3 6 c 11.6 13 22.9 25.6 33.9 37.6 z m 22.6 11.5 c -1.1 2.2 -1.7 4.5 -1.1 6.6 c 0.1 0.3 0.2 0.7 0.3 1 l 7.3 0.6 c -2.1 -2.7 -4.2 -5.4 -6.4 -8.1 z m -1830.6 -299.9 l 1.7 -13.4 c -33.8 -0.3 -67.5 5.3 -98.6 18.1 c -8.7 3.5 -17.2 7.6 -25.8 12.1 l 10.3 4.6 c 8 4.8 9 -0.1 13.2 1.3 c 31.3 -14.3 64.4 -22.8 99.3 -22.7 z m -123.5 35.1 c 4.7 -2.7 9.5 -5.2 14.3 -7.7 l -9.1 0 c -15.6 -1.9 -18.1 -4.6 -19.8 3.4 c 3.4 -0.2 7.5 1.8 11.4 3.2 c 1.2 0.4 2.3 0.8 3.1 1.1 z m 252.5 -5.5 l 8.9 -10.7 c -3.4 -1.6 -6.9 -3.3 -10.4 -4.8 c -37.6 -16.6 -79.5 -26.5 -121.4 -27.5 l -1.7 13.4 c 5.5 0.1 11 0.5 16.6 1 c 31.4 3.1 75.3 9.2 107.9 28.6 z m 12.4 -8 l -8.6 10.4 c 0.1 0.1 0.3 0.2 0.4 0.3 c 39.5 25.8 38.8 25.2 38.8 25.2 c 0 0 6.4 -3.7 17.1 -7.5 c -14.2 -10.6 -31.1 -21.3 -50.6 -30.7 l 2.9 2.4 z m 3178.7 -59.3 c 3.3 0.1 6 0 8.9 -0.1 c -3.7 -0.9 -7.4 -2.3 -9.9 -3.2 c 0.4 1.7 0.7 2.5 1 3.3 z m 18.4 -3.9 c 1 0.5 1.7 0.8 1.8 0.8 c 0.8 0.9 -1.3 2.8 -2.6 3.4 c 2.5 0.3 5.3 0.7 8.6 1.4 c -4.2 1.4 -4.3 0.7 -8.7 1.5 c -7 1.3 -13.4 5.7 -15 6.4 l -5.3 1.5 c 9.2 -0.8 19 1.9 28.6 3.6 c -2.5 -10 -3.2 -3.5 4.7 -7.9 c -0.3 -0.4 -0.6 -0.9 -1 -1.6 c 0.6 -0.1 2.3 -0.3 4.2 -0.5 c 4.8 -3.4 6.3 -5.2 7.7 -9 c -3 -0.1 -5.1 1.2 -7.6 0 l -4 0.9 c -0.3 -0.6 -0.3 -1.7 -0.5 -2.1 c -2.3 -3.9 1.1 0.3 -2.7 -3.5 c -2.6 2.6 -5.4 4.1 -8.2 4.9 z m 2 25.4 c -2.8 2.8 -5.2 3.4 -7.7 3.1 c -0.6 0.5 -1.1 0.9 -1.6 1.1 c -0.8 0.3 -1.6 0.6 -2.5 0.7 c -1.3 3 -6.6 3.4 -10.2 4.1 l 1.2 3.7 c 5 1.1 10 2.2 15 3.2 c -1.9 2.9 -3.1 4.2 -7.1 3.3 c -4.2 -0.9 -6 0.8 -8.1 3.7 c -0.9 1.3 -0.2 1 -2.5 0.6 c -0.9 -0.2 -1.7 -0.3 -2.6 -0.5 c -1.4 1.3 -1.2 2.6 -1.6 4.4 c 0.7 0.1 1.2 0.2 1.8 0.2 c 0.7 0 1.4 0.1 2 0.1 c 1.6 0 3 -0.2 5.3 -0.6 c 2.9 -0.6 5.2 0 8 0.7 l 0.3 1.1 l 6.3 0 c 1.2 -0.9 2.7 -2 4.7 -3.6 c 3.8 -2.9 5.7 -4.1 7.5 -4.6 c -0.2 -0.3 -0.3 -0.6 -0.5 -0.8 c 2.9 -0.1 5.5 -0.1 8.4 0 c -3.6 -1.2 -3.9 -2.6 -4.7 -5.7 c 3.5 -0.8 7.1 -1.6 10.6 -2.6 c 1.9 -0.6 4.5 -1.2 6.7 -2.2 c -6.6 1 -13.4 -0.8 -20.5 -9.3 c -2.5 -3 -3.3 -0.5 -6.5 -0.2 l -1.9 0.3 z m 19.7 -53.1 l 0.6 -0.2 c -0.8 0 -1.3 -0.1 -0.6 0.2 z m 118.1 -127.6 c 4.5 0.1 8.1 0 11.9 -0.1 c -5 -1.2 -10 -3.1 -13.2 -4.3 c 0.5 2.3 1 3.4 1.2 4.4 z m 28.9 27 c -4.4 5.2 -7.9 6.3 -11.8 5.9 c -0.7 0.6 -1.5 1.2 -2.1 1.4 c -1 0.4 -2.1 0.7 -3.4 0.9 c -1.7 4 -8.8 4.6 -13.6 5.5 c 0.6 1.6 1.1 3.3 1.7 4.9 c 6.7 1.4 13.4 2.9 20.1 4.3 c -2.6 3.9 -4.1 5.6 -9.4 4.4 c -5.6 -1.3 -8 1 -10.8 4.9 c -1.2 1.7 -0.3 1.4 -3.3 0.7 c -1.2 -0.2 -2.3 -0.5 -3.5 -0.7 c -1.8 1.8 -1.6 3.6 -2.1 5.9 c 0.9 0.1 1.7 0.2 2.4 0.3 c 0.9 0 1.8 0.1 2.7 0.2 c 2.1 0 4 -0.2 7.1 -0.8 c 3.9 -0.8 6.9 0 10.6 1 c 0.7 2.4 1.5 4.7 2.3 7.1 c 6.7 1.5 13.4 3 20.1 4.5 c -2.1 3.5 -3.9 5.9 -8.8 4.8 c -5 -1.1 -7 -0.4 -10.1 3.4 c -3.1 3.9 -0.3 3.3 -6.6 2.1 c -2.9 -0.6 -5.3 -1 -8.2 -1.1 c 1.9 0.8 3.9 1.6 5.8 2.3 c 0.8 0.1 1.6 0.1 2.4 0.2 c -0.3 0.1 -0.6 0.3 -0.8 0.3 c 1.5 0.5 3 1.1 4.6 1.6 l 0.3 0 l 0 0.1 l 0.4 0.1 c -0.7 1.6 -1.3 2.6 -2 3.4 c 0.4 -0.2 0.8 -0.4 1.2 -0.7 l 24.3 -10.5 c 9.1 -3.4 -4.6 -2.5 11 -3.8 c 1.5 -11.8 -6.4 7.2 -1.1 -9.8 c 9.8 -3.8 9.8 -3.8 18.3 -11.3 c 4.2 -3.7 6.5 -5.2 8.4 -5.9 c -0.2 -0.3 -0.3 -0.7 -0.6 -1.1 c 3.3 -0.1 6.2 -0.1 9.5 0 c -4.1 -1.6 -4.3 -3.3 -5.3 -7.3 c 4 -1 8 -2 11.9 -3.3 c 2.2 -0.8 5 -1.6 7.6 -2.8 c -7.4 1.3 -15 -1 -23 -11.8 c -2.8 -3.8 -3.8 -0.6 -7.3 -0.3 l -19.6 2.9 c -17 2.5 -2.9 0.5 -9.1 -0.4 c -6.3 -0.9 -8.3 -1.6 -10.1 -1.8 z m -22.9 70.3 c -0.6 0 -1.2 0 -1.9 -0.1 c -1.6 -0.2 -3 -0.1 -4.2 0.2 c 1.7 0.4 3.6 0.5 6.2 0 z m -1 7.3 l -0.9 0.6 c 7.7 1.9 16.2 2.5 23.9 4 c 5.8 10.7 -11.5 1 0.9 10.1 l 1.7 0.2 c 1.9 -0.6 4.9 -1.6 9.6 -3.1 c 7.3 -2.5 14.8 -6 21.1 -5.7 c -3.1 -14.1 -7.7 -9.5 -36.4 -6 l -19.9 0 z m 22.4 22 c -0.6 0 -1.3 0 -2 -0.1 c -0.8 -0.1 -1.4 -0.1 -2.1 -0.1 l -0.1 0.7 c 1.5 -0.2 2.9 -0.3 4.2 -0.6 z m 17.4 40.9 c -0.3 0.6 -0.6 1.3 -1.1 2.2 c -9 -1.6 -6.4 -2.7 -15.9 0.2 c -0.5 0.1 -2.6 1.1 -2.9 1.2 l -2.5 1.1 c -2.4 0.8 -2.3 1.2 -4.6 1.5 c -1.3 1.1 -2.4 2.4 -3.7 3.6 c 0 0.4 0 0.8 0 1.1 c 1 0.1 1.9 0.2 2.6 0.3 c 4 0.5 7.2 2.1 10.5 3.9 c -3.9 2.9 -7.8 6 -11.7 9 c 0.6 0.1 1.1 0.3 1.6 0.5 c 2.1 0.6 4.2 1.1 6.3 1.6 l -0.1 -0.1 c 8.2 -4.9 16.7 -2.5 26.4 -5.7 c 14.1 -4.6 4.7 -8.8 4.7 -8.9 c -0.8 -1.7 -1.5 -2.4 -2 -2.8 c 0.1 -0.3 0.2 -0.3 0.3 -0.6 c 1.2 -0.2 2.3 -0.4 3.3 -0.6 c -0.6 -0.9 -1.2 -1.9 -1.8 -3 c 8 0.2 15.8 1.6 23.6 2.2 c 0.4 -0.3 0.9 -0.5 1.4 -0.8 c -0.9 0 -2 0 -3.3 -0.1 c 0.2 -1.3 0.3 -2.5 0.5 -3.9 c 0.2 -1.1 1.2 -4.4 -0.1 -3.7 c -4.6 2.3 -3.8 5 -10.3 3.5 c -4.8 -1.1 -9 -1.9 -13.3 -2.6 c -3 0.6 -5.5 0.9 -7.6 0.9 z m -17.8 29 c -0.6 1.9 -1.3 3 -4.2 3.9 c 2.9 -0.1 5.5 -0.1 8.4 0 c -0.5 0.9 -1 1.7 -1.6 2.5 c 0.8 0.3 1.6 0.6 2.3 0.8 c 1.5 0.6 1.7 1 1.3 1.8 c 2.4 -0.3 3.9 -0.3 5.5 -0.5 c -0.7 -1 -1.5 -2.1 -2.3 -3.5 c 3.4 0.1 6.5 0.5 9.7 0.8 l 0.2 -0.1 c -3 -1.5 -9.4 0.7 -19.2 -5.7 z m 25.1 -20.2 c -2.6 6.4 -2.5 -1.6 0 0 z m 36.3 -217.3 c -0.9 0 -1.5 -0.1 -0.6 0.3 c 0.2 -0.1 0.4 -0.2 0.6 -0.3 z m -17 245.2 l -0.1 0 l 0.1 0 l 0 0 z m -672.1 293.2 c 58.2 -88.6 124.1 -184.6 164.9 -243.6 l -229.5 245.4 c -0.7 2.1 -0.6 3.8 -0.3 5.4 l 9.9 0.9 c 1.3 -4 2.9 -7.9 6.6 -12 c -3.4 4.8 -4.6 8.5 -4.5 12.2 l 5.7 0.5 c 1.9 -2.3 3.8 -4.5 5.3 -6.4 c 4.6 -6 9.3 -13.8 9.5 -20.8 c 3.5 10.7 -5.7 20.4 -10.1 27.6 l 2 0.2 c 0.9 -1.8 1.7 -3.3 2.1 -3.8 c 3.8 -5.6 9.5 -8.8 14.4 -14.1 c 2.1 -2.3 4.9 -6.5 1.6 -1.3 c -3.5 5.5 -6.9 10.6 -10.9 15.8 c -0.8 1.1 -1.6 2.4 -2.2 3.7 l 8.3 0.7 c 5.2 -7.6 9.3 -17.1 9.9 -22.7 c 0.7 -6.1 -1.2 -12.7 7.8 -15.9 c 4.8 -1.7 -3.3 1.6 -3.1 8.3 c 0.1 8.3 3.8 8.4 -1.8 17.5 c -1.8 3 -5.7 8.4 -7.4 13.3 l 7.4 0.6 c 4.1 -5.3 8.5 -11.7 9.3 -16.1 c 0.6 -3.1 0.6 -8.5 3.9 -10.6 c 5.8 -3.9 2.8 -1.1 1.5 2.3 c -1.8 5 -0.6 8.5 -0.4 12.8 z m -2350.8 -252.2 c -0.1 -0.1 -0.2 -0.1 -0.2 -0.1 c 0.4 0 0.6 0 0.2 0.1 z m 17.4 120.7 c -0.2 0 -0.3 0 -0.5 0 c 0.1 -0.6 0 -1.4 0 -2.1 l 1.6 1.6 c -0.4 0.1 -0.7 0.3 -1.1 0.5 l 0 0 z m 4.7 16.1 c 0.7 0.1 1.3 0.1 2 0.1 l -0.9 0.6 c -0.4 -0.3 -0.8 -0.5 -1 -0.7 z m -76.5 -205.8 c -2 0.1 -3.7 0 -5.5 -0.1 c 2.3 -0.6 4.6 -1.7 6.1 -2.3 c -0.2 1.2 -0.5 1.8 -0.6 2.4 z m -36 289.2 c 0.1 -0.3 0.3 -0.6 0.4 -0.9 c 0.1 0.1 0.3 0.3 0.5 0.3 c -0.3 0.3 -0.5 0.4 -0.8 0.6 z m 47.7 -0.1 c 3.8 0.3 4.2 2.4 4.6 6.6 c -4 -1.6 -6.9 -1.7 -5.7 -5.5 c 0.3 -0.3 0.7 -0.7 1.1 -1.1 z m -28.4 -7.4 c -0.2 0.1 -0.5 0.5 -1.2 1.4 c -4.5 -0.4 -2.6 1.4 -3.4 -2.3 c 1.2 0.3 2.3 0.4 3.6 0.6 c 0.1 0 0.6 0.1 1.1 0.3 z m 61.7 -14.5 c 1.2 -0.4 0.8 0 0.6 0 c -0.2 0 -0.4 0 -0.6 0 z m 21 -85 l -4.8 -8.7 l 4.8 8.7 z m 0 0 c -0.5 0 -1.7 0 -1.2 -0.1 c 0.5 -0.1 1 -0.2 1.4 -0.3 c -0.1 0.1 -0.2 0.3 -0.3 0.5 z m 4.3 48.4 c -1.7 0.3 -3.6 1 -4.6 1 c 0.1 -0.5 0.1 -1 0.1 -1.6 c 1.1 0 2.6 0.1 4.5 0.5 c 0 0.1 0.1 0.1 0.1 0.1 z m -1.5 5.7 c 0.8 -0.1 1.6 -0.3 2.3 -0.7 c 0 0.3 -0.1 0.6 -0.1 1 c 2.6 -1.6 2.9 -2 6 -1.4 c 1.1 4.3 0.7 1.2 1.7 5.8 c -5 1.1 -3.4 0.8 -4.8 -0.3 c 0 0 -0.5 -1.4 -2.2 -2.4 c 0.1 0 0.3 0 0.4 0 c -0.9 -0.8 -2 -1.4 -3.4 -1.9 z m -99.7 88.3 l -0.9 -2.8 c 2.9 0.9 2.8 1.1 3.5 1.7 l -2.6 1.1 z m 5.3 -2.2 c 0.4 -1.7 1 -1.2 1.6 -4.6 c -5.2 -2.7 -2.8 -0.3 -5.3 -1.3 l 0.8 -4.8 c 11.8 -2.1 11.6 1.4 11.3 -3 c -0.3 -4.2 -0.8 1.3 -1.4 -3.9 l 6.5 0.7 c 0.1 0.6 0.1 1.2 0.2 1.9 c 1.7 -0.3 2.8 -0.8 3.9 -1.4 l 8 0.9 c 2.7 -6.3 3.1 -3.9 6.8 -9.6 c 7.7 1.9 10.7 -1.4 10.8 6.7 l 0 0.6 c -16.1 6.6 -31.1 12.8 -43.1 17.8 z m 89.3 -36.6 c -7 -3.4 -22.3 2 -30 -1.5 c -0.1 -0.1 -0.3 -0.1 -0.4 -0.2 c 0.2 0 2.2 -0.2 3.1 -0.5 l 0.9 -0.5 c 1.9 -0.1 3.9 -0.3 3.6 -0.5 c -0.6 -0.5 1.8 -1 2.2 -1 c 5 -0.7 9.3 -1.7 14 -4.4 c -0.3 -1 -0.8 -1.8 -1.3 -2.7 c 0.9 -0.2 1.8 -0.3 2.8 -0.5 c -0.8 -0.6 -1.2 -0.8 -2.2 -1.1 c 4 0 5.6 0.6 8.3 -3 c 0.1 -0.1 0.2 -0.3 0.3 -0.3 c -1.2 -0.5 -2.6 -1.1 -3.9 -1.3 c -0.7 0 -1.3 -0.1 -1.9 -0.1 c 1.7 -1.6 1.7 -4.4 1.6 -5.7 c 1.6 -0.3 3.1 -0.9 4.8 -2.3 c 0.6 -0.1 1.3 -0.3 2.2 -0.8 c -0.1 -0.3 -0.3 -0.5 -0.4 -0.7 c 0.9 -0.8 1.8 -1.6 2.8 -2.4 c 0.2 -0.2 1.5 -1 1.5 -1.3 c 0 -0.6 0 -1 -0.1 -1.4 c 0.8 0.2 1.7 0.3 2.8 0.4 c 2.5 0.1 5.1 -0.3 7.9 -0.7 c 0.4 0.4 1.1 0.7 1.5 0.8 c 2.4 1.4 4.5 1.8 6.5 1.8 c -2.7 3.9 2.1 1.2 -3.2 6.8 c -6.2 6.6 -6.2 -1.1 -10.1 12.3 c 3.4 1.1 3.8 0.5 5.8 0.9 l 3.9 0.6 c -7.3 3 -15 6.1 -22.9 9.3 z m 35.8 -44.6 c -1.4 0.3 -3.2 0.4 -6.1 -0.6 c 3.6 -1.4 7.1 -5.2 10.2 -6.6 c 2 1 4.1 1.7 6.2 2.2 c -9.5 4.4 -7.5 -2 -10.1 4.5 c -0.1 0.1 -0.1 0.3 -0.2 0.4 z m -11.9 -14 c -3.1 -0.1 -2 -0.9 -3.9 -4.5 l 2.7 -0.5 c 2.9 -1.2 0.8 1.8 2.5 -2 c -3.6 -6.1 -4.5 0 -8.6 -6.1 c 3.4 -2 3.6 -1.6 8.6 -1.3 l -0.2 -0.9 c 1.3 -0.3 2.2 -0.6 3 -1.1 c 1.8 1.4 3.6 2.1 5.4 2.4 c -1 1.4 -2.2 2.9 -3.7 4.8 l -5.8 9.2 z m -2.2 -22.1 l -1.9 0.1 l 0.2 -0.1 l 1.4 -0.1 l 0.2 0.2 z m -1.5 -3.5 c -0.4 -0.1 -0.8 -0.2 -1.2 -0.3 c 0 -0.1 0 -0.2 0 -0.3 c -0.1 -2.8 -0.4 -4 -1.1 -4.7 c 1.6 0.2 3.3 0.3 5 0.4 c -0.6 2.1 -1.5 2.9 -2 4.3 l -0.7 0.5 z m -6.3 -6.2 c -1 -0.2 -2.2 -0.5 -3.5 -1.1 c 0.5 0 0.9 -0.1 1.3 -0.1 c 0.7 0.5 1.4 0.9 2.2 1.2 z m 6.5 -5.2 l 0 0 l 0 0 l 0 0 z m -1.6 -14.6 c -4.1 -1.5 1.4 -0.6 -5.1 -1.5 c -1.3 -0.2 -2 -0.1 -2.8 -0.3 c 0.3 -0.4 0.6 -0.9 0.9 -1.5 c -1.4 0.1 -2.7 0.2 -3.9 0.3 l -0.1 0 c 1 -0.6 3.1 0 6.1 -1.4 c 1.1 1.2 1.4 1.6 4.5 2.4 c -0.2 0.1 -0.4 0.2 -0.6 0.3 c 0.3 0.7 0.6 1.3 1 1.8 z m -4.1 -7.7 c -2.6 -0.7 -5.3 -0.3 -8.3 -1.4 c -5.8 -1.9 -1.9 -3.7 -1.9 -3.8 c 1.9 -4 2.2 2.6 0.7 -1.4 c -0.5 -0.1 -1 -0.2 -1.4 -0.2 c 0.3 -0.4 0.5 -0.8 0.7 -1.3 c -3.3 0.1 -6.5 0.7 -9.7 0.9 c -0.2 -0.1 -0.4 -0.2 -0.6 -0.3 c 0.3 0 0.8 0 1.3 -0.1 c 0 -0.6 -0.1 -1.1 -0.2 -1.7 c -0.1 -0.5 -0.5 -1.9 0 -1.6 c 1.9 1 1.6 2.2 4.2 1.5 c 2 -0.5 3.7 -0.8 5.5 -1.1 c 8.3 1.7 8.3 -3.2 8.5 -3.6 l 7.3 1 c 1.4 -4.7 3 -5.9 4.7 -6.3 c 0.9 1.9 1.8 3.3 2.8 4.2 c -1.4 1.8 -3.7 4.1 -7.3 7.2 c -3.7 3.1 -4.5 5 -6.6 7.9 z m 12 -19.4 c 1.5 -0.1 3 0.3 4.2 -0.8 c 0 0.5 0 1 -0.3 1.8 c -1.3 -0.3 -2.6 -0.6 -4 -0.9 z m 193.9 -100.8 c 0.1 -0.1 0.2 -0.1 0.3 -0.2 c -0.4 0 -0.7 0 -0.3 0.2 z m -19.6 138.9 c 0 -0.3 0 -0.5 0 -0.8 l -0.8 0.8 c 0.3 0 0.5 0 0.8 0 z m -6 20.4 c -0.8 0 -1.6 0.1 -2.3 0.1 l 1.1 0.7 c 0.5 -0.3 0.8 -0.6 1.2 -0.9 z m 89.1 -239.8 c 2.4 0.1 4.4 0 6.4 -0.1 c -2.6 -0.7 -5.3 -2 -7.1 -2.7 c 0.3 1.4 0.5 2.1 0.7 2.8 z m 41.9 336.9 c -0.2 -0.3 -0.3 -0.7 -0.5 -1.1 c -0.2 0.1 -0.4 0.3 -0.6 0.4 c 0.3 0.3 0.6 0.5 1 0.7 z m -22.4 -8.8 c 0.2 0.2 0.6 0.5 1.4 1.7 c 5.2 -0.4 3 1.6 4 -2.6 c -1.3 0.3 -2.7 0.5 -4.1 0.6 c -0.2 0 -0.7 0.1 -1.2 0.3 z m -71.8 -16.9 c -1.4 -0.5 -0.9 0 -0.7 0 c 0.3 0 0.5 0 0.7 0 z m -18.9 -109.2 l 0 0 l 0 0 l 0 0 z m -5.6 10.1 c 0.6 0 2 0 1.4 -0.2 c -0.6 -0.1 -1.2 -0.2 -1.7 -0.3 c 0.1 0.2 0.2 0.3 0.3 0.5 z m -5.1 56.4 c 1.9 0.4 4.1 1.1 5.4 1.2 c -0.1 -0.6 -0.1 -1.2 -0.1 -1.9 c -1.3 -0.1 -3 0.1 -5.2 0.5 c 0 0.1 -0.1 0.1 -0.1 0.2 z m 1.8 6.6 c -1 -0.2 -1.9 -0.4 -2.7 -0.8 c 0 0.3 0.1 0.7 0.1 1.1 c -3 -1.8 -3.4 -2.3 -7 -1.6 c -1.3 5.1 -0.8 1.4 -1.9 6.7 c 5.8 1.3 3.9 1 5.5 -0.3 c 0 0 0.6 -1.6 2.6 -2.8 c -0.1 0 -0.3 0 -0.5 -0.1 c 1.1 -0.9 2.4 -1.7 4 -2.1 z m 14.8 45.2 c 0.1 -0.3 0.3 -0.6 0.5 -0.9 c -1.1 -0.2 -2.2 -0.3 -3.3 -0.5 c 0.9 -0.7 1.4 -0.9 2.6 -1.3 c -4.7 0 -6.5 0.7 -9.7 -3.5 c -0.1 -0.1 -0.2 -0.3 -0.3 -0.4 c 1.4 -0.5 3 -1.3 4.5 -1.4 c 0.8 -0.1 1.5 -0.1 2.2 -0.1 c -1.9 -2 -1.9 -5.1 -1.8 -6.7 c -1.9 -0.3 -3.7 -1.1 -5.6 -2.6 c -0.7 -0.1 -1.5 -0.4 -2.5 -0.9 c 0.1 -0.3 0.3 -0.6 0.5 -0.8 c -1.1 -0.9 -2.1 -1.8 -3.3 -2.7 c -0.3 -0.2 -1.8 -1.2 -1.8 -1.6 c 0 -0.6 0 -1.2 0.1 -1.6 c -0.9 0.3 -1.9 0.4 -3.3 0.5 c -4.5 0.3 -9.4 -1.1 -15.1 -1.4 c -8 -11.8 -0.1 -0.6 -8.5 -5.1 c -1.9 4.4 0.7 0.4 0 4.1 l -5.8 -1 c -7.3 0.6 4 1.1 -1.7 0.2 c -0.8 -0.1 -1.7 -0.6 -2.6 -1.4 l 0 -4.6 c -0.3 0.1 -0.5 0.2 -0.7 0.3 c -7.1 3.7 -11.4 0.6 -17.9 -0.3 c 1.4 4.4 2.7 2.5 1.5 8.4 c -3.3 -0.6 -6.7 -1.3 -10 -1.9 c -0.8 1.4 -1.5 2.8 -2.3 4.2 c 25.3 6.2 55.6 14.8 84.6 23.4 z m -55.1 -36.8 l 0 -3.4 c 4.3 -0.4 6 3.7 18.2 -2.9 c -4.8 -1.6 -6.2 2.5 -9.9 -5.2 c 3.7 -2 4.6 -1.3 10.5 -1.7 c -0.3 -3.1 0.2 -1.2 -0.9 -3.3 l -2.4 -2.5 c 7.3 0 4.8 -0.2 7.5 -5.3 l -3.1 -0.6 c -3.4 -1.4 -0.9 2.1 -3 -2.3 c 4.2 -7.1 5.2 0.1 10 -7.1 c -4 -2.3 -4.3 -1.8 -10 -1.6 l 1.6 -9.1 l 4.8 0.3 c -1.1 -0.7 -2 -1.6 -2.9 -3.1 c 1.2 -0.7 2.4 -1.3 3.8 -1.4 c 0 -0.1 0 -0.3 0 -0.3 c 0 -0.6 0.1 -1.2 0.1 -1.7 l -0.9 1.3 c -6.3 0.4 -11.5 1.9 -16.5 1.6 c -1.4 -0.1 -2.6 -0.3 -3.5 -0.5 c 0 0.5 0.1 1.1 0 1.8 c 0 0.3 -1.7 1.5 -1.9 1.7 c -1.3 1 -2.4 2 -3.6 3 c 0.2 0.3 0.3 0.6 0.5 0.9 c -1.1 0.6 -2 0.9 -2.8 1 c -2.1 1.7 -4.1 2.5 -6.2 2.8 c 0.2 1.7 0.2 5.2 -1.9 7.3 c 0.7 0.1 1.5 0.1 2.4 0.2 c 1.6 0.2 3.5 1 5 1.6 c -0.1 0.1 -0.2 0.3 -0.3 0.5 c -3.5 4.6 -5.5 3.9 -10.6 3.9 c 1.2 0.4 1.8 0.7 2.8 1.4 c -1.2 0.2 -2.4 0.3 -3.5 0.6 c 0.6 1.2 1.2 2.2 1.6 3.5 c -6 3.4 -11.4 4.7 -17.8 5.5 c -0.5 0.1 -3.5 0.7 -2.8 1.3 c 0.3 0.3 -2.2 0.5 -4.6 0.6 l -1.1 0.7 c -1.2 0.4 -3.6 0.6 -3.9 0.6 c 0.2 0.1 0.3 0.1 0.5 0.2 c 10.3 4.7 31.6 -3.3 39.6 2.8 c -3.7 1 -3.2 0.4 -6.6 2.9 c 1.6 1.4 4.1 1.3 6.2 1.6 c 2.4 0.3 4.2 0.9 5.5 2.3 z m 27.5 -55.8 l 0.4 -0.1 c 0 -0.3 -0.1 -0.3 -0.4 0.1 z m -16.7 -8.6 l -3.5 -0.7 c -0.2 0 -0.5 0 -0.7 0 c 1.4 1.2 0.1 1.5 4.1 0.7 z m -6.5 -3.5 c 2.1 -0.6 4.6 -1 7 -1.4 c -0.2 -0.5 -0.4 -1.3 -0.8 -2.8 c -4 -0.7 -4.4 -0.2 -7.7 1.8 c 0.1 -0.5 0.1 -0.8 0.2 -1.2 c -0.9 0.4 -1.9 0.7 -2.9 0.9 c 1.7 0.5 3.1 1.3 4.3 2.3 c -0.2 0 -0.4 0.1 -0.6 0.1 c 0.2 0.1 0.4 0.2 0.5 0.4 z m 19.9 -11.2 c 5.3 -1.8 -1.5 -0.8 6.2 -1.9 c 1.6 -0.2 2.4 -0.2 3.2 -0.3 c -0.3 -0.5 -0.7 -1.1 -1.1 -1.7 c 1.6 0 3.1 0.2 4.6 0.4 l 0.1 -0.1 c -1.6 -0.8 -5.3 0.6 -11 -4.2 c 3.9 -2.4 8 -1.2 12.6 -2.8 c 6.8 -2.3 2.3 -4.3 2.3 -4.4 c -2.2 -4.7 -2.6 3.1 -0.9 -1.7 c 0.6 -0.1 1.1 -0.2 1.6 -0.3 c -0.3 -0.4 -0.6 -0.9 -0.9 -1.5 c 3.8 0.1 7.6 0.8 11.3 1.1 c 0.2 -0.1 0.4 -0.2 0.7 -0.4 c -0.4 0 -1 0 -1.6 -0.1 c 0.1 -0.6 0.1 -1.3 0.2 -1.9 c 0.1 -0.5 0.6 -2.2 0 -1.8 c -2.2 1.1 -1.8 2.5 -5 1.7 c -2.3 -0.5 -4.3 -1 -6.4 -1.3 c -9.8 2 -9.6 -3.8 -9.9 -4.2 l -5.3 0.7 l 0.6 3.2 c -6.3 -0.2 -6.5 -0.9 -10.9 1.7 c 5.3 7.8 6.3 0 10.9 7.7 c -2.2 4.8 0.4 1 -3.2 2.5 l -3.5 0.6 c 2.9 5.5 0.3 5.8 8.2 5.8 l -2.6 2.8 l -0.2 0.4 z m -6.9 -39.8 c 3.9 -0.5 8.2 -0.8 11.6 -1.3 c 2.5 -4.8 -5.2 -1.2 5.6 -5 c 3.5 -1.2 7.1 -3 10.1 -2.8 c -0.4 -1.9 -0.8 -3.1 -1.6 -3.9 c -3.1 1.4 -2 -0.6 -6.9 -0.4 l -22.2 4.1 c -1.9 3.2 -4.3 4 -7.3 4.1 c 6.8 3.1 9.8 -0.2 10.7 5.2 z m 8.7 -19.3 l 7.6 -3.4 c 4.3 -1.7 -2.2 -1.3 5.2 -1.9 c 0.7 -5.9 -3.1 3.5 -0.5 -4.9 c 4.7 -1.9 4.7 -1.9 8.8 -5.6 c 2 -1.8 3.1 -2.6 4 -2.9 c -0.1 -0.2 -0.2 -0.3 -0.3 -0.5 c 1.5 0 3 0 4.5 0 c -2 -0.7 -2.1 -1.6 -2.5 -3.6 c 1.9 -0.5 3.8 -1 5.7 -1.6 c 1 -0.3 2.4 -0.8 3.6 -1.4 c -3.5 0.6 -7.2 -0.5 -11 -5.9 c -1.4 -1.9 -1.8 -0.3 -3.5 -0.1 l -9.4 1.4 c -8.1 1.2 -1.4 0.3 -4.3 -0.2 c -6.6 -1 -3.3 -1.3 -11 -0.3 c 7.4 -10.9 17.2 -6.9 26.6 -5 c -1.3 -6.3 -1.7 -2.2 2.5 -5 c -0.2 -0.3 -0.3 -0.6 -0.5 -1 c 0.3 -0.1 1.3 -0.2 2.3 -0.3 c 2.5 -2.1 3.4 -3.2 4.2 -5.6 c -1.6 -0.1 -2.8 0.7 -4.1 0 l -2.2 0.6 c -0.1 -0.4 -0.2 -1.1 -0.3 -1.3 c -1.2 -2.4 0.6 0.2 -1.4 -2.2 c -4.7 5.5 -10.2 3.3 -14.7 1.3 c -3.2 11.9 -10.2 -2 -14.7 13.5 l -9.3 -1.3 c -0.3 0.6 -0.3 6.8 -10.8 4.6 c -2.3 0.4 -4.4 0.8 -7 1.4 c -3.4 0.8 -3 -0.7 -5.4 -1.9 c -0.7 -0.4 -0.1 1.5 -0.1 2 c 0.1 0.7 0.2 1.4 0.2 2.1 c -0.6 0 -1.2 0.1 -1.7 0.1 c 0.2 0.2 0.5 0.3 0.7 0.5 c 4.1 -0.4 8.1 -1.1 12.3 -1.2 c -0.3 0.6 -0.6 1.2 -0.9 1.7 c 0.5 0.1 1.1 0.1 1.7 0.3 c 1.9 5.2 1.5 -3.3 -0.9 1.8 c 0 0.1 -4.9 2.3 2.4 4.8 c 5.1 1.7 9.5 0.4 13.8 3.1 c -6.3 5.3 -10.3 3.7 -12.1 4.6 l 0.1 0.1 c 1.6 -0.2 3.3 -0.3 5 -0.5 c -0.4 0.7 -0.8 1.4 -1.2 1.9 c 1 0.1 1.8 0.1 3.5 0.3 c 8.6 1.2 0.8 0 7.1 2.1 c 5.7 2 11.5 0.8 15.4 5.3 l -9.8 3.3 c 0.7 0.3 1.5 0.5 2.4 0.7 z m -44.2 -144.9 c -0.1 0 -0.2 -0.1 -0.3 -0.1 c 0.5 0 0.8 0 0.3 0.1 z m 23.9 153.2 c -1 0.1 -1.8 0.2 -2.5 0.1 c 0.1 -0.7 0 -1.7 0 -2.6 l 2.5 2.5 z m 4.1 20.6 c 0.9 0.1 1.7 0.1 2.5 0.2 l -1.2 0.8 c -0.5 -0.3 -1 -0.7 -1.3 -1 z m -97.2 -261.5 c -2.6 0.1 -4.7 0 -7 -0.1 c 2.9 -0.8 5.8 -2.2 7.7 -3 c -0.3 1.6 -0.6 2.3 -0.7 3 z m 14.9 367.3 c 4.8 0.4 5.3 3.1 5.8 8.3 c -5.1 -2 -8.7 -2.2 -7.2 -7 c 0.5 -0.5 0.9 -0.9 1.4 -1.4 z m -36.1 -9.4 c -0.2 0.2 -0.6 0.6 -1.6 1.9 c -5.6 -0.5 -3.3 1.7 -4.3 -2.9 c 1.4 0.3 3 0.5 4.5 0.7 c 0.2 0 0.8 0.1 1.3 0.3 z m 78.3 -18.4 c 1.5 -0.6 1 0 0.7 0 c -0.3 0 -0.5 0 -0.7 0 z m 20.6 -119.1 l 0 0 l 0 0 z m 6.1 11 c -0.6 0 -2.2 -0.1 -1.5 -0.2 c 0.7 -0.1 1.3 -0.3 1.9 -0.4 c -0.1 0.2 -0.2 0.3 -0.4 0.6 z m 5.5 61.5 c -2.1 0.5 -4.5 1.2 -5.8 1.3 c 0.1 -0.6 0.1 -1.3 0.1 -2 c 1.4 -0.1 3.3 0.1 5.7 0.6 c 0 0.1 0.1 0.1 0.1 0.2 z m -1064.8 -330.9 c -0.7 0 -1.4 0 -2.2 0.1 c 0.6 -0.2 1.1 -0.5 1.6 -0.7 c 0.2 0.2 0.4 0.5 0.6 0.7 z m 2.8 -5.9 l 0.3 -1.3 c -4 -1 -8 -2 -11.9 -3.3 c -2.2 -0.7 -5 -1.6 -7.6 -2.8 c 7.4 1.3 15 -1 23 -11.8 c 2.8 -3.7 3.7 -0.6 7.3 -0.3 l 7.6 1.1 c -1 0.7 -2 1.4 -3.1 2.4 c 1.3 1 2.7 1.9 4 2.9 c -6.2 1.9 -13.2 2.4 -19.5 3.8 c -4.6 10 8.8 1.4 -0.2 9.1 z m 19.9 -30.3 c -4.2 0.9 -8.5 1.9 -12.7 2.8 c 0.5 -2.4 1 -4.1 1.3 -5.2 c 0.2 0.3 0.4 0.6 0.7 0.9 c 2.6 3.7 0.3 3.1 5.4 1.9 c 2.3 -0.5 4.3 -0.9 6.6 -1 c -0.4 0.2 -0.8 0.4 -1.3 0.6 z m -22.1 -10.4 c -4.9 -4 -6.5 -6.2 -8.1 -10.9 c 3.4 -0.1 5.8 1.5 8.6 0 l 4.5 1.2 c 0.3 -0.7 0.4 -2.2 0.6 -2.6 c 2.6 -4.9 -1.2 0.4 3 -4.4 c 2.7 3 5.5 4.9 8.3 5.9 c -0.9 0.2 -1.8 0.5 -2.8 0.8 c -0.6 2.3 -1.2 4.5 -1.8 6.8 c -4.1 1.1 -8.3 2.2 -12.4 3.2 z m 27.6 -10.3 c 1.7 -0.3 3.4 -0.8 5.1 -1.4 c 0 0.3 0.1 0.6 0.1 0.9 c -0.7 0.1 -1.3 0.2 -1.9 0.3 c -0.8 0.1 -1.5 0.1 -2.2 0.2 c -0.4 0 -0.7 0 -1.1 0 z m -1.8 -20 c -2.7 -0.6 -5.5 -0.8 -8.4 -0.6 c -14.7 0.8 -17 7.6 -29.7 0.1 c 4.7 -7.1 11.8 -6.1 18.9 -11.5 c 1.6 0.8 3 1 4.6 0.8 c 0.6 0.6 1.2 1.1 1.7 1.4 c 0.8 0.4 1.8 0.7 2.8 0.9 c 1.4 3.9 7.1 4.3 11.1 5.2 c -0.4 1.2 -0.7 2.5 -1.1 3.8 z m -23.8 -16.4 c -0.4 -0.2 -0.8 -0.4 -1.3 -0.6 c 0.3 -0.1 0.5 -0.1 0.7 -0.2 c 0.2 0.3 0.4 0.5 0.6 0.8 z m 4.1 -4.6 c 0.9 -1.2 1.7 -2.6 2.6 -4.2 c -7.2 -0.7 -14.4 -1.6 -21.6 -2.4 c 0.3 -0.6 0.5 -1.2 0.8 -1.8 c 14.1 1.6 29.8 5.6 42.9 2.8 c -0.3 1.8 -0.7 3.4 -0.9 3.6 c -0.2 0.3 -1.5 0.8 -3.4 1.5 c -1.2 -0.5 -3.1 -0.9 -6.1 -1.1 c -6.5 -0.2 -10.7 -0.1 -14.4 1.5 z m 9.4 -21.7 l 0 0 c 4 -1.2 8.1 -3 10.7 -4.1 c -0.4 2.2 -0.8 3.2 -1 4.2 c -3.6 0.1 -6.5 0 -9.6 -0.1 z m -22.8 27 c 0.9 0 1.5 -0.1 0.6 0.3 c -0.2 -0.1 -0.4 -0.2 -0.6 -0.3 z m 217.4 216.5 c -0.1 0 -0.2 -0.1 -0.3 -0.1 c 0.5 0 0.8 0 0.3 0.1 z m -72 -91.3 c -2.7 0.1 -5 0 -7.3 -0.1 c 3 -0.8 6.1 -2.3 8.1 -3.1 c -0.3 1.6 -0.6 2.4 -0.8 3.1 z m -0.4 -37.9 c -0.9 0.5 -1.8 1.1 -2.6 1.8 c 2.8 2.1 5.8 2.1 9.2 2.2 c -0.1 0 -0.3 0.1 -0.4 0.1 c -0.4 1.4 -0.9 2.9 -1.3 4.3 c -4.1 1 -8.1 1.9 -12.2 2.9 c 2 3.1 2.6 3.3 6.2 2.6 c 3.1 -0.7 4.6 0.9 6.2 3.1 c -2.1 0.6 -2.1 0 -3.5 1.8 l -0.4 0 c -10.6 0.7 -12.3 5.8 -21.5 0.1 c 3.5 -5.5 8.9 -4.5 14.3 -9.1 c -2.4 -1.7 -3.4 -2.8 -5 -3.3 c 2.7 -0.7 4.1 -3.1 5.8 -6.2 c -5.2 -0.6 -10.4 -1.2 -15.6 -1.8 c 0.2 -0.5 0.4 -0.9 0.6 -1.3 c 6.5 0.8 13.6 2.3 20.3 2.7 z m 11.5 20.9 c 1.5 -0.3 3.2 -0.6 5.7 -1.2 c -0.7 1.1 -1.6 2 -2.6 2.8 l -0.2 0 c -0.9 -0.6 -1.8 -1.1 -2.8 -1.6 z m -26.3 13.4 c -0.8 0.4 -1.3 0.7 -1.3 0.8 c -0.7 0.8 1 2.7 2.1 3.2 c -0.4 0.1 -0.9 0.1 -1.3 0.2 c -0.9 -1.3 -1.6 -2.6 -2.2 -4.4 c 1 0 1.9 0.1 2.7 0.3 z m 2.5 7.3 c 1.2 0.4 2.3 0.8 3.4 1.3 c -0.6 -0.1 -1.4 -0.2 -2.2 -0.3 c -0.4 -0.4 -0.8 -0.7 -1.2 -1 z m 4.4 1.9 c 3 1.6 5.3 3.4 6.2 3.8 l 6.4 2.2 l -0.1 0.6 c -3.1 0.7 -6.2 1.4 -9.3 2.1 c 2 -9.5 2.6 -3.4 -3.8 -7.5 c 0.2 -0.3 0.4 -0.7 0.6 -1.1 z m -1.9 18.3 c 0.3 0.3 0.7 0.6 1 0.8 c 0.6 0.3 1.3 0.6 2.1 0.7 c 1.1 2.9 5.3 3.3 8.3 3.9 l -1 3.5 c -3.5 0.9 -7.1 1.8 -10.7 2.7 c 0.1 -0.4 0.2 -0.9 0.3 -1.4 c -2.9 -0.7 -5.8 -1.5 -8.6 -2.5 c -1.6 -0.6 -3.6 -1.2 -5.5 -2.1 c 4.5 0.8 9.2 -0.3 14 -5.6 z m -0.9 13.4 c 1.1 1.7 2.3 2.3 4.8 1.6 c 3.4 -0.9 4.9 0.7 6.6 3.5 c 0.7 1.2 0.1 0.9 2 0.5 c 0.7 -0.2 1.4 -0.3 2.1 -0.5 c 1.1 1.3 1 2.5 1.2 4.2 c -0.5 0.1 -1 0.1 -1.4 0.2 c -0.6 0 -1.1 0.1 -1.7 0.1 c -0.5 0 -1 0 -1.6 -0.1 c -0.7 -0.6 -1.5 -1.4 -2.4 -2.2 c -3 -2.8 -4.7 -4 -6.1 -4.5 c 0.1 -0.3 0.3 -0.5 0.4 -0.8 c -2.3 -0.1 -4.5 -0.1 -6.8 0 c 1.5 -0.6 2.3 -1.3 2.8 -2.2 z m 2.5 89.6 l 0.1 0.1 l 0 0.3 l -0.1 -0.4 z m -8.2 -156.9 l -0.5 -0.2 c 0.6 0 1.1 -0.1 0.5 0.2 z m 1929.9 335.2 c 28.6 28.3 56 58.7 81.9 87.7 c 3.5 -1.9 7.6 -4.3 10.4 -6 c -25.6 -29 -54 -59 -83.7 -86.8 c -2.1 1.3 -5.5 3.4 -8.6 5.2 z m -81.2 -69.9 c 26.6 18.9 52.4 41.7 77.4 66.2 c 2.8 -1.7 6.1 -3.7 8.5 -5.2 c -18 -16.8 -36.5 -32.8 -55 -47.4 c -8.9 -7 -17.9 -13.8 -26.8 -20.1 l -4.1 6.5 z m -131.4 -51.5 c 43.7 1.3 86.3 20.2 127.2 48.5 l 4.1 -6.5 c -46.5 -32.2 -92.3 -53.2 -131.9 -52.9 l 0.6 10.9 z m -99.5 29.9 c 31.8 -20.8 63.3 -29.9 94.3 -29.9 l -0.6 -10.6 c -0.2 0 -0.4 0 -0.6 0 c -30.1 1.9 -63.8 13.6 -99 32.2 l 5.9 8.4 z m -99 76.6 c 40.6 -33.2 75.5 -59.7 86.5 -68 c 2.7 -2 5.5 -4 8.1 -5.9 l -6.1 -8.8 c -28 15.2 -56.8 34.7 -85.5 57 c -4.5 3.5 -9.1 7.1 -13.6 10.8 l 10.6 14.9 z m -70.7 60.3 c 21.9 -19.7 45 -39.3 66.7 -57.1 l -10.6 -14.8 c -24.9 20.4 -49.3 42.6 -72.7 65.8 l 16.6 6.2 z m 964 84.4 l 15.9 3.3 c 0 0 23 21.7 36.1 31 c 20.8 -0.3 40.1 -0.8 58 -1.5 c -0.1 -1.6 -0.3 -6.6 -0.3 -10.7 c 0 -2.9 -3.3 -19.7 -6 -34.8 l -103.7 -219.4 l 0 141.6 c 5 0.4 8.9 3.7 8.9 8.8 c 0 0.3 0 0.6 -0.1 0.9 c 20.3 1.3 35.5 6.3 35.5 12.2 c 0 2.1 -2 4.2 -5.4 5.9 c 1.3 2.5 1.9 5.7 1.9 10.1 c 0 22.8 -18.3 37.2 -41 37.6 l 0 15 z m 244 21.2 c -21.4 3.1 -46.4 6.1 -76.5 8.4 c -0.5 -8.2 -1 -19.1 -1.4 -27.1 c -0.7 -14.7 -2.8 -25.3 -1.8 -32.7 c 1.1 -7.4 2.8 -8.1 1.1 -11.9 c -1.8 -3.9 -4.2 -8.1 -4.2 -8.1 l 0.7 -10.9 l 9.9 8.1 c 0 0 -1.1 5.6 2.1 5.6 c 3.1 0 9.2 -0.7 12 0 c 2.8 0.7 1.8 4.9 10.6 7 c 8.8 2.1 8.8 1 14.4 2.8 c 5.7 1.8 4.2 2.5 10.9 3.9 c 6.7 1.4 15.1 2.1 15.1 2.1 c 0 0 -1.8 11.9 -0.3 22.1 c 1.4 10.2 7 22.8 7 22.8 l 0.5 7.9 z" />
</svg>