<svg xmlns="http://www.w3.org/2000/svg" class="w-full -z-10" xml:space="preserve"
  style="shape-rendering:geometricPrecision;text-rendering:geometricPrecision;image-rendering:optimizeQuality;fill-rule:evenodd;clip-rule:evenodd"
  viewBox="0 0 16163.43 5774.45">
  <path
    d="M11248.44 3439.85c12.35 37.46 19.25 41.74 12.35 51.91-6.87 9.99-19.08 11.55-13.71 28.72 5.49 17.45 17.88 13.06 17.88 24.55 0 11.55-2.77 8.36-5.53 16.21-2.77 7.81-19.07 21.84-19.07 21.84-57.17-4.39-55.89-18.54-134.08-30.11 0 0 46.44-17.68 86.12-38.17 39.71-20.52 56.04-74.99 56.04-74.99zm-5959.92 624.82c-11.11-16.67-19.87-35.01-21.06-52.54-3.69 12.5-2.71 24.43.86 35.75-4.47-2.21-9.98-1.09-21.17-12.94-18.96-20.09-1.91-10.88-11.55-24.48 7.31 0 14.57-1.62 23.08-6.3 1.95-1.13 7.16-3.19 5.91-5.41-5.22-8.66-11.82-11.82-20.98-13.44-4.28-7.69-5.26-11.26-12.68-14.42 2.06-.49 4.66-1.09 8.78-2.29-9.01-6.5-21.95-8.4-36.64-8.51-.27-1.02-.53-2.1-1.09-3.19-9.31-23.2-2.02-.27-35.99-16.1a137 137 0 0 0 21.96-7.81c21.13 9.76 48.72 51.38 72.79.42l-36.53-57.55c-5.37-6.61-9.75-11.97-13.17-16.86 6.5-1.12 12.79-3.72 19.25-8.78 5.9 3.19 13.17 4.93 31.05 6.69-3.9-18.24-6.35-10.57-11.7-24.28.53-.42.97-.86 1.5-1.25.39-.42 1.51-1.12 2.6-2.06l26.08 2.45c-9.48-5.75-17.18-11.27-24.17-16.48-1.91-5.07-4.93-8.08-7.15-15.39 22.7-1.51 40.84-.83 52.62-24.73-5.64-2.21-11.11-4.28-17.46-3.97-7.65.38-19.63 5.06-26.5 5.63 4.02-6.22 7.85-8.93 4.4-20.09l21.46 10.06c-4.28-11.41-7.96-7.8-1.09-22.37.49-.94 2.06-2.6 2.59-3.46l6.62-6.69c-17.19-.7-21.73-3.57-28.99-8.11 1.51-2.18 2.89-4.62 4.28-7.57l-2.06-.82c13.71-3.58 12.08-4.82 19.63-11.97-13.17-15.66-13.48-22.67-29.92-36.53-12.95-10.84-21.02-19.08-26.12-25.52 3.86-3.73 7.15-8.78 10.73-16.22-6.35 1.09-12.32 2.45-18.16 3.98-4.63-13.18 9.64-11.23-24.73-22.93a34 34 0 0 1-1.51-4.93c19.52 1.51 35.17 4.4 46.44-15.01-4.66-2.6-9.37-5.06-14.68-5.6-6.98-.7-18.32 2.07-23.94 1.51.59-4.12 0-10.13-.12-14.57-1.62 0-3.3-.11-4.93-.11.12-.42.39-1.09.67-1.51-2.88.42-5.75.94-8.78 1.62h-.67c-18.42.42-13.09 1.8-14.85-4.81 15.5-5.9 28.03-9.87 43.42-14.42 3.04.27 6.19.71 9.75.94-2.33-1.09-4.39-2.03-6.07-2.71-3.31-8.08-5.07-10.46-7.69-12.8.3-.26.38-.82.67-1.2-1.51-.86-3.16-1.83-4.78-2.48l39.67-3.42c-10.57-6.61-24.59-7.16-39.02-8.11 8.78-2.6 13.76 1.79 21.42-13.71 1.79-3.58 2.48-2.72.7-4.4-1.24-1.09-24.59-5.75-28.03-6.19-.7 0-9.08-.11-6.23-.71 17.34-3.3 24.73-6.01 30.79-24.01-6.08-2.45-12.2-4.82-18.97-4.67-8.07.12-21.95 5.37-28.18 5.49-.12-1.63-.54-3.54-.97-5.37 5.36-2.6 9.37-7.1 13.91-15.28-4.39.12-8.78.54-13.06.98.23-.42.54-.86.98-1.21 5.48-4.54 10.29-9.2 12.35-15-23.75-7.96-39.44-12.51-51.91-19.25.53-1.63-1.09-1.8-4.99-3.58 13.6-2.77 17.72-6.61 24.17-18.66-8.28.12-16.48 1.09-24.55 2.11-.97-2.93-1.13-5.14.38-7.03.86-.11 1.51-.22 2.22-.49 15.39-3.61 27.21-5.64 42.75-8-2.48-7.8-4.01-10.29-6.19-12.64.97-2.37 1.8-4.98 2.33-8.39-3.69-.12-7.58-.39-11.38-.71-1.35-1.36-1.68-1.36-.27-2.18 13.06-7.27 16.9 3.97 26.24-11.97 1.68-2.89 2.21-2.06.71-3.57-.98-1.25-20.87-8.08-23.79-8.94-.6-.15-7.85-1.24-5.22-1.35 14.97-.82 21.42-2.22 27.59-17.19-5.1-2.88-10.29-5.75-16.21-6.5-6.98-.82-19.08 2.07-24.44 1.36-.11-3.42-1.13-7.54-1.68-10.84-.86-3.86-1.36-3.42.97-5.1 1.63-.94 8.25-8.67 6.83-10.29-1.62-1.91-19.07-8.25-22.22-9.16l-2.21-.71c9.48 1.2 19.25 3.3 29.12 6.08l-2.45 18.81c26.88-1.8 14.15-1.95 35.05 6.34l10.02-26.5 30.63-3.46c-37.11-23.46-4.55-12.47-2.88-18.66-36.97-1.09-38.48-2.21-67.75-11.81-24.59-8.08-32.29-10.89-31.45-16.26 10.96-1.35 17.15-1.2 21.14-16.21-3.16-.67-6.16-1.2-9.32-2.02.12-.16.38-.42.5-.71-.94.11-1.76.11-2.72.27-4.39-1.09-8.93-2.22-13.17-3.42-15.66-4.93-20.05-9.2-21.57-13.06 2.22-1.36 5.22-2.93 7.31-5.91 2.77-.97 5.63-3.19 8.78-7.92 3.15-4.98 5.48-6.19.26-8.55-1.51-.66-3.19-1.35-4.81-2.06 1.09-1.8 2.22-3.73 3.3-6.08-6.07-.11-11.66-.11-17.56 0 7.57-2.88 7.92-6.34 9.75-13.88-7.42-2.06-14.86-3.86-21.95-6.3-1.09-.42-2.18-.71-3.31-1.21 8.11-7.42 16.1-14.85 24.32-21.95-6.72-4.55-13.44-8.28-21.84-9.64-1.51-.15-3.3-.42-5.37-.59v-2.89c2.49-2.71 5.11-5.9 7.58-8.66 4.99-.82 4.66-1.51 9.79-3.69l5.22-2.77c.59-.27 5.14-2.6 6.23-3.04 19.78-7.15 14.41-4.39 33.23-.42 6.01-13.59 2.88-11.22.38-24.4 10.73.12 10.99 1.21 21.57-1.51 14.41-3.72 3.72.83 12.79-7.27-21.72-8.93-2.88-9.52-37.5-8.43-18.16.74-11.81 4.05-26.94-2.29.98-1.51.71-2.45-2.06-4.13-11.55-6.99-22.7-12.51-35.28-17.46-1.24-.42-2.22-.7-3.04-1.01 1.09-1.76 2.1-3.8 3.04-6.57 9.6-7.16 19.25-14.42 28.83-21.29-2.18-1.79-4.39-3.57-6.57-5.06l1.09.27 1.2-6.87c1.2.15 2.77.15 4.28.42 12.24 1.51 15.95-5.9 20.6-16.37-4.4-.38-8.78-.97-13.06-1.35-25.81-22.11 10.02 1.51-2.1-24.59-16.06-3.86-33.89-5.22-49.85-9.87 3.46-2.6 6.75-4.99 10.29-7.42-7.27-6.19-12.2-9.38-19.64-11.82 2.6-.71 5.6-.94 9.28-.42 7.02.86 11.3-.27 14.61-3.42 3.15-1.51 5.63-4.66 7.92-11.42l-.67-.38.07-.15-.82-.12c-3.3-1.24-6.49-2.6-9.45-3.9.5-.23 1.09-.49 1.59-.82-1.59-.27-3.38-.42-5.06-.59-3.98-1.76-8.11-3.53-12.09-5.48 6.08.26 11.11 1.09 17.04 2.44 13.09 3.04 7.19 4.55 13.76-4.93 6.5-9.37 10.62-11.15 21.02-8.28 10.46 2.81 14-3.27 18.39-11.66-14-3.58-28.03-7.31-41.89-11-1.63-5.9-3.19-11.67-4.82-17.57-7.84-2.45-13.84-4.28-22.1-2.33-6.46 1.39-10.46 2.06-14.86 2.06a39 39 0 0 0-5.64-.42c-1.5-.23-3.15-.49-4.93-.82.98-5.64.54-9.87 4.4-14.26 2.29.53 4.78 1.09 7.15 1.62 6.31 1.51 4.4 2.33 6.84-1.95 5.75-9.48 10.99-14.97 22.54-11.97 11.11 3.04 14.26-.97 19.63-10.57-13.99-3.58-28.03-7.16-41.85-10.73-1.09-4.01-2.37-7.96-3.46-11.97 10.02-2.22 24.73-3.42 28.34-13.33 2.6-.42 5.06-1.2 7.27-2.22 1.24-.66 2.77-2.06 4.28-3.53 8.51 1.09 16.36-2.1 26.23-16.63-13.77-12.24-25.41-13.33-49.73-12.47-7.69.23-12.36 1.51-15.51 2.6-4.81-1.8-8.11-3.15-8.7-3.73-.38-.38-1.59-5.75-2.6-11.11l21.95-7.31c4.66-2.44 22.26-16.74 41.93-21.01 11.93-2.6 12.2-.39 24.02-5.07-9.31-2.37-17.19-3.86-24.02-4.66 3.69-1.95 9.45-8.11 7.27-11.11-.86-1.01-41.93-21.17-43.72-23.39-.67-.82-2.72-17.45-3.12-19.9-8.55-2.71-15.39-4.12-24.32-3.42-11.97 1.02-20.75 3.73-33.66 3.86-3.69-2.59-6.83-5.75-9.04-9.48 26 5.4 26.8 6.75 57.72 2.6-9.37-12.47-7.16-9.32-15.95-11.55 5.37-7.66 10.62-12.91 21.29-10.69 12.08 2.44 14.18 1.79 21.01-8.94-13.91-3.3-27.89-6.61-41.73-9.9-1.51-4.93-3.04-9.87-4.55-14.97-.42 0-.86-.12-1.36-.27 11.82-.38 21.99-.27 31.6-7.58-15.81-11.81-30.24-15.94-42.75-18.81-.82-1.51-1.95-3.04-3.53-4.81-2.77-3.31-8.55-6.99-2.49-8.93 7.81-2.45 10.89-3.98 12.91-7.81l16.94-.27-19.67-19.08c-.15-4.81-3.69-7.15-10.14-10.28-.38-.12-.67-.27-.97-.54l-6.99-6.72c8.52-4.99 8.52-3.2 18.7-7.96l11.23-6.19c.7-1.76 2.59-1.47 3.72-2.33l-16.21-3.54c-2.48-.27-10.46.23-15.39-1.13l15.7-11.97-18.97-12.08c-4.55-7.02 3.15-2.72.67-10.73-3.86-1.62-16.1-5.1-16.75-5.37-11.81-5.25-4.51.54-7.84-2.22.97-1.35 1.68-2.71 2.22-4.12l38.89-.39c-15.01-10.69-8.28-7.8-30.36-8.51l22.66-12.79c-20.79.15-11.38 3.98-24.29-4.51 10.29-9.05 21.57-8.11 12.76-23.19-7.96-13.48-16.9-7.58-38.74-8.67 8.28-15.12 7.42-5.41 24.76-16.36-17.72-4.28-21.88-1.95-17.49-12.8 6.49-15.39 7.99-10.02 31.2-10.4l-22.97-10.73c19.52-10.02 8.52 1.36 14.57-16.36-14.85-.82-17.99 2.77-24.87-2.18l31.45-4.32-29.66-39.29c.94-5.49 1.21-3.27 1.59-7.69l-2.07-15.66c-.26-.67-.93-2.18-1.09-3.04l-1.5-46.99c.66-14.97.38-3.54-.43-11.7l-2.59-43.43c-.6-1.08-6.72-12.79-5.64-27.59-3.04 19.79-7.69 19.79-7.27 40.54.38 19.52 5.75 14.42 1.51 36.37-1.4 7.31-6.72 18.16-7.19 19.4-3.16 10.88 5.67 28.72 10.88 46.06l-30.75 2.45 25.42 26.5c.23-1.09 2.02 1.35 3.11 2.06l-16.86 11.59 14.03 29.27c-21.99 1.36-18.27-4.82-28.98-2.1 15.39 27.09.27 3.19 18.66 19.08 14.45 12.35 10.06-10.14 13.09 19.4-18.85-5.48-38.62-14.42-50.86-12.51 13.06 19.25 27.74 24.06 50.56 22.86-4.93 20.86-6.5 7.15-.27 26.76-5.48-2.21-10.58-3.57-17.84-6.45-19.11-7.85-16.86-7.96-36.67 2.33 15.39 21.45 8.78-.94 20.37 11.81 16.59 18.32 5.48-13.7.38 6.35l-.71 2.6c-1.58-1.8-3.38-3.69-5.22-5.49-1.2 4.24.94 7.27 4.13 9.99l-1.09 4.54c-1.51.67-2.77 2.18-3.46 5.22-.11.27-.11.71-.22.97-1.51-1.35-1.8 2.77-.12 1.51-.15 5.11 3.11 9.76 6.31 13.71l-22.66 6.19c13.17 6.5 6.19 1.51 12.08 14.53l-23.79 11c19.41 14.68 8.93-3.73 20.06 17.72-14.69 3.98-32.73 7.65-44.93 14.42 3.86.38 13.17 1.51 23.19 2.6l-.11.11c-8.78 4.28-12.39 7.16-8.78 17.19-2.6.86-4.99 1.79-7.58 2.77 2.45 8.11 3.46 11.55 7.58 14.03-11.38-1.35-23.2-3.04-41.07 8.36 10.95 7.96 26.12 7.42 42.98 10.88-.86 2.33-1.24 4.66-1.63 8.08 5.37.42 14.27-.12 20.98.53v4.66c-19.19 7.02-48.11 8.78-62.22 19.94 7.69 1.8 17.46 2.33 28.03 2.06l-1.36 4.4c-13.88 3.3-27.74 6.61-41.66 9.91 6.83 10.72 8.78 11.37 20.87 8.93 11.97-2.49 16.86 4.13 23.08 13.06 9.48-2.22 17.99-4.4 26.77-4.55a43 43 0 0 0 1.51 3.69c-3.73 4.39-4.13 7.57-4.99 14.3 3.72.82 8.93 1.36 14.19 2.18v.15c-2.34.42-4.93.27-6.5.27-12.91 0-21.73-2.89-33.81-3.86-8.93-.67-15.77.7-24.29 3.42-.26 2.44-2.33 19.11-3.03 19.9-1.8 2.21-43.02 22.37-43.84 23.38-2.37 3.27 4.39 10.03 8.07 11.38 9.05 3.27 24.05-1.24 36.52-6.19 3.19 1.36 6.83 1.36 12.79.94-.67 2.48-1.09 4.13-1.35 6.07l-26.39 10.47c7.46.7 17.34 2.1 26.27 4.54-.67.54-1.51 1.21-2.33 1.95 4.82 2.45 9.6 5.06 14.42 7.69-4.4 0-8.78.54-13.44 1.36-.16 1.28-.54 5.79-1.09 10.46-3.04 0-6.08.15-9.05.42l-19.9 5.79c-1.09-1.36-3.19 1.51-4.66 2.6 2.21 5.1 5.75 8.93 10.29 11.66-13.33 4.99-27.86 10.18-28.45 10.73-2.77 3.31 5.52 12.09 9.75 14.26 5.79 2.77 13.17 3.31 21.13 2.64 3.9 9.49 18.32 10.73 28.34 12.91-1.21 3.97-2.33 7.96-3.42 11.97-14 3.57-28.03 7.15-41.89 10.73 5.36 9.64 8.51 13.59 19.51 10.57 11.71-3.04 16.75 2.45 22.49 11.97 2.6 4.28.59 3.46 6.87 1.95 2.45-.53 4.78-1.09 7.27-1.62 1.24 1.51 2.06 3.03 2.6 4.51l-7.31 2.92c-8.36 2.71-17.45 3.8-25.97 5.37-4.16.42-8.11 1.68-12.67 3.04v.11c-7.16 2.45-13.44 6.46-17.99 13.33 4.81 4.39 1.35 4.7 4.39 6.46-10.95 2.88-21.95 5.75-33.07 8.66 4.55 8.4 8.07 14.46 18.39 11.67 9.37-2.6 13.77-1.36 19.08 5.52-16.6 2.02-23.47 5.6-32.96 20.6l42.6 3.03c1.09 1.91 2.44 3 3.86 3.86 3.19 3.04 6.75 4.4 12.35 4.13-3.42 9.64.82 6.19-17.99 11.23-54.91 15.27-92.72 8.28-96.58 35.16 26.81 15.54 63.73 4.82 96.16.86.42 1.24.86 2.33 1.36 3.54-13.29 1.68-26.62 3.19-39.95 4.54 4.28 7.96 7.77 14.19 14.86 16.1-3.9 1.24-6.5 3.86-12.68 8.28 13.6 11.82 27.59 9.16 36.52 23.31-23.5 14.57-27.74 1.51-55.06-.26-20.09-1.17-39.18 8.18-49.09 25.1-19.94-7.19-55.29-8.03-79.12-11.93-10.46-20.05 22.11-5.22-23.63-21.28-14.69-5.11-29.92-12.68-42.56-11.97 6.19-29.7 15.5-19.94 73.76-12.51l75.32-.27c11.97-2.44 7.92-1.91 13.17-5.21-33.26-31.76-28.33 5.75-66.77-17.34l-49.16-22.26c-18.54-7.1 9.32-5.22-22.26-7.96-2.88-24.72 13.06 15.12 2.37-20.48-20.09-7.92-20.09-7.92-37.27-23.75-8.36-7.69-13.06-11-16.9-12.35.27-.71.71-1.36 1.13-2.22-6.61-.27-12.68-.27-19.08 0 8.25-3.31 8.78-7.16 10.62-15.28-8-2.21-16.14-4.28-23.94-6.83-4.51-1.51-10.14-3.3-15.4-5.9 15.01 2.71 30.4-2.22 46.6-24.88 5.6-7.96 7.53-1.24 14.68-.53l39.83 6.19c34.34 5.21 5.75 1.09 18.43-.86 28.18-4.4 13.71-5.33 46.55-1.36-31.33-46.29-72.79-29.27-112.79-20.98 5.6-26.5 7.27-9.37-10.72-21.02.86-1.24 1.5-2.59 2.21-4.28-1.24-.15-5.41-.7-9.52-1.24-10.69-9.2-14.15-13.76-17.57-24.05 6.87-.42 11.66 3.15 17.45 0l9.2 2.33c.54-1.51.71-4.55 1.21-5.52 5.25-10.29-2.45.86 6.07-9.32 23.79 27.9 52.62 8.93 72.94.82-10.29-20.48-32.14-31.87-55.22-30.51-29.69 1.95-34.34 16.1-60.05.42 9.87-15.54 25.03-12.79 39.98-25.57-6.87-4.81-9.64-7.69-13.76-9.19 7.57-1.92 11.37-8.67 16.09-17.46-14.57-1.51-29.12-3.19-43.68-4.93.59-1.24 1.08-2.64 1.68-3.72 35.28 4.12 75.54 15.94 104.8-.98-4.28-29.42-45.31-21.84-105.24-38.36-20.6-5.59-16.1-1.94-19.79-12.35 6.15.27 10.14-1.24 13.56-4.39 1.51-.94 2.88-2.18 4.13-4.24l46.59-3.27c-10.46-16.37-17.99-20.37-36.18-22.41 5.9-7.69 10.73-8.94 20.86-6.2 11.27 3.04 15.28-3.45 20.06-12.79-12.09-3.04-24.02-6.07-36.11-9.37 3.31-1.79-.42-2.18 4.82-6.98-4.99-7.54-11.82-11.82-19.67-14.42v-.11c-4.93-1.68-9.2-2.89-13.71-3.31-9.37-1.79-19.25-2.88-28.18-5.9l-8.11-3.31c.7-1.58 1.51-3.27 2.88-4.78 2.64.5 5.26 1.09 7.96 1.63 6.83 1.62 4.66 2.77 7.42-1.95 6.35-10.29 11.97-16.48 24.44-13.06 12.08 3.19 15.66-1.09 21.46-11.66-15.17-3.9-30.56-7.58-45.64-11.55-1.24-4.4-2.48-8.78-3.86-13.18 10.88-2.21 26.5-3.57 30.78-13.88 8.78.71 16.9 0 23.2-3.04 4.66-2.18 13.44-11.97 10.61-15.5-.53-.59-16.48-6.23-30.93-11.55 4.81-3.19 8.78-7.43 11.14-12.95-1.5-1.09-4.05-4.39-4.98-2.77l-21.84-6.3c-3.31-.27-6.61-.39-9.87-.54-.53-5.1-1.13-9.87-1.2-11.22-5.11-1.02-9.91-1.51-14.69-1.68 5.37-2.78 10.54-5.64 15.78-8.36-.86-.71-1.8-1.4-2.6-1.95 9.87-2.77 20.48-4.28 28.68-5.14l-28.84-11.23c-.26-2.21-.86-3.97-1.51-6.61 6.46.42 10.62.27 13.89-1.09 13.59 5.37 29.96 10.29 39.98 6.72 3.97-1.51 11.37-8.93 8.66-12.35-.82-1.09-45.64-23.09-47.48-25.53-.86-1.01-3.04-19.12-3.46-21.76-9.2-2.89-16.78-4.51-26.5-3.69-13.06.97-22.7 4.13-36.81 4.13-1.68 0-4.54.15-6.98-.27v-.15c5.75-.83 11.38-1.51 15.35-2.45-.97-7.16-1.35-10.73-5.48-15.51.53-1.12 1.2-2.33 1.79-4.01 9.61 0 18.81 2.49 29.28 4.93 6.61-9.75 12.08-17.03 25.03-14.26 13.32 2.71 15.39 1.91 22.92-9.64-15.23-3.69-30.36-7.42-45.46-10.84l-1.51-4.82c11.55.12 22.26-.42 30.63-2.33-15.51-12.09-47-14.03-67.97-21.72v-5.07c7.42-.74 17.18-.15 23.04-.74-.71-3.54-1.09-6.31-1.95-8.78 18.58-3.69 34.94-3.19 46.84-11.71-19.33-12.31-32.42-10.69-44.62-9.16 4.39-2.81 5.48-6.34 8.07-15.27-2.77-1.09-5.37-2.22-8.07-3.04 3.86-11 0-14.15-9.8-18.81 10.88-1.21 21.02-2.45 25.26-2.89-13.32-7.42-32.96-11.37-48.89-15.77 11.93-23.35.53-3.15 21.84-19.25l-26.01-12.08c6.35-14.15-1.39-8.78 13.18-15.95l-24.88-6.75c3.57-4.4 7.19-9.32 7.02-14.8 1.8 1.24 1.51-3.15-.11-1.63-.12-.42-.12-.86-.27-1.2-.86-3.19-2.06-4.81-3.73-5.67l-1.2-4.78c3.42-3.04 5.75-6.35 4.51-11.11-2.06 2.06-3.98 4.13-5.75 6.07l-.67-2.77c-5.68-21.84-17.72 13.06.38-6.98 12.51-13.88 5.37 10.58 22.11-12.75-21.42-11.31-19.25-11.15-39.98-2.64-7.81 3.19-13.56 4.7-19.37 7.02 6.57-21.46 4.89-6.34-.27-29.19 24.88 1.39 40.77-3.98 54.92-24.88-13.33-2.18-34.9 7.57-55.51 13.59 3.46-32.13-1.35-7.57 14.3-21.13 20.2-17.49 3.69 8.67 20.49-20.86-11.67-2.89-7.69 3.97-31.65 2.33l15.28-31.87-18.43-12.64c1.13-.71 3.19-3.31 3.46-2.33l27.59-28.72-33.38-2.71c5.6-18.97 15.24-38.47 11.67-50.18-.27-1.35-6.2-13.32-7.69-21.32-4.67-23.86 1.08-18.39 1.62-39.68.42-22.48-4.82-22.48-7.96-44.07 1.24 16.1-5.48 28.84-6.02 30.08l-3.04 47.4c-.86 8.78-1.12-3.72-.42 12.76l-1.51 51.26c-.26.82-.97 2.45-1.24 3.31l-2.33 17.03c.59 4.81.71 2.37 1.8 8.24l-32.29 43.02 34.34 4.55c-7.57 5.48-10.99 1.51-27.09 2.29 6.49 19.41-5.49 7.02 15.77 17.84l-25.11 11.86c25.38.26 27.06-5.49 34.04 11.37 4.82 11.71.27 9.37-18.96 13.92 18.81 11.97 17.87 1.21 26.94 17.84-23.79 1.24-33.66-5.26-42.16 9.31-9.64 16.48 2.6 15.55 13.84 25.42-13.99 9.19-3.86 5.1-26.5 4.92l24.59 13.89c-24.05.86-16.74-2.34-32.99 9.37l42.33.27c.59 1.68 1.51 3.15 2.44 4.62-3.53 2.88 4.32-3.42-8.51 2.33-.67.27-14 4.13-18.28 5.9-2.77 8.67 5.64 3.98.83 11.67l-20.75 13.17 17.07 13.06c-5.41 1.51-14.19.82-16.79 1.09l-17.72 3.9c1.24 1.09 3.31.67 4.01 2.6l12.36 6.72c11.14 5.41 11.14 3.31 20.33 8.78l-7.58 7.27c-.38.27-.67.42-1.09.54-6.98 3.46-11 6.07-11.11 11.38l-21.46 20.75 18.47.26c2.29 4.28 5.6 5.91 14.26 8.52 6.46 2.06.12 6.19-2.88 9.6-1.8 2.1-2.89 3.89-3.86 5.52-13.77 3.04-29.27 7.54-46.59 20.33 10.46 7.92 21.45 7.8 34.34 8.36-.42.15-.97.26-1.36.26-1.68 5.49-3.3 10.85-5.1 16.37-15.08 3.38-30.24 7.15-45.35 10.84 7.58 11.55 9.64 12.35 22.85 9.64 11.82-2.48 17.31 3.27 23.2 11.67-9.64 2.44-7.27-.98-17.45 12.64 33.8 4.5 34.63 3.03 63.06-3.04-2.49 4.28-5.91 7.69-10.02 10.46-14.04 0-23.64-3.15-36.68-4.13-9.79-.82-17.22.82-26.5 3.69-.42 2.64-2.6 20.75-3.31 21.76-1.95 2.45-46.84 24.44-47.63 25.53-2.48 3.3 3.86 10.02 7.92 12.08-7.58.94-16.1 2.6-26.35 5.07 12.91 5.1 13.33 2.71 26.35 5.52 21.42 4.62 40.54 20.33 45.64 22.93l24.05 7.95c-1.13 5.76-2.48 11.71-2.88 12.09-.71.71-4.32 2.22-9.49 4.13-3.46-1.21-8.51-2.6-16.86-2.89-26.66-.82-39.33.27-54.28 13.77 10.84 15.66 19.36 19.25 28.56 18.02 1.68 1.63 3.46 3.16 4.82 3.81 2.33 1.09 4.93 2.1 7.8 2.44 4.01 10.73 19.94 12.09 30.9 14.46-1.21 4.39-2.45 8.78-3.81 13.17-15.12 3.98-30.36 7.65-45.63 11.55 5.9 10.62 9.37 14.86 21.42 11.67 12.67-3.42 18.16 2.77 24.47 13.06 2.89 4.66.67 3.53 7.58 1.94 2.6-.53 5.21-1.12 7.76-1.62 4.28 4.62 3.73 9.45 4.82 15.62-2.1.27-3.86.59-5.37.71-2.22.11-4.28.23-6.34.38-4.67.15-9.05-.5-16.06-2.18-8.93-1.95-15.66 0-24.06 2.71-1.79 6.35-3.57 12.64-5.37 19.12a5133 5133 0 0 1-45.75 11.82c4.99 9.31 8.78 15.77 20.16 12.79 11.3-3.04 15.98-1.09 22.97 9.05 7.15 10.46.66 8.66 15 5.37 6.46-1.51 11.94-2.45 18.55-2.77-4.4 2.21-8.78 4.12-13.18 6.07-1.79.27-3.72.42-5.63.59.66.23 1.2.67 1.91.94-3.39 1.51-6.83 2.89-10.29 4.28l-.98.15.16.12-.83.27c2.6 7.53 5.37 11.11 8.78 12.63 3.69 3.31 8.25 4.51 15.95 3.58 3.97-.42 7.27-.12 10.13.67-8.11 2.44-13.59 6.07-21.45 12.75 3.72 2.64 7.57 5.41 11.11 8.11-17.46 5.06-36.81 6.57-54.42 10.73-13.06 28.56 26.12 2.71-2.06 26.77-4.78.53-9.49 1.13-14.26 1.51 5.1 11.38 9.04 19.52 22.37 17.83 1.68-.26 3.15-.42 4.66-.42l1.36 7.58 1.09-.42c-2.45 1.79-4.66 3.72-7.16 5.67 10.62 7.54 20.87 15.51 31.45 23.2.98 2.88 2.07 5.22 3.31 7.1-.98.26-2.07.67-3.31 1.09-13.71 5.37-25.81 11.26-38.43 18.96-3.04 1.8-3.19 2.88-2.22 4.39-16.48 7.16-9.6 3.42-29.42 2.72-37.61-1.36-17.3-.5-40.77 9.2 9.76 8.78-1.95 3.72 13.88 7.84 11.38 3.04 11.78 1.76 23.51 1.51-2.81 14.53-6.35 11.97.38 26.77 20.48-4.28 14.68-7.31 36.25.42 1.24.42 6.08 3.04 6.76 3.3l5.63 3.2c5.6 2.17 5.33 3.03 10.73 3.8 2.77 3.19 5.49 6.49 8.25 9.52 0 1.09 0 2.18-.12 3.16-2.18.11-4.13.42-5.75.7-9.08 1.36-16.36 5.49-23.79 10.46 8.93 7.85 17.72 15.95 26.66 24.02-1.36.42-2.6.86-3.69 1.28-7.96 2.6-15.95 4.62-24.06 6.83 1.95 8.07 2.45 11.97 10.73 15.28-6.61-.27-12.68-.27-19.08 0 1.09 2.44 2.33 4.51 3.42 6.45-1.75.71-3.42 1.51-5.21 2.34-5.64 2.44-3.19 3.97.26 9.16 3.46 5.25 6.62 7.69 9.76 8.66 2.1 3.31 5.41 5.1 7.84 6.61-1.68 4.13-6.49 8.78-23.5 14-4.81 1.51-9.64 2.77-14.42 3.9-1.01 0-1.94-.16-3.03-.16.26.16.42.39.53.67-3.3.86-6.72 1.51-10.02 2.22 4.24 16.36 11 16.25 23.08 17.72.82 5.75-7.57 8.93-34.5 17.57-31.87 10.58-33.55 11.82-73.8 12.91 1.69 6.72 37.39-5.26-3.26 20.33l33.55 3.86 10.96 28.87c22.85-9.09 8.78-8.78 38.2-7.03l-2.77-20.48c10.88-2.88 21.42-5.21 31.72-6.46-.83.27-1.51.42-2.3.67-3.45.98-22.41 7.96-24.28 10.06-1.36 1.76 5.75 10.14 7.42 11.23 2.77 1.79 1.91 1.35 1.24 5.48-.7 3.57-1.79 8.25-1.95 11.82-5.78.74-18.96-2.29-26.65-1.36-6.3.67-12.08 3.69-17.57 6.83 6.61 16.48 13.77 17.99 30.08 18.81 2.88.16-5.11 1.36-5.76 1.51-3.15.86-24.76 8.4-26 9.64-1.51 1.8-.97.98 1.01 4.13 9.99 17.3 14.42 4.93 28.42 12.91 1.5.86 1.2.97-.27 2.33-4.13.38-8.36.67-12.47.97.82 3.57 1.62 6.5 2.6 9.05-2.45 2.44-4.01 5.06-6.61 13.71 16.75 2.52 29.65 4.66 46.44 8.66.82.27 1.62.42 2.29.54 1.8 2.21 1.62 4.54.54 7.84-8.9-1.2-17.73-2.22-26.77-2.48 7.02 13.17 11.41 17.49 26.34 20.36-4.24 2.03-6.01 2.18-5.48 3.98-13.59 7.42-30.63 12.24-56.46 21.02 2.06 6.3 7.42 11.55 13.44 16.32.27.54.71.98 1.01 1.24-4.5-.42-9.37-.86-14.26-1.12 4.93 8.93 9.45 13.92 15.09 16.78-.42 2.07-.83 4.13-.98 5.91-6.72-.12-21.84-5.75-30.63-6.08-7.42-.11-14.18 2.33-20.75 5.1 6.61 19.79 14.69 22.7 33.56 26.27 3.19.67-5.91.67-6.72.83-3.73.42-29.12 5.48-30.55 6.72-1.91 1.63-1.21.86.7 4.66 8.36 17.08 13.77 12.24 23.35 15.13-15.62 1.09-31.05 1.62-42.44 8.78l43.25 3.68c-1.8.86-3.58 1.8-5.26 2.72.15.59.42 1.01.75 1.39-2.89 2.45-4.82 5.07-8.44 13.88-1.76.86-3.97 1.8-6.57 3.04 3.86-.42 7.42-.71 10.69-.97 16.75 4.77 30.4 9.16 47.25 15.65-1.91 7.16 4.01 5.76-16.21 5.22l-.82-.08c-3.2-.59-6.35-1.28-9.49-1.68.27.54.53 1.09.86 1.68-1.8 0-3.73 0-5.49.08-.11 4.66-.7 11.42-.11 15.98-6.19.54-18.43-2.48-26-1.62-5.91.5-11 3.15-16.1 6.08 12.39 20.97 29.27 17.95 50.71 16.32-.54 2.22-1.13 3.9-1.8 5.52-9.87 3.31-16.06 5.64-19.9 7.5.46-1.47.94-3.07 1.36-4.85-12.68-8.93-47.25-9.2-69.25-12.79-8.29-15.81 17.3-4.17-18.66-16.79-11.59-4.12-23.64-10.02-33.59-9.37 4.98-23.46 12.24-15.77 58.14-10.02l59.19-.11c9.49-2.07 6.35-1.51 10.46-4.13-26.27-25.03-22.37 4.51-52.62-13.63l-38.7-17.46c-14.57-5.75 7.43-4.28-17.45-6.3-2.33-19.52 10.17 11.93 1.76-16.22-15.78-6.19-15.78-6.19-29.28-18.58-6.57-6.19-10.28-8.78-13.32-9.87.27-.42.53-1.09.86-1.68-5.14-.27-9.87-.11-15.01 0 6.5-2.6 6.83-5.6 8.4-12.08-6.31-1.63-12.8-3.31-18.97-5.37-3.53-1.21-7.96-2.6-11.97-4.66 11.71 2.21 23.94-1.69 36.52-19.48 4.55-6.35 6.08-1.02 11.67-.42l31.37 4.81c27.1 4.13 4.55.82 14.42-.71 22.26-3.3 10.88-4.28 36.67-1.08-24.55-36.41-57.28-22.93-88.72-16.48 4.4-20.87 5.6-7.27-8.39-16.48.53-.98 1.08-2.07 1.62-3.27-.98-.27-4.13-.71-7.42-1.13-8.52-7.15-11.27-10.84-13.88-18.81 5.36-.27 9.2 2.48 13.76-.11l7.16 1.94c.53-1.2.67-3.57 1.09-4.28 4.12-8.11-2.07.6 4.66-7.42 18.69 21.96 41.47 6.99 57.43.54-7.95-16.1-25.26-25.03-43.46-23.91-23.34 1.36-27.05 12.64-47.25.27 7.69-12.24 19.67-9.9 31.49-20.09-5.37-3.8-7.57-6.02-10.88-7.1 5.91-1.51 9.05-6.98 12.68-13.88-11.38-1.13-22.82-2.48-34.35-3.9.54-1.09.98-2.02 1.21-3.03 27.89 3.45 59.5 12.67 82.58-.67-3.31-23.2-35.76-17.19-82.81-30.25-16.21-4.39-12.68-1.39-15.54-9.64 4.81.12 7.95-.97 10.57-3.53 1.24-.71 2.33-1.8 3.46-3.31l36.52-2.6c-8.28-12.94-14.19-15.98-28.45-17.6 4.66-6.02 8.36-7.03 16.48-4.93 8.78 2.44 11.97-2.77 15.77-10.03-9.6-2.36-18.96-4.81-28.45-7.27 2.6-1.5-.38-1.83 3.86-5.63-4.01-5.91-9.48-9.2-15.54-11.42-3.86-1.24-7.31-2.33-10.84-2.6-7.43-1.35-15.13-2.33-22.26-4.66l-6.35-2.44c.54-1.36 1.21-2.6 2.34-3.98 2.06.5 4.12.94 6.19 1.36 5.37 1.35 3.72 2.18 5.9-1.51 4.99-8.11 9.37-12.91 19.25-10.29 9.49 2.6 12.24-.82 16.9-9.2-11.97-2.89-23.94-5.9-36.03-8.93-.93-3.39-1.91-6.99-2.88-10.46 8.51-1.76 20.9-2.89 24.21-10.96 6.83.5 13.17 0 18.27-2.37 3.58-1.76 10.58-9.49 8.29-12.2-.42-.42-12.95-4.99-24.33-9.2 3.9-2.29 6.87-5.64 8.78-10.02-1.24-.86-3.19-3.42-4.01-2.22l-17.15-4.93a72 72 0 0 0-7.69-.42c-.42-3.97-.82-7.84-.97-8.89-4.02-.67-7.81-1.24-11.55-1.24 4.12-2.18 8.24-4.4 12.35-6.58-.67-.59-1.36-1.12-2.1-1.51 7.69-2.21 16.21-3.3 22.54-4.01l-22.54-8.89c-.23-1.68-.67-3.16-1.24-5.22 5.14.27 8.28.27 10.99-.86 10.58 4.28 23.46 8.11 31.28 5.26 3.19-.98 8.93-6.84 6.91-9.64-.71-.94-35.91-18.28-37.54-20.06-.5-.82-2.29-15.12-2.6-17.15-7.31-2.36-13.17-3.57-20.86-3.03-10.29.82-17.84 3.3-28.99 3.3-1.35 0-3.53.16-5.48-.11v-.12c4.39-.7 8.93-1.24 12.08-1.95-.7-5.75-1.12-8.51-4.24-12.2.35-.86.82-1.94 1.36-3.19 7.54 0 14.68 1.91 22.93 3.86 5.21-7.57 9.52-13.32 19.78-11.11 10.46 2.18 12.09 1.51 17.99-7.69-11.97-2.88-23.86-5.75-35.66-8.51l-1.28-3.73c9.08.12 17.49-.26 24.21-1.79-12.24-9.6-37.12-11.11-53.64-17.19v-3.97c5.83-.59 13.48-.16 18.17-.59-.54-2.89-.83-4.93-1.51-6.84 14.53-3.03 27.47-2.44 36.96-9.2-15.39-9.86-25.57-8.51-35.17-7.3 3.42-2.18 4.28-5.07 6.35-12.09-2.11-.82-4.28-1.62-6.5-2.33 3.15-8.66.11-11.11-7.58-14.68v-.16c8.52-.93 16.64-1.91 19.79-2.17-10.4-5.91-25.85-8.94-38.47-12.39 9.48-18.55.42-2.6 17.18-15.24l-20.33-9.49c4.99-11.22-1.08-6.98 10.29-12.47l-19.51-5.4c2.88-3.42 5.63-7.43 5.52-11.71 1.35.98 1.2-2.44-.12-1.35 0-.27-.15-.54-.15-.82-.71-2.49-1.62-3.9-3.04-4.55l-.97-3.73c2.77-2.44 4.62-5.06 3.53-8.78-1.51 1.63-3.15 3.16-4.51 4.66l-.53-2.06c-4.4-17.19-13.88 10.18.23-5.48 9.9-11 4.39 8.39 17.45-10.18-16.86-8.78-15.12-8.66-31.45-2.06-6.19 2.45-10.61 3.69-15.27 5.64 5.25-16.9 4.01-5.11-.27-22.97 19.63 1.01 32.25-3.15 43.42-19.63-10.62-1.63-27.48 5.9-43.69 10.73 2.6-25.3-1.13-5.91 11.23-16.64 15.77-13.76 2.88 6.83 16.09-16.48-9.2-2.17-6.07 3.19-24.87 1.95l11.97-25.14-14.42-9.87c.82-.71 2.29-2.77 2.6-1.95l21.84-22.55-26.39-2.21c4.4-14.97 11.97-30.21 9.37-39.56-.42-.98-4.93-10.46-6.19-16.63-3.72-18.82.98-14.42 1.24-31.28.43-17.72-3.68-17.72-6.22-34.67 1.01 12.68-4.25 22.7-4.78 23.63l-2.33 37.23c-.67 6.99-.98-2.71-.27 10.02l-1.36 40.39c-.11.7-.66 1.95-.82 2.63l-1.95 13.44c.42 3.73.71 1.8 1.36 6.5l-25.37 33.81 27.17 3.69c-6.08 4.28-8.78 1.13-21.42 1.79 5.1 15.28-4.28 5.49 12.46 14.15l-19.78 9.2c19.9.27 21.25-4.39 26.77 8.93 3.9 9.2.11 7.27-15.01 11 14.85 9.32 14.19.98 21.28 13.84-18.81 1.09-26.5-3.97-33.22 7.43-7.69 13.06 2.02 12.39 10.95 20.05-11.07 7.31-3.15 4.01-21.01 3.86l19.52 10.99c-18.97.54-13.18-1.83-26.12 7.27l33.38.27c.53 1.21 1.2 2.45 1.95 3.73-2.89 2.18 3.42-2.81-6.76 1.76-.5.26-10.96 3.3-14.26 4.66-2.18 6.83 4.39 3.19.59 9.2l-16.21 10.29 13.33 10.29c-4.28 1.2-11.15.66-13.18.97l-13.92 3.04c1.01.86 2.64.42 3.19 1.95l9.64 5.37c8.78 4.24 8.78 2.6 16.1 6.83l-6.08 5.9c-.26.12-.59.27-.86.42-5.48 2.6-8.66 4.66-8.66 8.78l-16.86 16.37 14.41.26c1.8 3.39 4.4 4.67 11.11 6.72 5.26 1.62.27 4.81-2.21 7.54-1.36 1.68-2.22 3.03-2.89 4.28-10.88 2.44-23.19 6.07-36.81 16.09 8.25 6.35 17.04 6.2 27.06 6.62-.23.11-.67.11-1.09.22-1.21 4.32-2.6 8.55-3.98 12.83a4481 4481 0 0 0-35.58 8.52c5.75 9.2 7.42 9.87 17.87 7.69 9.37-1.95 13.77 2.44 18.39 9.01-7.69 1.94-5.75-.67-13.88 9.9 26.66 3.69 27.32 2.45 49.58-2.21-1.79 3.3-4.54 5.9-7.84 8.11-11.11 0-18.54-2.49-28.83-3.31-7.69-.53-13.6.67-20.87 3.04-.23 2.02-2.06 16.36-2.59 17.15-1.51 1.79-36.81 19.11-37.46 20.05-2.1 2.48 3.03 7.84 6.15 9.37-5.87.86-12.47 2.22-20.6 4.28 10.14 3.98 10.41 1.95 20.6 4.28 16.9 3.58 32.02 15.95 36.03 17.99l18.81 6.35c-.83 4.5-1.8 9.16-2.18 9.6-.54.42-3.31 1.51-7.43 3.19-2.71-1.09-6.72-2.07-13.32-2.3-21.02-.7-30.9.23-42.75 10.69 8.51 12.51 15.23 15.28 22.54 14.31 1.21 1.35 2.6 2.44 3.69 3 1.8 1.01 4.01 1.51 6.19 1.94 3.19 8.52 15.66 9.64 24.29 11.38-.94 3.46-1.95 7.02-2.89 10.46-11.97 3.04-24.06 6.08-35.99 8.94 4.66 8.39 7.43 11.81 16.86 9.2 9.87-2.6 14.27 2.21 19.25 10.28 2.22 3.69.54 2.89 5.91 1.51 2.06-.42 4.13-.86 6.19-1.35 3.31 3.86 3.04 7.57 3.69 12.31-1.51.27-2.89.42-4.13.59-1.62.12-3.31.27-4.93.42-3.69.12-7.15-.59-12.64-1.79-7.15-1.51-12.31 0-18.92 2.18-1.51 4.98-2.93 10.06-4.28 15-11.97 3.16-23.94 6.35-36.03 9.38 3.9 7.27 7.02 12.46 15.98 10.02 8.94-2.33 12.47-.86 17.95 7.15 5.64 8.25.54 6.83 11.82 4.28 5.1-1.24 9.37-1.95 14.69-2.06-3.54 1.59-6.99 3.15-10.47 4.62-1.5.12-2.88.27-4.39.42.42.27.97.54 1.51.86-2.77 1.09-5.48 2.18-8.25 3.31h-.7l.11.11-.67.27c2.18 5.91 4.13 8.67 6.87 9.87 2.89 2.77 6.61 3.57 12.64 2.89 3.04-.27 5.79-.12 7.96.42-6.5 2.1-10.73 4.81-16.86 10.17 3.04 2.1 5.9 4.24 8.78 6.34-13.77 3.98-29.03 5.22-42.87 8.52-10.29 22.37 20.6 2.06-1.68 21.13-3.73.42-7.42.7-11.11 1.12 3.86 9.05 7.15 15.4 17.57 14 1.24-.11 2.44-.11 3.69-.27l.93 5.91 1.01-.23a68 68 0 0 0-5.63 4.39c8.24 5.87 16.48 12.2 24.72 18.28.82 2.33 1.68 4.13 2.6 5.6-.71.3-1.62.59-2.6 1.01-10.88 4.13-20.33 8.78-30.24 14.8-2.34 1.51-2.6 2.21-1.76 3.46-12.95 5.63-7.58 2.77-23.12 2.21-29.66-.97-13.67-.53-32.14 7.16 7.69 6.98-1.51 3.04 10.88 6.3 9.05 2.33 9.32 1.36 18.55 1.25-2.18 11.37-4.93 9.31.42 20.97 16.09-3.42 11.37-5.75 28.41.27 1.01.27 4.81 2.45 5.25 2.6l4.55 2.48c4.39 1.76 4.13 2.34 8.36 3 2.22 2.49 4.39 5.11 6.5 7.54v2.37c-1.69.27-3.31.38-4.55.5-7.27 1.13-12.91 4.39-18.81 8.28 6.98 6.19 13.99 12.64 20.98 18.96-.94.42-1.91.67-2.89.98-6.19 2.06-12.64 3.72-18.96 5.37 1.51 6.49 1.95 9.48 8.51 12.08-5.22-.11-9.98-.26-15.09 0 .98 1.95 1.91 3.58 2.77 5.14-1.35.5-2.77 1.21-4.12 1.8-4.4 2.06-2.49 3.15.23 7.31 2.63 4.12 5.1 6.02 7.57 6.83 1.68 2.6 4.28 3.97 6.35 5.06-1.36 3.31-5.22 7.02-18.55 11.15-3.9 1.09-7.57 2.18-11.41 3.04-.83-.12-1.51-.12-2.33-.27l.42.67c-2.64.53-5.26 1.13-7.96 1.62 3.42 12.95 8.78 12.83 18.16 14.04.82 4.54-5.91 6.98-26.98 13.88-25.14 8.28-26.5 9.2-58.22 10.13 1.36 5.41 29.43-4.12-2.44 15.99l26.34 3 8.67 22.85c17.84-7.16 6.83-6.99 29.92-5.49l-2.02-16.21c8.51-2.21 16.7-4.13 24.99-5.1-.71.12-1.25.27-1.95.54-2.77.82-17.72 6.3-19.12 7.95-1.09 1.36 4.55 7.96 5.91 8.78 2.06 1.51 1.5 1.13.82 4.4-.5 2.77-1.36 6.34-1.36 9.2-4.51.7-14.97-1.8-20.98-1.09-5.1.67-9.64 3.04-13.92 5.48 5.26 12.91 10.88 14.15 23.64 14.69 2.29.11-3.86 1.08-4.4 1.24-2.6.7-19.67 6.72-20.48 7.57-1.24 1.36-.86.82.67 3.19 7.8 13.77 11.26 4.13 22.37 10.29 1.21.67 1.02.82-.26 1.95-3.16.23-6.46.38-9.76.67.59 2.77 1.24 5.14 2.1 7.16-1.95 1.94-3.19 3.97-5.25 10.72 13.17 2.07 23.35 3.86 36.52 6.99.71.11 1.24.11 1.8.27 1.51 1.79 1.2 3.68.53 6.19-7.02-1.02-14.03-1.69-21.13-1.95 5.48 10.4 9.05 13.76 20.75 16.06-3.31 1.51-4.82 1.68-4.28 3.03-10.73 5.79-24.17 9.76-44.51 16.64 1.62 4.93 5.75 9.04 10.58 12.75.26.42.53.82.82 1.09-3.69-.42-7.43-.67-11.23-.97 3.98 6.98 7.43 10.95 11.97 13.17-.42 1.68-.74 3.3-.82 4.7-5.41-.15-17.22-4.55-24.21-4.7-5.75-.12-11.07 1.8-16.36 4.01 5.41 15.55 11.7 17.72 26.38 20.6 2.6.42-4.54.59-5.21.71-2.89.23-22.97 4.28-24.06 5.21-1.51 1.36-.82.71.71 3.69 6.46 13.33 10.69 9.64 18.28 11.82-12.36 1.01-24.29 1.35-33.52 7.02l34.19 2.88c-1.51.67-2.77 1.36-4.12 2.18.11.42.38.71.53 1.09-2.33 1.95-3.86 4.01-6.61 10.88-1.36.71-3.15 1.36-5.25 2.45 3.03-.23 5.75-.67 8.39-.82 13.18 3.86 23.91 7.3 37.23 12.35-1.51 5.67 3.19 4.51-12.64 4.01h-.86c-2.48-.53-4.77-1.01-7.3-1.35.15.53.26.97.59 1.35h-4.4c0 3.86-.42 9.05 0 12.64-4.93.42-14.53-1.95-20.48-1.36-4.66.42-8.66 2.6-12.68 4.82 9.64 16.59 23.12 14.15 39.83 12.94-.38 1.63-.82 3.04-1.36 4.28-29.38 9.99-17.14 8.36-21.13 19.79-5.1-1.4-10.13-2.64-15.66-3.57 3.04 6.34 5.91 10.72 9.2 13.99-4.39 5.52-11.22 12.51-22.37 21.88-14.15 11.93-14.26 17.99-25.53 31.33 6.46 6.2 4.93 7.27 16.75 10.29-.53.27-1.24.54-1.76.86 1.09 2.3 2.3 4.47 3.69 6.46-6.34 3.86-10.14 6.35-24.88 6.83l5.6 5.91c.42.53 1.8 2.06 2.22 2.88 5.9 12.35 2.6 9.49-1.01 19.25l18.42-8.66c-3.03 9.64.39 11.81 3.69 17.3-5.79-.67-16.09-4.47-22.66-4.89-5.52-.16-10.13 1.47-14.97 3.53 10.14 20.33 25.64 19.79 45.2 21.02-1.95 6.34-4.55 8.93-6.23 13.33-6.02 4.39-12.64 9.2-20.75 14.14l22.37-2.21c1.09.82 1.95 1.51 2.22 1.79.38.39.98.67 1.36 1.09-4.66 11.71-6.76 5.22-10.02 20.87 15.23-1.51 21.57-3.16 26.61-5.79 5.52 4.39 10.88 6.61 16.37 7.54-2.89 4.28-6.61 8.77-11.11 14.41l-31.38 49.47c20.64 43.69 44.38 8.07 62.41-.42 6.31 2.88 12.47 5.1 18.97 6.87-29.27 13.44-22.97-6.19-31.05 13.76-.42.94-.54 1.8-.86 2.72-12.64 0-23.75 1.68-31.6 7.27 3.57.97 5.75 1.51 7.69 1.95-6.5 2.77-7.31 5.75-11 12.46-7.8 1.36-13.55 4.13-17.87 11.55-1.21 1.8 3.3 3.46 5.1 4.55 7.15 4.01 13.48 5.37 19.67 5.37-8.28 11.82 6.46 3.86-9.91 21.13-1.16 1.24-2.29 2.29-3.3 3.27-150.02-307.9-406.04-796.06-557.75-877.39-137.82-73.91-273.78-54.42-358.26-28.34-67.74-51.8-152.62-104.26-252.37-148.22-147.69-65.09-312.1-104.15-476.31-108.39v-.42l-17.03-2.07-.27 2.18c-134.38-1.51-268.03 20.75-392.12 71.47-37.76 15.51-74.91 33.34-112.08 53.33-.38-2.26 7.35-1.8-15.94-3.73-3.04-25.85 13.55 15.66 2.33-21.45-20.75-8.36-20.87-8.36-38.59-24.73-8.89-8.07-13.55-11.55-17.68-12.91.38-.66.82-1.51 1.24-2.21-6.91-.42-13.17-.42-20.09 0 8.67-3.42 9.2-7.42 11.26-15.99-8.39-2.17-16.9-4.39-24.99-7.15-4.7-1.68-10.61-3.42-15.94-6.15 15.5 2.71 31.6-2.33 48.49-26.01 5.75-8.24 7.81-1.24 15.24-.38l41.51 6.31c35.83 5.48 6.07 1.24 19.08-.83 29.42-4.5 14.41-5.59 48.64-1.35-32.73-48.23-75.85-30.52-117.59-21.84 5.9-27.74 7.57-9.79-11-21.95.71-1.28 1.36-2.78 2.22-4.4-1.2-.27-5.48-.82-9.87-1.36-11.15-9.64-14.85-14.3-18.27-25.03 7.09-.42 12.2 3.27 18.16 0l9.44 2.45c.71-1.62 1.02-4.81 1.36-5.75 5.52-10.73-2.6.82 6.35-9.64 24.72 29.02 54.72 9.2 75.96.71-10.72-21.29-33.51-33.08-57.39-31.61-31.01 1.91-35.84 16.6-62.64.23 10.28-16.09 25.96-13.17 41.66-26.5-7.02-5.06-10.02-8.07-14.3-9.6 7.84-1.95 11.81-9.05 16.74-18.16-15.27-1.62-30.36-3.31-45.46-5.22.53-1.35 1.09-2.6 1.68-3.86 36.81 4.4 78.7 16.6 109.2-.97-4.4-30.78-47.22-22.81-109.64-39.94-21.42-5.91-16.75-1.95-20.6-12.8 6.35.27 10.58-1.35 14.19-4.66 1.62-.97 3.04-2.33 4.4-4.39l48.34-3.42c-10.89-17.07-18.7-21.17-37.69-23.35 6.34-7.96 11.3-9.37 21.72-6.5 11.82 3.19 15.98-3.53 21.02-13.17-12.47-3.19-25.15-6.46-37.61-9.76 3.38-1.94-.42-2.33 5.06-7.42-5.22-7.84-12.31-12.24-20.48-15.12v-.12c-5.22-1.51-9.6-2.88-14.26-3.42-9.76-1.79-20.06-2.88-29.54-6.07l-8.25-3.42c.5-1.68 1.51-3.31 3.04-5.07 2.77.5 5.37 1.21 8.07 1.91 7.27 1.63 4.99 2.78 7.85-2.06 6.57-10.88 12.31-17.19 25.52-13.77 12.51 3.43 16.21-1.08 22.26-12.08-15.77-3.97-31.75-7.92-47.52-11.97l-4.01-13.71c11.42-2.37 27.74-3.9 32.14-14.57 8.93.67 17.57.12 24.05-3.19 4.82-2.33 14.15-12.35 11-16.06-.54-.59-17.07-6.5-32.14-12.08 5.06-3.19 9.01-7.58 11.67-13.45-1.63-1.08-4.28-4.39-5.37-2.92l-22.66-6.57c-3.42-.27-6.87-.42-10.29-.42-.54-5.22-1.13-10.46-1.21-11.82-5.4-.97-10.29-1.68-15.27-1.68 5.48-3.04 10.88-5.91 16.36-8.78-.86-.67-1.79-1.36-2.6-2.06 10.14-2.77 21.25-4.28 29.77-5.26l-29.92-11.82c-.27-2.17-.86-4.12-1.62-6.83 6.72.54 10.99.39 14.57-.97 14.14 5.48 31.2 10.69 41.62 6.83 4.17-1.51 11.82-9.2 8.89-12.79-.82-1.24-47.48-24.17-49.58-26.66-.67-.97-3.19-19.78-3.38-22.7-9.64-3.03-17.57-4.66-27.63-3.85-13.71.97-23.58 4.28-38.43 4.28-1.68 0-4.66.26-7.31-.27v-.16c5.9-.82 11.82-1.5 16.21-2.44-1.12-7.58-1.51-11.23-5.9-16.37.67-.97 1.24-2.33 1.91-4.01 9.91 0 19.52 2.45 30.4 5.1 6.98-10.02 12.64-17.57 26.08-14.85 13.88 2.92 16.1 1.95 23.9-10.02-15.77-3.81-31.6-7.66-47.21-11.38l-1.68-4.99c12.08.27 23.04-.38 31.87-2.33-16.21-12.64-48.93-14.68-70.76-22.66v-5.41c7.69-.67 17.87-.11 23.9-.53-.54-3.86-.98-6.61-1.95-9.2 19.4-3.9 36.41-3.31 48.76-12.24-20.2-13.06-33.66-11.11-46.4-9.6 4.51-2.71 5.6-6.61 8.36-15.95-2.77-1.12-5.64-2.21-8.51-3.19 4.12-11.38 0-14.57-10.03-19.51 11.27-1.36 21.96-2.6 26.24-3.04-13.92-7.69-34.19-11.86-50.94-16.37 12.47-24.44.67-3.42 22.81-20.19l-27.09-12.47c6.72-14.86-1.4-9.2 13.77-16.63l-25.82-6.83c3.69-4.67 7.43-9.91 7.27-15.55 1.91 1.21 1.68-3.26-.11-1.79-.16-.39-.16-.82-.27-1.21-.97-3.26-2.18-5.06-3.97-5.9l-1.25-5.06c3.54-3.04 6.19-6.62 4.78-11.38-2.18 2.06-4.13 4.12-6.08 6.15l-.66-2.89c-5.91-22.81-18.55 13.6.26-7.3 13.18-14.42 5.75 11.15 23.2-13.33-22.38-11.66-20.05-11.55-41.78-2.71-8.07 3.3-13.99 4.93-20.16 7.42 6.99-22.37 5.26-6.72-.26-30.36 25.85 1.36 42.6-4.24 57.28-25.97-13.88-2.21-36.26 7.92-57.68 14.15 3.38-33.51-1.51-7.8 14.79-21.95 20.91-18.16 3.9 9.04 21.29-21.84-12.24-3.04-7.96 4.13-32.96 2.44l15.98-33.07-19.08-13.17c1.09-.86 3.16-3.62 3.39-2.49l28.87-29.96-34.79-2.77c5.75-19.78 15.81-40.11 12.24-52.31-.42-1.4-6.5-13.77-8.11-22.11-4.78-24.88 1.28-19.08 1.68-41.36.59-23.46-4.93-23.46-8.24-45.9 1.2 16.79-5.64 30.11-6.35 31.34l-3.04 49.31c-.97 9.2-1.35-3.86-.53 13.33l-1.62 53.32c-.27.98-.98 2.6-1.25 3.42l-2.33 17.84c.42 4.99.71 2.37 1.8 8.67l-33.66 44.66 35.88 4.77c-7.85 5.64-11.59 1.51-28.34 2.34 6.72 20.15-5.6 7.27 16.48 18.65l-26.16 12.24c26.39.42 28.18-5.64 35.44 11.97 5.1 12.2.26 9.6-19.79 14.42 19.63 12.35 18.66 1.24 28.18 18.54-24.87 1.36-35.16-5.37-44.11 9.76-10.05 17.22 2.89 16.25 14.54 26.5-14.69 9.64-4.13 5.25-27.75 5.1l25.82 14.41c-25.15.86-17.46-2.33-34.46 9.72l44.07.42c.7 1.68 1.51 3.19 2.48 4.66-3.73 3.15 4.51-3.46-8.78 2.45-.71.42-14.68 4.39-18.96 6.19-2.89 9.05 5.75 4.13.82 12.24l-21.57 13.71 17.72 13.48c-5.64 1.62-14.68.97-17.45 1.2l-18.43 4.13c1.2.97 3.42.53 4.12 2.63l12.83 6.99c11.55 5.48 11.55 3.46 21.29 9.04l-7.96 7.69c-.27.27-.71.42-1.13.6-7.27 3.57-11.37 6.19-11.55 11.81l-15.12 14.73c-25.07-4.86-58.56-8.25-97.93-19.16-28.41-7.8-22.11-2.45-27.32-17.03 8.36.38 13.99-1.68 18.81-6.35 2.1-1.09 4.01-3.03 5.79-5.75l64.7-4.51c-14.57-22.81-25.03-28.33-50.17-31.33 8.28-10.58 14.85-12.2 28.98-8.51 15.66 4.24 21.13-4.82 27.9-17.73-16.75-4.12-33.55-8.51-50.29-12.9 4.55-2.6-.54-3.04 6.83-9.87-6.98-10.46-16.63-16.37-27.44-20.05v-.16c-6.75-2.21-12.79-4.01-18.96-4.66-13.06-2.44-26.81-3.97-39.45-8.11l-11.15-4.55c.86-2.29 2.11-4.47 4.02-6.83 3.86.86 7.42 1.68 11.11 2.45 9.52 2.33 6.49 3.57 10.29-2.72 8.78-14.41 16.63-22.81 34.07-18.1 16.75 4.51 21.57-1.68 29.77-16.21-21.13-5.41-42.33-10.73-63.61-16.1-1.63-6.08-3.43-12.24-5.26-18.31 15.28-3.19 36.96-5.07 42.87-19.48 12.12.93 23.5.07 32.13-4.17 6.5-3.04 18.82-16.59 14.69-21.45-.67-.83-22.82-8.78-42.98-16.22 6.72-4.28 12.2-10.13 15.54-17.83-2.22-1.51-5.48-6.08-6.98-3.86l-30.25-8.78c-4.55-.42-9.16-.71-13.71-.71-.82-6.98-1.51-13.88-1.62-15.77-7.27-1.24-13.77-2.1-20.48-2.22 7.27-4.01 14.56-7.84 21.95-11.59-1.2-1.09-2.48-1.91-3.73-2.88 13.6-3.8 28.57-5.75 39.83-6.99l-39.98-15.65c-.38-3.04-1.09-5.49-2.22-9.2 9.05.53 14.69.53 19.41-1.51 18.96 7.42 41.62 14.41 55.66 9.37 5.48-1.95 15.77-12.35 12.08-17.19-1.2-1.51-63.58-32.17-66.18-35.43-1.12-1.36-4.28-26.5-4.66-30.25-12.9-4.12-23.5-6.3-36.96-5.21-18.28 1.35-31.6 5.75-51.26 5.75-2.33 0-6.35.27-9.76-.42v-.12c7.92-1.24 15.78-2.21 21.42-3.42-1.2-10.02-1.95-15.01-7.54-21.72.71-1.4 1.47-3.15 2.49-5.37 13.17 0 26.12 3.31 40.53 6.72 9.2-13.45 16.86-23.47 34.9-19.79 18.39 3.86 21.29 2.6 31.72-13.44-20.98-5.06-42.01-10.18-63.06-15.12l-2.07-6.72c16.1.27 30.78-.42 42.49-3.04-21.57-16.86-65.28-19.63-94.55-30.21.15-2.33.15-4.81.15-7.15 10.29-.98 23.79-.12 31.87-.86-.86-5.22-1.39-8.78-2.64-12.2 25.85-5.26 48.65-4.4 65.13-16.37-26.94-17.34-44.93-14.85-61.97-12.79 6.07-3.9 7.57-8.93 11.22-21.32-3.8-1.51-7.54-2.89-11.38-4.28 5.41-15.28 0-19.52-13.48-25.97l-.07-.11c15.08-1.8 29.38-3.46 35.24-4.01-18.54-10.26-45.75-15.78-68.13-21.84 16.75-32.7.98-4.55 30.52-26.89l-36.1-16.78c8.89-19.79-1.8-12.2 18.27-22.11l-34.46-9.27c4.93-6.08 9.87-13.06 9.76-20.64 2.44 1.8 2.06-4.39-.27-2.48-.15-.39-.15-.94-.23-1.51-1.24-4.4-2.89-6.72-5.25-7.92l-1.8-6.61c4.81-4.28 8.28-8.94 6.34-15.51-2.71 2.89-5.48 5.64-7.96 8.4l-.97-3.86c-7.84-30.21-24.55 18.16.42-9.64 17.57-19.37 7.69 14.68 30.9-17.84-29.81-15.54-26.77-15.39-55.66-3.72-10.88 4.39-18.81 6.61-26.94 10.02 9.2-29.92 6.98-9.01-.42-40.65 34.67 1.95 56.94-5.48 76.52-34.63-18.54-2.89-48.49 10.57-77.02 18.96 4.66-44.81-1.95-10.61 19.79-29.42 28.03-24.17 5.1 12.08 28.45-28.99-16.37-4.16-10.73 5.37-43.96 3.15l21.13-44.18-25.52-17.57c1.51-1.13 4.28-4.66 4.81-3.3l38.43-39.98-46.55-3.69c7.69-26.35 21.32-53.6 16.37-69.96-.42-1.76-8.67-18.43-10.73-29.43-6.46-33.22 1.51-25.68 2.21-55.22.67-31.33-6.61-31.45-10.99-61.28 1.62 22.37-7.58 40.15-8.51 41.74l-4.02 65.83c-1.2 12.35-1.79-5.1-.7 17.84l-2.22 71.2c-.38 1.24-1.2 3.42-1.62 4.55l-3.31 23.9c.71 6.61 1.09 3.19 2.45 11.59l-44.93 59.61 47.8 6.34c-10.4 7.54-15.39 2.03-37.61 3.27 8.93 26.94-7.58 9.79 22.11 24.88l-35.02 16.36c35.28.42 37.46-7.69 47.25 15.81 6.72 16.37.39 13.06-26.38 19.37 26.23 16.63 25.03 1.68 37.61 24.59-33.23 1.95-46.84-6.98-58.81 13.17-13.44 22.97 3.72 21.61 19.4 35.28-19.67 12.91-5.37 7.16-36.96 6.87l34.34 19.37c-33.55 1.01-23.19-3.27-46.05 12.94l58.96.54c.82 2.21 2.06 4.28 3.42 6.34-5.1 4.13 5.9-4.66-11.82 3.31-.97.38-19.67 5.79-25.41 8.24-3.8 11.97 7.84 5.49.98 16.21l-28.72 18.28 23.79 18.16c-7.58 2.22-19.79 1.24-23.2 1.68l-24.76 5.37c1.68 1.36 4.55.86 5.52 3.57l17.19 9.38c15.39 7.38 15.39 4.62 28.33 12.2l-10.61 10.13c-.42.27-.98.59-1.47.86-9.76 4.63-15.28 8.25-15.43 15.66l-29.77 28.98 25.53.27c3.3 5.91 7.8 8.25 19.78 11.97 9.05 2.89.27 8.51-4.01 13.44-2.33 2.77-3.98 5.11-5.22 7.43-19.08 4.39-40.8 10.53-64.86 28.29 14.57 11.27 29.96 11 47.85 11.67-.71.15-1.36.27-1.95.59-2.29 7.42-4.66 15.01-6.98 22.55-21.17 4.93-42.16 10.02-63.2 15.12 10.4 16.1 13.44 17.3 31.87 13.44 16.37-3.42 24.06 4.55 32.25 16.1-13.44 3.57-10.13-1.24-24.28 17.57 47.02 6.34 48.22 4.28 87.67-3.98-3.46 5.75-8.24 10.58-13.92 14.42-19.63-.15-32.81-4.4-50.94-5.75-13.59-1.09-24.02 1.09-36.96 5.21-.5 3.73-3.54 28.87-4.62 30.25-2.81 3.27-64.98 33.92-66.22 35.43-1.43 1.88-.78 4.55.9 7.27-18.96-3.34-39.45-7.53-61.21-13.29-39.45-10.28-30.78-3.3-37.94-22.66 11.82.54 19.52-2.33 25.97-8.24 3.04-1.62 5.6-4.13 8.11-7.69l89.14-6.19c-19.93-30.21-34.34-37.5-69.13-41.36 11.22-14.15 20.48-16.32 39.98-11.38 21.72 5.64 29.15-6.45 38.58-23.46-23.19-5.64-46.28-11.38-69.33-17.34 6.31-3.46-.86-3.97 9.32-13.06-9.6-13.92-22.93-21.68-37.77-26.65l-.15-.27c-9.37-2.88-17.57-5.37-26.23-6.08-17.99-3.26-36.85-5.36-54.25-10.84l-15.39-5.9c1.13-3.19 2.77-6.19 5.52-9.05 5.07.98 10.18 2.1 15.24 3.31 13.18 3.03 8.93 4.66 14.3-3.73 12.05-19.19 22.93-30.36 47.1-24.17 23.08 6.02 29.81-2.1 41.07-21.42-29.27-7.19-58.52-14.18-87.63-21.28-2.45-8.08-4.93-16.25-7.27-24.29 20.86-4.39 50.78-6.87 59.08-25.85 16.63 1.13 32.46 0 44.37-5.48 8.9-4.13 26.12-22.11 20.33-28.57-.97-1.24-31.49-11.74-59.34-21.61 9.37-5.63 16.78-13.48 21.45-23.63-3.04-2.07-7.57-8.07-9.64-5.22l-41.89-11.66c-6.19-.42-12.68-.71-18.96-.86-1.09-9.32-1.95-18.55-2.22-20.87-9.87-1.79-19.08-2.88-28.33-3.04 10.21-5.25 20.23-10.28 30.4-15.39-1.8-1.35-3.42-2.59-5.11-3.68 18.81-5.11 39.45-7.69 55.11-9.38l-55.22-20.74c-.54-4.13-1.68-7.58-2.92-12.2 12.23.66 20.09.49 26.5-1.95 26.27 9.75 57.58 18.96 76.83 12.39 7.57-2.64 21.72-16.48 16.74-22.82-1.76-2.06-87.78-42.75-91.47-47.25-1.51-1.62-5.75-35.16-6.61-39.94-17.72-5.52-32.14-8.4-50.94-7.02-25.15 1.95-43.42 7.57-70.76 7.69-3.04 0-8.67.27-13.33-.42v-.23c11-1.68 21.88-2.89 29.65-4.55-1.79-13.44-2.71-19.94-10.57-28.87 1.13-1.91 2.21-4.13 3.57-7.27 18.16.15 35.87 4.55 55.93 9.05 12.79-17.72 23.19-31.16 48.11-26.24 25.41 5.11 29.54 3.43 43.95-17.87-29.12-6.72-58.1-13.48-87.12-20.16l-2.89-8.78c22.11.42 42.45-.59 58.64-4.12-29.77-22.42-90.23-25.97-130.54-39.98 0-3.31.15-6.46 0-9.61 14.3-1.2 32.88-.11 44.11-1.12-.97-6.83-1.76-11.67-3.53-16.06 35.72-6.99 67.15-6.02 89.96-21.84-37.23-22.93-62.07-19.63-85.69-16.86 8.51-5.14 10.57-11.97 15.65-28.34-5.21-2.06-10.46-3.86-15.81-5.64 7.58-20.19 0-25.81-18.54-34.45l-.12-.12c20.87-2.37 40.65-4.66 48.61-5.41-25.56-13.55-63.06-20.86-93.97-28.98 23.08-43.42 1.24-6.08 42-35.76l-50.02-22.22c12.35-26.23-2.29-16.37 25.41-29.27L195 673.89c6.87-7.92 13.6-17.45 13.48-27.47 3.42 2.33 2.89-5.75-.27-3.16-.15-.66-.38-1.35-.53-2.1-1.63-5.86-4.01-8.89-7.27-10.57l-2.22-8.78c6.61-5.52 11.15-11.82 8.67-20.48-3.86 3.68-7.58 7.42-11.11 11.11l-1.25-5.22c-1.2-4.17-2.48-6.61-3.89-8.78 1.68-1.36 2.63-2.1 4.54-4.01 24.17-25.68 10.41 19.67 42.6-23.64-41.35-20.71-36.96-20.48-76.79-4.93-14.97 5.91-26 8.78-37.23 13.18 12.76-39.72 9.6-11.82-.59-53.71 47.67 2.33 78.45-7.54 105.62-46.17-25.52-3.98-67 13.99-106.44 25.14 6.46-59.5-2.6-14.03 27.32-39.06 38.59-32.14 7.1 16.13 39.18-38.44-22.41-5.52-14.61 7.16-60.58 4.28l29.43-58.81-35.28-23.35c2.02-1.5 5.75-6.34 6.34-4.28l53.29-53.15-64.32-4.99c10.72-35.01 29.27-71.01 22.69-92.85-.86-2.44-11.97-24.32-15-39.06-8.94-44.07 2.17-33.89 3.19-73.23.82-41.62-9.2-41.74-15.39-81.45 2.33 29.69-10.46 53.16-11.67 55.51l-5.48 87.4c-1.8 16.33-2.33-6.75-.86 23.58l-3.15 94.66c-.43 1.51-1.8 4.51-2.22 6.02l-4.55 31.6c1.01 8.67 1.36 4.13 3.46 15.28l-62.11 79.27 66.06 8.36c-14.41 10.02-21.28 2.77-52.02 4.28 12.35 35.88-10.29 12.91 30.51 33.08l-48.22 21.72c48.64.54 51.76-10.14 65.08 20.98 9.37 21.72.71 17.22-36.25 25.72 36.25 21.95 34.49 2.18 51.8 32.69-45.76 2.48-64.59-9.32-81.07 17.45-18.55 30.4 5.21 28.72 26.65 46.92-26.23 16.59-10.14 9.87-49.31 9.31v.86l45.71 24.73c-33.23.97-35.43-1.36-45.71 5.06v12.24l63.57.59c1.25 2.89 2.77 5.64 4.7 8.36-6.86 5.48 8.19-6.19-16.36 4.4-1.24.53-27.06 7.57-35.05 10.84-5.22 15.98 10.88 7.42 1.51 21.61L-.18 713.65v28.84l11.55 8.43c-3.31.82-7.58.82-11.55 1.09v34.31c4.28 1.51 7.95 2.77 15.65 7.02L.91 807.05c-.27.11-.71.26-1.09.42v76.79c6.45 2.44 4.12 6.3 0 10.4v185.07c10.4-1.8 21.95-3.98 39.29-7.58-4.66 7.85-11.3 14.04-19.25 19.25-7.58 0-13.44-1.09-20.05-1.79 0 1650.74.11 3034.82.11 4681.17v3.58h16163.32V1218.95c-6.57.71-12.47 1.8-20.05 1.8-7.96-5.26-14.53-11.38-19.25-19.12 17.3 3.46 28.83 5.79 39.29 7.42v-185.06c-4.13-4.13-6.31-7.85 0-10.47v-76.79c-.38-.11-.82-.26-1.09-.42l-14.57-13.59c7.69-4.4 11.38-5.64 15.66-6.98v-34.35c-3.97-.23-8.24-.38-11.55-1.24l11.55-8.36v-28.83l-18.39-11.3c-9.37-14.15 6.72-5.49 1.51-21.42-7.96-3.46-33.81-10.29-35.05-11-24.55-10.57-9.49 1.13-16.37-4.39 1.95-2.77 3.42-5.49 4.66-8.4l63.58-.5v-12.23c-10.29-6.5-12.46-4.13-45.71-5.11l45.71-24.72v-.82c-39.14.53-23.04 7.31-49.31-9.2 21.57-18.28 45.16-16.48 26.65-46.84-16.48-26.98-35.32-15.12-81.07-17.46 17.3-30.51 15.55-10.72 51.8-32.88-36.96-8.36-45.64-3.97-36.25-25.64 13.28-31.2 16.48-20.33 65.08-21.02l-48.22-21.72c40.8-20.02 18.16 2.77 30.51-32.96-30.74-1.68-37.61 5.75-52.03-4.4l66.06-8.43-62.1-79.27c2.1-10.96 2.44-6.46 3.46-15.24l-4.55-31.6c-.42-1.51-1.62-4.4-2.22-6.08l-3.19-94.63c1.51-30.36 1.01-7.15-.82-23.46l-5.48-87.37c-1.25-2.33-14.04-26-11.71-55.65-6.19 39.71-16.21 39.82-15.39 81.45 1.02 39.29 12.09 29.16 3.19 73.26-3.03 14.69-14.14 36.68-14.97 39.14-6.61 21.73 11.97 57.73 22.7 92.72l-64.28 4.93 53.29 53.15c.59-1.91 4.28 2.93 6.34 4.4l-35.32 23.23 29.43 58.81c-46.06 2.89-38.21-9.64-60.58-4.28 32.02 54.69.59 6.5 39.18 38.59 29.92 25.03 20.86-20.48 27.36 38.89-39.45-11-80.96-29.16-106.48-25.14 27.2 38.58 57.98 48.64 105.62 46.13-10.18 41.93-13.33 14.19-.54 53.82-11.26-4.51-22.26-7.38-37.26-13.17-39.79-15.62-35.4-15.77-76.79 4.81 32.13 43.29 18.42-2.02 42.59 23.64 1.91 1.95 2.89 2.6 4.51 4.13-1.35 2.1-2.63 4.54-3.72 8.66l-1.36 5.26c-3.57-3.58-7.27-7.27-11.11-11.11-2.48 8.77 2.06 14.97 8.66 20.48l-2.21 8.89c-3.31 1.51-5.6 4.66-7.27 10.46-.12.71-.42 1.51-.54 2.22-3.15-2.77-3.72 5.48-.26 3.04-.12 10.02 6.57 19.51 13.44 27.47l-47.67 12.47c27.74 12.94 13.06 3.04 25.41 29.27l-50.02 22.26c40.8 29.81 18.96-7.57 42 35.72-30.78 8.07-68.39 15.39-93.97 28.99 7.99.82 27.74 3.03 48.64 5.36l-.11.16c-18.55 8.66-26.12 14.3-18.55 34.46-5.37 1.79-10.61 3.57-15.77 5.63 5.06 16.37 7.16 23.35 15.62 28.34-23.63-2.64-48.49-6.08-85.73 16.86 22.81 15.95 54.24 14.86 90 21.84-1.79 4.55-2.6 9.37-3.53 16.21 11.26.86 29.76-.27 44.07.98v9.64c-40.23 13.99-100.71 17.56-130.5 39.98 16.21 3.53 36.56 4.62 58.64 4.28l-2.89 8.78c-28.98 6.61-57.95 13.32-87.09 20.05 14.42 21.42 18.55 23.08 43.96 17.87 24.87-4.98 35.28 8.51 48.22 26.24 19.9-4.55 37.61-8.94 55.93-8.94 1.24 3.04 2.33 5.22 3.42 7.16-7.81 8.93-8.78 15.54-10.58 28.83 7.77 1.68 18.66 3.04 29.66 4.55v.27c-4.63.86-10.29.42-13.25.42-27.4 0-45.64-5.75-70.77-7.69-18.81-1.36-33.26 1.68-50.93 6.98-.86 4.99-5.11 38.36-6.62 40.15-3.68 4.4-89.73 45.05-91.47 47.14-4.93 6.46 9.16 20.16 16.75 22.81 19.25 6.72 50.55-2.44 76.83-12.35 6.45 2.6 14.26 2.77 26.5 1.91-1.28 4.82-2.37 8.28-2.89 12.24l-55.25 20.75c15.65 1.68 36.25 4.28 55.1 9.31-1.62 1.24-3.31 2.33-5.1 3.73 10.17 5.06 20.15 10.13 30.36 15.39-9.16.27-18.39 1.39-28.26 3.04-.27 2.48-1.13 11.59-2.22 20.86-6.3.15-12.79.42-18.96.86l-41.89 11.7c-2.07-2.77-6.61 3.31-9.64 5.22 4.66 10.29 12.08 17.99 21.45 23.79-27.85 9.87-58.37 20.33-59.34 21.42-5.75 6.46 11.38 24.43 20.33 28.56 11.97 5.64 27.74 6.72 44.37 5.49 8.25 18.96 38.21 21.57 59.08 25.85-2.33 8.07-4.81 16.21-7.27 24.32-29.12 7.15-58.37 14.26-87.67 21.25 11.26 19.4 17.99 27.47 41.07 21.45 24.32-6.19 35.05 5.07 47.14 24.17 5.37 8.36 1.12 6.69 14.3 3.73 5.06-1.24 10.14-2.37 15.24-3.31 2.77 3.04 4.39 5.91 5.48 9.09l-15.35 5.98c-17.46 5.41-36.26 7.42-54.28 10.73-8.67.86-16.9 3.3-26.24 6.07l-.11.27c-14.86 4.93-28.18 12.79-37.77 26.65 10.14 9.05 3.04 9.76 9.32 13.06-23.08 6.02-46.14 11.67-69.22 17.31 9.32 17.18 16.71 29.27 38.44 23.63 19.51-5.1 28.71-2.92 39.98 11.23-34.75 3.97-49.16 11.22-69.1 41.51l89.14 6.01c2.48 3.69 5.1 6.08 8.11 7.69 6.46 6.08 14.15 8.78 25.97 8.4-7.16 19.25 1.51 12.2-37.94 22.66-114.99 30.52-194.01 16.52-202.04 70.76 56.19 31.34 133.53 9.61 201.26 1.8.97 2.18 1.91 4.51 3 6.83-27.86 3.31-55.78 6.34-83.79 9.2 9.01 16.21 16.6 28.68 30.9 32.29-7.96 2.45-13.33 7.81-26.35 16.75 28.68 23.94 57.84 18.58 76.64 47.13-49.32 29.12-58.22 2.89-115.26-.53-44.23-2.77-86.12 18.43-105.93 56.15 39.14 15.13 94.51 50.03 140.03-1.35 16.48 18.54 1.51-1.95 11.71 17.18.82 1.69 1.2 7.27 2.44 10.14l17.57-4.47c11 5.9 20.33-.42 33.38.08-6.31 18.84-13.06 27.36-33.81 44.22-7.92 1.13-15.62 2.1-18.24 2.48 1.51 3.04 2.89 5.64 4.24 7.81-34.34 21.61-31.2-10.29-20.32 38.89-68.44-13.67-138.85-39.98-196.03 14.53-15.66-4.05-33.96-4.28-60.21-3.57-14.18.42-22.96 2.37-28.87 4.28-8.78-2.89-15.08-5.07-16.09-6.08-.83-.67-3.04-9.16-4.93-17.57l41.07-11.7c8.51-3.8 41.31-26.46 77.84-33.23 22.26-4.13 22.85-.67 44.81-7.96-17.45-3.86-31.98-6.19-44.66-7.69 6.87-2.88 17.72-12.67 13.44-17.45-1.51-1.68-78.03-33.66-81.45-37.27-1.2-1.2-5.1-27.74-5.6-31.6-15.81-4.28-28.87-6.61-45.35-5.52-22.37 1.51-38.59 6.02-62.64 6.02-6.98-3.98-12.91-8.9-17.03-15.09 48.34 8.67 49.73 10.84 107.57 4.24-17.46-19.67-13.29-14.68-29.92-18.43 10.13-11.97 19.78-20.32 39.82-16.86 22.49 4.13 26.24 2.89 38.99-14.03-25.81-5.22-51.64-10.58-77.46-15.77-2.92-7.92-5.79-15.78-8.66-23.64-.86-.27-1.68-.38-2.37-.5 21.95-.86 40.8-.42 58.81-12.23-29.66-18.55-56.31-25.03-79.83-29.58-1.36-2.45-3.42-4.89-6.5-7.81-5.06-5.21-15.94-11.11-4.77-14.14 14.64-3.86 20.33-6.2 24.17-12.47l31.49-.27-36.57-30.25c-.26-7.8-6.98-11.54-18.96-16.47-.67-.43-1.2-.54-1.91-.86l-12.91-10.69c15.78-7.96 15.78-5.11 34.9-12.8l20.87-9.87c1.28-2.77 4.81-2.17 6.9-3.68l-30.36-5.52c-4.32-.39-19.25.59-28.6-1.76l29.12-18.93-35.28-19.11c-8.25-11.27 5.9-4.51 1.35-17.08-7.15-2.6-30.07-8.07-31.16-8.66-21.95-8.36-8.4.86-14.57-3.46 1.63-2.18 3-4.39 4.13-6.57l72.4-.6c-27.89-17.03-15.39-12.46-56.42-13.55l42.16-20.24c-38.85.27-21.42 6.2-45.35-7.15 19.12-14.42 40.31-13.06 23.79-36.96-14.68-21.25-31.49-11.78-72.29-13.88 15.5-23.91 13.92-8.36 46.17-25.68-32.88-6.69-40.69-3.12-32.42-20.33 11.97-24.55 14.68-16.06 58.1-16.6l-43.02-17.07c36.41-15.94 16.1 2.22 27.25-26.12-27.48-1.24-33.55 4.55-46.44-3.3l58.77-6.72-55.07-62.49c1.69-8.66 2.11-5.1 2.93-11.97l-3.98-25.03c-.42-1.09-1.51-3.42-1.95-4.66l-2.77-74.61c1.25-24.06.67-5.75-.86-18.66l-4.93-68.83c-1.08-1.95-12.35-20.48-10.46-43.84-5.48 31.28-14.26 31.28-13.44 64.15.71 31.05 10.73 22.93 2.77 57.83-2.6 11.55-12.64 28.88-13.32 30.79-5.91 17.22 10.57 45.46 20.05 73.22l-57.13 3.86 47.36 41.89c.6-1.51 3.9 2.37 5.76 3.46l-31.45 18.39 26.08 46.33c-40.92 2.33-33.93-7.69-53.98-3.42 28.56 43.13.54 5.06 34.9 30.51 26.77 19.67 18.66-16.25 24.44 30.78-35.17-8.78-71.95-22.96-94.78-19.9 24.21 30.52 51.53 38.36 93.97 36.37-9.08 32.96-11.81 11.11-.42 42.45-10.02-3.58-19.78-5.75-33.07-10.46-35.59-12.24-31.76-12.47-68.39 3.86 28.56 34.07 16.48-1.59 37.89 18.69 30.94 28.99 10.29-21.72.67 10.02l-1.2 4.13c-3.19-2.88-6.34-5.79-9.87-8.78-2.22 6.83 1.91 11.82 7.81 16.21l-2.18 6.83c-2.72 1.25-4.99 3.73-6.35 8.4-.26.54-.26 1.09-.38 1.63-2.88-2.07-3.42 4.28-.27 2.48-.26 7.8 5.76 15.24 11.82 21.72l-42.33 9.76c24.72 10.13 11.55 2.33 22.49 23.08l-44.38 17.57c36.3 23.35 16.9-6.08 37.39 28.14-27.33 6.35-60.89 12.09-83.67 22.82 7.1.53 24.72 2.29 43.28 4.28l-.11.11c-16.48 6.72-23.08 11.26-16.48 27.21-4.66 1.35-9.37 2.71-14.03 4.39 4.54 12.91 6.49 18.32 13.91 22.26-21.01-2.1-43.13-4.66-76.23 13.48 20.33 12.35 48.34 11.55 80.09 17.04-1.5 3.57-2.21 7.42-3.3 12.79 10.02.7 26.61 0 39.29.86 0 2.44 0 5.06.12 7.57-35.88 11.11-89.74 13.88-116.24 31.61 14.57 2.88 32.58 3.57 52.35 3.3l-2.6 6.98c-25.81 5.26-51.64 10.58-77.49 15.78 12.79 16.9 16.36 18.16 39.02 14.03 22.11-3.86 31.49 6.69 42.87 20.75 17.72-3.57 33.51-7.02 49.73-7.02 1.21 2.37 2.22 4.16 3.04 5.67-6.83 6.99-7.69 12.2-9.37 22.78 7.02 1.24 16.63 2.22 26.5 3.46v.23c-4.28.53-9.16.26-11.97.26-24.28 0-40.65-4.5-63.02-6.01-16.63-1.09-29.54 1.24-45.39 5.52-.5 3.86-4.4 30.36-5.6 31.6-3.42 3.57-79.94 35.59-81.45 37.27-4.51 5.06 8.07 15.94 14.85 17.95 17.19 5.25 45.05-2.06 68.28-9.75 5.75 2.1 12.76 2.1 23.79 1.5-1.24 3.86-2.22 6.5-2.6 9.61l-49.24 16.48c13.92 1.08 32.29 3.3 49.09 7.27-1.51 1.01-3.04 1.94-4.55 2.88 9.09 4.01 18.03 8.11 26.98 12.24-8.28.11-16.25.97-25.18 2.18-.12 2.1-.98 9.2-1.95 16.48-5.75.11-11.38.42-16.86.86l-37.27 9.16c-1.8-2.33-5.91 2.48-8.67 4.01 4.13 8.07 10.85 14.26 19.08 18.66-24.72 7.84-51.91 16.1-52.89 17.03-4.93 5.1 10.29 19.25 18.17 22.55 10.69 4.39 24.72 5.21 39.56 4.28 7.27 15.01 33.88 17.03 52.62 20.48-2.22 6.34-4.4 12.79-6.5 19.08-26.08 5.64-52.03 11.26-78.03 16.78 10.02 15.24 15.94 21.73 36.52 17.04 21.61-4.99 31.05 3.8 41.93 18.92 4.78 6.61.94 5.37 12.64 2.89 4.51-.94 9.05-1.8 13.59-2.6 2.45 2.45 3.98 4.81 4.9 7.31l-13.71 4.66c-15.55 4.28-32.29 5.9-48.23 8.51-7.69.54-15.12 2.45-23.5 4.82v.11c-13.33 3.86-24.99 10.06-33.66 21.02 9.09 7.1 2.77 7.69 8.4 10.29-20.6 4.66-41.24 9.2-61.67 13.59 8.29 13.6 14.86 22.93 34.35 18.55 17.3-3.86 25.37-2.22 35.55 8.93-31.01 3.19-43.84 8.78-61.63 32.73l79.35 4.77c2.21 2.89 4.55 4.82 7.15 6.08 5.91 4.82 12.83 7.02 23.24 6.61-6.5 15.24 1.35 9.6-33.66 17.88-102.35 24.01-172.7 13.06-179.86 55.77 49.85 24.72 118.68 7.54 179 1.51.86 1.58 1.68 3.53 2.6 5.48-24.73 2.45-49.58 4.93-74.46 7.16 8 12.79 14.72 22.66 27.63 25.41-7.27 2.03-11.97 6.31-23.64 13.29 25.57 18.69 51.53 14.57 68.17 37.11-43.69 22.97-51.65 2.22-102.47-.53-22.34-1.17-43.96 3.65-61.71 13.48-10.96-2.85-20.16-4.4-31.94-3.61-16.79 1.09-28.84 4.54-46.88 4.54-5.26-3.03-9.64-6.75-12.76-11.3 36.26 6.5 37.35 8.11 80.48 3.19-13.1-14.85-9.91-10.95-22.26-13.71 7.58-9.04 14.69-15.39 29.69-12.67 17.04 3.04 19.64 2.1 29.28-10.62-19.41-3.97-38.74-7.92-58.15-11.93-2.06-5.9-4.28-11.7-6.3-17.57-.71-.15-1.28-.26-1.95-.42 16.48-.59 30.74-.27 44.07-9.2-22.22-13.88-42.16-18.66-59.73-22.1-1.13-1.8-2.64-3.69-4.81-5.91-3.9-3.86-11.97-8.24-3.58-10.46 11-3.04 15.28-4.78 18.16-9.45l23.47-.15-27.36-22.7c-.23-5.9-5.22-8.66-14.27-12.35-.38-.27-.97-.42-1.35-.54l-9.76-8.07c11.97-5.9 11.97-3.72 26.27-9.64l15.66-7.27c.86-2.06 3.58-1.68 5.1-2.77l-22.7-4.28c-3.3-.27-14.41.42-21.41-1.24l21.68-14.26-26.38-14.3c-6.19-8.4 4.54-3.27.97-12.8-5.22-1.95-22.37-6.02-23.35-6.46-16.36-6.19-6.15.67-10.84-2.63 1.2-1.51 2.29-3.15 3.19-4.93l54.24-.42c-21.01-12.64-11.58-9.37-42.48-10.18l31.76-15.12c-29.12.12-16.1 4.66-34.08-5.37 14.26-10.73 30.11-9.75 17.87-27.59-10.99-15.94-23.63-8.93-54.13-10.29 11.55-17.99 10.46-6.49 34.6-19.4-24.73-5.1-30.63-2.29-24.29-15.28 8.93-18.43 10.96-12.08 43.54-12.35l-32.14-12.91c27.21-11.81 11.97 1.69 20.16-19.4-20.49-.94-25.03 3.31-34.63-2.6l43.95-4.98-41.36-46.84c1.36-6.5 1.63-3.86 2.22-9.09l-2.88-18.66c-.27-.82-1.28-2.6-1.51-3.57l-2.11-55.81c.98-17.95.54-4.28-.59-14l-3.69-51.53c-.86-1.36-9.37-15.24-7.84-32.84-4.13 23.34-10.69 23.5-10.13 48.07.59 23.19 7.95 17.3 2.06 43.25-1.95 8.66-9.49 21.61-9.98 23.04-4.4 12.94 8.07 34.08 15.08 54.84l-42.75 2.88 35.43 31.49c.42-1.24 2.89 1.68 4.28 2.45l-23.46 13.88 19.52 34.63c-30.63 1.79-25.41-5.75-40.39-2.45 21.42 32.29.39 3.69 26.09 22.66 20.05 14.86 13.99-11.97 18.27 23.08-26.35-6.61-53.82-17.18-71.01-14.85 18.1 22.81 38.74 28.71 70.5 27.21-6.76 24.72-8.94 8.39-.42 31.87-7.43-2.77-14.86-4.4-24.73-7.81-26.65-9.16-23.79-9.31-51.26 2.92 21.42 25.53 12.24-1.24 28.41 14 23.12 21.72 7.69-16.21.42 7.58l-.82 3.03c-2.33-2.21-4.82-4.39-7.42-6.61-1.63 5.26 1.35 8.78 5.78 12.09l-1.5 5.21c-2.22.98-3.73 2.77-4.82 6.19-.11.42-.27.86-.42 1.36-2.06-1.68-2.45 3.15-.08 1.8-.15 5.9 4.4 11.38 8.86 16.21l-31.72 7.27c18.55 7.69 8.67 1.95 16.9 17.45l-33.26 13.06c27.2 17.57 12.67-4.54 28.03 21.17-20.6 4.67-45.64 9.05-62.64 17.04 5.36.42 18.58 1.79 32.29 3.15v.11c-12.39 5.11-17.46 8.4-12.39 20.33-3.54 1.09-6.99 2.22-10.47 3.31 3.31 9.75 4.67 13.71 10.29 16.75-15.65-1.68-32.29-3.54-57.13 10.02 15.28 9.37 36.3 8.7 60.06 12.83-1.21 2.71-1.63 5.48-2.45 9.6 7.58.53 20.05-.15 29.58.53v5.64c-26.98 8.36-67.19 10.46-87.13 23.79 10.88 2.06 24.48 2.6 39.18 2.44l-1.95 5.11c-19.25 3.97-38.59 7.92-57.95 11.93 9.49 12.68 12.31 13.59 29.27 10.61 16.48-3.04 23.46 4.93 32.14 15.55 13.17-2.78 25.03-5.41 37.23-5.41.86 1.79 1.51 3.19 2.33 4.28-5.41 5.25-5.9 9.04-7.16 17.07 5.37.97 12.47 1.68 19.79 2.6l.15.11c-3.3.6-6.98.27-9.08.27-18.11 0-30.36-3.46-47.14-4.55-12.31-.86-22.11.98-33.92 4.13-.54 2.89-3.42 22.7-4.4 23.64-2.44 2.77-59.76 26.65-60.84 27.89-3.42 3.86 6.07 11.97 10.99 13.44 12.95 4.02 33.81-1.51 51.27-7.27 4.28 1.51 9.48 1.63 17.68 1.09-.82 2.89-1.51 4.89-1.91 7.1l-36.81 12.35c10.46.98 24.17 2.6 36.68 5.49-1.09.67-2.22 1.51-3.31 2.17 6.72 3.04 13.44 6.08 20.16 9.05-6.16.15-12.2.86-18.81 1.84-.27 1.47-.83 6.83-1.51 12.31-4.28.11-8.51.27-12.64.54l-27.86 6.86c-1.39-1.62-4.55 1.95-6.5 3.04 3.04 6.19 8.11 10.73 14.27 14.04-18.55 5.9-38.86 12.08-39.56 12.79-3.86 3.8 7.57 14.26 13.59 16.74 7.96 3.43 18.43 3.98 29.54 3.31 5.37 11.26 25.41 12.79 39.45 15.28l-4.9 14.41c-19.4 4.13-38.89 8.4-58.41 12.51 7.58 11.38 11.98 16.21 27.37 12.64 16.21-3.58 23.34 3.03 31.45 14.26 3.57 5.1.7 3.97 9.48 2.22 3.38-.71 6.72-1.36 10.14-1.95 1.79 1.79 2.88 3.57 3.69 5.37l-10.29 3.57c-11.55 3.15-24.17 4.39-36.14 6.34-4.86.31-9.57 1.44-14.69 2.81-188.49-6.02-391.22-18.46-601.7-41.81 0 0-26.77 38.35-72.67 104.15l-1015.28 1085.96-10.76-.97c-5.64-20.72-10.73-37.98 5.59-77.33 5.22-12.79 13.88-25.53-2.63-10.29-30 27.63-27.82 57.09-36.41 84.57l-43.38-3.98c-4.47-20.78-19.29-84.1-22.59-85.31-5.6 11.23-1.91 39.45-.67 52.03.9 9.41.54 20.2-1.72 30.93l-31.56-2.96c.23-4.13.53-8.36 1.01-12.71 4.4-43.96-29.57-63.77-17.07-102.21 2.1-6.07-10.29 1.76-12.35 3.16-11.82 7.69-2.72 30.24-1.8 42.86 1.68 19.33-9.68 43.33-21.61 64.04l-32.92-3.12c-.53-18.61 9.64-39.14 15.51-56.55 11.22-33.66-7.43-43.25-17.46-70.86-9.04-25.18 21.42-34.23 7.54-31.64-31.99 6.34-29.77 24.44-22.78 44.82 11.71 33.65 7.16 72.52-9.86 104.97-.42.82-1.91 3.19-4.02 6.34l-39.86-3.8c-.04-8.32 2.21-16.79 7.34-26.16 13.18-24.05 24.29-42.6 33.66-68.12-20.48 32.96-49.47 38.43-63.88 68.12-2.14 4.36-5.03 13.56-7.39 23.24l-10.25-1.02c1.09-29.84 45.08-51.8 23.67-107.84-11.55-27.85-2.59-2.17-5.25 15.55-6.23 41.07-37.08 65.64-52.16 89.03l-7.88-.79-2.72-3.69c-15.27-21.41-16.9-40.65-1.12-63.34-14 12.39-20.64 37.38-20.16 53.74.11 3.61.11 7.27 0 10.96l-35.8-3.46c-8.32-10.32-17.53-19.82-20.67-34.15-4.99-22.37 21.72-47.52 39.71-62.6-3.19-.71-12.08 1.2-15.12 2.17-43.69 13.14-48.42 57.25-52.43 89.93l-25.07-2.41c-13.06-32.77-36.96-45.98-16.78-97.7 8.51-21.95 8.66-20.01-7.69-5.75-29.24 25.53-18.07 65.09-32.22 97.97l-34.82-3.31c-7.46-29.99-18.96-63.31-27.32-90.71-2.49-8.07-3.98 28.03-3.04 33.38 3.31 18.39 4.62 36.93.38 54.53l-26.16-2.4c-.11-7.85 0-14.8.35-18.81 3.42-42.09-25.03-52.24-11.38-95.76-3.19.94-11.97 8.63-13.77 11.23-4.66 6.61 0 35.16-.15 44.66-.04 8.82-8.11 33.42-16.36 54.91l-26.12-2.29c2.29-20.86 11.41-46.17 14.89-60.69 7.02-31.17-25.68-51.11-8.51-77.61 1.62-2.45 8.36-9.05 5.9-8.25-24.17 8.93-27.89 25.41-23.19 44.82 5.48 22.49 5.79 35.39 2.44 58.52-1.31 9.28-4.89 25.3-10.09 41.66-10.54-.89-20.72-1.75-30.63-2.56.23-.74.49-1.43.78-2.18 8.89-23.34 17.19-43.42 25.11-67.3 6.75-20.48 1.12-4.55-4.63 5.41-11.81 20.16-29.8 36.25-37.65 55.89-.49 1.2-1.24 3.57-2.14 6.68l-6.38-.46c10.65-27.93 26.23-61.97 6.46-95.75 5.48 26.08-4.01 56.75-15.54 81.45-1.91 4.02-4.21 8.44-6.69 13.1-50.86-3.8-90.79-5.94-118.19-5.94-38.74 0-74.99 3.15-111.81 8.47v-51.72s36.96 13.56 84.76-27.36c47.92-40.92 43.84-65.53 43.84-84.61 0-19.11-1.36-24.59 9.6-45.04 10.88-20.48-7.16-26.5-7.16-26.5s37.23-21.17 41.36-37.61c3.98-16.37 0-17.72-4.13-27.25-4.12-9.6 1.36-32.81 4.13-49.16 2.77-16.37 0-31.49 0-31.49s-9.6-3.97-6.83-21.84c2.71-17.72 10.84-23.08 9.6-42.16-1.35-19.25-17.87-40.91-17.87-40.91s-14.97-71.05-16.33-176.83c-1.36-105.73-34.94-183-58.26-241.64-23.19-58.68-72.4-105.09-82-113.32-9.6-8.11-83.4-51.8-83.4-51.8s-1.09-.12-2.89-.12c-2.18-2.02-32.73-31.71-34.08-42.15-1.35-11 57.44-118.84 61.56-143.45 4.16-24.55 9.64-47.67 1.35-99.61-8.24-51.95-132.71-124.17-196.98-122.85-64.28 1.4-108.1 69.64-108.1 69.64s-43.69-6.83-58.81-11c-15.01-4.17-76.57 32.69-56.05 64.15 19.08 31.45 86.83 64.15 86.83 64.15-.86 3.42-1.69 8.78-2.22 15.51-4.51 14.03-10.02 25.14-12.75 32.57-2.89 8.36 3.45 16.75 10.57 21.69-.27 40.8 2.33 85.2 9.2 95.33 5.49 8.29 36.93 10.29 42.45 25.3 1.75 5.1 4.51 13.77 7.42 23.2-36.56 9.48-48.45 26.65-48.45 26.65l17.3 31.6c-3.58 10.62-6.87 24.59-11.15 44.11-27.32 5.52-54.65 0-79.35 17.72-24.63 17.88-43.73 54.69-60.21 73.8-16.36 19.08-26 35.44-47.84 58.64-21.96 23.2-30.08 34.08-30.08 34.08s-53.48 71.01-75.28 90.23c-21.87 19.12-38.35 36.85-34.19 47.67 4.13 11-17.72 17.68-30.11 24.59-12.35 6.83-8.24-9.64-20.48 12.32-12.35 21.76 10.88 4.01-24.73 27.24-35.43 23.2-42.33 69.64-42.33 69.64s-15.16 4.12-30.11 14.97c-15.08 10.99-15.08 25.96-15.08 25.96s-77.92-9.6-106.79 50.56c-28.68 60.05-38.17 255.24-38.17 290.69 0 8.4 2.07 24.4 5.22 44.22l-395.5-836.63-5.75 2.77-5.76-2.77-498.44 1054.26-5.72-.23c-1.79-18.11-4.2-36.26-5.79-50.18-1.01-8.66-.15-24.43-5.75-6.98-7.02 21.29-7.5 39.29-10.76 56.23l-31.84-1.39c8.08-32.37-7.61-48.46 1.51-77.69 4.4-13.56 15.62-24.88-6.23-8.86-12.23 8.86-11.55 29.66-13.32 42.01-1.8 11.78-9.95 27.4-19.79 42.79l-34.15-1.62c6.27-12.32 13.59-23.83 17.8-31.42 20.15-36.14 6.15-35.83 4.39-68.01-1.51-26.23 29.27-40.11 10.96-32.73-34.59 13.6-26.23 39.18-27.86 62.91-1.2 16.9-10.46 43.21-23.31 68.28l-31.72-1.59c12.8-18.73 24.1-36.88 35.4-56.49 12.2-21.02 1.91-4.13-6.08 5.25-16.4 19.08-35.66 31.68-49.46 50.25l-6.58-.34c16.14-25.34 33.7-55.62 21.96-87.3.11 27.47-16.79 58.14-33.93 82.16-1.01 1.39-2.1 2.84-3.19 4.32l-35.66-1.95c2.48-7.77 6.65-16.18 12.9-25.72-7.38 8.66-12.46 17.15-16.32 25.53-15.01-.83-30.11-1.69-45.35-2.57 3.53-11.18 12.01-25.14 28.83-44.14 5.1-5.91 18.7-16.48 1.95-9.45-23.98 10.14-37.27 30.74-45.91 52.73-15-.89-30.07-1.75-45.31-2.67-1.87-13.44-.53-29.42 8.63-54.21 4.66-12.94 12.91-26.11-3.04-10.28-21.09 20.97-25.07 42.33-28.56 63.1-17.99-1.09-36.18-2.22-54.5-3.39-7.15-26.15-16.93-59.72-19.44-60.43-5.21 11.38-.38 39.56 1.24 52.06.31 2.3.54 4.74.71 7.24l-32.42-2.11c-3-36.33-30.9-54.79-20.79-90.15 1.8-6.19-10.29 2.06-12.2 3.38-11.59 8.4-1.62 30.4-.12 43.02 1.44 12.24-2.29 26.69-8.07 41.03l-41.11-2.81c2.97-11.18 7.31-22.33 10.29-32.5 9.87-33.92-8.93-42.86-20.05-70.07-10.02-24.88 20.05-35.05 6.34-31.87-31.75 7.38-28.87 25.52-21.17 45.6 10.77 27.4 10.62 58.63 1.32 87.2l-45.08-3.19.5-1.05c12.31-24.44 22.66-43.42 31.01-69.37-18.62 32.96-46.48 40.06-60.25 68.39l-9.31-.7c11.19-20.75 27.74-43.96 11.15-82.95-12.58-27.51-2.72-2.1-4.66 15.62-3.08 27.36-17.19 47.85-30.52 65.53l-41.47-3.08c-2.67-12.27 0-24.76 8.89-38.66-9.56 9.05-15.16 24.17-17.3 38.05l-1.68-.11c-12.94-16.6-26.35-33.62-40.15-50.9 6.75-8 14.41-15.35 20.94-21.21-3.31-.59-12.09 1.8-15.12 2.71-5.6 1.95-10.54 4.36-14.86 7.2-192.1-239.43-461.96-535.8-737.13-752.73-233.57-184.1-471.2-311.17-669.75-298.66-120.19 7.57-254.82 54.24-394.85 128.55l-2.06-3.04-16.48 11.55.7.97c-109.36 59.5-221.6 135.32-333 222.02-229.67 178.61-455.07 403.15-639.64 624.74-3.8-13.71-5.52-27.78-3.3-40.77-9.64 17.57-9.37 34.86-5.33 51.15l-8.78 10.65c-7.62-9.23-16.14-18.39-22.89-28.79-5.79-9.05-11.82-23.94-4.55-4.81 5.98 15.88 12.05 29.96 18.43 44.62l-9.68 11.89-14.3 1.51c-3.73-11.55-6.46-22.1-7.73-28.91-3.97-21.68-4.13-33.88.42-55.33 3.86-18.39-.27-33.92-23.79-41.51-2.29-.67 4.28 5.26 5.91 7.69 17.45 24.32-13.33 44.22-5.37 73.34 3.11 11.34 10.17 29.47 14.18 46.52-9.12 1.01-18.27 2.06-27.32 3.08-6.91-16.98-12.83-33.93-13.1-40.92-.53-8.78 3-36.14-1.79-42.16-1.8-2.29-10.46-9.37-13.44-10.02 14.41 40.65-12.39 51.26-7.69 90.67.19 1.72.38 3.97.59 6.65-9.01 1.09-17.99 2.21-26.94 3.3-1.95-13.17-1.09-26.8.86-40.45.82-5.11-1.8-39.15-3.9-31.49-6.23 22.73-14.45 49.58-20.56 74.91-13.44 1.76-26.77 3.5-40.06 5.34-8.85-28.34-4.43-60.29-30.03-80.77-16.21-12.94-16.21-14.85-7.31 5.6 18.47 41.89 3.8 57.43-7.81 81.49-10.17 1.47-20.36 2.96-30.47 4.47-4.89-29.02-13.81-63.39-51.65-73.19-2.92-.67-11.41-2.33-14.6-1.51 17.72 13.6 44.26 36.37 40.3 57.88-1.62 8.85-5.79 15.85-10.61 22.45-14.26 2.21-28.45 4.51-42.56 6.79v-2.22c-.31-15.5-7.31-38.85-21.13-50.02 14.57 19.16 15 36.22 4.05 55.07l-17.72 3c-16.14-19.79-41.67-41.28-48.31-76.16-3.19-16.52 4.55-41.07-5.63-14.42-17.38 50.18 18.88 70.27 25.45 95.53l-10.29 1.83c-2.22-7.15-4.59-13.48-6.38-16.78-14.86-27.48-42.87-31.76-63.66-62.23 9.87 23.91 21.02 41.07 34.5 63.35 4.43 7.27 6.91 14.08 7.69 20.71-13.02 2.41-25.97 4.82-38.78 7.31-1.62-2.21-2.77-3.9-3.15-4.51-17.45-30.11-23.04-66.65-13.06-98.83 6.08-19.51 7.58-36.67-23.35-41.51-13.33-2.06 16.21 5.53 8.25 29.54-8.67 26.39-26.12 36.18-14.15 67.46 6.3 16.4 16.86 35.62 16.78 53.4-9.98 1.99-19.94 4.02-29.84 6.02-12.68-19.78-25.41-43.21-24.52-62.18.5-12.09 8.52-33.51-3.19-40.54-1.95-1.09-14.03-8.11-11.97-2.48 13.33 35.91-18.54 55.66-12.79 97 .9 6.53 1.51 12.75 1.91 18.77-9.31 2.02-18.66 4.05-27.89 6.11-4.78-12.71-6.16-26.5-5.49-38.09.71-11.97 3.31-38.7-2.29-49.16-3.73 1.36-18.7 79.28-19.79 86.94-.3 2.21-.63 4.43-.89 6.72-10.96 2.49-21.88 5.03-32.73 7.62-17.65-29.5-9.2-63.43-44.7-93.46-16.37-13.88-7.54-2.07-2.07 9.79 18.85 40.99 11.34 56.75 6.35 80.06l-30.56-7.66c-9.9-25.85-24.59-52.81-54.64-62.68-16.48-5.48-2.77 3.58 2.6 8.67 23.27 22.37 31.71 37.27 33.38 49.39l-51.31-12.83c-3.3-4.74-7.27-9.52-12-14.26 3.72 4.81 6.79 9.31 9.31 13.59l-49.7-12.43.81.5zm920.99-79.2c-2.29-4.39-4.51-8.97-6.57-13.77 84.91-102.5 178.73-205.77 277.74-304.95l63.31 23.35c-113.91 103.29-217.99 206.63-286.49 293.96-15.55 1.39-31.05 2.88-46.4 4.39l-1.63-2.96.02-.02zm-15.47-2.96c1.02 2.45 2.07 4.89 3.08 7.31l-5.83.59c-.46-.94-.97-1.83-1.47-2.71l4.24-5.18-.02-.02zm3653.49 143.63c9.01-23.97 13.48-48.56 46.09-73.9 20.1-15.7 10.47-4.39 2.49 9.75-20.33 36.03-19.12 50.41-13.37 65.53 17.57.67 34.94 1.24 52.16 1.83 7.69-17.76 18.03-34.34 37.62-49.46 8.93-6.83 24.72-15.39 37.61-15.66 3.04-.12-13.18 12.2-14 12.91-18.39 16.17-36.37 33.3-36.44 53.04 20.75.67 41.2 1.28 61.4 1.87 4.24-11.23 10.91-22.66 23.27-34.42-10.25 13.67-15.09 24.76-16.02 34.63 17.03.46 33.84.94 50.48 1.32 66.54-45.91 127.35-88.95 127.35-88.95l24.59 28.56-23.31 20.75c8.97 7.81 17.27 18.43 23.31 16.17 11-4.12 23.24-12.31 23.24-12.31s8.24-5.52 12.31 4.13c4.13 9.45 6.83 12.24 6.83 12.24l43.73-13.6 61.66 13.6-77.49-42.37h-6.99v-3.81l-57.83-31.6s12.2-15.01 20.48-15.01c8.24 0 13.71 1.4 21.99-5.48 4.05-3.42 10.21-6.83 15.39-9.41v-61.82c-85.58-3.73-153.59-59.19-153.59-145.81 0-16.94 2.56-29.7 7.31-39.22-13.4-6.83-21.06-14.65-21.06-22.93 0-23.04 59.24-42.48 138.13-47.33-.12-1.09-.15-2.21-.15-3.49 0-18.03 12.5-30.36 29.42-33.66V3101.2l-483.73 1023.47c12.47.5 24.88 1.02 37.19 1.48l-.09.01zm-950.96-125.88c.98-1.09 2.03-2.14 3.12-3.19 15.77-14.86 15.66-16.75 7.96 5.52-.9 2.48-1.63 4.89-2.33 7.23 17.6 19.25 35.01 38.09 52.2 56.39 2.63-12.95 6.98-25.61 15.04-36.11-50.75-63.34-107.01-130.69-167.37-199.52-9.87 6.08-25.38 15.28-40.23 23.35 45.04 50.37 88.95 99.54 131.66 146.27l-.06.06zm87.83 44.7c-4.47 8.59-6.65 17.38-4.47 25.64.3 1.28.7 2.56 1.13 3.77l28.29 2.17c-8.15-10.4-16.48-20.94-24.99-31.6zM1870.39 2879.42l6.46-52.2c-131.32-1.13-262.13 20.75-383.26 70.34-33.69 13.81-66.92 29.5-100.11 46.99l39.91 17.96c30.97 18.65 34.9-.54 51.15 5.21 121.68-55.62 250.15-88.42 385.85-88.28zm-480.1 136.55c18.39-10.4 36.96-20.36 55.7-29.76l-35.24.07c-60.7-7.57-70.35-17.87-76.79 13.06 13.17-.67 29.12 7.16 44.33 12.51 4.78 1.68 8.75 3.04 12.01 4.12zm981.26-21.34 34.63-41.47c-13.17-6.34-26.65-12.68-40.38-18.66-146.2-64.32-308.99-103.02-471.64-106.9l-6.46 51.91c21.25.6 42.87 1.8 64.59 3.86 122.22 11.97 292.75 35.72 419.29 111.26h-.04zm48.23-31.01-33.56 40.27c.54.27 1.09.71 1.69.97 153.59 100.42 150.93 97.82 150.93 97.82s24.91-14.41 66.33-28.98c-55.07-41.25-121.01-82.74-196.83-119.39l11.38 9.31zm12353.19-230.26c12.91.38 23.5-.12 34.63-.27-14.26-3.42-28.83-9.05-38.35-12.51 1.51 6.62 2.88 9.76 3.72 12.8zm71.66-15.11c4.05 1.8 6.69 3.04 6.91 3.31 3.19 3.53-4.93 10.99-10.02 13.17 9.52 1.09 20.48 2.72 33.55 5.64-16.48 5.48-16.86 2.88-33.66 5.9-27.32 5.07-51.91 22.11-58.37 25.03l-20.44 5.75c35.58-3 73.72 7.43 111.1 14.04-9.6-38.7-12.35-13.56 18.16-30.67-1.24-1.62-2.48-3.69-3.72-6.15 2.22-.27 9.08-1.01 16.21-1.95 18.47-13.33 24.32-20.05 29.96-34.9-11.7-.42-19.94 4.51-29.69 0l-15.66 3.54c-1.13-2.33-1.36-6.72-2.06-8.08-9.09-15 4.12 1.09-10.46-13.59-10.14 10.14-20.87 16.06-31.8 18.96v.02zm7.88 98.6c-10.88 10.88-20.05 13.37-29.96 12.24-2.21 1.95-4.39 3.42-6.19 4.17-2.92 1.35-6.34 2.18-9.87 2.77-5.1 11.82-25.56 13.17-39.56 15.77l4.82 14.42c19.36 4.12 38.85 8.39 58.37 12.5-7.58 11.38-11.97 16.21-27.47 12.64-16.14-3.57-23.24 3.04-31.34 14.26-3.57 5.11-.71 3.98-9.52 2.22-3.39-.71-6.69-1.36-10.14-1.95-5.37 5.1-4.66 10.29-6.08 17.04 2.64.26 4.82.7 6.87.86 2.77.15 5.37.26 7.92.53 6.08 0 11.55-.67 20.64-2.45 11.37-2.17 20.09 0 30.89 2.89l1.32 4.17 24.51-.08c4.78-3.46 10.47-7.88 18.11-13.92 14.57-11.26 22.26-16.1 28.98-18.03-.67-1.09-1.2-2.18-1.91-3.3 11.11-.39 21.57-.23 32.69 0-14.14-4.63-14.97-10.14-18.27-22.07 13.71-3.19 27.47-6.23 41.07-10.06 7.54-2.22 17.3-4.78 26.08-8.67-25.57 4.02-51.91-3.19-79.54-36.14-9.6-11.55-12.91-1.79-25.26-.7l-7.31.97.15-.06zm76.68-206.21 2.22-.82c-3.16 0-5.11-.27-2.22.82m459.12-495.92c17.34.53 31.6-.15 46.44-.42-19.25-4.7-38.71-12.2-51.27-16.75 1.95 8.78 3.9 13.06 4.82 17.19l.02-.02zm112.17 104.97c-17.15 20.02-30.86 24.48-45.94 22.78-2.77 2.44-5.75 4.54-8.11 5.63-3.8 1.68-8.36 2.89-13.33 3.54-6.72 15.69-34.04 17.72-52.89 21.17 2.22 6.34 4.28 12.79 6.5 19.08 25.97 5.63 52.03 11.26 78.03 16.78-10.02 15.24-15.94 21.73-36.52 17.03-21.61-4.98-31.16 3.81-41.89 18.93-4.78 6.61-1.09 5.37-12.79 2.89-4.55-.94-8.9-1.8-13.44-2.6-7.16 6.98-6.35 13.88-8.08 22.81 3.42.42 6.46.86 9.16 1.09 3.58.11 7.16.27 10.58.71 8.11.15 15.54-.94 27.48-3.16 15.27-3.03 26.76-.11 41.35 3.86 2.89 9.16 5.91 18.43 8.78 27.75 26.12 5.9 52.07 11.81 78.19 17.3-8.36 13.59-14.97 22.93-34.35 18.54-19.36-4.39-27.21-1.68-39.14 13.18-12.24 15.16-1.24 12.67-25.56 7.99-11.11-2.22-20.45-3.72-31.72-4.13 7.42 3.16 15.01 6.02 22.55 8.78 3.19.23 6.3.5 9.48.83-.97.59-2.18.97-3.19 1.35 5.79 2.07 11.7 4.13 17.72 6.19l1.36.16-.08.26 1.47.54c-2.59 6.02-5.14 10.29-7.92 13.25 1.55-.86 3.16-1.72 4.78-2.68l94.51-40.91c35.44-13.33-17.99-9.76 42.6-14.69 5.79-45.9-24.88 27.9-4.13-37.9 38.21-14.72 38.21-14.72 71.17-43.84 16.21-14.3 25.14-20.33 32.58-22.81-.67-1.36-1.36-2.71-2.18-4.13 12.64-.53 24.17-.42 36.75 0-15.95-6.07-16.86-12.9-20.56-28.18 15.51-3.86 31.01-7.69 46.13-12.64 8.52-2.92 19.52-6.19 29.39-10.88-28.68 4.93-58.37-3.97-89.41-45.9-10.88-14.69-14.57-2.33-28.34-.98l-76.37 11.27c-65.94 9.75-11.11 2.06-35.39-1.51-24.48-3.62-32.18-6.02-39.14-6.83l-.06.09zm-89.2 273.23c-2.33 0-4.81-.16-7.57-.42-6.31-.63-11.74-.42-16.37.63 6.61 1.43 14.19 2.02 23.94-.16zm-3.8 28.52-3.61 2.22c29.81 7.58 63.02 9.6 93.04 15.66 22.37 41.62-44.55 3.97 3.53 39.14l6.65.67c7.35-2.33 19.08-6.02 37.31-12.16 28.18-9.6 57.59-23.35 81.89-21.96-11.93-54.8-29.81-36.84-141.49-23.35l-77.29-.15-.02-.06zm86.94 85.47c-2.34.11-4.93.04-7.73-.23-3.04-.31-5.6-.54-8.11-.54l-.6 2.89c5.68-.67 11.19-1.36 16.45-2.14v.02zm67.41 158.87c-1.05 2.37-2.44 5.18-4.31 8.67-34.9-6.35-24.88-10.58-61.9.66-1.95.6-10.29 4.4-11.42 4.82l-9.75 4.39c-9.37 3.31-8.93 4.51-17.99 5.76-4.93 4.39-9.49 9.37-14.3 13.88.15 1.51.15 2.92.15 4.39 3.86.23 7.27.67 10.02.98 15.55 2.06 28.03 8.07 40.65 15.27-15.23 11.38-30.36 23.2-45.46 35.02 2.21.53 4.28 1.24 6.19 1.79 8.03 2.29 16.25 4.32 24.44 6.27l-.39-.35c31.87-19.07 64.82-9.6 102.59-21.95 54.8-17.95 18.43-34.15 18.1-34.63-3.15-6.61-5.75-9.31-7.92-10.73.42-.97.67-1.35 1.09-2.48 4.66-.94 8.78-1.63 12.64-2.22-2.18-3.42-4.51-7.31-6.83-11.7 31.05.86 61.4 6.19 91.91 8.7 1.69-1.01 3.46-1.95 5.41-3.19-3.57 0-7.69-.11-12.68-.53.71-5.11 1.25-9.87 1.8-15.01.71-4.13 4.81-17.04-.27-14.53-17.95 8.89-14.8 19.51-40.23 13.59-18.81-4.28-35.05-7.42-51.8-10.29-11.45 2.33-21.24 3.35-29.65 3.42l-.08.02zm-69 112.56c-2.33 7.38-5.22 11.55-16.33 15.2 11.11-.23 21.42-.38 32.7 0-2.03 3.57-3.98 6.75-6.08 9.52 3.04 1.09 6.08 2.18 8.93 3.31 5.98 2.29 6.65 4.05 4.89 6.79 9.45-1.05 15.32-1.05 21.21-1.91-2.88-3.86-5.9-8.24-8.93-13.44 13.06.5 25.37 1.76 37.5 3.15l.86-.38c-11.63-5.87-36.53 2.56-74.77-22.22zm97.7-78.36c-10.17 24.73-9.87-6.07 0 0m141.17-844.43c-3.38 0-5.75-.27-2.44 1.09.86-.42 1.68-.71 2.44-1.09m-65.94 952.98-.23.11h.23zm-2611.9 1139.33c226.33-344.16 482.39-717.44 640.8-946.54l-891.73 953.77c-2.56 8.03-2.49 14.76-1.09 21.01l38.39 3.39c4.86-15.51 11.38-30.82 25.76-46.52-13.29 18.73-17.91 33.07-17.45 47.21l22.06 1.95c7.24-8.85 14.69-17.38 20.52-24.87 17.99-23.47 36.15-53.45 36.97-80.92 13.67 41.74-21.96 79.23-39.3 107.34l7.73.67c3.65-7.02 6.76-12.64 8-14.57 14.72-21.84 37-34.19 56.08-54.84 8.36-9.04 19.19-25.37 6.3-4.93-13.59 21.42-26.88 41.07-42.44 61.56-3.23 4.31-6.12 9.2-8.4 14.45l32.14 2.71c20.01-29.61 36.25-66.46 38.62-88.2 2.6-23.64-4.66-49.43 30.21-61.82 18.66-6.61-12.64 6.07-12.09 32.29.6 32.14 14.57 32.58-6.98 67.89-7.02 11.63-22.18 32.77-28.64 51.65l28.72 2.37c15.88-20.41 33.07-45.35 36.33-62.57 2.33-12.23 2.44-32.99 15.01-41.35 22.37-15.13 10.73-4.4 5.9 9.04-6.87 19.29-2.37 33.08-1.43 49.74v.08zm-9135.85-980.08c-.23-.26-.67-.42-.94-.53 1.51 0 2.33-.15.94.53m67.53 469.03c-.75.03-1.36.03-1.99 0 .23-2.33.12-5.26-.11-8.11l6.34 6.26c-1.43.54-2.88 1.13-4.32 1.76l.08.12v-.02zm18.24 62.6c2.77.27 5.21.38 7.69.53l-3.69 2.34c-1.68-.98-2.92-1.95-4.01-2.89v.02zm-297.31-799.92c-7.95.23-14.41-.12-21.28-.27 8.78-2.45 17.72-6.5 23.63-9.05-.93 4.82-1.79 7.16-2.29 9.37zm-139.7 1124.05c.53-1.13.97-2.22 1.51-3.58.59.42 1.24.98 1.79 1.36-.97.97-2.1 1.68-3.3 2.22m185.22-.56c14.68 1.21 16.36 9.49 17.72 25.57-15.55-6.08-26.77-6.61-21.96-21.33 1.36-1.35 2.89-2.71 4.28-4.24h-.03zm-110.5-28.83c-.67.54-1.95 1.76-4.66 5.64-17.3-1.51-10.14 5.37-13.33-8.93 4.55.97 9.05 1.68 13.92 2.33.5 0 2.29.42 4.13.97h-.06zm239.62-56.33c4.62-1.68 3 .12 2.29.12-.82 0-1.62-.12-2.29-.12m81.74-330.51-18.66-33.66zm0 0c-1.95 0-6.76-.16-4.55-.6 1.95-.42 3.86-.82 5.64-1.2-.42.53-.71 1.09-1.09 1.8m16.86 188.06c-6.46 1.36-13.84 3.86-17.95 4.02.23-1.8.23-4.02.23-6.35 4.39-.11 10.02.27 17.34 1.8.11.27.23.38.38.53m-5.9 22.11c3.19-.5 6.19-1.36 9.04-2.71-.11 1.2-.42 2.44-.53 3.8 10.17-6.02 11.41-7.65 23.46-5.48 4.4 16.9 2.89 4.54 6.61 22.37-19.25 4.28-13.06 3.3-18.46-1.09 0-.11-1.91-5.25-8.67-9.49.59 0 1.13-.15 1.68-.15-3.53-3.27-7.96-5.6-13.17-7.27zm-387.61 343.35-3.5-10.92c11.11 3.65 11 4.43 13.71 6.69l-10.21 4.24zm20.78-8.59c1.59-6.53 3.9-4.82 6.08-17.8-20.05-10.61-10.96-1.2-20.56-5.21l3.16-18.59c45.9-8.07 45.19 5.41 43.8-11.81-1.36-16.48-3.27 5.1-5.33-15.01l25.14 2.88c.27 2.37.42 4.82.67 7.2 6.5-1.25 11-3.16 15.01-5.41l31.2 3.57c10.46-24.32 11.97-15.27 26.35-37.38 30.07 7.58 41.66-5.64 42.04 26l.04 2.45c-62.37 25.6-120.67 49.66-167.55 69.1h-.04zm346.93-142.43c-27.25-13.14-86.82 7.69-116.51-5.87-.53-.3-1.09-.42-1.51-.7.71-.12 8.4-.83 11.97-1.92l3.42-2.1c7.43-.49 15.01-1.2 14.04-2.02-2.33-1.8 7.02-3.9 8.4-4.01 19.36-2.6 36.14-6.62 54.24-17.04-1.36-3.97-3.04-6.98-4.99-10.61 3.58-.67 7.16-1.21 10.88-1.8-3.19-2.44-4.81-3.15-8.7-4.39 15.7 0 21.61 2.37 32.29-11.82.38-.54.82-.98 1.13-1.36-4.55-1.76-10.18-4.39-15.16-4.93-2.6-.11-5.1-.42-7.27-.59 6.49-6.42 6.49-17.03 6.07-22.26 6.08-1.09 12.2-3.53 18.66-8.78 2.29-.23 5.1-1.2 8.51-3.04-.53-1.09-1.09-1.91-1.68-2.77 3.58-3.19 7.02-6.07 11-9.16.82-.71 5.9-4.01 5.9-5.1 0-2.18 0-3.97-.27-5.48 3.04.82 6.5 1.35 10.89 1.51 9.75.49 19.78-1.13 30.82-2.72 1.47 1.4 4.31 2.52 5.71 3.27 9.16 5.25 17.3 6.87 25.14 7.02-10.57 14.97 8.08 4.78-12.5 26.62-24.17 25.68-23.94-4.13-39.3 47.96 13.18 4.24 14.69 1.91 22.67 3.68l15.08 2.3c-28.49 11.45-58.37 23.57-88.95 36.02l.04.06zm139.08-173.4c-5.64 1.08-12.55 1.39-23.54-2.22 14.07-5.49 27.7-20.02 39.44-25.49 7.96 3.73 15.95 6.5 24.06 8.67-36.96 17.07-29.03-7.81-39.3 17.45-.23.53-.45 1.09-.66 1.59m-46.21-54.25c-12.24-.46-7.81-3.53-15.24-17.68l10.57-1.76c11.11-4.7 3.04 6.83 9.87-7.69-14.15-23.64-17.3.11-33.34-23.64 13.17-7.8 14.15-6.01 33.23-5.21l-.67-3.61c4.99-1.13 8.43-2.45 11.49-4.09 6.98 5.48 14.03 8.36 20.98 9.48-3.86 5.53-8.51 11.27-14.42 18.59l-22.54 35.66.06-.06zm-8.71-85.86-7.5.3.94-.59 5.64-.54.89.83h.04zm-5.83-13.79c-1.51-.5-3.07-.86-4.66-1.01v-1.21c-.38-10.73-1.72-15.73-4.28-18.23 6.15.7 12.68.97 19.63 1.43-2.44 7.99-5.75 11.3-7.8 16.9l-2.89 2.1zm-24.43-24.02c-3.9-.63-8.44-1.79-13.77-4.2 1.76-.08 3.42-.23 5.1-.54 2.72 2.03 5.64 3.54 8.71 4.74zm25.45-20.15h.07zm-6.08-56.6c-16.06-5.67 5.48-2.29-19.94-5.9-5.21-.67-7.92-.5-10.69-1.09 1.09-1.68 2.3-3.46 3.54-5.75-5.37.26-10.46.82-15.24 1.35l-.42-.15c4.01-2.18 11.93.15 23.71-5.45 4.28 4.55 5.45 6.08 17.53 9.13-.86.42-1.51.7-2.21.97 1.08 2.56 2.4 4.86 3.72 6.83v.04zm-15.85-29.84c-9.98-2.53-20.48-1.32-32.06-5.34-22.55-7.57-7.58-14.41-7.42-14.68 7.27-15.5 8.51 10.29 2.88-5.64-1.95-.42-3.72-.7-5.4-.82 1.01-1.51 1.94-3.15 2.88-5.1-12.64.42-25.11 2.71-37.61 3.69-.67-.38-1.51-.82-2.22-1.24 1.36 0 3.16-.12 5.1-.23-.15-2.22-.42-4.28-.66-6.46-.27-1.8-1.95-7.31.07-6.23 7.42 3.9 6.08 8.4 16.48 5.9 7.69-1.94 14.42-3.3 21.29-4.39 32.46 6.72 32.13-12.47 33.11-14.15l28.45 3.86c5.29-18.06 11.66-23.04 18.06-24.32 3.62 7.38 7.03 12.64 11.04 16.4-5.49 7.16-14.42 16.06-28.45 27.86-14.49 12.16-17.49 19.56-25.6 30.86l.07.02zm46.8-75.55c5.95-.19 11.71 1.2 16.48-3.31.04 1.84-.15 4.05-1.16 6.91-4.93-1.28-10.02-2.48-15.35-3.61h.03zm753.73-391.78c.42-.23.86-.38 1.28-.67-1.68 0-2.81-.15-1.28.67m-76.28 540c.04-.98.08-1.99.16-3l-3.19 3.11c1.05 0 2.06-.03 3.03-.11m-23.44 79.48c-3.15.12-6.19.38-9.05.54l4.4 2.88c1.76-1.24 3.27-2.33 4.62-3.42h.04zm346.2-932c9.37.23 17.07-.15 24.87-.26-10.13-2.89-20.75-7.69-27.43-10.58 1.09 5.6 2.06 8.24 2.59 10.88zm162.94 1309.46c-.71-1.36-1.2-2.72-1.8-4.24-.67.53-1.51 1.08-2.21 1.62 1.24 1.09 2.44 1.95 4.01 2.6zm-87.13-34.35c.71.71 2.37 2.1 5.52 6.61 20.02-1.62 11.67 6.35 15.36-10.28-5.22.97-10.58 1.83-16.06 2.48-.67.11-2.77.53-4.82 1.2zm-279.12-65.52c-5.37-2.07-3.46.11-2.77.11.97 0 1.95-.11 2.77-.11m-73.36-424.21v-.12l-.11.12zm-21.84 39.18c2.22 0 7.84-.12 5.37-.71-2.45-.38-4.51-.82-6.57-1.36.38.71.82 1.28 1.2 2.1zm-19.67 219.09c7.42 1.69 16.06 4.4 20.86 4.67-.26-2.18-.38-4.78-.26-7.43-5.22-.23-11.67.27-20.16 2.07-.15.26-.27.42-.42.67l-.02.03zm6.87 25.74c-3.73-.71-7.27-1.68-10.58-3.04.16 1.24.42 2.77.54 4.28-11.7-6.98-13.18-8.78-27.36-6.34-5.07 19.67-3.31 5.25-7.54 26.12 22.37 4.93 15.12 3.86 21.28-1.36.12-.15 2.34-6.08 10.14-10.99-.53 0-1.2-.16-1.95-.27 4.13-3.69 9.37-6.46 15.39-8.36zm57.47 175.77c.59-1.09 1.13-2.21 1.76-3.38-4.28-.67-8.4-1.24-12.64-2.06 3.57-2.72 5.64-3.58 10.02-5.1-18.31 0-25.18 2.88-37.61-13.71-.42-.6-.86-1.13-1.24-1.68 5.37-1.95 11.78-4.93 17.57-5.64 3-.23 5.9-.38 8.51-.54-7.58-7.69-7.58-19.93-6.98-26.08-7.2-1.24-14.31-4.16-21.88-10.17-2.6-.42-5.91-1.51-9.87-3.57.54-1.21 1.2-2.34 1.8-3.31-4.13-3.53-8.11-6.83-12.64-10.58-1.02-.86-6.91-4.81-6.91-6.01-.11-2.49 0-4.55.31-6.35-3.46.98-7.58 1.51-12.8 1.8-17.56 1.09-36.4-4.4-58.81-5.64-31.05-45.75-.26-2.48-33.07-19.78-7.19 17.03 2.88 1.51 0 15.77l-22.7-3.86c-28.18 2.45 15.62 4.13-6.72.82-3.2-.38-6.76-2.44-10.29-5.37v-17.87c-1.05.49-2.07.93-2.81 1.24-27.59 14.53-44.34 2.22-69.77-1.09 5.48 17.19 10.46 9.87 5.75 32.58-12.91-2.45-25.97-4.93-38.85-7.43-3 5.37-5.95 10.73-8.86 16.14 98.3 24.09 215.96 57.32 328.69 90.82l.06.02zm-214.2-143.06v-13.36c16.86-1.69 23.19 14.53 70.72-11.31-18.66-6.15-23.9 9.64-38.36-20.15 14.46-7.92 17.88-4.93 40.84-6.61-1.24-11.97.67-4.51-3.57-12.68l-9.37-9.76c28.33.16 18.85-.82 29.16-20.59l-12.24-2.18c-13.06-5.41-3.57 8.07-11.55-8.93 16.48-27.48 20.16.23 39.02-27.63-15.65-9.01-16.59-6.83-38.85-6.02l6.31-35.17 18.58.98c-4.13-2.6-7.96-6.34-11.3-12.09 4.54-2.59 9.2-5.06 14.68-5.59.15-.42.15-.98.15-1.36.08-2.49.19-4.74.35-6.72l-3.54 5.22c-24.28 1.51-44.78 7.31-64.15 6.34-5.64-.26-10.02-1.12-13.71-2.1.12 1.95.23 4.28.12 6.87 0 1.36-6.5 5.75-7.43 6.61-5.14 3.98-9.37 7.69-13.92 11.55a28 28 0 0 1 1.95 3.57c-4.28 2.3-7.8 3.54-10.73 3.98-8.24 6.61-16.06 9.75-23.9 10.99.86 6.72.86 20.06-7.54 28.45 2.89.27 5.87.42 9.17.67 6.34.71 13.48 4.02 19.4 6.19-.54.54-.94 1.13-1.36 1.8-13.59 17.99-21.17 14.97-41.07 14.97 4.82 1.51 6.99 2.6 10.88 5.64-4.51.7-9.2 1.35-13.76 2.18 2.44 4.7 4.66 8.43 6.34 13.63-23.12 13.17-44.37 18.27-68.98 21.45-1.8.23-13.48 2.89-10.73 5.22 1.35 1.09-8.4 1.95-17.72 2.45l-4.4 2.71c-4.51 1.39-14.15 2.22-15.24 2.37.67.27 1.36.5 2.07.94 39.98 18.31 122.69-12.64 153.74 10.99-14.42 3.98-12.35 1.63-25.53 11.26 6.08 5.49 15.81 5.22 24.17 6.35 9.16 1.24 16.14 3.34 21.29 8.97l.04-.06zm106.71-216.76 1.62-.2c-.15-1.01-.38-1.28-1.62.2m-64.9-33.23-13.52-2.56h-2.52c5.37 4.55.42 5.9 16.1 2.56zm-25.45-13.5c8.28-2.29 17.72-3.94 27.17-5.64-.71-1.87-1.62-4.98-3.15-10.88-15.51-2.77-17.04-.71-29.96 6.98.27-1.79.59-3.3.71-4.81-3.58 1.62-7.43 2.6-11.38 3.42 6.46 2.06 12.2 5.1 16.74 9.09-.82.11-1.5.22-2.17.38.74.46 1.43.93 2.1 1.43l-.06.02zm77.27-43.48c20.4-7.1-5.94-3.07 24.21-7.23 6.02-.82 9.2-.71 12.5-1.24-1.35-1.95-2.88-4.13-4.24-6.61 6.15.11 12.05.86 17.8 1.51l.42-.23c-6.23-3.31-20.48 2.44-42.87-16.48 15.13-9.49 30.9-4.82 48.94-11 26.23-8.78 8.77-16.86 8.77-17.03-8.62-18.32-9.98 11.97-3.42-6.61 2.22-.54 4.28-.82 6.2-1.09-1.09-1.68-2.18-3.54-3.42-5.75 14.85.26 29.42 3.03 43.95 4.24.82-.38 1.62-.94 2.6-1.47-1.63 0-3.73-.16-6.02-.27.27-2.45.5-5.1.82-7.54.27-2.06 2.33-8.4-.15-7.15-8.51 4.39-6.98 9.64-19.25 6.75-8.9-2.1-16.75-3.73-24.73-5.1-37.89 7.96-37.45-14.57-38.54-16.48l-20.68 2.81 2.22 12.54c-24.28-.93-25.37-3.42-42.33 6.61 20.48 30.36 24.44 0 42.48 30.08-8.66 18.54 1.63 3.8-12.46 9.75l-13.48 2.33c11.37 21.57.97 22.66 31.87 22.38l-10.29 10.72-.86 1.63-.04-.08zm-26.87-154.74c15.28-1.95 31.95-3.08 44.9-5.14 9.52-18.55-20.33-4.82 21.61-19.64 13.44-4.66 27.47-11.58 39.14-10.88-1.55-7.38-3.31-12.12-6.12-14.97-12.01 5.52-7.8-2.25-26.73-1.68l-86.11 16.1c-7.58 12.39-16.86 15.66-28.19 16.1 26.51 12.2 38.06-.79 41.51 20.13l-.02-.02zm33.78-75.17 29.42-13.21c16.86-6.72-8.66-4.99 20.33-7.31 2.71-22.81-11.97 13.77-2.1-18.96 18.31-7.27 18.31-7.27 34.07-21.69 7.85-7.15 11.98-10.14 15.55-11.42-.27-.66-.71-1.24-.98-2.06 5.91-.11 11.55-.11 17.57 0-7.69-2.88-8.07-6.34-9.87-13.88 7.43-2.06 14.86-3.86 22.11-6.31 3.97-1.35 9.2-3.15 14-5.52-13.71 2.49-27.9-1.91-42.72-22.81-5.25-7.27-7.02-1.09-13.59-.42l-36.41 5.63c-31.64 4.82-5.37 1.02-16.9-.66-25.81-3.98-12.64-5.11-42.75-1.36 28.72-42.45 66.81-26.77 103.44-19.25-5.1-24.29-6.61-8.51 9.76-19.25-.67-1.09-1.21-2.45-2.07-3.86 1.25-.27 4.99-.71 8.78-1.36 9.91-8.24 13.1-12.5 16.14-21.84-6.19-.42-10.73 2.89-15.98-.15l-8.4 2.33c-.54-1.51-.82-4.28-1.21-5.1-4.81-9.49 2.3.71-5.48-8.55-18.16 21.36-39.64 12.72-57.17 4.85-12.43 46.44-39.6-7.61-57.28 52.59l-35.99-4.93c-1.35 2.17-.97 26.61-42.16 17.98-8.78 1.48-17.18 3.16-27.05 5.49-13.18 3.19-11.55-2.6-20.87-7.39-2.71-1.39-.53 5.76-.26 7.92.42 2.6.7 5.37.93 8.11-2.44.12-4.62.23-6.46.23.83.75 1.8 1.28 2.78 1.84 15.94-1.4 31.6-4.28 47.8-4.82-1.2 2.49-2.29 4.55-3.53 6.5 2.06.27 4.28.53 6.61 1.09 7.27 20.19 5.75-12.64-3.54 7.15-.11.27-19.11 9.05 9.45 18.7 19.67 6.72 36.85 1.68 53.48 11.97-24.48 20.71-39.98 14.42-46.84 17.95l.38.27c6.35-.82 12.79-1.36 19.52-1.8-1.51 2.89-3.04 5.41-4.66 7.43 3.72.53 7.15.42 13.76 1.2 33.38 4.66 3.19 0 27.48 8.28 22.26 7.69 44.66 3.27 59.9 20.75l-38.05 12.79c2.88 1.05 5.98 1.95 9.16 2.81l-.13.04zm-171.71-563.02c-.42-.11-.82-.42-1.24-.53 1.8 0 3.04-.12 1.24.53m92.89 595.41c-3.73.42-7.15.67-9.64.53.27-2.88 0-6.57-.11-10.13l9.79 9.63zm15.95 80.21c3.45.26 6.72.53 9.86.7l-4.66 3.04c-2.06-1.35-3.86-2.63-5.21-3.72v-.02zM4250.3 2333.54c-10.06.38-18.43-.15-27.09-.27 11.26-3.15 22.7-8.39 29.96-11.55-1.13 6.08-2.22 8.93-2.89 11.82zm57.82 1427.37c18.58 1.51 20.75 11.93 22.37 32.43-19.67-7.69-33.81-8.4-27.86-27.06 1.95-1.8 3.69-3.57 5.49-5.37m-140.42-36.67c-.82.66-2.44 2.17-6.07 7.27-21.84-1.95-12.64 6.72-16.75-11.42 5.63 1.13 11.55 2.06 17.57 2.77.67.11 2.92.53 5.21 1.36zm304.42-71.59c5.9-2.21 3.73.12 2.89.12-.98 0-2.07-.12-2.89-.12m79.96-462.71h.12zm23.75 42.87c-2.33-.15-8.51-.27-5.75-.82 2.64-.38 5.1-.98 7.27-1.47-.5.67-.94 1.35-1.51 2.29h-.02zm21.46 238.93c-8.11 1.8-17.46 4.81-22.66 4.93.27-2.22.38-5.1.27-7.96 5.63-.27 12.63.27 21.95 2.22.15.23.27.53.42.82h.02zM459.27 2185.8c-2.77.04-5.56.11-8.39.19 2.37-.9 4.39-1.84 6.19-2.77.71.9 1.43 1.76 2.21 2.56v.02zm11-22.97 1.2-4.99c-15.5-3.86-31.01-7.8-46.13-12.79-8.51-2.77-19.52-6.07-29.42-10.84 28.68 4.93 58.37-4.01 89.41-45.91 10.84-14.53 14.53-2.33 28.29-.97l29.54 4.39c-3.8 2.53-7.69 5.6-12.08 9.45 5.21 3.73 10.46 7.43 15.5 11.15-24.17 7.27-51.26 9.16-75.7 14.93-17.8 38.93 34.12 5.3-.71 35.48l.1.09zm77.29-117.59c-16.48 3.42-33 7.42-49.43 10.69 2.1-9.41 3.9-15.85 5.21-20.24.83 1.09 1.69 2.26 2.53 3.54 10.02 14.42 1.09 12.08 20.86 7.54 8.93-2.07 16.6-3.42 25.81-3.86-1.68.82-3.3 1.58-4.98 2.37zm-86.04-40.38c-18.93-15.55-25.41-24.14-31.49-42.2 13.06-.59 22.34 5.75 33.38-.12l17.57 4.51c1.24-2.88 1.68-8.51 2.45-10.29 10.17-18.92-4.82 1.51 11.7-17.07 10.36 11.74 21.24 18.93 32.37 22.93-3.42.86-6.91 1.99-10.69 3.19-2.3 8.78-4.78 17.57-7.1 26.5-16.02 4.28-32.1 8.44-48.19 12.55h.02zm107.05-39.83c6.72-1.21 13.37-3.08 19.87-5.26.15 1.17.3 2.41.49 3.65-2.77.42-5.21.86-7.42 1.02-3.04.22-5.9.38-8.66.66-1.44 0-2.89 0-4.32-.07h.05zm-6.83-77.84c-10.49-2.22-21.45-3.04-32.53-2.33-57.02 3.3-65.95 29.54-115.27.53 18.16-27.7 45.95-23.71 73.61-44.74 6.02 3.19 11.82 3.8 17.84 2.96 2.22 2.45 4.66 4.4 6.61 5.37 3.19 1.63 6.83 2.89 10.84 3.58 5.53 15 27.75 16.74 43.02 20.05-1.39 4.81-2.77 9.71-4.16 14.57l.05.02zm-92.56-63.7c-1.58-.86-3.23-1.54-4.99-2.14.98-.22 1.92-.49 2.85-.82.71 1.02 1.43 2.03 2.14 2.96m15.97-17.97c3.38-4.73 6.57-10.25 9.94-16.28-28.03-2.89-55.93-6.08-83.78-9.2 1.12-2.45 2.06-4.78 3.03-6.83 54.76 6.22 115.72 21.68 166.81 10.84-1.36 6.91-2.85 13.29-3.42 13.88-.86.97-5.91 3.04-13.06 5.75-4.82-1.79-11.97-3.69-23.64-4.13-25.22-.74-41.51-.26-55.88 5.98zm36.69-84.16h-.12c15.51-4.51 31.42-11.67 41.59-16.06-1.68 8.4-3.19 12.39-4.01 16.37-13.92.59-25.38-.12-37.42-.27zm-88.57 104.84c3.46-.15 5.75-.27 2.48 1.09-.86-.42-1.68-.82-2.48-1.09m844.74 841.28c-.54-.12-.94-.42-1.36-.54 1.95-.15 3.19-.15 1.36.54m-279.96-354.85c-10.58.42-19.25-.12-28.3-.27 11.67-3.31 23.64-8.78 31.34-11.97-1.36 6.19-2.45 9.31-3.04 12.24m-1.63-147.4c-3.34 2.02-6.79 4.28-10.29 6.83 10.89 8.36 22.38 8.24 35.88 8.66-.59.12-1.13.27-1.68.42-1.63 5.6-3.42 11.23-5.11 16.87-15.77 3.72-31.6 7.57-47.36 11.37 7.8 11.97 10.02 12.95 23.9 10.02 12.24-2.59 17.99 3.43 24.17 12.09-8.19 2.14-8.03.15-13.48 7.06l-1.62.08c-41.36 2.63-47.96 22.37-83.52.53 13.6-21.57 34.59-17.57 55.51-35.43-9.49-6.72-13.33-10.85-19.25-12.79 10.61-2.6 15.94-12.09 22.54-24.17-20.33-2.22-40.53-4.55-60.73-6.99.86-1.79 1.51-3.53 2.22-5.21 25.41 3.07 52.77 8.93 78.85 10.57l-.04.08zm44.86 81.03c5.75-.97 12.35-2.48 22.03-4.51-2.6 4.4-6.02 7.81-10.29 10.73h-.82c-3.46-2.33-7.16-4.4-10.96-6.19l.04-.04zm-102.13 52.18c-3 1.59-4.93 2.68-5.1 2.92-2.64 3.31 3.97 10.41 8.24 12.47-1.68.19-3.34.42-5.1.71-3.65-4.99-6.02-10.1-8.39-17.19 3.8-.15 7.19.5 10.32 1.09h.02zm9.58 28.26c4.51 1.43 8.9 3.27 13.02 5.22-2.36-.35-5.36-.79-8.47-1.25-1.62-1.39-3.15-2.67-4.55-3.97m17.15 7.27c11.7 6.15 20.71 13.1 23.98 14.8l25.03 8.39-.5 2.41c-12 2.6-24.09 5.64-36.06 8.11 7.84-36.92 10.06-13.06-14.8-29.27.86-1.32 1.63-2.77 2.41-4.47l-.06.02zm-7.19 71.11c1.32 1.35 2.71 2.33 3.93 2.92a25.2 25.2 0 0 0 8.12 2.6c4.12 11.22 20.71 12.64 32.29 15.12l-4.02 13.71c-13.76 3.5-27.51 6.94-41.39 10.4.38-1.68.82-3.46 1.28-5.48-11.26-2.89-22.38-5.75-33.42-9.53-6.3-2.17-14.15-4.62-21.25-8.18 17.53 3.15 35.63-1.21 54.46-21.61v.06zm-3.69 52.19c4.43 6.65 8.82 8.98 18.81 6.23 13.18-3.42 18.93 2.89 25.53 13.77 2.88 4.78.53 3.69 7.69 2.06 2.88-.66 5.63-1.35 8.36-1.91 4.28 4.93 3.9 9.87 4.81 16.33-2.1.27-3.86.59-5.48.86-2.22.15-4.4.27-6.5.42-2.02.04-4.01-.08-6.11-.34-2.72-2.41-5.79-5.26-9.41-8.59-11.82-10.88-18.16-15.39-23.64-17.34.54-.98 1.09-1.91 1.51-3.04-9.04-.38-17.45-.23-26.5 0 5.87-2.33 8.93-4.89 10.88-8.4l.04-.04zm9.87 348.13.38.42-.11 1.05zm-31.76-609.94-1.75-.86c2.44 0 4.12-.22 1.75.86M8433.1 3498.23c111.14 110.02 217.63 228.05 318.32 340.66 13.77-7.53 29.54-16.86 40.38-23.46-99.61-112.79-210.04-229.14-325.31-337.51-8.07 4.93-21.57 13.33-33.38 20.33l-.02-.02zm-315.52-271.6c103.29 73.53 203.76 162.14 300.72 257.18 10.73-6.49 23.79-14.41 33.11-20.19-69.96-65.24-141.64-127.47-213.63-184.21-34.63-27.36-69.52-53.44-104.15-77.92l-16.1 25.15h.06zm-510.8-199.98c169.79 5.21 335.33 78.41 494.28 188.49l16.1-25.15c-180.68-125.14-358.55-206.78-512.56-205.62l2.18 42.33zm-386.56 116.02c123.67-80.88 246.04-116.2 366.4-116.35l-2.21-41.35c-.83 0-1.63 0-2.45.11-116.89 7.31-247.99 52.73-384.65 125.06l22.93 32.54h-.02zm-384.67 297.86c157.86-129.14 293.29-231.89 336.16-264.08 10.61-7.92 21.17-15.65 31.6-22.77l-23.86-34.08c-108.82 59.08-220.9 134.78-332.24 221.33-17.57 13.6-35.17 27.59-52.74 41.78l41.07 57.84h.02zm-274.6 234.49c85.03-76.53 174.88-152.62 259.1-221.82l-41.07-57.73c-96.58 79.13-191.64 165.56-282.45 255.68l64.44 23.9zm3746.16 328.04 61.98 12.83s89.25 84.22 140.37 120.63c80.96-1.05 155.91-3.08 225.36-5.9-.31-6.12-1.24-25.82-1.24-41.63 0-11.41-12.99-76.67-23.51-135.24l-402.96-852.57v550.32c19.56 1.44 34.79 14.42 34.79 34.35 0 1.24-.04 2.41-.19 3.46 78.85 4.85 138.12 24.28 138.12 47.32 0 8.29-7.65 16.14-21.13 22.97 4.89 9.53 7.53 22.22 7.53 39.18 0 88.49-70.97 144.46-159.14 146V4003l.02.04zm948.28 82.24c-83.17 12.2-180.47 23.54-297.34 32.5-1.76-31.95-4.01-74.12-5.52-105.36-2.71-57.28-11-98.24-6.83-126.93 4.13-28.72 10.84-31.49 4.13-46.44-6.83-15.01-16.48-31.28-16.48-31.28l2.77-42.49 38.32 31.45s-4.13 21.84 8.24 21.84c12.24 0 35.59-2.77 46.48 0 10.96 2.72 6.83 19.08 41.07 27.36 34.15 8.08 34.15 3.98 56 10.85 21.99 6.83 16.48 9.64 42.48 15.12 26.01 5.37 58.82 8.07 58.82 8.07s-6.84 46.44-1.36 86.04c5.52 39.52 27.36 88.72 27.36 88.72l1.99 30.55-.12-.01z" />
</svg>